<?xml version="1.0" encoding="UTF-8"?>
<svg version="1.1" xmlns="http://www.w3.org/2000/svg" width="1024" height="1024">
<path d="M0,0 L2,2 L11,35 L16,40 L40,47 L51,50 L51,52 L15,62 L12,63 L9,74 L2,101 L0,103 L-10,66 L-14,62 L-38,55 L-49,52 L-49,50 L-17,41 L-11,38 L-6,22 Z " fill="#000000" transform="translate(664,79)"/>
<path d="M0,0 L2,2 L14,46 L18,54 L27,58 L72,70 L70,72 L23,85 L17,87 L14,96 L6,126 L2,141 L0,142 L-13,94 L-16,88 L-24,84 L-68,72 L-70,70 L-29,59 L-18,55 L-15,52 L-11,41 Z " fill="#000000" transform="translate(786,101)"/>
<path d="M0,0 L5,2 L25,17 L43,29 L65,42 L82,51 L106,62 L141,75 L170,83 L197,89 L234,95 L236,98 L239,120 L241,154 L241,182 L239,217 L235,248 L228,284 L221,310 L210,342 L199,367 L186,392 L174,411 L160,430 L149,443 L142,451 L122,471 L111,480 L96,492 L76,506 L47,523 L25,534 L4,543 L-4,542 L-24,533 L-45,523 L-69,509 L-91,494 L-104,484 L-117,473 L-130,461 L-143,448 L-152,437 L-162,425 L-173,409 L-186,388 L-198,365 L-208,341 L-218,313 L-227,279 L-233,248 L-237,215 L-239,176 L-239,161 L-237,122 L-234,99 L-232,95 L-194,89 L-163,82 L-133,73 L-106,63 L-82,52 L-57,39 L-36,26 L-19,14 Z M0,40 L-20,54 L-41,67 L-59,77 L-88,91 L-117,102 L-142,110 L-170,117 L-202,123 L-205,125 L-206,136 L-207,162 L-207,177 L-205,213 L-202,239 L-197,267 L-191,292 L-183,318 L-172,346 L-161,368 L-149,388 L-139,402 L-128,416 L-118,427 L-111,435 L-104,442 L-93,451 L-84,459 L-65,473 L-46,485 L-24,497 L-1,508 L6,507 L40,490 L61,477 L74,468 L87,458 L100,447 L112,436 L122,426 L131,415 L143,400 L153,385 L164,366 L172,350 L180,332 L190,304 L197,278 L203,247 L207,217 L209,183 L209,155 L207,124 L199,122 L168,116 L144,110 L108,98 L84,88 L55,74 L28,58 L12,47 L3,40 Z " fill="#000000" transform="translate(511,137)"/>
<path d="M0,0 L5,2 L23,14 L42,25 L69,39 L100,52 L133,63 L159,70 L184,75 L185,76 L186,88 L186,115 L184,146 L180,177 L173,210 L164,241 L153,268 L144,287 L132,307 L120,324 L111,335 L99,348 L85,362 L74,371 L61,381 L43,393 L24,404 L8,412 L2,415 L-4,413 L-24,403 L-46,390 L-60,380 L-73,370 L-88,357 L-104,341 L-113,330 L-123,317 L-134,300 L-143,284 L-154,261 L-164,234 L-172,205 L-179,169 L-183,132 L-184,112 L-184,89 L-183,76 L-171,73 L-141,66 L-112,57 L-90,49 L-65,38 L-39,25 L-19,13 L-1,1 Z M92,118 L84,126 L77,134 L63,149 L54,159 L43,171 L32,183 L23,193 L14,203 L2,216 L-7,226 L-16,236 L-20,238 L-37,221 L-44,213 L-55,202 L-62,194 L-71,185 L-78,191 L-103,216 L-97,223 L-84,236 L-77,244 L-63,258 L-56,266 L-41,281 L-34,289 L-21,302 L-20,304 L-16,303 L-3,289 L4,281 L16,268 L23,260 L37,245 L48,233 L60,220 L67,212 L81,197 L90,187 L102,174 L113,162 L124,150 L123,146 L115,139 L108,132 L100,125 L93,118 Z " fill="#000000" transform="translate(511,205)"/>
<path d="M0,0 L2,4 L11,36 L12,40 L23,43 L51,51 L49,53 L17,62 L12,65 L7,81 L1,103 L-1,101 L-9,71 L-12,64 L-18,61 L-48,53 L-50,51 L-15,41 L-10,36 L-2,7 Z " fill="#000000" transform="translate(834,252)"/>
<path d="M0,0 L23,0 L37,4 L48,11 L56,20 L61,31 L62,37 L62,45 L58,58 L51,67 L43,75 L35,82 L22,94 L12,103 L4,110 L-10,122 L-20,131 L-31,140 L-45,152 L-56,161 L-71,173 L-89,186 L-107,199 L-124,211 L-147,227 L-163,238 L-178,248 L-194,255 L-211,259 L-239,259 L-262,254 L-352,231 L-384,223 L-398,223 L-414,230 L-420,234 L-422,234 L-434,215 L-434,212 L-415,202 L-402,198 L-395,197 L-386,197 L-370,200 L-296,219 L-241,233 L-235,234 L-216,234 L-200,230 L-184,222 L-164,208 L-148,197 L-125,181 L-108,169 L-90,156 L-80,148 L-64,135 L-50,123 L-39,114 L-28,104 L-17,95 L-5,84 L3,77 L13,68 L23,59 L33,50 L36,45 L36,36 L30,29 L19,25 L4,25 L-9,29 L-21,36 L-32,44 L-53,58 L-78,75 L-108,95 L-107,113 L-110,127 L-116,138 L-122,145 L-130,151 L-140,156 L-153,159 L-309,159 L-316,155 L-318,151 L-318,142 L-313,136 L-308,134 L-151,133 L-141,128 L-136,122 L-133,115 L-133,104 L-136,96 L-143,89 L-150,86 L-156,85 L-262,84 L-279,81 L-296,76 L-325,62 L-344,54 L-361,50 L-369,49 L-402,49 L-420,52 L-436,57 L-448,62 L-463,71 L-505,99 L-508,100 L-521,80 L-516,76 L-472,47 L-458,39 L-442,32 L-425,27 L-406,24 L-391,23 L-378,23 L-358,25 L-337,30 L-321,36 L-296,48 L-282,54 L-265,58 L-257,59 L-151,60 L-139,63 L-129,68 L-121,74 L-104,62 L-80,46 L-49,25 L-28,11 L-12,3 Z " fill="#000000" transform="translate(759,647)"/>
<path d="M0,0 L9,1 L14,5 L26,24 L39,44 L53,66 L66,86 L77,103 L88,120 L103,143 L119,168 L133,190 L134,192 L134,201 L127,209 L111,219 L84,237 L75,242 L66,242 L60,238 L49,221 L33,196 L16,170 L2,148 L-16,121 L-27,103 L-37,88 L-53,63 L-60,52 L-61,44 L-58,38 L-49,31 L-30,19 L-4,2 Z " fill="#000000" transform="translate(201,712)"/>
</svg>
