<?xml version="1.0" encoding="UTF-8"?>
<svg width="24px" height="24px" viewBox="0 0 24 24" version="1.1" xmlns="http://www.w3.org/2000/svg" xmlns:xlink="http://www.w3.org/1999/xlink">
    <title>snapchat</title>
    <g id="snapchat" stroke="none" stroke-width="1" fill="none" fill-rule="evenodd">
        <path d="M12.126,22 C12.069,22 12.016,21.9968046 11.974,21.9946743 C11.941,21.9978697 11.907,22 11.874,22 C10.684,22 9.887,21.4003302 9.185,20.869894 C8.681,20.4917718 8.206,20.1338872 7.649,20.0348298 C7.382,19.9868989 7.112,19.9634659 6.842,19.9624008 C6.465,19.9666613 6.089,20.0124621 5.721,20.0976727 C5.581,20.1317569 5.439,20.1541247 5.296,20.1615807 C5.179,20.1615807 5.036,20.1349523 4.977,19.9187304 C4.93,19.7483091 4.897,19.5832135 4.863,19.4245087 C4.782,19.0272141 4.723,18.7843638 4.583,18.7619961 C3.09,18.5159504 2.207,18.1548703 2.031,17.7171007 C2.014,17.6734303 2.003,17.6265644 2,17.5786334 C1.993,17.4486872 2.08,17.3336529 2.201,17.3123502 C3.387,17.1035842 4.441,16.4357459 5.336,15.3269425 C5.769,14.793311 6.129,14.1979017 6.405,13.5566917 C6.406,13.5524312 6.408,13.5481706 6.41,13.5449752 C6.583,13.1721787 6.617,12.8505086 6.513,12.5884859 C6.32,12.1038505 5.683,11.8886936 5.261,11.7470309 C5.156,11.7108164 5.057,11.6777973 4.978,11.6447782 C4.605,11.4871385 3.989,11.1548171 4.071,10.6957448 C4.131,10.3612931 4.546,10.1290941 4.882,10.1290941 C4.966,10.1269638 5.05,10.1450711 5.127,10.1812856 C5.507,10.3708793 5.848,10.4656761 6.141,10.4656761 C6.506,10.4656761 6.683,10.3186878 6.725,10.2760824 C6.714,10.064121 6.702,9.85215956 6.689,9.64019811 C6.604,8.18842201 6.496,6.38195665 6.93,5.34558236 C8.229,2.24498056 10.981,2.00426053 11.795,2.00426053 C11.929,2.0031954 12.063,2.00213027 12.197,2 C13.012,2 15.771,2.24178516 17.07,5.34451723 C17.504,6.37982638 17.397,8.18842201 17.311,9.64126325 L17.307,9.71049688 C17.295,9.90754647 17.284,10.0950099 17.275,10.2760824 C17.315,10.3154924 17.477,10.4507642 17.805,10.464611 C18.084,10.4539596 18.406,10.3580977 18.76,10.1812856 C18.858,10.1354849 18.965,10.1131171 19.073,10.1152474 C19.195,10.1152474 19.315,10.1397454 19.429,10.1876764 L19.435,10.1908718 C19.735,10.3037759 19.932,10.5306492 19.937,10.769239 C19.939,10.9918517 19.785,11.3241732 19.022,11.6447782 C18.944,11.6777973 18.844,11.7108164 18.738,11.7470309 C18.316,11.8897587 17.68,12.1049156 17.487,12.5884859 C17.383,12.8505086 17.417,13.1721787 17.59,13.5449752 C17.592,13.5481706 17.593,13.5524312 17.595,13.5566917 C17.648,13.6887682 18.933,16.8096075 21.799,17.3123502 C21.92,17.3336529 22.007,17.4486872 22,17.5786334 C21.997,17.6265644 21.986,17.6734303 21.968,17.7171007 C21.794,18.1538052 20.911,18.5148852 19.417,18.7598658 C19.276,18.7822336 19.218,19.0240187 19.137,19.419183 C19.104,19.5821484 19.069,19.7429834 19.022,19.9102093 C18.994,20.0571976 18.867,20.1583853 18.728,20.1466688 L18.704,20.1466688 C18.561,20.140278 18.419,20.1211056 18.279,20.0891516 C17.91,20.0071364 17.535,19.9645311 17.158,19.9624008 C16.888,19.9634659 16.617,19.9868989 16.351,20.0348298 C15.795,20.1338872 15.319,20.4907067 14.817,20.8688289 C14.113,21.4003302 13.316,22 12.126,22" id="v" fill="#000000"></path>
    </g>
</svg>