<?xml version="1.0" encoding="UTF-8"?>
<svg version="1.1" xmlns="http://www.w3.org/2000/svg" width="1024" height="1024">
<path d="M0,0 L27,0 L54,2 L80,6 L102,11 L126,18 L148,26 L174,38 L196,50 L217,64 L229,73 L239,81 L253,93 L277,117 L286,128 L298,143 L314,167 L326,188 L338,213 L347,236 L355,262 L358,276 L343,284 L333,293 L326,304 L322,314 L321,318 L320,368 L301,368 L301,347 L299,319 L295,293 L288,267 L281,247 L272,226 L263,209 L253,193 L243,179 L232,165 L218,150 L206,138 L195,129 L178,116 L159,104 L136,92 L118,84 L91,75 L65,69 L34,65 L-6,65 L-32,68 L-60,74 L-93,85 L-117,96 L-135,106 L-150,116 L-162,125 L-172,133 L-182,142 L-194,153 L-203,163 L-216,179 L-232,203 L-242,221 L-251,240 L-260,265 L-267,291 L-272,323 L-273,336 L-273,368 L-271,389 L-267,412 L-261,435 L-255,453 L-244,478 L-235,495 L-223,514 L-211,530 L-200,543 L-188,556 L-174,569 L-160,580 L-145,591 L-121,605 L-105,613 L-80,623 L-57,630 L-28,636 L-10,638 L18,639 L39,638 L62,635 L88,629 L111,622 L132,613 L148,605 L166,595 L182,584 L195,574 L209,562 L229,542 L238,531 L252,512 L261,497 L272,499 L319,500 L320,501 L320,529 L314,540 L299,562 L287,578 L287,580 L295,587 L304,597 L312,604 L318,611 L322,609 L331,603 L337,601 L348,601 L358,606 L483,731 L491,738 L493,742 L497,744 L506,755 L512,768 L515,782 L515,796 L511,812 L505,824 L496,835 L485,844 L473,850 L462,853 L455,854 L444,854 L430,851 L414,843 L401,831 L267,697 L263,690 L262,685 L262,678 L265,670 L271,661 L271,657 L240,626 L232,632 L215,645 L196,657 L175,669 L154,679 L131,688 L109,695 L85,701 L62,705 L45,707 L28,708 L0,708 L-27,706 L-63,700 L-93,692 L-113,685 L-138,674 L-161,662 L-179,651 L-196,639 L-210,628 L-220,619 L-228,612 L-248,592 L-257,581 L-267,569 L-281,549 L-293,529 L-305,506 L-316,481 L-326,450 L-333,420 L-337,393 L-339,365 L-339,345 L-337,315 L-333,287 L-326,257 L-315,224 L-306,204 L-298,188 L-290,173 L-278,154 L-264,135 L-253,122 L-246,114 L-234,101 L-221,89 L-207,77 L-191,65 L-168,50 L-146,38 L-125,28 L-101,19 L-75,11 L-47,5 L-16,1 Z " fill="#000000" transform="translate(424,85)"/>
<path d="M0,0 L14,0 L27,5 L50,16 L60,19 L72,19 L85,15 L101,7 L115,1 L119,0 L133,0 L143,4 L153,13 L159,22 L165,38 L184,96 L193,124 L193,126 L-61,126 L-48,85 L-29,27 L-23,16 L-16,8 L-6,2 Z " fill="#000000" transform="translate(375,221)"/>
<path d="M0,0 L408,0 L414,4 L417,7 L419,13 L418,22 L412,29 L408,31 L351,32 L356,54 L359,76 L360,99 L359,118 L355,143 L348,167 L340,186 L328,207 L319,219 L310,230 L293,247 L280,257 L261,269 L244,277 L225,283 L210,286 L200,287 L181,287 L165,285 L145,279 L126,269 L113,258 L104,249 L94,235 L87,223 L79,204 L73,185 L72,176 L41,176 L34,172 L31,167 L30,160 L37,133 L52,81 L66,31 L1,31 L-5,28 L-9,23 L-10,21 L-10,10 L-6,4 Z M76,65 L75,67 L75,82 L79,92 L83,98 L87,103 L96,109 L104,112 L121,112 L132,108 L141,101 L147,92 L149,88 L148,84 L143,83 L137,92 L129,96 L120,95 L114,91 L110,83 L110,74 L102,71 L79,65 Z M277,61 L262,65 L263,75 L260,83 L254,88 L251,89 L242,89 L235,85 L231,79 L230,73 L222,74 L184,83 L182,84 L184,90 L192,101 L202,109 L213,114 L223,116 L235,116 L247,113 L261,106 L271,96 L277,86 L280,76 L280,61 Z M266,141 L256,145 L252,148 L252,151 L268,153 L280,159 L285,165 L292,179 L294,179 L296,174 L296,159 L292,150 L288,145 L280,141 Z M267,167 L257,176 L242,186 L226,194 L211,199 L193,203 L184,204 L138,205 L134,208 L135,212 L140,216 L154,221 L169,224 L200,224 L218,220 L230,215 L242,208 L252,200 L261,190 L269,176 L271,168 Z " fill="#000000" transform="translate(237,375)"/>
<path d="M0,0 L29,0 L37,3 L44,9 L47,15 L48,20 L48,95 L126,95 L134,99 L140,106 L142,111 L142,145 L137,155 L129,160 L126,161 L48,161 L48,237 L45,245 L38,253 L31,256 L-2,256 L-12,251 L-16,246 L-19,240 L-20,162 L-98,161 L-106,157 L-111,151 L-114,143 L-114,114 L-111,105 L-107,100 L-97,95 L-19,95 L-19,17 L-15,9 L-10,4 L-4,1 Z " fill="#000000" transform="translate(796,391)"/>
</svg>
