<?xml version="1.0" encoding="UTF-8"?>
<svg width="24px" height="24px" viewBox="0 0 24 24" version="1.1" xmlns="http://www.w3.org/2000/svg" xmlns:xlink="http://www.w3.org/1999/xlink">
    <title>search</title>
    <g id="search" stroke="none" stroke-width="1" fill="none" fill-rule="evenodd">
        <path d="M5.5596,13.6927 C3.3176,11.4507 3.3176,7.8017 5.5596,5.5587 C6.6456,4.4727 8.0896,3.8757 9.6256,3.8757 C11.1626,3.8757 12.6066,4.4727 13.6926,5.5587 C15.9346,7.8017 15.9346,11.4507 13.6926,13.6927 C12.6066,14.7787 11.1626,15.3767 9.6256,15.3767 C8.0896,15.3767 6.6456,14.7787 5.5596,13.6927 M21.5726,19.5107 L15.9766,13.9157 C15.9676,13.9057 15.9556,13.8987 15.9456,13.8887 C17.9516,10.9227 17.6446,6.8597 15.0186,4.2337 C13.5296,2.7447 11.5776,2.0007 9.6256,2.0007 C7.6736,2.0007 5.7226,2.7447 4.2336,4.2337 C1.2556,7.2117 1.2556,12.0407 4.2336,15.0177 C5.7226,16.5067 7.6736,17.2517 9.6256,17.2517 C11.1166,17.2517 12.6046,16.8137 13.8896,15.9457 C13.8986,15.9557 13.9056,15.9667 13.9146,15.9767 L19.5106,21.5727 C19.7946,21.8577 20.1686,22.0007 20.5416,22.0007 C20.9146,22.0007 21.2886,21.8577 21.5726,21.5727 C22.1426,21.0037 22.1426,20.0797 21.5726,19.5107" fill="#000000"></path>
    </g>
</svg>