<?xml version="1.0" encoding="UTF-8"?>
<svg version="1.1" xmlns="http://www.w3.org/2000/svg" width="1024" height="1024">
<path d="M0,0 L512,0 L519,4 L523,11 L523,684 L520,690 L515,694 L513,695 L-1,695 L-7,691 L-10,687 L-11,684 L-11,11 L-7,4 Z M31,41 L31,654 L481,654 L481,41 Z " fill="#000000" transform="translate(265,159)"/>
<path d="M0,0 L14,0 L32,8 L43,13 L50,15 L62,15 L74,11 L90,3 L98,0 L112,0 L121,5 L130,14 L135,24 L144,51 L154,82 L160,100 L160,104 L-49,104 L-48,98 L-37,65 L-23,22 L-17,12 L-12,6 Z " fill="#000000" transform="translate(466,228)"/>
<path d="M0,0 L335,0 L340,3 L344,8 L344,18 L341,23 L335,26 L290,27 L292,40 L295,61 L296,74 L296,86 L294,106 L289,131 L281,151 L272,168 L260,184 L251,194 L239,206 L227,215 L213,223 L201,229 L180,235 L169,237 L142,237 L125,233 L113,228 L99,219 L87,208 L76,194 L68,180 L64,168 L60,156 L58,145 L32,145 L26,141 L24,136 L25,126 L31,103 L38,80 L48,45 L53,26 L0,26 L-7,22 L-9,19 L-9,7 L-4,2 Z M62,54 L61,55 L61,68 L65,77 L69,84 L78,90 L85,93 L100,93 L112,87 L120,78 L122,71 L120,69 L116,70 L113,74 L113,76 L108,78 L98,78 L93,74 L91,69 L90,61 L72,55 Z M224,51 L215,54 L214,67 L209,72 L207,73 L199,73 L193,70 L189,61 L182,61 L161,66 L150,69 L150,74 L159,85 L167,91 L177,95 L183,96 L194,96 L207,92 L218,85 L225,77 L229,68 L230,64 L230,52 L229,51 Z M217,117 L209,120 L207,125 L223,128 L232,134 L240,148 L243,146 L243,128 L239,122 L234,118 L232,117 Z M219,138 L207,148 L194,156 L180,162 L164,166 L144,168 L113,169 L110,172 L112,177 L123,182 L138,185 L166,185 L182,181 L196,174 L206,166 L214,158 L221,146 L222,139 Z " fill="#000000" transform="translate(354,355)"/>
<path d="M0,0 L8,0 L26,18 L34,25 L37,30 L36,37 L29,46 L27,46 L25,50 L17,58 L10,66 L1,76 L-11,89 L-20,99 L-27,107 L-38,119 L-45,127 L-54,137 L-63,147 L-72,157 L-81,167 L-88,175 L-98,186 L-107,197 L-123,214 L-126,217 L-128,218 L-135,218 L-143,211 L-147,206 L-155,199 L-166,187 L-168,186 L-168,184 L-170,184 L-175,179 L-184,169 L-191,163 L-198,155 L-223,130 L-224,128 L-224,121 L-215,110 L-197,92 L-195,91 L-187,91 L-133,145 L-128,141 L-121,133 L-117,128 L-115,128 L-113,124 L-102,112 L-90,99 L-81,88 L-74,81 L-67,73 L-58,63 L-46,49 L-39,42 L-32,34 L-23,24 L-16,16 L-3,2 Z " fill="#000000" transform="translate(646,564)"/>
</svg>
