<svg version="1.1" id="Layer_1" xmlns="http://www.w3.org/2000/svg" xmlns:xlink="http://www.w3.org/1999/xlink" x="0px" y="0px"
	 width="100%" viewBox="0 0 1024 1024" enable-background="new 0 0 1024 1024" xml:space="preserve">
<path fill="#BABABA" opacity="1.000000" stroke="none" 
	d="
M548.000000,1025.000000 
	C365.333344,1025.000000 183.166672,1025.000000 1.000000,1025.000000 
	C1.000000,683.666687 1.000000,342.333344 1.000000,1.000000 
	C342.333344,1.000000 683.666687,1.000000 1025.000000,1.000000 
	C1025.000000,342.333344 1025.000000,683.666687 1025.000000,1025.000000 
	C866.166687,1025.000000 707.333313,1025.000000 548.000000,1025.000000 
M220.771835,670.500000 
	C220.771835,749.762268 220.771835,829.024536 220.771835,908.389526 
	C415.761932,908.389526 610.105469,908.389526 804.430908,908.389526 
	C804.430908,643.071472 804.430908,378.207794 804.430908,113.346649 
	C609.772583,113.346649 415.536865,113.346649 220.771240,113.346649 
	C220.771240,298.962646 220.771240,484.231323 220.771835,670.500000 
z"/>
<path fill="#FEFEFE" opacity="1.000000" stroke="none" 
	d="
M220.771545,670.000000 
	C220.771240,484.231323 220.771240,298.962646 220.771240,113.346649 
	C415.536865,113.346649 609.772583,113.346649 804.430908,113.346649 
	C804.430908,378.207794 804.430908,643.071472 804.430908,908.389526 
	C610.105469,908.389526 415.761932,908.389526 220.771835,908.389526 
	C220.771835,829.024536 220.771835,749.762268 220.771545,670.000000 
M644.500061,314.175903 
	C568.007324,314.148468 491.514587,314.117737 415.021851,314.095032 
	C376.863556,314.083710 338.705261,314.076263 300.546967,314.093506 
	C293.309784,314.096771 285.501251,319.595856 284.107025,325.540741 
	C282.019257,334.442749 285.420898,342.540710 293.002350,345.584808 
	C295.849854,346.728119 299.136932,347.211243 302.229919,347.237000 
	C320.060455,347.385345 337.892853,347.306488 355.724640,347.304688 
	C358.800659,347.304382 361.876678,347.304626 365.298950,347.304626 
	C364.921051,349.686462 364.807617,351.500092 364.333954,353.214203 
	C360.323547,367.726746 356.241943,382.219635 352.192200,396.721313 
	C344.166779,425.459625 336.071869,454.178802 328.167053,482.950226 
	C325.318909,493.316742 332.183380,502.037109 342.915894,502.119629 
	C350.581573,502.178558 358.255890,502.356934 365.910828,502.069611 
	C370.055481,501.914062 371.685059,503.044159 372.872314,507.392853 
	C376.567749,520.928406 380.007202,534.721008 385.659088,547.477722 
	C390.430511,558.247070 397.646301,568.078796 404.674347,577.670410 
	C416.624573,593.979553 432.580383,605.631897 451.189362,613.225586 
	C470.925751,621.279358 491.536926,623.468750 512.818848,621.069397 
	C536.085327,618.446228 557.933838,611.684448 578.086487,599.948486 
	C615.403931,578.216370 642.773560,547.219910 660.765869,508.129822 
	C668.690063,490.913727 674.526062,472.888000 676.209839,453.777069 
	C677.257935,441.881348 679.344727,430.007538 679.435486,418.112213 
	C679.603210,396.112762 676.457397,374.387665 671.242371,352.990387 
	C670.345398,349.310150 671.188477,347.652588 675.638367,347.705811 
	C692.292236,347.905060 708.952209,347.713531 725.608521,347.540192 
	C736.559570,347.426239 742.820923,340.620056 742.706970,329.249451 
	C742.622803,320.850098 735.142761,314.191254 725.493164,314.173889 
	C698.828918,314.125916 672.164490,314.168976 644.500061,314.175903 
M454.396973,823.098999 
	C458.363373,826.895508 462.432343,830.591309 466.276001,834.508301 
	C475.918671,844.335022 485.581757,854.146973 494.999420,864.187378 
	C501.632172,871.258667 509.637970,869.435547 515.266357,863.125183 
	C523.569702,853.815613 531.818787,844.457581 540.145386,835.169006 
	C573.902222,797.512024 607.627258,759.826355 641.469116,722.245850 
	C662.393005,699.010437 683.527954,675.965210 704.518372,652.789551 
	C709.532288,647.253723 714.418579,641.597839 719.234802,635.888489 
	C723.898254,630.360352 724.241455,625.071167 719.472107,620.254700 
	C708.836243,609.513916 697.967590,598.993591 686.930420,588.664856 
	C682.217224,584.254211 677.464722,584.145020 672.927795,588.649292 
	C663.627930,597.882263 654.684143,607.486633 645.846191,617.168579 
	C636.875549,626.996033 628.291870,637.175537 619.393921,647.070740 
	C592.591736,676.876892 565.719360,706.619934 538.873718,736.387085 
	C527.005066,749.547363 515.134888,762.706299 502.955231,776.209717 
	C501.418884,774.779236 499.942505,773.502625 498.575958,772.117554 
	C477.658356,750.917786 456.766144,729.693054 435.841766,708.499939 
	C429.586273,702.164185 422.529938,702.364319 416.401550,708.834045 
	C407.259186,718.485657 398.169891,728.192078 388.837372,737.657654 
	C382.807465,743.773621 382.483459,750.565369 388.588898,756.812439 
	C395.089661,763.463989 401.667786,770.040039 408.222290,776.638977 
	C423.442047,791.962158 438.667999,807.279297 454.396973,823.098999 
M415.301544,171.863708 
	C413.345703,176.429367 411.051605,180.882660 409.491486,185.579758 
	C401.923645,208.364243 394.523743,231.204727 387.125549,254.045212 
	C383.950409,263.847839 380.923645,273.698547 377.827515,283.533630 
	C468.378906,283.533630 558.595581,283.533630 649.517212,283.533630 
	C647.705750,278.173706 646.036987,273.383972 644.465759,268.562469 
	C635.685425,241.617981 626.888123,214.678925 618.183472,187.710007 
	C614.626770,176.690567 610.214783,166.342270 601.045410,158.523941 
	C590.460083,149.498322 578.828369,145.901413 565.582886,151.095245 
	C556.528809,154.645554 547.709595,158.856247 538.989685,163.183487 
	C524.827820,170.211304 510.488647,172.796158 495.497314,166.086029 
	C485.669128,161.686935 475.870117,157.220718 466.104736,152.684036 
	C457.314178,148.600250 448.355682,147.410690 439.080933,150.776337 
	C428.648254,154.562195 420.986237,161.577301 415.301544,171.863708 
z"/>
<path fill="#030303" opacity="1.000000" stroke="none" 
	d="
M645.000122,314.175964 
	C672.164490,314.168976 698.828918,314.125916 725.493164,314.173889 
	C735.142761,314.191254 742.622803,320.850098 742.706970,329.249451 
	C742.820923,340.620056 736.559570,347.426239 725.608521,347.540192 
	C708.952209,347.713531 692.292236,347.905060 675.638367,347.705811 
	C671.188477,347.652588 670.345398,349.310150 671.242371,352.990387 
	C676.457397,374.387665 679.603210,396.112762 679.435486,418.112213 
	C679.344727,430.007538 677.257935,441.881348 676.209839,453.777069 
	C674.526062,472.888000 668.690063,490.913727 660.765869,508.129822 
	C642.773560,547.219910 615.403931,578.216370 578.086487,599.948486 
	C557.933838,611.684448 536.085327,618.446228 512.818848,621.069397 
	C491.536926,623.468750 470.925751,621.279358 451.189362,613.225586 
	C432.580383,605.631897 416.624573,593.979553 404.674347,577.670410 
	C397.646301,568.078796 390.430511,558.247070 385.659088,547.477722 
	C380.007202,534.721008 376.567749,520.928406 372.872314,507.392853 
	C371.685059,503.044159 370.055481,501.914062 365.910828,502.069611 
	C358.255890,502.356934 350.581573,502.178558 342.915894,502.119629 
	C332.183380,502.037109 325.318909,493.316742 328.167053,482.950226 
	C336.071869,454.178802 344.166779,425.459625 352.192200,396.721313 
	C356.241943,382.219635 360.323547,367.726746 364.333954,353.214203 
	C364.807617,351.500092 364.921051,349.686462 365.298950,347.304626 
	C361.876678,347.304626 358.800659,347.304382 355.724640,347.304688 
	C337.892853,347.306488 320.060455,347.385345 302.229919,347.237000 
	C299.136932,347.211243 295.849854,346.728119 293.002350,345.584808 
	C285.420898,342.540710 282.019257,334.442749 284.107025,325.540741 
	C285.501251,319.595856 293.309784,314.096771 300.546967,314.093506 
	C338.705261,314.076263 376.863556,314.083710 415.021851,314.095032 
	C491.514587,314.117737 568.007324,314.148468 645.000122,314.175964 
M571.095032,404.537231 
	C559.628174,414.194092 546.733582,410.566742 542.538635,396.350372 
	C541.462036,392.701843 539.180786,392.174194 536.136841,392.806671 
	C527.050903,394.694702 517.944763,396.512054 508.924347,398.680725 
	C502.395020,400.250488 495.989685,402.336060 489.006470,404.341675 
	C489.891205,406.865875 490.202087,409.105408 491.337891,410.788055 
	C505.724640,432.100983 525.004822,442.819427 551.230347,437.658081 
	C575.621460,432.857819 597.532104,412.978577 594.869385,383.949799 
	C594.593506,380.942657 593.396667,379.506409 590.541077,380.020966 
	C585.400330,380.947205 580.309875,382.152130 574.947815,383.294006 
	C575.721558,390.904236 576.766785,398.028900 571.095032,404.537231 
M485.544434,554.705688 
	C505.490143,555.411621 524.774597,553.757874 542.975830,543.917419 
	C558.466858,535.542236 570.913696,524.450378 579.953918,509.525116 
	C582.060059,506.048004 583.218567,501.930603 584.364380,497.977722 
	C584.719360,496.752838 583.968628,494.704590 583.005981,493.785065 
	C582.408081,493.213959 580.388000,493.859558 579.141785,494.323151 
	C578.094360,494.712769 577.157715,495.538147 576.317444,496.325714 
	C565.844666,506.141144 553.960449,513.789490 540.976257,519.867371 
	C526.067627,526.846130 510.323425,530.792358 494.038361,531.904907 
	C478.118500,532.992615 462.120514,532.968994 446.154327,533.319397 
	C442.981812,533.389038 439.342560,533.510803 439.063293,537.082031 
	C438.874939,539.490662 441.055756,542.217590 442.553284,544.561584 
	C443.181671,545.545166 444.728577,546.044495 445.950836,546.530029 
	C458.351654,551.457031 471.093719,554.810303 485.544434,554.705688 
M385.150940,422.316376 
	C394.939301,431.473785 406.125000,436.099243 419.924988,435.207367 
	C433.900787,434.304138 449.263000,423.341309 453.886292,409.922394 
	C455.104462,406.386658 453.592865,404.560333 451.097321,403.691650 
	C449.753815,403.223969 447.282867,404.375214 446.054138,405.558014 
	C443.941406,407.591827 442.753998,410.630737 440.553955,412.521393 
	C434.932251,417.352478 428.400574,417.535156 421.874512,414.613251 
	C415.960266,411.965332 413.161774,405.832336 413.312256,398.684174 
	C413.355103,396.647156 412.049042,393.198669 410.608673,392.734680 
	C400.113312,389.353638 389.456055,386.447754 378.753143,383.780273 
	C377.654724,383.506531 374.740295,385.717194 374.671417,386.892365 
	C374.216888,394.650238 373.777557,402.547180 377.646606,409.738037 
	C379.844574,413.823120 382.372894,417.730438 385.150940,422.316376 
M601.785339,494.988739 
	C603.097839,497.833038 604.266541,500.757812 605.791992,503.482880 
	C606.421204,504.606964 607.816467,505.302185 608.863281,506.192474 
	C609.893494,504.840179 611.729675,503.535553 611.812988,502.127258 
	C612.153870,496.362122 612.688110,490.440918 611.726807,484.820740 
	C610.991943,480.524231 608.942688,475.842896 606.035645,472.643402 
	C597.767334,463.543243 577.343201,462.566467 567.570190,470.313416 
	C566.015930,471.545441 565.203369,473.713135 563.286682,476.591553 
	C579.649292,477.147980 593.433350,479.940918 601.785339,494.988739 
z"/>
<path fill="#030303" opacity="1.000000" stroke="none" 
	d="
M454.144226,822.848877 
	C438.667999,807.279297 423.442047,791.962158 408.222290,776.638977 
	C401.667786,770.040039 395.089661,763.463989 388.588898,756.812439 
	C382.483459,750.565369 382.807465,743.773621 388.837372,737.657654 
	C398.169891,728.192078 407.259186,718.485657 416.401550,708.834045 
	C422.529938,702.364319 429.586273,702.164185 435.841766,708.499939 
	C456.766144,729.693054 477.658356,750.917786 498.575958,772.117554 
	C499.942505,773.502625 501.418884,774.779236 502.955231,776.209717 
	C515.134888,762.706299 527.005066,749.547363 538.873718,736.387085 
	C565.719360,706.619934 592.591736,676.876892 619.393921,647.070740 
	C628.291870,637.175537 636.875549,626.996033 645.846191,617.168579 
	C654.684143,607.486633 663.627930,597.882263 672.927795,588.649292 
	C677.464722,584.145020 682.217224,584.254211 686.930420,588.664856 
	C697.967590,598.993591 708.836243,609.513916 719.472107,620.254700 
	C724.241455,625.071167 723.898254,630.360352 719.234802,635.888489 
	C714.418579,641.597839 709.532288,647.253723 704.518372,652.789551 
	C683.527954,675.965210 662.393005,699.010437 641.469116,722.245850 
	C607.627258,759.826355 573.902222,797.512024 540.145386,835.169006 
	C531.818787,844.457581 523.569702,853.815613 515.266357,863.125183 
	C509.637970,869.435547 501.632172,871.258667 494.999420,864.187378 
	C485.581757,854.146973 475.918671,844.335022 466.276001,834.508301 
	C462.432343,830.591309 458.363373,826.895508 454.144226,822.848877 
z"/>
<path fill="#030303" opacity="1.000000" stroke="none" 
	d="
M415.443665,171.520782 
	C420.986237,161.577301 428.648254,154.562195 439.080933,150.776337 
	C448.355682,147.410690 457.314178,148.600250 466.104736,152.684036 
	C475.870117,157.220718 485.669128,161.686935 495.497314,166.086029 
	C510.488647,172.796158 524.827820,170.211304 538.989685,163.183487 
	C547.709595,158.856247 556.528809,154.645554 565.582886,151.095245 
	C578.828369,145.901413 590.460083,149.498322 601.045410,158.523941 
	C610.214783,166.342270 614.626770,176.690567 618.183472,187.710007 
	C626.888123,214.678925 635.685425,241.617981 644.465759,268.562469 
	C646.036987,273.383972 647.705750,278.173706 649.517212,283.533630 
	C558.595581,283.533630 468.378906,283.533630 377.827515,283.533630 
	C380.923645,273.698547 383.950409,263.847839 387.125549,254.045212 
	C394.523743,231.204727 401.923645,208.364243 409.491486,185.579758 
	C411.051605,180.882660 413.345703,176.429367 415.443665,171.520782 
z"/>
<path fill="#F9F9F9" opacity="1.000000" stroke="none" 
	d="
M571.353149,404.266907 
	C576.766785,398.028900 575.721558,390.904236 574.947815,383.294006 
	C580.309875,382.152130 585.400330,380.947205 590.541077,380.020966 
	C593.396667,379.506409 594.593506,380.942657 594.869385,383.949799 
	C597.532104,412.978577 575.621460,432.857819 551.230347,437.658081 
	C525.004822,442.819427 505.724640,432.100983 491.337891,410.788055 
	C490.202087,409.105408 489.891205,406.865875 489.006470,404.341675 
	C495.989685,402.336060 502.395020,400.250488 508.924347,398.680725 
	C517.944763,396.512054 527.050903,394.694702 536.136841,392.806671 
	C539.180786,392.174194 541.462036,392.701843 542.538635,396.350372 
	C546.733582,410.566742 559.628174,414.194092 571.353149,404.266907 
z"/>
<path fill="#F7F7F7" opacity="1.000000" stroke="none" 
	d="
M485.053894,554.705750 
	C471.093719,554.810303 458.351654,551.457031 445.950836,546.530029 
	C444.728577,546.044495 443.181671,545.545166 442.553284,544.561584 
	C441.055756,542.217590 438.874939,539.490662 439.063293,537.082031 
	C439.342560,533.510803 442.981812,533.389038 446.154327,533.319397 
	C462.120514,532.968994 478.118500,532.992615 494.038361,531.904907 
	C510.323425,530.792358 526.067627,526.846130 540.976257,519.867371 
	C553.960449,513.789490 565.844666,506.141144 576.317444,496.325714 
	C577.157715,495.538147 578.094360,494.712769 579.141785,494.323151 
	C580.388000,493.859558 582.408081,493.213959 583.005981,493.785065 
	C583.968628,494.704590 584.719360,496.752838 584.364380,497.977722 
	C583.218567,501.930603 582.060059,506.048004 579.953918,509.525116 
	C570.913696,524.450378 558.466858,535.542236 542.975830,543.917419 
	C524.774597,553.757874 505.490143,555.411621 485.053894,554.705750 
z"/>
<path fill="#F9F9F9" opacity="1.000000" stroke="none" 
	d="
M384.951691,422.017090 
	C382.372894,417.730438 379.844574,413.823120 377.646606,409.738037 
	C373.777557,402.547180 374.216888,394.650238 374.671417,386.892365 
	C374.740295,385.717194 377.654724,383.506531 378.753143,383.780273 
	C389.456055,386.447754 400.113312,389.353638 410.608673,392.734680 
	C412.049042,393.198669 413.355103,396.647156 413.312256,398.684174 
	C413.161774,405.832336 415.960266,411.965332 421.874512,414.613251 
	C428.400574,417.535156 434.932251,417.352478 440.553955,412.521393 
	C442.753998,410.630737 443.941406,407.591827 446.054138,405.558014 
	C447.282867,404.375214 449.753815,403.223969 451.097321,403.691650 
	C453.592865,404.560333 455.104462,406.386658 453.886292,409.922394 
	C449.263000,423.341309 433.900787,434.304138 419.924988,435.207367 
	C406.125000,436.099243 394.939301,431.473785 384.951691,422.017090 
z"/>
<path fill="#F4F4F4" opacity="1.000000" stroke="none" 
	d="
M601.571411,494.679321 
	C593.433350,479.940918 579.649292,477.147980 563.286682,476.591553 
	C565.203369,473.713135 566.015930,471.545441 567.570190,470.313416 
	C577.343201,462.566467 597.767334,463.543243 606.035645,472.643402 
	C608.942688,475.842896 610.991943,480.524231 611.726807,484.820740 
	C612.688110,490.440918 612.153870,496.362122 611.812988,502.127258 
	C611.729675,503.535553 609.893494,504.840179 608.863281,506.192444 
	C607.816467,505.302185 606.421204,504.606964 605.791992,503.482880 
	C604.266541,500.757812 603.097839,497.833038 601.571411,494.679321 
z"/>
</svg>