<svg version="1.1" id="Layer_1" xmlns="http://www.w3.org/2000/svg" xmlns:xlink="http://www.w3.org/1999/xlink" x="0px" y="0px"
	 width="100%" viewBox="0 0 800 800" enable-background="new 0 0 800 800" xml:space="preserve">
<path fill="#FFFFFF" opacity="1.000000" stroke="none" 
	d="
M801.000000,290.000000 
	C801.000000,460.666656 801.000000,630.833313 801.000000,801.000000 
	C534.333313,801.000000 267.666656,801.000000 1.000000,801.000000 
	C1.000000,534.333313 1.000000,267.666656 1.000000,1.000000 
	C267.666656,1.000000 534.333313,1.000000 801.000000,1.000000 
	C801.000000,97.166664 801.000000,193.333328 801.000000,290.000000 
M677.057190,494.500000 
	C677.028503,483.503082 676.975525,472.506195 676.974854,461.509277 
	C676.966919,329.701233 676.976562,197.893173 676.948792,66.085114 
	C676.946045,53.222748 671.508972,48.017712 658.628662,48.028816 
	C616.136230,48.065441 573.643860,48.081791 531.151428,48.075081 
	C475.661194,48.066319 420.170929,48.018707 364.680695,48.004978 
	C296.522064,47.988113 228.363419,48.015419 160.204849,47.955341 
	C149.239624,47.945675 143.039291,53.797665 143.038971,64.638069 
	C143.033615,249.284607 143.027969,433.931152 143.023026,618.577698 
	C143.022064,654.740906 143.084167,690.904236 142.969574,727.067078 
	C142.948349,733.764465 145.542755,739.024414 151.444870,741.528564 
	C155.378784,743.197693 160.160156,743.359131 164.562790,743.362061 
	C272.051392,743.433655 379.540039,743.394348 487.028687,743.372559 
	C544.855774,743.360840 602.683533,743.195129 660.509094,743.488281 
	C669.419189,743.533447 677.279297,736.275330 677.252930,726.461914 
	C677.045715,649.474976 677.090942,572.487366 677.057190,494.500000 
z"/>
<path fill="#010101" opacity="1.000000" stroke="none" 
	d="
M677.057739,495.000000 
	C677.090942,572.487366 677.045715,649.474976 677.252930,726.461914 
	C677.279297,736.275330 669.419189,743.533447 660.509094,743.488281 
	C602.683533,743.195129 544.855774,743.360840 487.028687,743.372559 
	C379.540039,743.394348 272.051392,743.433655 164.562790,743.362061 
	C160.160156,743.359131 155.378784,743.197693 151.444870,741.528564 
	C145.542755,739.024414 142.948349,733.764465 142.969574,727.067078 
	C143.084167,690.904236 143.022064,654.740906 143.023026,618.577698 
	C143.027969,433.931152 143.033615,249.284607 143.038971,64.638069 
	C143.039291,53.797665 149.239624,47.945675 160.204849,47.955341 
	C228.363419,48.015419 296.522064,47.988113 364.680695,48.004978 
	C420.170929,48.018707 475.661194,48.066319 531.151428,48.075081 
	C573.643860,48.081791 616.136230,48.065441 658.628662,48.028816 
	C671.508972,48.017712 676.946045,53.222748 676.948792,66.085114 
	C676.976562,197.893173 676.966919,329.701233 676.974854,461.509277 
	C676.975525,472.506195 677.028503,483.503082 677.057739,495.000000 
M635.067749,541.500000 
	C635.067749,390.902557 635.067749,240.305130 635.067749,89.510262 
	C484.677216,89.510262 334.836121,89.510262 185.108444,89.510262 
	C185.108444,293.767487 185.108444,497.666840 185.108444,701.648499 
	C335.173523,701.648499 484.901978,701.648499 635.067871,701.648499 
	C635.067871,648.409729 635.067871,595.454834 635.067749,541.500000 
z"/>
<path fill="#FEFEFE" opacity="1.000000" stroke="none" 
	d="
M635.067810,542.000000 
	C635.067871,595.454834 635.067871,648.409729 635.067871,701.648499 
	C484.901978,701.648499 335.173523,701.648499 185.108444,701.648499 
	C185.108444,497.666840 185.108444,293.767487 185.108444,89.510262 
	C334.836121,89.510262 484.677216,89.510262 635.067749,89.510262 
	C635.067749,240.305130 635.067749,390.902557 635.067810,542.000000 
M528.500000,244.046921 
	C460.684723,244.041199 392.869415,244.034637 325.054138,244.030228 
	C299.232269,244.028549 273.410370,244.012436 247.588547,244.043808 
	C238.885590,244.054382 233.666229,248.877396 233.689056,256.722961 
	C233.713516,265.128601 238.632446,269.812531 247.642670,269.914398 
	C252.807480,269.972809 257.973572,269.914856 263.139099,269.914001 
	C274.092957,269.912201 285.046844,269.913483 296.743011,269.913483 
	C292.825470,283.907318 289.062378,297.300232 285.327789,310.701080 
	C279.492706,331.639099 273.577789,352.555695 267.899536,373.536255 
	C265.473297,382.501038 270.671753,388.984131 279.981537,389.075775 
	C285.311829,389.128265 290.656281,389.216156 295.970917,388.897430 
	C299.808044,388.667358 301.374756,389.870270 302.242096,393.836456 
	C306.609100,413.806366 314.118469,432.373779 327.417145,448.299744 
	C336.863098,459.611847 348.100189,468.565430 361.693329,474.125549 
	C390.189392,485.781647 418.661987,482.936768 446.170441,471.280182 
	C482.183075,456.019989 507.689606,429.197876 523.913818,394.011017 
	C539.110962,361.051636 541.872803,326.254852 535.544556,290.652283 
	C534.368225,284.033905 533.169006,277.419647 531.831970,269.978088 
	C546.206604,269.978088 559.828613,270.005310 573.450500,269.968536 
	C582.553406,269.943970 587.231262,265.145935 587.176208,256.019775 
	C587.133789,248.989563 581.416138,243.951767 573.488892,243.965637 
	C558.825928,243.991287 544.162964,244.019730 528.500000,244.046921 
M324.689362,559.183289 
	C321.356171,562.677551 318.080811,566.229370 314.676117,569.652588 
	C309.684052,574.671753 309.378998,579.846619 314.290436,584.845337 
	C330.115906,600.951843 346.051514,616.949951 361.924469,633.009827 
	C372.080841,643.285767 382.298706,653.503662 392.310150,663.919434 
	C401.676483,673.664001 406.319244,673.584351 415.342346,663.192505 
	C419.815338,658.041016 424.452759,653.032471 429.007141,647.951477 
	C463.662415,609.288879 498.304199,570.614258 532.975708,531.966187 
	C544.749878,518.841553 556.623474,505.806122 568.397766,492.681519 
	C572.831116,487.739807 573.324646,483.561401 569.268127,479.435974 
	C560.876831,470.901917 552.208008,462.634857 543.493591,454.427521 
	C540.573608,451.677429 536.983887,451.910706 533.939087,454.320099 
	C531.215088,456.475677 528.747925,458.999298 526.388123,461.563629 
	C519.294495,469.272339 512.290588,477.064026 505.284302,484.852661 
	C487.585480,504.527740 469.903046,524.217590 452.216766,543.903992 
	C435.680389,562.310547 419.147583,580.720276 402.284546,599.494446 
	C400.888641,597.966431 399.699524,596.575256 398.417755,595.275452 
	C382.520660,579.154602 366.631561,563.025696 350.688507,546.950378 
	C346.501678,542.728882 340.639709,542.625549 336.506378,546.723206 
	C332.610596,550.585449 328.927368,554.661987 324.689362,559.183289 
M497.654968,165.785645 
	C494.495575,156.519379 491.839508,147.042206 488.065033,138.033661 
	C481.535767,122.450211 465.000214,110.408157 445.542664,120.372864 
	C440.094818,123.162849 434.506378,125.677658 428.992004,128.338455 
	C418.315582,133.490036 407.469818,134.985001 396.321838,129.862442 
	C389.084717,126.536949 381.831329,123.244705 374.640137,119.822182 
	C368.249451,116.780647 361.683075,115.921074 354.842682,117.853737 
	C341.628113,121.587357 335.026337,131.589325 330.883759,143.670822 
	C326.473328,156.533447 322.342316,169.492432 318.143494,182.426926 
	C314.020538,195.127701 309.965668,207.850571 305.801605,220.810638 
	C375.818878,220.810638 445.388153,220.810638 515.547791,220.810638 
	C509.586823,202.438339 503.760193,184.480118 497.654968,165.785645 
z"/>
<path fill="#010101" opacity="1.000000" stroke="none" 
	d="
M529.000000,244.046967 
	C544.162964,244.019730 558.825928,243.991287 573.488892,243.965637 
	C581.416138,243.951767 587.133789,248.989563 587.176208,256.019775 
	C587.231262,265.145935 582.553406,269.943970 573.450500,269.968536 
	C559.828613,270.005310 546.206604,269.978088 531.831970,269.978088 
	C533.169006,277.419647 534.368225,284.033905 535.544556,290.652283 
	C541.872803,326.254852 539.110962,361.051636 523.913818,394.011017 
	C507.689606,429.197876 482.183075,456.019989 446.170441,471.280182 
	C418.661987,482.936768 390.189392,485.781647 361.693329,474.125549 
	C348.100189,468.565430 336.863098,459.611847 327.417145,448.299744 
	C314.118469,432.373779 306.609100,413.806366 302.242096,393.836456 
	C301.374756,389.870270 299.808044,388.667358 295.970917,388.897430 
	C290.656281,389.216156 285.311829,389.128265 279.981537,389.075775 
	C270.671753,388.984131 265.473297,382.501038 267.899536,373.536255 
	C273.577789,352.555695 279.492706,331.639099 285.327789,310.701080 
	C289.062378,297.300232 292.825470,283.907318 296.743011,269.913483 
	C285.046844,269.913483 274.092957,269.912201 263.139099,269.914001 
	C257.973572,269.914856 252.807480,269.972809 247.642670,269.914398 
	C238.632446,269.812531 233.713516,265.128601 233.689056,256.722961 
	C233.666229,248.877396 238.885590,244.054382 247.588547,244.043808 
	C273.410370,244.012436 299.232269,244.028549 325.054138,244.030228 
	C392.869415,244.034637 460.684723,244.041199 529.000000,244.046967 
M470.866302,314.151794 
	C471.502960,309.081482 472.067108,304.000702 472.798706,298.944122 
	C473.409515,294.722443 470.686523,294.518066 467.924469,295.074707 
	C464.714905,295.721558 461.623108,296.952850 458.244720,298.003754 
	C458.396973,299.357513 458.528473,300.648926 458.689392,301.936646 
	C459.608154,309.286957 455.249939,316.338531 448.879974,317.796906 
	C441.781128,319.422150 435.031799,315.586121 432.784271,308.038391 
	C431.655060,304.246216 429.303528,304.529968 426.663696,305.140442 
	C415.370453,307.751984 404.104004,310.479340 392.906952,313.145630 
	C393.169067,322.695160 408.336090,336.187378 421.313232,338.791534 
	C442.399994,343.023041 462.232056,333.369385 470.866302,314.151794 
M422.076111,406.763092 
	C419.524811,407.492676 417.013947,408.622467 414.415436,408.885284 
	C400.068573,410.336334 385.707092,411.657959 371.335449,412.839172 
	C366.869110,413.206268 362.336365,412.779938 357.873779,413.170715 
	C356.366516,413.302673 354.152557,414.576385 353.770691,415.799469 
	C353.375641,417.064911 354.394562,419.390625 355.545288,420.377899 
	C357.367798,421.941467 359.734131,422.980682 362.011810,423.885712 
	C373.502014,428.451294 385.526367,428.893097 397.739471,429.014557 
	C418.679382,429.222809 436.605042,421.975494 451.146362,407.427917 
	C456.822266,401.749542 460.282196,393.823761 464.528473,386.787079 
	C465.100616,385.838989 464.362701,384.100403 464.231415,382.727844 
	C462.929413,383.037109 461.600677,383.266541 460.337158,383.690491 
	C459.740387,383.890747 459.227753,384.420349 458.746368,384.874298 
	C448.337738,394.689545 436.134583,401.506775 422.076111,406.763092 
M308.683685,321.760681 
	C312.638184,325.648041 316.019653,330.501984 320.651001,333.247681 
	C336.713196,342.770020 357.372559,334.516296 363.886963,319.197174 
	C364.745667,317.177795 366.002258,314.329773 362.712769,313.525208 
	C361.383423,313.200073 358.959961,314.723480 357.969696,316.085632 
	C353.376160,322.404114 348.282288,324.638031 341.827057,322.634521 
	C336.348877,320.934235 333.384644,316.291748 333.280823,309.057953 
	C333.243683,306.470459 332.436127,304.853027 329.644958,304.106842 
	C322.929932,302.311676 316.302460,300.190552 309.630493,298.232117 
	C305.784973,297.103333 303.942291,297.940277 303.795593,302.589905 
	C303.583862,309.303101 304.961151,315.398529 308.683685,321.760681 
M451.145996,368.907776 
	C467.450317,368.707214 478.117676,376.557770 482.818573,392.531860 
	C488.179016,387.335815 487.352844,372.642273 482.287598,366.813110 
	C476.144226,359.743225 459.311279,358.521210 452.177612,364.769928 
	C451.233185,365.597260 451.014496,367.253174 451.145996,368.907776 
z"/>
<path fill="#020202" opacity="1.000000" stroke="none" 
	d="
M324.919983,558.913818 
	C328.927368,554.661987 332.610596,550.585449 336.506378,546.723206 
	C340.639709,542.625549 346.501678,542.728882 350.688507,546.950378 
	C366.631561,563.025696 382.520660,579.154602 398.417755,595.275452 
	C399.699524,596.575256 400.888641,597.966431 402.284546,599.494446 
	C419.147583,580.720276 435.680389,562.310547 452.216766,543.903992 
	C469.903046,524.217590 487.585480,504.527740 505.284302,484.852661 
	C512.290588,477.064026 519.294495,469.272339 526.388123,461.563629 
	C528.747925,458.999298 531.215088,456.475677 533.939087,454.320099 
	C536.983887,451.910706 540.573608,451.677429 543.493591,454.427521 
	C552.208008,462.634857 560.876831,470.901917 569.268127,479.435974 
	C573.324646,483.561401 572.831116,487.739807 568.397766,492.681519 
	C556.623474,505.806122 544.749878,518.841553 532.975708,531.966187 
	C498.304199,570.614258 463.662415,609.288879 429.007141,647.951477 
	C424.452759,653.032471 419.815338,658.041016 415.342346,663.192505 
	C406.319244,673.584351 401.676483,673.664001 392.310150,663.919434 
	C382.298706,653.503662 372.080841,643.285767 361.924469,633.009827 
	C346.051514,616.949951 330.115906,600.951843 314.290436,584.845337 
	C309.378998,579.846619 309.684052,574.671753 314.676117,569.652588 
	C318.080811,566.229370 321.356171,562.677551 324.919983,558.913818 
z"/>
<path fill="#010101" opacity="1.000000" stroke="none" 
	d="
M497.794250,166.153778 
	C503.760193,184.480118 509.586823,202.438339 515.547791,220.810638 
	C445.388153,220.810638 375.818878,220.810638 305.801605,220.810638 
	C309.965668,207.850571 314.020538,195.127701 318.143494,182.426926 
	C322.342316,169.492432 326.473328,156.533447 330.883759,143.670822 
	C335.026337,131.589325 341.628113,121.587357 354.842682,117.853737 
	C361.683075,115.921074 368.249451,116.780647 374.640137,119.822182 
	C381.831329,123.244705 389.084717,126.536949 396.321838,129.862442 
	C407.469818,134.985001 418.315582,133.490036 428.992004,128.338455 
	C434.506378,125.677658 440.094818,123.162849 445.542664,120.372864 
	C465.000214,110.408157 481.535767,122.450211 488.065033,138.033661 
	C491.839508,147.042206 494.495575,156.519379 497.794250,166.153778 
z"/>
<path fill="#FBFBFB" opacity="1.000000" stroke="none" 
	d="
M470.687378,314.498291 
	C462.232056,333.369385 442.399994,343.023041 421.313232,338.791534 
	C408.336090,336.187378 393.169067,322.695160 392.906952,313.145630 
	C404.104004,310.479340 415.370453,307.751984 426.663696,305.140442 
	C429.303528,304.529968 431.655060,304.246216 432.784271,308.038391 
	C435.031799,315.586121 441.781128,319.422150 448.879974,317.796906 
	C455.249939,316.338531 459.608154,309.286957 458.689392,301.936646 
	C458.528473,300.648926 458.396973,299.357513 458.244720,298.003754 
	C461.623108,296.952850 464.714905,295.721558 467.924469,295.074707 
	C470.686523,294.518066 473.409515,294.722443 472.798706,298.944122 
	C472.067108,304.000702 471.502960,309.081482 470.687378,314.498291 
z"/>
<path fill="#FBFBFB" opacity="1.000000" stroke="none" 
	d="
M422.434692,406.595276 
	C436.134583,401.506775 448.337738,394.689545 458.746368,384.874298 
	C459.227753,384.420349 459.740387,383.890747 460.337158,383.690491 
	C461.600677,383.266541 462.929413,383.037109 464.231415,382.727844 
	C464.362701,384.100403 465.100616,385.838989 464.528473,386.787079 
	C460.282196,393.823761 456.822266,401.749542 451.146362,407.427917 
	C436.605042,421.975494 418.679382,429.222809 397.739471,429.014557 
	C385.526367,428.893097 373.502014,428.451294 362.011810,423.885712 
	C359.734131,422.980682 357.367798,421.941467 355.545288,420.377899 
	C354.394562,419.390625 353.375641,417.064911 353.770691,415.799469 
	C354.152557,414.576385 356.366516,413.302673 357.873779,413.170715 
	C362.336365,412.779938 366.869110,413.206268 371.335449,412.839172 
	C385.707092,411.657959 400.068573,410.336334 414.415436,408.885284 
	C417.013947,408.622467 419.524811,407.492676 422.434692,406.595276 
z"/>
<path fill="#FCFCFC" opacity="1.000000" stroke="none" 
	d="
M308.472961,321.455566 
	C304.961151,315.398529 303.583862,309.303101 303.795593,302.589905 
	C303.942291,297.940277 305.784973,297.103333 309.630493,298.232117 
	C316.302460,300.190552 322.929932,302.311676 329.644958,304.106842 
	C332.436127,304.853027 333.243683,306.470459 333.280823,309.057953 
	C333.384644,316.291748 336.348877,320.934235 341.827057,322.634521 
	C348.282288,324.638031 353.376160,322.404114 357.969696,316.085632 
	C358.959961,314.723480 361.383423,313.200073 362.712769,313.525208 
	C366.002258,314.329773 364.745667,317.177795 363.886963,319.197174 
	C357.372559,334.516296 336.713196,342.770020 320.651001,333.247681 
	C316.019653,330.501984 312.638184,325.648041 308.472961,321.455566 
z"/>
<path fill="#F9F9F9" opacity="1.000000" stroke="none" 
	d="
M450.802856,368.716553 
	C451.014496,367.253174 451.233185,365.597260 452.177612,364.769928 
	C459.311279,358.521210 476.144226,359.743225 482.287598,366.813110 
	C487.352844,372.642273 488.179016,387.335815 482.818573,392.531860 
	C478.117676,376.557770 467.450317,368.707214 450.802856,368.716553 
z"/>
</svg>