 <svg version="1.0" xmlns="http://www.w3.org/2000/svg" width="700.000000pt" height="700.000000pt" viewBox="0 0 700.000000 700.000000" preserveAspectRatio="xMidYMid meet">
<metadata>
Created by potrace 1.12, written by Peter Selinger 2001-2015
</metadata>
<g transform="translate(0.000000,700.000000) scale(0.100000,-0.100000)" fill="#000000" stroke="none">
<path d="M3245 6609 c-126 -12 -328 -38 -345 -45 -8 -4 -42 -12 -75 -19 -93
-20 -188 -45 -205 -54 -9 -5 -31 -12 -50 -16 -43 -9 -223 -78 -305 -116 -99
-46 -188 -89 -220 -108 -72 -41 -92 -53 -117 -69 -15 -9 -57 -36 -95 -60 -105
-66 -154 -102 -220 -159 -34 -29 -65 -53 -71 -53 -13 0 -338 -325 -354 -354
-7 -13 -42 -58 -78 -101 -36 -42 -67 -82 -69 -89 -2 -6 -18 -29 -36 -51 -29
-36 -45 -61 -112 -173 -97 -162 -223 -420 -223 -455 0 -7 -4 -17 -9 -22 -5 -6
-14 -28 -20 -50 -7 -22 -16 -49 -21 -60 -14 -33 -41 -117 -51 -160 -5 -22 -13
-49 -18 -60 -5 -11 -15 -56 -22 -100 -6 -44 -15 -84 -20 -90 -4 -5 -12 -71
-19 -145 -6 -74 -15 -149 -21 -166 -12 -39 -12 -469 0 -492 5 -9 15 -78 21
-152 7 -74 15 -139 19 -145 4 -5 14 -44 21 -85 7 -41 16 -79 20 -85 4 -5 11
-28 15 -50 8 -45 41 -155 60 -200 7 -16 16 -41 20 -55 7 -26 10 -35 45 -115
33 -75 148 -304 175 -350 13 -22 30 -51 37 -65 7 -14 32 -51 55 -82 24 -31 43
-61 43 -66 0 -5 27 -41 60 -80 33 -40 60 -76 60 -80 0 -4 44 -56 97 -115 54
-59 113 -125 132 -147 18 -22 38 -40 43 -40 5 0 54 -42 109 -92 55 -51 105
-95 112 -97 7 -2 44 -30 84 -63 39 -32 74 -58 78 -58 3 0 27 -16 52 -35 25
-19 50 -35 56 -35 6 0 18 -6 26 -14 47 -43 386 -215 486 -247 22 -7 45 -16 50
-20 6 -4 26 -10 45 -14 19 -4 49 -13 65 -20 38 -17 159 -53 205 -61 19 -4 40
-10 45 -14 6 -4 52 -13 103 -20 51 -7 95 -17 98 -21 3 -5 23 -9 45 -9 l39 0 0
-73 c0 -120 23 -168 102 -208 47 -24 89 -24 137 1 77 39 97 81 104 215 l2 50
65 0 65 0 8 -89 c9 -97 31 -140 84 -165 16 -8 36 -17 45 -22 45 -23 118 3 173
60 28 30 30 37 33 131 l4 100 39 0 c21 0 40 4 43 9 3 4 47 14 98 21 51 7 98
16 103 20 6 4 39 13 75 20 36 6 70 15 75 20 6 4 26 11 45 15 19 4 40 11 45 15
6 5 30 13 55 19 25 7 54 16 65 20 11 5 36 14 55 21 106 37 436 206 481 246 8
8 20 14 26 14 6 0 31 16 56 35 25 19 49 35 52 35 4 0 46 31 93 70 48 38 111
89 141 112 64 52 381 376 381 390 0 6 22 36 49 67 27 31 57 70 67 87 11 16 47
72 81 124 80 122 218 397 272 545 13 33 26 67 30 75 4 8 13 40 20 70 7 30 16
64 21 75 14 29 62 232 80 330 31 169 48 467 38 663 -8 166 -34 399 -47 427 -6
11 -15 47 -20 80 -11 67 -43 195 -52 210 -4 6 -10 26 -14 45 -4 19 -13 49 -20
65 -7 17 -22 57 -34 90 -12 33 -31 77 -42 97 -10 20 -19 43 -19 49 0 16 -107
226 -149 294 -17 28 -35 61 -41 74 -6 13 -24 41 -40 61 -17 21 -30 41 -30 44
0 9 -97 143 -147 203 -24 28 -43 54 -43 58 0 34 -488 495 -524 495 -3 0 -32
20 -64 45 -31 25 -61 45 -65 45 -5 0 -29 16 -54 35 -25 19 -50 35 -56 35 -6 0
-18 6 -26 14 -33 28 -225 127 -351 181 -36 15 -78 33 -95 41 -16 7 -68 25
-115 40 -47 14 -92 29 -100 32 -34 12 -161 45 -250 64 -277 58 -608 80 -855
57z m155 -363 l0 -184 -114 -4 c-95 -2 -117 -6 -135 -22 -31 -28 -28 -79 5
-105 23 -18 41 -21 136 -21 l109 0 -3 -122 -3 -123 -198 -5 c-182 -5 -200 -7
-213 -24 -23 -33 -18 -82 12 -105 25 -20 40 -21 215 -21 l189 0 -2 -342 -3
-342 -43 -8 c-83 -14 -140 -65 -195 -173 -26 -52 -30 -70 -30 -141 0 -110 36
-187 128 -273 36 -33 70 -61 76 -61 6 0 7 -4 4 -10 -4 -6 -68 -10 -158 -10
-168 -1 -217 -8 -293 -46 -144 -71 -254 -207 -284 -353 -6 -25 -15 -63 -22
-84 l-11 -37 -501 2 -501 3 -5 198 c-5 194 -6 199 -29 218 -34 28 -65 24 -95
-12 -26 -30 -26 -31 -26 -220 l0 -189 -105 0 -105 0 0 95 c0 88 -2 98 -25 120
-31 32 -50 31 -91 0 l-33 -26 -3 -112 -3 -112 -194 -3 c-107 -1 -197 1 -201 5
-9 13 6 278 24 398 29 203 109 528 137 560 5 5 9 15 9 23 0 8 6 28 14 45 8 18
35 79 60 137 134 304 322 577 566 821 253 254 499 429 813 578 163 78 175 83
297 124 243 81 291 91 635 135 39 5 98 10 133 11 l62 1 0 -184z m435 168 c132
-12 343 -51 437 -80 108 -33 264 -87 308 -106 260 -115 493 -254 690 -412 104
-83 372 -354 451 -456 104 -133 211 -302 291 -460 67 -131 146 -316 163 -380
3 -14 10 -34 15 -45 54 -119 127 -577 130 -808 l0 -37 -162 2 -163 3 -3 92
c-3 92 -3 93 -37 119 -39 30 -64 26 -95 -13 -17 -22 -20 -40 -20 -134 l0 -109
-105 0 -105 0 0 205 c0 161 -3 212 -15 234 -23 45 -67 54 -106 22 -23 -19 -24
-24 -29 -218 l-5 -198 -541 -3 -542 -2 -5 27 c-31 155 -75 241 -172 331 -80
74 -192 136 -276 152 -29 6 -100 10 -159 10 -59 0 -110 3 -113 7 -4 3 15 21
43 40 52 35 122 120 135 163 4 14 12 31 18 39 15 18 15 192 0 222 -6 13 -19
41 -28 61 -35 78 -97 132 -197 172 l-38 15 0 340 0 341 193 0 c181 0 195 1
215 20 27 25 29 79 5 109 -17 20 -28 21 -213 23 l-195 3 0 100 0 100 92 3 c89
3 93 4 117 33 32 38 32 51 3 85 -22 25 -31 28 -118 33 l-94 6 -3 170 c-1 93 0
176 3 184 6 14 33 14 230 -5z m-2784 -3094 c4 -63 7 -116 8 -117 12 -20 51
-43 71 -43 51 0 64 30 70 158 l5 117 120 0 120 0 5 -197 c4 -165 8 -200 21
-214 23 -22 83 -22 109 1 19 17 20 30 20 204 0 102 4 192 8 199 7 10 109 12
478 10 529 -3 493 3 455 -82 -12 -25 -21 -47 -21 -51 0 -3 -48 -126 -106 -273
-141 -355 -144 -363 -144 -390 0 -12 9 -39 19 -60 32 -62 79 -92 146 -92 87 0
162 62 179 150 4 19 14 55 21 80 8 25 24 78 35 118 11 39 29 104 40 142 11 39
29 103 40 143 11 39 27 95 35 122 8 28 22 77 31 110 24 85 26 86 108 83 l71
-3 -1 -30 c-1 -16 -11 -66 -23 -110 -13 -44 -31 -111 -41 -150 -17 -65 -41
-150 -75 -270 -13 -47 -29 -107 -75 -280 -10 -38 -28 -104 -40 -145 -22 -75
-31 -108 -69 -250 -10 -41 -31 -115 -45 -165 -39 -137 -50 -179 -51 -188 0 -5
113 -8 251 -8 l251 2 7 -32 c8 -41 8 -752 -1 -897 l-6 -114 -56 5 c-140 12
-476 102 -608 162 -17 8 -34 15 -39 15 -4 0 -80 36 -168 81 -484 243 -881 612
-1164 1083 -66 108 -159 294 -196 391 -15 39 -31 79 -36 90 -16 34 -41 108
-51 150 -5 22 -14 49 -19 60 -12 27 -38 150 -55 260 -8 50 -19 118 -25 151
-11 70 -13 177 -3 188 4 3 93 5 197 4 l191 -3 6 -115z m3091 50 c11 -36 35
-114 53 -175 19 -60 43 -144 55 -185 12 -41 30 -102 40 -135 11 -33 29 -94 40
-135 43 -150 77 -203 142 -220 52 -15 106 1 145 42 40 43 50 63 57 118 7 46
-2 87 -44 225 -12 39 -30 97 -40 130 -10 33 -27 89 -38 125 -57 188 -72 242
-72 260 0 20 6 20 518 18 l517 -3 5 -195 c3 -107 9 -201 13 -208 14 -22 56
-33 78 -22 18 10 19 23 19 208 0 108 4 203 8 210 6 9 38 12 123 10 l114 -3 3
-109 c2 -91 6 -114 23 -137 25 -35 65 -38 102 -9 25 20 26 25 29 138 l3 117
159 3 158 3 -5 -78 c-14 -203 -94 -552 -163 -710 -8 -17 -14 -35 -14 -41 0
-28 -139 -324 -208 -442 -264 -453 -628 -819 -1071 -1074 -121 -70 -162 -91
-301 -153 -76 -35 -235 -90 -335 -118 -99 -27 -278 -65 -308 -65 l-27 0 2 538
3 537 248 2 c137 1 251 4 255 7 3 3 0 16 -6 29 -15 31 -62 185 -62 203 0 8 -4
22 -10 32 -5 9 -16 42 -24 72 -7 30 -23 87 -35 125 -39 126 -52 169 -72 238
-30 107 -57 198 -73 252 -49 161 -59 195 -72 245 -8 30 -19 64 -24 75 -5 11
-21 63 -35 115 -15 52 -33 115 -41 139 -22 67 -17 72 72 69 l77 -3 19 -65z
m-578 -1556 c3 -8 6 -244 5 -524 0 -568 4 -540 -69 -540 -71 0 -68 -26 -69
522 0 271 2 508 5 526 6 32 7 32 64 32 43 0 59 -4 64 -16z"></path>
</g>
</svg>