 <svg version="1.0" xmlns="http://www.w3.org/2000/svg" width="700.000000pt" height="700.000000pt" viewBox="0 0 700.000000 700.000000" preserveAspectRatio="xMidYMid meet">
<metadata>
Created by potrace 1.12, written by Peter Selinger 2001-2015
</metadata>
<g transform="translate(0.000000,700.000000) scale(0.100000,-0.100000)" fill="#000000" stroke="none">
<path d="M2550 6720 c0 -35 -70 -249 -128 -390 -38 -95 -137 -314 -155 -345
-6 -11 -38 -72 -70 -135 -49 -95 -124 -233 -217 -398 -97 -173 -256 -424 -275
-435 -9 -5 -73 -15 -143 -23 -70 -8 -136 -17 -147 -20 -11 -3 -87 -16 -170
-30 -292 -46 -347 -56 -515 -93 -222 -48 -415 -108 -526 -162 -64 -31 -154
-120 -154 -152 0 -63 144 -163 315 -217 119 -37 326 -90 415 -105 47 -8 121
-21 165 -29 44 -8 116 -18 160 -22 44 -4 85 -10 90 -14 9 -7 136 -18 410 -38
l90 -7 -2 -45 c-1 -25 -16 -130 -34 -235 -35 -207 -47 -408 -30 -490 6 -27 18
-103 26 -167 31 -226 146 -516 282 -711 18 -26 33 -50 33 -53 0 -3 26 -37 57
-77 81 -102 266 -282 360 -349 255 -183 557 -311 812 -344 64 -8 145 -20 181
-25 112 -19 449 11 585 52 126 37 249 82 304 111 30 15 59 28 66 28 6 0 49 23
95 50 46 28 85 50 87 50 8 0 226 167 286 220 49 43 232 265 279 340 115 181
229 447 258 605 6 33 19 89 28 125 13 51 16 112 16 285 0 203 -2 233 -32 398
-18 98 -32 190 -32 205 l0 27 243 18 c133 10 256 22 272 27 17 5 93 18 170 29
341 49 646 126 794 200 75 38 161 118 161 150 0 31 -24 75 -58 103 -45 38
-186 103 -297 138 -55 17 -113 35 -130 40 -16 5 -77 19 -134 30 -57 11 -108
23 -113 26 -19 12 -599 105 -874 140 -40 5 -43 8 -121 127 -156 237 -288 468
-422 737 -35 69 -67 132 -71 141 -20 39 -150 330 -150 335 0 3 -20 56 -44 117
-24 62 -49 137 -56 167 -6 30 -16 67 -22 83 l-10 27 -954 0 c-944 0 -954 0
-954 -20z m2033 -2710 c15 -29 18 -54 15 -145 -3 -96 -7 -117 -31 -166 -32
-67 -104 -137 -178 -175 -105 -53 -268 -43 -364 24 -93 65 -165 199 -165 309
0 45 25 127 44 142 7 6 140 18 296 26 156 9 287 18 289 21 3 3 21 4 41 2 29
-2 38 -9 53 -38z m-1535 -20 c52 -10 67 -18 91 -47 44 -54 56 -109 42 -196
-19 -115 -88 -208 -196 -265 -45 -25 -60 -27 -160 -27 -101 0 -114 2 -163 28
-30 16 -74 48 -98 73 -51 51 -104 153 -104 201 0 18 -7 53 -16 78 -20 60 -22
117 -4 151 l15 27 265 -6 c146 -3 293 -11 328 -17z m515 -264 c127 -54 252
-348 264 -617 4 -86 2 -101 -22 -155 -74 -167 -276 -240 -440 -160 -89 44
-153 131 -176 237 -38 176 145 638 274 694 41 18 60 18 100 1z m-808 -1223
c26 -25 35 -59 35 -124 l0 -60 73 3 72 3 3 72 c2 61 6 75 29 97 31 31 77 34
113 6 22 -16 26 -28 30 -97 l5 -78 73 -3 72 -3 0 70 c0 60 3 74 26 100 20 25
34 31 63 31 57 0 75 -26 81 -119 l5 -76 70 0 70 0 5 72 c4 58 10 76 29 97 30
32 78 34 113 6 22 -17 26 -30 32 -100 l7 -81 72 3 72 3 5 76 c6 93 24 119 80
119 56 0 74 -26 80 -119 l5 -76 73 -3 72 -3 0 61 c0 95 32 140 98 140 21 0 38
-9 56 -31 23 -26 26 -40 26 -100 l0 -69 74 0 74 0 4 81 c3 70 6 83 27 100 25
21 71 25 101 9 23 -12 40 -68 40 -132 0 -42 3 -49 30 -63 31 -16 50 -43 50
-70 0 -24 -45 -37 -148 -44 l-94 -6 -1 -72 c-2 -60 -6 -75 -26 -97 -35 -37
-81 -35 -115 5 -23 26 -26 40 -26 100 l0 69 -80 0 -80 0 0 -71 c0 -87 -23
-129 -71 -129 -68 0 -102 49 -98 138 l3 57 -54 0 -54 0 2 -60 c4 -96 -42 -149
-113 -131 -40 10 -65 61 -65 134 l0 62 -75 0 -75 0 0 -69 c0 -60 -3 -74 -26
-100 -27 -32 -60 -39 -95 -21 -31 17 -49 64 -49 130 l0 60 -54 0 -54 0 -4 -74
c-3 -63 -7 -79 -28 -101 -19 -20 -32 -25 -59 -23 -50 4 -75 43 -81 126 l-5 67
-72 3 -73 3 0 -60 c0 -98 -25 -140 -86 -141 -53 0 -78 38 -82 126 l-4 75 -57
-3 -56 -3 -5 -76 c-6 -90 -24 -119 -76 -119 -24 0 -39 8 -58 31 -23 26 -26 40
-26 100 0 38 -4 69 -9 69 -21 0 -71 53 -71 75 0 31 18 43 70 47 l45 3 3 55 c3
75 9 97 32 120 25 25 82 26 105 3z"></path>
<path d="M1975 1978 c-13 -68 -112 -383 -148 -473 -61 -149 -101 -224 -208
-382 -27 -40 -49 -77 -49 -82 0 -10 60 -25 160 -41 150 -23 490 -3 524 31 6 5
21 9 33 9 24 0 24 -1 18 -77 -13 -156 -34 -323 -43 -340 -12 -23 -25 -119 -18
-131 6 -11 258 73 356 119 78 36 257 136 285 159 46 38 159 101 176 98 13 -2
59 -84 153 -273 75 -148 146 -288 158 -311 42 -72 90 -144 98 -144 6 0 56 67
70 95 3 6 18 30 34 54 42 66 127 244 209 441 82 194 90 203 150 157 31 -24
312 -194 367 -222 60 -31 358 -135 387 -135 12 0 14 7 9 38 -4 20 -11 51 -17
67 -13 43 -38 229 -45 345 -8 114 -7 114 74 86 145 -51 412 -52 606 -3 60 16
68 31 27 52 -17 8 -36 25 -42 36 -6 12 -37 53 -69 90 -59 71 -149 240 -170
320 -6 24 -17 62 -25 84 -8 22 -19 72 -25 110 -7 39 -16 80 -21 93 -5 13 -9
31 -9 41 0 9 -6 26 -14 36 -13 18 -18 15 -87 -49 -92 -85 -170 -141 -290 -209
-299 -168 -596 -254 -944 -273 -121 -6 -447 10 -520 26 -150 33 -227 53 -308
81 -102 35 -314 126 -337 145 -8 6 -35 22 -60 34 -74 37 -265 177 -349 256
-43 41 -81 74 -84 74 -3 0 -8 -15 -12 -32z"></path>
</g>
</svg>