<?xml version="1.0" encoding="UTF-8"?>
<svg version="1.1" xmlns="http://www.w3.org/2000/svg" width="2048" height="2048">
<path d="M0 0 C5.10930036 4.93230381 9.44615243 10.53706598 13.87890625 16.0703125 C14.53890625 16.86308594 15.19890625 17.65585938 15.87890625 18.47265625 C30.37129211 36.0329867 40.69613584 55.90890954 48.87890625 77.0703125 C49.53673096 76.92932129 50.19455566 76.78833008 50.87231445 76.64306641 C100.30319579 66.14561339 150.73970678 67.53493564 194.73291016 95.23779297 C212.31384882 106.74906478 227.37210227 121.26443174 239.87890625 138.0703125 C240.30606934 138.64249512 240.73323242 139.21467773 241.17333984 139.80419922 C260.3743227 165.94366786 271.86930536 199.6313971 272.87890625 232.0703125 C272.91886719 233.26011719 272.95882812 234.44992187 273 235.67578125 C273.2938181 253.18388317 270.58381821 270.00253847 266.87890625 287.0703125 C267.45745361 287.44728271 268.03600098 287.82425293 268.63208008 288.21264648 C290.30347895 302.3763535 290.30347895 302.3763535 298.87890625 310.0703125 C299.4423877 310.56966309 300.00586914 311.06901367 300.58642578 311.58349609 C314.11440914 323.62613744 325.71253389 336.40477864 334.87890625 352.0703125 C335.21873535 352.64297852 335.55856445 353.21564453 335.90869141 353.80566406 C360.02949744 394.94138588 364.69206894 444.52250268 352.90942383 490.28271484 C344.67493295 520.10159546 329.31281245 545.94101766 307.87890625 568.0703125 C307.37246582 568.60253418 306.86602539 569.13475586 306.34423828 569.68310547 C295.07794352 581.5042193 283.07284271 590.88851016 268.87890625 599.0703125 C267.76386719 599.72773437 266.64882812 600.38515625 265.5 601.0625 C253.45146377 607.9567076 239.65910445 614.01470282 225.87890625 616.0703125 C226.08894287 617.30998779 226.08894287 617.30998779 226.30322266 618.57470703 C227.74535089 627.72348691 228.27948186 636.69127277 228.25390625 645.9453125 C228.25369476 646.65931213 228.25348328 647.37331177 228.25326538 648.10894775 C228.21432392 661.39075518 226.83396895 674.09796734 223.87890625 687.0703125 C223.68103516 687.94381348 223.48316406 688.81731445 223.27929688 689.71728516 C215.62750104 722.5717192 198.94114724 749.79801566 175.87890625 774.0703125 C175.24984375 774.76382813 174.62078125 775.45734375 173.97265625 776.171875 C149.52063366 802.23258329 109.27223035 820.78888386 73.69433594 822.19628906 C50.87511639 822.68469826 29.66845986 820.99922975 7.55493164 814.96435547 C6.11621704 814.57594482 6.11621704 814.57594482 4.6484375 814.1796875 C3.79870361 813.94217773 2.94896973 813.70466797 2.07348633 813.45996094 C-0.28760361 812.86070275 -0.28760361 812.86070275 -3.12109375 814.0703125 C-4.52999115 815.91068473 -5.84949673 817.82002954 -7.12109375 819.7578125 C-15.37562542 832.02095645 -24.46901338 842.83027535 -35.12109375 853.0703125 C-35.97316406 853.92238281 -36.82523438 854.77445313 -37.703125 855.65234375 C-50.80588335 868.7551021 -65.74002694 878.33048477 -82.04589844 886.96533203 C-83.90800563 887.95684934 -85.75399432 888.97849877 -87.59765625 890.00390625 C-108.86819025 901.40064822 -135.75357361 908.10004082 -159.83984375 908.30859375 C-161.23052063 908.32328453 -161.23052063 908.32328453 -162.64929199 908.33827209 C-200.54124181 908.65636083 -200.54124181 908.65636083 -218.12109375 904.0703125 C-218.97316406 903.86664062 -219.82523438 903.66296875 -220.703125 903.453125 C-246.46183101 897.27103556 -271.26652056 885.4414921 -292.12109375 869.0703125 C-292.93320313 868.44898438 -293.7453125 867.82765625 -294.58203125 867.1875 C-301.43273733 861.84956813 -307.82075452 856.03699532 -314.12109375 850.0703125 C-315.53455078 848.73806641 -315.53455078 848.73806641 -316.9765625 847.37890625 C-330.78621644 833.99776061 -341.26994168 818.07840864 -350.12109375 801.0703125 C-354.52225043 801.46382769 -358.90644137 801.88252425 -363.2746582 802.55786133 C-373.94756263 804.1989776 -384.46094093 804.42782103 -395.24609375 804.3828125 C-396.15084442 804.38098969 -397.05559509 804.37916687 -397.98776245 804.37728882 C-417.24231464 804.31192966 -434.94879412 802.70764566 -453.12109375 796.0703125 C-454.34957031 795.62816406 -455.57804687 795.18601562 -456.84375 794.73046875 C-479.41833233 786.1611478 -499.9535445 773.06061566 -517.12109375 756.0703125 C-518.01570313 755.23628906 -518.9103125 754.40226563 -519.83203125 753.54296875 C-531.51776367 742.40971366 -541.26820302 729.1484649 -549.12109375 715.0703125 C-549.44916016 714.48523926 -549.77722656 713.90016602 -550.11523438 713.29736328 C-572.9737708 671.94002084 -575.86644681 623.91590876 -563.12109375 579.0703125 C-561.50216494 573.69519756 -559.71976216 568.38457562 -557.83447266 563.09765625 C-556.54696502 559.43870232 -555.33758902 555.75336781 -554.12109375 552.0703125 C-554.97574219 551.8125 -555.83039063 551.5546875 -556.7109375 551.2890625 C-573.1186019 545.42515495 -586.72269883 532.8970235 -599.12109375 521.0703125 C-600.21550781 520.03777344 -600.21550781 520.03777344 -601.33203125 518.984375 C-632.65154088 488.6552056 -650.68410903 444.41510195 -651.44322205 401.10939026 C-651.62242817 386.58694951 -651.66266097 372.23658139 -648.12109375 358.0703125 C-647.96543945 357.38582031 -647.80978516 356.70132812 -647.64941406 355.99609375 C-640.45614383 324.46631045 -624.47643815 295.27761362 -602.12109375 272.0703125 C-601.50234375 271.38839844 -600.88359375 270.70648438 -600.24609375 270.00390625 C-583.99069513 252.6236921 -562.41398334 241.83839868 -541.12109375 232.0703125 C-541.26546875 231.07515625 -541.40984375 230.08 -541.55859375 229.0546875 C-544.93650121 204.32840491 -543.42146838 179.71652013 -535.12109375 156.0703125 C-534.70214844 154.86761719 -534.28320312 153.66492188 -533.8515625 152.42578125 C-527.87752654 136.53518992 -519.96902279 121.16601062 -509.12109375 108.0703125 C-508.06341797 106.71292969 -508.06341797 106.71292969 -506.984375 105.328125 C-480.24340229 71.43382207 -441.83222439 51.69250814 -399.38549805 45.84423828 C-374.64306247 42.96640777 -350.30351662 45.75921963 -326.12109375 51.0703125 C-325.17363281 49.34361328 -325.17363281 49.34361328 -324.20703125 47.58203125 C-314.82836541 30.77777154 -304.02218423 15.26201483 -290.51953125 1.50390625 C-289.16827984 0.11868483 -287.84714996 -1.29572362 -286.52734375 -2.7109375 C-225.86124195 -66.30070686 -127.04854437 -74.40537625 0 0 Z M-187.12109375 153.0703125 C-187.745 153.26367188 -188.36890625 153.45703125 -189.01171875 153.65625 C-213.70579858 161.53113372 -232.97477979 177.55689849 -245.30078125 200.4375 C-256.28690398 221.78229296 -258.76573124 248.07619722 -251.50292969 271.0234375 C-243.3364096 294.79787734 -227.04737642 314.75563046 -205.12109375 327.0703125 C-199.93842424 329.59773541 -194.754605 331.79056873 -189.12109375 333.0703125 C-189.81582278 326.83511947 -191.41913103 320.97443517 -193.12109375 314.9453125 C-193.66430451 313.0056401 -194.20602282 311.06554898 -194.74609375 309.125 C-195.10574219 307.84858643 -195.10574219 307.84858643 -195.47265625 306.54638672 C-198.264313 295.88637817 -198.56865146 284.92849334 -193.12109375 275.0703125 C-186.16608173 265.51912704 -177.83968102 259.20246731 -166.12109375 257.0703125 C-154.25907667 256.00521134 -144.9419254 257.94638967 -135.375 265.1328125 C-124.10125786 274.82393226 -120.90286939 290.47165294 -116.87109375 304.1953125 C-116.20350746 306.44853665 -115.53407691 308.70119518 -114.862854 310.95333862 C-114.4496932 312.34154059 -114.03890348 313.73045106 -113.63079834 315.12014771 C-112.58233409 318.67358121 -112.58233409 318.67358121 -111.12109375 322.0703125 C-105.92754962 320.55097741 -102.64379726 317.26831595 -98.80859375 313.6328125 C-97.80675049 312.68402222 -97.80675049 312.68402222 -96.78466797 311.71606445 C-83.82148442 299.19678226 -74.24211933 282.67005158 -70.12109375 265.0703125 C-69.89808594 264.14605469 -69.67507813 263.22179687 -69.4453125 262.26953125 C-64.64038111 238.63711362 -69.86798673 213.67051427 -82.12109375 193.0703125 C-97.85207196 169.62066765 -119.4980655 156.34418096 -146.875 150.48046875 C-160.12850682 148.80583792 -174.33175983 149.08872741 -187.12109375 153.0703125 Z M-60.12109375 258.0703125 C-60.26804687 258.8953125 -60.415 259.7203125 -60.56640625 260.5703125 C-64.26575361 279.61982533 -71.62445714 298.28737985 -85.46875 312.25 C-87.34513342 313.90739196 -87.34513342 313.90739196 -87.12109375 316.0703125 C-87.68054687 316.31007813 -88.24 316.54984375 -88.81640625 316.796875 C-91.61608489 318.34381608 -93.66380459 320.25833731 -95.99609375 322.4453125 C-99.55327897 325.71308176 -102.99386256 328.57225151 -107.12109375 331.0703125 C-106.46588467 336.64868977 -104.62804354 341.5540955 -102.62109375 346.7578125 C-102.27087158 347.66958252 -101.92064941 348.58135254 -101.55981445 349.52075195 C-99.01492808 356.03033888 -96.2658855 362.42521778 -93.30859375 368.7578125 C-92.93605469 369.56500732 -92.56351563 370.37220215 -92.1796875 371.20385742 C-91.82390625 371.94740479 -91.468125 372.69095215 -91.1015625 373.45703125 C-90.79114014 374.10889404 -90.48071777 374.76075684 -90.16088867 375.43237305 C-89.06807431 377.39828157 -89.06807431 377.39828157 -86.12109375 379.0703125 C-69.73610233 349.92165752 -69.73610233 349.92165752 -57.5 318.88671875 C-56.12109375 316.0703125 -56.12109375 316.0703125 -53.5859375 314.59765625 C-51.12109375 314.0703125 -51.12109375 314.0703125 -49.12109375 315.0703125 C-49.56602201 322.5343676 -51.53555031 328.42449767 -54.49609375 335.2578125 C-55.16439209 336.82233154 -55.16439209 336.82233154 -55.84619141 338.41845703 C-63.86227667 356.93625708 -72.61751233 375.22483439 -85.46875 390.94140625 C-87.32547292 392.88448804 -87.32547292 392.88448804 -87.12109375 395.0703125 C-105.66822889 377.66526056 -112.88803184 343.9889625 -120.99609375 320.3828125 C-121.2672702 319.59405731 -121.53844666 318.80530212 -121.81784058 317.99264526 C-124.91441839 308.952535 -127.86328263 299.89710649 -130.40255737 290.68257141 C-133.17015077 280.87655722 -138.0368821 273.27606343 -146.8515625 268.04296875 C-154.10532776 264.686749 -162.99496374 264.71732568 -170.48046875 267.171875 C-179.56709793 271.39873982 -184.2831263 276.62474808 -188.45703125 285.56640625 C-190.30405181 292.53076025 -188.70349192 298.98820464 -186.87109375 305.7578125 C-186.48280396 307.21151245 -186.48280396 307.21151245 -186.08666992 308.69458008 C-177.35177601 340.49524347 -166.27807506 371.70917381 -152.28222656 401.57910156 C-151.05065434 404.22144029 -149.84777836 406.87590452 -148.64453125 409.53125 C-143.7720536 420.14554207 -138.4168306 430.34937308 -132.43359375 440.3828125 C-131.82821777 441.40205811 -131.2228418 442.42130371 -130.59912109 443.47143555 C-122.30553545 457.1027109 -114.06914136 467.88952829 -98.12109375 472.0703125 C-88.87399744 473.24454695 -80.17624792 469.80331971 -72.62109375 464.5703125 C-62.49981975 456.70955359 -53.90077161 447.21262049 -46.12109375 437.0703125 C-45.61352539 436.41740234 -45.10595703 435.76449219 -44.58300781 435.09179688 C-35.621903 423.50984354 -27.84500288 411.49048607 -20.63964844 398.74755859 C-19.20840687 396.2242475 -17.75005976 393.71871136 -16.28515625 391.21484375 C-8.30679241 377.37499846 -2.21037677 362.81048647 3.87890625 348.0703125 C4.82870622 345.78876227 5.77918849 343.50749592 6.73046875 341.2265625 C7.35042725 339.73866211 7.35042725 339.73866211 7.98291016 338.22070312 C8.27858887 337.51107422 8.57426758 336.80144531 8.87890625 336.0703125 C10.5450253 336.0275915 12.2127351 336.02967418 13.87890625 336.0703125 C14.20890625 336.4003125 14.53890625 336.7303125 14.87890625 337.0703125 C14.52846986 344.12109268 12.76594614 349.74056453 10.00390625 356.1953125 C9.60389404 357.14615723 9.20388184 358.09700195 8.79174805 359.07666016 C-5.04541441 391.56669049 -22.36394558 422.88372373 -45.54296875 449.71630859 C-48.24906144 452.4929296 -48.24906144 452.4929296 -49.12109375 456.0703125 C-41.13717109 459.00126319 -33.15232375 461.92966862 -25.1661377 464.85444641 C-20.8760847 466.42598196 -16.58795307 468.0026479 -12.30078125 469.58203125 C-10.32426451 470.30741636 -8.34770504 471.03268506 -6.37109375 471.7578125 C-5.45634277 472.09619141 -4.5415918 472.43457031 -3.59912109 472.78320312 C-2.76590332 473.08806641 -1.93268555 473.39292969 -1.07421875 473.70703125 C-0.35395508 473.97217529 0.36630859 474.23731934 1.10839844 474.51049805 C2.88724679 475.17080498 2.88724679 475.17080498 4.87890625 475.0703125 C4.00390625 480.9453125 4.00390625 480.9453125 2.87890625 482.0703125 C-3.2469283 481.63348777 -8.54504896 480.12068462 -14.30078125 478.05078125 C-15.15358673 477.75093826 -16.00639221 477.45109528 -16.88504028 477.14216614 C-19.59144465 476.18821576 -22.29366697 475.22296492 -24.99609375 474.2578125 C-26.80183951 473.62105293 -28.60782727 472.98497918 -30.4140625 472.34960938 C-32.16820433 471.72983302 -33.92211533 471.10940293 -35.67578125 470.48828125 C-36.94261749 470.03979324 -36.94261749 470.03979324 -38.23504639 469.58224487 C-43.33790219 467.75827423 -48.3435527 465.80735743 -53.25048828 463.49731445 C-55.18430928 462.87480614 -55.18430928 462.87480614 -57.20849609 463.85693359 C-59.83044761 465.52033659 -62.19651986 467.44380515 -64.62109375 469.3828125 C-74.85901698 477.31469644 -86.14965125 481.23022738 -99.12109375 480.0703125 C-112.21509741 477.34887468 -120.92981595 471.51837092 -129.12109375 461.0703125 C-129.45109375 460.4103125 -129.78109375 459.7503125 -130.12109375 459.0703125 C-138.90794004 462.08294551 -143.08941666 468.42171545 -147.3203125 476.3046875 C-153.74352146 489.77193603 -153.76604469 504.58884953 -149.02490234 518.61328125 C-145.44793398 528.33737892 -141.10624931 537.77995036 -136.92126465 547.2543335 C-134.69443215 552.30810523 -132.50471307 557.37814441 -130.30859375 562.4453125 C-129.79498291 563.62746338 -129.28137207 564.80961426 -128.75219727 566.02758789 C-123.48968548 578.1550679 -118.31998738 590.32202977 -113.14538574 602.48721313 C-109.23317502 611.68350873 -105.31653153 620.87791798 -101.39874268 630.07183838 C-100.58973573 631.97047135 -99.78091511 633.86918374 -98.97235107 635.76800537 C-97.10371561 640.15555843 -95.23066458 644.54113306 -93.34667969 648.92211914 C-92.59468595 650.67374271 -91.84798935 652.42763758 -91.1015625 654.18164062 C-84.27606977 669.99991616 -77.59581195 682.49337258 -61.08203125 689.328125 C-48.52317148 693.69775261 -36.3451322 693.39672514 -24.12109375 688.0703125 C-11.85970102 681.28704901 -4.84665754 671.48727248 -0.80859375 658.1953125 C2.85319727 640.73959027 -5.03870266 625.40420142 -11.93359375 609.8828125 C-12.68642512 608.17394457 -13.43861241 606.46479277 -14.19018555 604.75537109 C-16.11430843 600.38331971 -18.04666821 596.01496119 -19.98095703 591.6473999 C-21.80409273 587.52650811 -23.61872357 583.40188072 -25.43359375 579.27734375 C-27.6820626 574.1696718 -29.93180469 569.06257317 -32.18821716 563.95840454 C-33.0130698 562.09211187 -33.83640149 560.2251472 -34.65966797 558.3581543 C-35.56552939 556.3201931 -36.48183582 554.28679815 -37.41455078 552.26098633 C-37.96344971 551.06638794 -37.96344971 551.06638794 -38.5234375 549.84765625 C-38.98544556 548.86140259 -38.98544556 548.86140259 -39.45678711 547.85522461 C-40.43440482 545.22848331 -40.40401323 542.82877738 -40.12109375 540.0703125 C-37.81109375 539.7403125 -35.50109375 539.4103125 -33.12109375 539.0703125 C-32.86062256 539.89917969 -32.60015137 540.72804688 -32.33178711 541.58203125 C-30.98998016 545.4480804 -29.41071542 549.1457757 -27.75 552.8828125 C-27.26550636 553.9807312 -27.26550636 553.9807312 -26.77122498 555.10083008 C-26.09087922 556.64103261 -25.40922052 558.18065579 -24.72631836 559.71972656 C-23.68739214 562.06174988 -22.65293849 564.40570914 -21.61914062 566.75 C-20.95469061 568.25272071 -20.28998553 569.75532868 -19.625 571.2578125 C-19.31865128 571.95173096 -19.01230255 572.64564941 -18.69667053 573.3605957 C-18.1170005 574.66528818 -17.53040785 575.96693381 -16.93591309 577.26493835 C-16.17005082 578.9618396 -15.45909509 580.68321845 -14.75219727 582.40551758 C-12.69587237 585.76501259 -11.22913196 586.31692273 -7.51953125 587.51953125 C-6.39748291 587.89150635 -5.27543457 588.26348145 -4.11938477 588.64672852 C-2.92369873 589.01338623 -1.7280127 589.38004395 -0.49609375 589.7578125 C1.33320679 590.33970337 1.33320679 590.33970337 3.19946289 590.93334961 C27.65861086 598.51909899 50.22439523 599.67584735 73.48828125 587.73046875 C91.65590509 577.54644359 103.6551749 560.28999659 109.25390625 540.5078125 C112.52746537 527.76540713 113.25944945 514.78812861 113.19140625 501.6953125 C113.18958344 500.95908661 113.18776062 500.22286072 113.18588257 499.46432495 C113.1295545 485.83274987 112.08010159 472.53518544 109.87890625 459.0703125 C109.7072998 458.00329102 109.53569336 456.93626953 109.35888672 455.83691406 C98.90177914 392.27190445 77.43417952 313.51646338 22.87890625 273.0703125 C-2.06430669 255.71073706 -30.65347066 252.70385106 -60.12109375 258.0703125 Z M-251.12109375 296.0703125 C-251.75536745 349.79037055 -251.85731826 410.01320664 -220.12109375 456.0703125 C-217.08075837 454.72782675 -215.20531457 453.2848704 -212.99609375 450.8203125 C-203.33277042 440.95182307 -189.47053243 436.13346639 -175.80859375 435.7578125 C-168.91047793 435.79238952 -162.54403847 437.3884044 -155.90625 439.09765625 C-152.98222646 439.84903072 -150.0872536 440.51887378 -147.12109375 441.0703125 C-145.06235932 439.2045281 -145.06235932 439.2045281 -144.12109375 436.0703125 C-145.3315012 432.45971742 -147.34837866 429.32008323 -149.30859375 426.0703125 C-150.44467572 424.09246264 -151.57608566 422.1119228 -152.703125 420.12890625 C-153.27885254 419.1219873 -153.85458008 418.11506836 -154.44775391 417.07763672 C-161.38759895 404.60535612 -167.08005332 391.41062681 -172.12109375 378.0703125 C-176.18795875 379.42593417 -176.9206113 381.48337957 -179.18359375 385.0703125 C-182.91919556 390.96936341 -182.91919556 390.96936341 -185.12109375 392.0703125 C-185.22421875 390.8946875 -185.32734375 389.7190625 -185.43359375 388.5078125 C-185.87399878 384.47593551 -186.63044186 380.59396302 -187.49609375 376.6328125 C-188.60453632 371.55158746 -189.26224684 366.68902924 -189.59765625 361.49609375 C-189.68611816 360.33585693 -189.77458008 359.17562012 -189.86572266 357.98022461 C-190.03375068 355.65433766 -190.15961467 353.32495605 -190.23974609 350.99438477 C-190.49812717 347.69276674 -190.81426867 345.11766003 -192.12109375 342.0703125 C-195.51276212 339.5003498 -199.09082049 338.33304309 -203.12109375 337.0703125 C-204.39441672 336.51685196 -205.65864489 335.94125323 -206.90625 335.33203125 C-207.98777344 334.81253906 -209.06929687 334.29304688 -210.18359375 333.7578125 C-216.53860271 330.61205262 -221.80318308 326.73371109 -227.12109375 322.0703125 C-227.84425781 321.50183594 -228.56742188 320.93335938 -229.3125 320.34765625 C-237.030891 314.06524497 -244.63952134 305.03345732 -249.12109375 296.0703125 C-249.78109375 296.0703125 -250.44109375 296.0703125 -251.12109375 296.0703125 Z M-332.12109375 310.0703125 C-335.74908816 314.38468423 -337.55338215 318.44001968 -337.12109375 324.0703125 C-335.81900568 328.51843944 -333.81734479 331.42263711 -330.43359375 334.5703125 C-325.39573594 336.8516066 -321.24642053 337.09510262 -315.96484375 335.36328125 C-306.45439557 330.76311882 -299.09299756 321.56874311 -292.5 313.5390625 C-290.03265792 310.91095876 -287.12026269 309.049764 -284.12109375 307.0703125 C-297.34392209 299.86886366 -320.38141405 300.28724609 -332.12109375 310.0703125 Z M-303.859375 358.7265625 C-310.44270381 365.54866489 -315.04609917 372.30601876 -315.12109375 382.0703125 C-314.15765242 387.23786144 -311.05501078 390.72648302 -307.12109375 394.0703125 C-303.3930948 395.31297882 -299.99326381 395.59933763 -296.12109375 395.0703125 C-290.88856454 392.35342234 -287.29374204 388.92240029 -285.03759766 383.43505859 C-283.95664433 379.46657199 -283.76937066 375.69198109 -283.70703125 371.609375 C-283.6876651 370.81880707 -283.66829895 370.02823914 -283.64834595 369.2137146 C-283.58893322 366.70768767 -283.54231948 364.20161385 -283.49609375 361.6953125 C-283.45787862 359.98826207 -283.41882486 358.28123019 -283.37890625 356.57421875 C-283.28326364 352.40640206 -283.1990926 348.2384952 -283.12109375 344.0703125 C-289.21410284 344.0703125 -299.58608562 354.70788135 -303.859375 358.7265625 Z M-373.42578125 387.23046875 C-377.56933839 391.72727846 -379.32832499 396.09291361 -379.62109375 402.1953125 C-379.39170799 406.86904739 -378.42281282 409.60350747 -375.12109375 413.0703125 C-371.27477094 415.8153021 -368.25441018 417.0703125 -363.49609375 417.0703125 C-356.26541737 414.92788987 -353.26791684 411.28344527 -349.59008789 405.0012207 C-347.08725518 400.00761814 -345.74612978 394.77643974 -344.37109375 389.3828125 C-344.08105469 388.29419922 -343.79101562 387.20558594 -343.4921875 386.08398438 C-342.93758032 384.00104188 -342.38841081 381.91664093 -341.84570312 379.83056641 C-340.98747156 376.5613056 -340.06799489 373.3148414 -339.12109375 370.0703125 C-350.73740344 370.0703125 -365.28172648 379.69639379 -373.42578125 387.23046875 Z M-320.12109375 426.0703125 C-329.48987423 437.4184128 -339.86858626 450.72005061 -338.99609375 466.1953125 C-338.28609431 471.6330729 -336.17596251 475.01544374 -332.30859375 478.8828125 C-328.62687392 480.88146041 -325.21545048 481.44458918 -321.06640625 480.703125 C-316.25385274 479.23211808 -313.78137876 477.05386301 -311.03125 472.88671875 C-307.3248084 465.48974302 -308.93388746 457.9439247 -311.37109375 450.4453125 C-311.82994221 449.06614418 -312.28958895 447.68724121 -312.75 446.30859375 C-314.54264995 440.91062828 -315.87353405 435.40822636 -317.2265625 429.88671875 C-317.52175781 428.95730469 -317.81695313 428.02789063 -318.12109375 427.0703125 C-318.78109375 426.7403125 -319.44109375 426.4103125 -320.12109375 426.0703125 Z M-212.9453125 463.1484375 C-220.49087884 472.80372138 -223.22817457 482.07705845 -223.49609375 494.2578125 C-223.53524902 495.24479126 -223.53524902 495.24479126 -223.57519531 496.25170898 C-223.61627129 508.56423438 -218.04352292 520.18062472 -213.03878784 531.16802979 C-211.33898853 534.90040146 -209.67050247 538.64681292 -207.99609375 542.390625 C-207.66129501 543.13670013 -207.32649628 543.88277527 -206.98155212 544.65145874 C-204.07991879 551.12710019 -201.29767717 557.6492799 -198.55859375 564.1953125 C-194.43262878 574.02631546 -190.19307896 583.80391314 -185.89694214 593.56143188 C-181.7927337 602.88741234 -177.75872378 612.24139952 -173.76953125 621.6171875 C-173.30414948 622.70946152 -172.8387677 623.80173553 -172.35928345 624.92710876 C-168.57920255 633.79970702 -168.57920255 633.79970702 -166.74884033 638.12722778 C-165.44027731 641.22101874 -164.12495174 644.31186298 -162.80859375 647.40234375 C-162.42464447 648.31582581 -162.04069519 649.22930786 -161.64511108 650.17047119 C-155.30112705 665.01287782 -147.38242014 679.56642867 -131.73046875 686.0625 C-120.59458862 689.9342464 -109.15777465 690.72122151 -98.12109375 686.0703125 C-93.82938686 683.99671476 -93.82938686 683.99671476 -90.12109375 681.0703125 C-90.12109375 677.13654555 -90.52479007 675.69931398 -92.11328125 672.25 C-92.5609082 671.26362549 -93.00853516 670.27725098 -93.46972656 669.26098633 C-93.97342773 668.16681396 -94.47712891 667.0726416 -94.99609375 665.9453125 C-96.11590988 663.46858837 -97.23352168 660.99099271 -98.34765625 658.51171875 C-98.64869263 657.84297226 -98.949729 657.17422577 -99.2598877 656.48521423 C-103.0697469 647.99690405 -106.7167258 639.43890276 -110.37109375 630.8828125 C-111.12372788 629.12253661 -111.87641442 627.36228312 -112.62915039 625.60205078 C-114.24286035 621.82759838 -115.85573622 618.0527906 -117.46826172 614.27783203 C-121.92595882 603.84437497 -126.39454884 593.41558103 -130.86306763 582.98675537 C-132.42319849 579.34458057 -133.98206993 575.70186871 -135.54077148 572.05908203 C-139.80484527 562.09876237 -144.07124068 552.1404038 -148.43359375 542.22265625 C-148.89997505 541.15958755 -148.89997505 541.15958755 -149.3757782 540.07504272 C-150.72646121 536.99708836 -152.08352876 533.92270041 -153.45629883 530.85449219 C-157.96228403 520.61879275 -160.66921154 511.36954987 -160.49609375 500.1328125 C-160.48594238 499.17133301 -160.47579102 498.20985352 -160.46533203 497.21923828 C-160.06399731 478.82317466 -152.97644538 465.92566413 -140.12109375 453.0703125 C-143.9935848 451.75032858 -147.86948984 450.4406633 -151.74609375 449.1328125 C-152.84050781 448.75962891 -153.93492187 448.38644531 -155.0625 448.00195312 C-156.12597656 447.64423828 -157.18945312 447.28652344 -158.28515625 446.91796875 C-159.2592041 446.58804932 -160.23325195 446.25812988 -161.23681641 445.91821289 C-181.41419464 439.98660339 -199.51054306 447.84373227 -212.9453125 463.1484375 Z M-405.12109375 578.0703125 C-405.64032913 578.51607635 -406.15956451 578.96184021 -406.6945343 579.42111206 C-408.80158327 581.857005 -408.48528292 584.21420695 -408.3765564 587.31304932 C-407.8551828 592.94034646 -406.7500346 598.45730979 -405.671875 604 C-405.41407586 605.35721139 -405.15702759 606.71456559 -404.90068054 608.072052 C-404.22425229 611.64359514 -403.53815539 615.21321124 -402.84979248 618.7824707 C-402.03524465 623.01539589 -401.23189715 627.25045828 -400.42759514 631.48534012 C-399.76778263 634.95699762 -399.10425343 638.42785324 -398.43215942 641.89715576 C-397.14041525 648.58237628 -395.90311357 655.26837357 -394.78662109 661.98535156 C-394.46929268 663.8460881 -394.46929268 663.8460881 -394.14555359 665.74441528 C-393.75272573 668.06560524 -393.37556919 670.38952415 -393.01716614 672.71627808 C-391.97401188 678.7966572 -391.14919372 682.3142746 -386.12109375 686.0703125 C-366.09156947 699.12599432 -331.26703152 695.65256472 -309.12109375 691.0703125 C-302.37159597 689.43194893 -295.66825293 687.68771389 -291.12109375 682.0703125 C-289.77484068 678.53730298 -289.21886998 674.93564947 -288.62890625 671.2109375 C-288.34076302 669.58856171 -288.34076302 669.58856171 -288.04679871 667.93341064 C-287.42383457 664.39924753 -286.83493224 660.86030628 -286.24609375 657.3203125 C-285.82319171 654.88300486 -285.39763454 652.44615649 -284.96948242 650.00976562 C-284.31854582 646.30551589 -283.66909549 642.60110272 -283.02867126 638.89501953 C-281.67816614 631.10268454 -280.22858097 623.33806901 -278.6640625 615.5859375 C-278.37740723 614.16090912 -278.37740723 614.16090912 -278.08496094 612.70709229 C-277.36187837 609.12478161 -276.63552194 605.54327859 -275.8928833 601.96496582 C-275.3935332 599.55389643 -274.906679 597.14059134 -274.421875 594.7265625 C-274.27348679 594.03210022 -274.12509857 593.33763794 -273.97221375 592.62213135 C-272.90514101 587.23431615 -272.82921902 583.07373901 -275.8515625 578.38671875 C-288.64627216 565.32774658 -313.06650217 563.99942759 -330.32421875 563.76953125 C-333.07650503 563.75206701 -335.82823296 563.74812113 -338.58056641 563.75463867 C-341.35359303 563.7577926 -344.12554212 563.73426391 -346.8984375 563.70898438 C-365.81147686 563.64154456 -390.56279073 564.33748027 -405.12109375 578.0703125 Z " fill="#000000" transform="translate(1623.12109375,149.9296875)"/>
<path d="M0 0 C2 1.5 2 1.5 3 4 C2.73834772 10.4999936 1.07215829 14.24843597 -2.625 19.5 C-3.62873747 20.98533632 -4.62988901 22.47242231 -5.62890625 23.9609375 C-6.17047363 24.76241211 -6.71204102 25.56388672 -7.27001953 26.38964844 C-10.478671 31.23115303 -13.50622678 36.18648856 -16.5625 41.125 C-20.67141573 47.73752112 -24.81120537 54.31099325 -29.1875 60.75 C-33.69345532 67.38074551 -37.81045152 74.22700506 -41.89135742 81.12597656 C-49.28768623 93.6211097 -49.28768623 93.6211097 -52.9375 95.5625 C-56 96 -56 96 -58.6875 95 C-61.56375849 92.51242509 -62.79571107 90.61286678 -64 87 C-62.72941135 81.00100644 -59.11846199 76.17687265 -55.8125 71.125 C-54.53145865 69.14263325 -53.25154824 67.1595353 -51.97265625 65.17578125 C-50.98289795 63.6436499 -50.98289795 63.6436499 -49.97314453 62.08056641 C-47.46308998 58.16175073 -45.01364909 54.20725333 -42.56640625 50.24902344 C-34.30095605 36.88654562 -25.64322766 23.80966493 -16.8684082 10.77880859 C-15.52083871 8.77462253 -14.19222065 6.75764818 -12.87573242 4.73291016 C-9.43297363 -0.2831307 -5.96657573 -0.65089917 0 0 Z " fill="#000000" transform="translate(883,561)"/>
<path d="M0 0 C2.08831669 3.13247503 2.62019545 5.09510567 2.484375 8.84375 C1.4914124 13.26403511 -1.85462364 15.9265767 -5 19 C-6.02793506 20.04762471 -7.05383016 21.09725336 -8.078125 22.1484375 C-12.46167737 26.61386565 -16.83084898 31.03024826 -21.59765625 35.08984375 C-27.71854318 40.3885548 -33.31299643 46.24548536 -39 52 C-51.82553605 64.97778945 -51.82553605 64.97778945 -58.10449219 70.31835938 C-62.81198797 74.49471576 -67.10181743 79.14913262 -71.46484375 83.6796875 C-78.87481681 91.22851866 -78.87481681 91.22851866 -84 93 C-87.10329177 92.39151142 -89.21980865 91.49412119 -91.875 89.8125 C-93.77100884 86.7578191 -93.47506088 84.503574 -93 81 C-90.58695485 77.38043228 -87.86336759 74.85226551 -84.5625 72.0625 C-78.75272294 67.00682563 -73.40704756 61.47713892 -68 56 C-56.22980073 44.07722408 -56.22980073 44.07722408 -49.890625 38.66796875 C-46.25321554 35.45893189 -42.89729646 31.959178 -39.5 28.5 C-34.76245687 23.67616282 -29.97071227 19.03462537 -24.84375 14.62548828 C-21.19516959 11.40882404 -17.89251902 7.85296613 -14.515625 4.35546875 C-9.72542578 -0.12976437 -6.39087042 -0.51539278 0 0 Z " fill="#000000" transform="translate(946,630)"/>
<path d="M0 0 C31.91014757 18.21625643 44.81590024 63.90393229 53.92041016 97.13208008 C63.08207296 131.06978296 69.75327878 166.82256394 69.79296875 202.0546875 C69.79629715 203.11430695 69.79962555 204.17392639 69.80305481 205.26565552 C69.80807785 207.48911104 69.81046458 209.71257397 69.81030273 211.93603516 C69.81249013 215.29732923 69.83069843 218.65829493 69.84960938 222.01953125 C69.88779062 236.21033816 69.3374139 249.69748078 65.4375 263.4375 C65.22464355 264.19023193 65.01178711 264.94296387 64.79248047 265.71850586 C61.16305829 277.91589234 55.36590256 291.83483862 43.9375 298.4375 C37.20999879 301.87892158 30.24146488 302.58669112 22.87890625 300.75390625 C16.2540723 298.4892467 10.50015082 295.19719549 4.625 291.4375 C-17.82913029 277.25594403 -45.69345002 271.2264883 -71.125 264.9375 C-72.43453446 264.61114453 -73.7440229 264.28460439 -75.0534668 263.95788574 C-102.20252234 257.19891211 -129.51487569 251.97032128 -157.171875 247.77734375 C-158.40532654 247.58999664 -158.40532654 247.58999664 -159.66369629 247.39886475 C-165.55026624 246.52127768 -171.4343429 245.83263545 -177.375 245.4375 C-175.83799031 258.30545508 -175.83799031 258.30545508 -169.59765625 269.10546875 C-167.03693694 270.64010018 -164.47774937 271.68861103 -161.6875 272.75 C-150.79205086 277.19576792 -142.91669487 282.87135678 -137.6875 293.5625 C-133.18905697 304.32076349 -131.73480768 315.78527978 -130.41015625 327.29296875 C-130.32754107 327.99166769 -130.24492588 328.69036663 -130.15980721 329.41023827 C-128.08483422 346.98073879 -126.54562078 364.60051333 -125.03027344 382.22644043 C-124.6684782 386.41892527 -124.29959684 390.61078663 -123.93164062 394.80273438 C-123.20984435 403.04151576 -122.49983963 411.2812695 -121.79568481 419.52157593 C-121.51166914 422.84498976 -121.22579549 426.1682363 -120.93844604 429.49136353 C-120.58225207 433.61201952 -120.22954757 437.73296054 -119.87936592 441.8541317 C-119.74862428 443.38704556 -119.61680309 444.91986782 -119.483778 446.45258522 C-117.48700838 469.4949495 -115.8416198 489.03451893 -130.625 508.1875 C-138.79416796 517.76373201 -148.92509828 523.41962602 -161.375 525.4375 C-194.17740479 527.72706382 -222.83820607 503.34306826 -247.81347656 485.17504883 C-252.64042927 481.66920702 -257.51182651 478.24059338 -262.4375 474.875 C-273.9440387 467.00450473 -285.35926101 459.05834145 -296.41015625 450.5546875 C-297.18234497 449.96228271 -297.95453369 449.36987793 -298.75012207 448.75952148 C-300.62603738 447.32008511 -302.50097867 445.87940072 -304.375 444.4375 C-304.37484402 445.11327434 -304.37468804 445.78904867 -304.37452733 446.48530102 C-304.35756929 520.10929498 -304.3418655 593.73328916 -304.33265686 667.35728455 C-304.3325188 668.45823901 -304.33238075 669.55919347 -304.33223851 670.69351019 C-304.32924512 694.62413167 -304.32647501 718.55475317 -304.32393467 742.48537469 C-304.32268741 754.22210201 -304.32139084 765.95882933 -304.32006836 777.69555664 C-304.3199376 778.86345978 -304.31980684 780.03136292 -304.31967212 781.23465707 C-304.31541595 819.04339328 -304.30790852 856.852128 -304.29870278 894.66086331 C-304.28925458 933.53632144 -304.28311094 972.41177875 -304.28108501 1011.28723801 C-304.28079688 1016.78669605 -304.28047125 1022.28615408 -304.28012276 1027.78561211 C-304.28005533 1028.86791197 -304.27998791 1029.95021183 -304.27991844 1031.06530866 C-304.27873986 1048.43962845 -304.27411027 1065.81394566 -304.26816797 1083.18826441 C-304.26225852 1100.68420134 -304.26003755 1118.18013573 -304.26149862 1135.67607362 C-304.26225527 1146.05196007 -304.26026693 1156.4278372 -304.25420246 1166.80372196 C-304.25041726 1173.7595636 -304.2503608 1180.71539922 -304.25316819 1187.6712413 C-304.25465959 1191.61868022 -304.25469057 1195.56610166 -304.25011682 1199.51353861 C-304.23452454 1214.04478308 -304.27839593 1228.57649874 -304.64656812 1243.1038356 C-304.6928283 1245.00339407 -304.72756063 1246.90322284 -304.76172027 1248.80303744 C-305.36479499 1269.13080542 -310.77422698 1287.84580328 -325.76953125 1302.23828125 C-340.40249969 1314.58964742 -359.82523822 1321.29271938 -378.94140625 1320.78125 C-396.31685805 1319.04172809 -413.70309494 1309.06029364 -424.78515625 1295.68359375 C-437.02959381 1278.38494118 -438.68552176 1258.00870628 -438.61550903 1237.56903076 C-438.61638228 1235.66539015 -438.61813545 1233.76174977 -438.62068737 1231.85811067 C-438.6251415 1226.65186938 -438.61718388 1221.44571099 -438.60713124 1216.23948026 C-438.59847109 1210.61591685 -438.60141872 1204.99235788 -438.60293579 1199.36878967 C-438.60398302 1189.63378548 -438.59772335 1179.89880816 -438.58646011 1170.16381073 C-438.57018612 1156.08874893 -438.56499516 1142.01370008 -438.56248413 1127.9386299 C-438.55811001 1105.10116777 -438.54482581 1082.26372312 -438.52587891 1059.42626953 C-438.5074982 1037.24560622 -438.49333678 1015.06494675 -438.48486328 992.88427734 C-438.48460023 992.20008399 -438.48433718 991.51589064 -438.48406615 990.81096416 C-438.48142902 983.93975906 -438.47887741 977.06855393 -438.47638843 970.19734878 C-438.4555207 912.61072253 -438.42009059 855.02411207 -438.375 797.4375 C-445.635 797.7675 -452.895 798.0975 -460.375 798.4375 C-460.37223462 800.78831444 -460.36946924 803.13912888 -460.36662006 805.56118011 C-460.30141603 861.38814968 -460.25215951 917.21511715 -460.22180401 973.04211679 C-460.21806218 979.91626153 -460.21417249 986.79040617 -460.21020508 993.66455078 C-460.2098128 994.34859143 -460.20942052 995.03263208 -460.20901636 995.73740124 C-460.19624445 1017.88790762 -460.17371961 1040.03839095 -460.14610834 1062.18888339 C-460.11696899 1085.60790803 -460.09900378 1109.02691346 -460.09273452 1132.44595766 C-460.08862204 1146.46788191 -460.07564172 1160.48974 -460.0512506 1174.51164389 C-460.03536993 1184.13224062 -460.03060493 1193.75280325 -460.03449587 1203.37341213 C-460.03641377 1208.92061956 -460.03351235 1214.4677115 -460.01738358 1220.0148983 C-460.00270118 1225.10199239 -460.00210141 1230.1888942 -460.01230332 1235.27599746 C-460.01356276 1237.10803702 -460.00982828 1238.94008897 -460.00035045 1240.77210444 C-459.88650973 1264.1527233 -464.41088052 1284.50320256 -480.625 1302.25 C-493.18534975 1313.91318191 -511.18407718 1321.09378789 -528.33984375 1320.68359375 C-546.77636554 1319.18874063 -566.09919176 1312.18765071 -578.859375 1298.3125 C-590.7675319 1283.5807595 -593.69180602 1263.33909501 -593.63671303 1244.93365955 C-593.63990671 1243.59401383 -593.64397224 1242.25436996 -593.64882231 1240.91472921 C-593.65959775 1237.24641428 -593.65807038 1233.57819386 -593.65447159 1229.90986873 C-593.65275975 1225.9142493 -593.66263657 1221.91865543 -593.67102563 1217.92304677 C-593.68413171 1210.92475014 -593.68988245 1203.92647765 -593.69078636 1196.92816925 C-593.69216392 1186.52198963 -593.70495663 1176.1158458 -593.7200741 1165.70967818 C-593.74518301 1148.20380301 -593.76105548 1130.69793087 -593.77165604 1113.1920414 C-593.78218146 1095.86010398 -593.79681696 1078.52817805 -593.81693649 1061.19624901 C-593.81818536 1060.11842735 -593.81943423 1059.04060569 -593.82072094 1057.93012277 C-593.82708473 1052.4563663 -593.8335219 1046.98260992 -593.83998732 1041.50885358 C-593.88564471 1002.7426434 -593.92209464 963.97642949 -593.953125 925.21020508 C-593.98329084 887.55036879 -594.01763026 849.89054009 -594.05761719 812.23071289 C-594.05884819 811.06978418 -594.06007919 809.90885547 -594.0613475 808.7127471 C-594.0737144 797.05417769 -594.08616612 785.39560838 -594.09867998 773.73703913 C-594.12417002 749.98738756 -594.14909395 726.23773541 -594.17367554 702.48808289 C-594.17480645 701.39612269 -594.17593736 700.3041625 -594.17710253 699.1791126 C-594.25255225 626.26525056 -594.31480567 553.35137604 -594.375 480.4375 C-595.61402758 484.68333634 -596.85142305 488.92964409 -598.08739185 493.17637157 C-598.50695189 494.61714016 -598.92693631 496.05778524 -599.34737492 497.49829769 C-602.32331737 507.69591432 -605.21420076 517.88481599 -607.5625 528.25 C-607.72109497 528.94653687 -607.87968994 529.64307373 -608.04309082 530.36071777 C-617.39066686 571.83125837 -621.13514803 615.04730749 -623.375 657.4375 C-623.41936188 658.13609131 -623.46372375 658.83468262 -623.50942993 659.55444336 C-624.40394569 673.65305712 -624.41607387 687.72436822 -624.33203125 701.84375 C-624.32169824 703.8051755 -624.31141934 705.76660128 -624.30119324 707.72802734 C-624.25641271 715.85787831 -624.2083134 723.98759791 -624.12817383 732.1171875 C-624.0792867 737.14930946 -624.05056684 742.18121785 -624.03442955 747.21354675 C-624.02464714 749.10472368 -624.00761784 750.99587977 -623.98264503 752.88691711 C-623.728869 772.50140409 -626.87523652 790.54915985 -641.0234375 805.3125 C-644.5261301 808.47772388 -648.03480142 810.61239085 -652.375 812.4375 C-653.09816406 812.75460937 -653.82132813 813.07171875 -654.56640625 813.3984375 C-665.82071465 817.54977292 -680.30662824 816.67984422 -691.375 812.4375 C-702.31768271 807.23420707 -711.00162135 798.87397208 -715.1401062 787.29724121 C-716.99669081 781.44229068 -717.89611123 776.11467907 -718.0546875 769.98828125 C-718.08770966 769.03141922 -718.12073181 768.07455719 -718.15475464 767.08869934 C-718.64941495 750.23814154 -718.52189165 733.36601893 -718.50195312 716.51013184 C-718.4993704 712.69496696 -718.50420028 708.87982569 -718.50880337 705.06466389 C-718.539901 674.81220322 -718.35436674 644.55634345 -716.0625 614.375 C-715.99775482 613.50405701 -715.93300964 612.63311401 -715.86630249 611.73577881 C-712.25058307 563.52582498 -704.48516814 515.17662789 -690.3203125 468.8984375 C-688.48536116 462.88417371 -686.85138676 456.82974216 -685.25 450.75 C-676.37788084 417.74313233 -660.48516819 384.64040146 -638.375 358.4375 C-637.87226562 357.81230469 -637.36953125 357.18710937 -636.8515625 356.54296875 C-615.50701274 330.81032627 -586.55817355 315.06832505 -553.375 311.4375 C-534.27244865 309.81401803 -514.9627229 310.27308119 -495.80867434 310.27024293 C-493.07360291 310.2695239 -490.33853626 310.2673739 -487.60346603 310.26474571 C-478.01200806 310.25554638 -468.42056381 310.2514043 -458.82910156 310.25219727 C-449.96657773 310.2527978 -441.1041148 310.24223667 -432.24160635 310.2264536 C-424.56271671 310.21327816 -416.88384675 310.20801746 -409.20494592 310.20865268 C-404.64934082 310.20890458 -400.09379013 310.20622673 -395.53819656 310.19547462 C-341.22297412 310.0763228 -341.22297412 310.0763228 -324.375 316.4375 C-323.21355469 316.85128906 -322.05210937 317.26507812 -320.85546875 317.69140625 C-299.97283269 325.67143926 -281.42522699 340.51181305 -263.375 353.4375 C-261.79299602 354.56253835 -260.21096489 355.68753852 -258.62890625 356.8125 C-249.34185109 363.44291926 -240.27667957 370.29941337 -231.375 377.4375 C-230.35664062 378.24960938 -229.33828125 379.06171875 -228.2890625 379.8984375 C-225.98118013 381.7408646 -223.67632553 383.58689491 -221.375 385.4375 C-221.78733368 373.86372007 -222.63159189 362.36371317 -223.72851562 350.83688354 C-224.74689667 340.0583731 -225.66470494 329.33677213 -225.6875 318.5 C-225.69535522 317.19035278 -225.69535522 317.19035278 -225.70336914 315.85424805 C-225.65352369 311.32536995 -225.15663011 307.24417251 -224.16796875 302.8203125 C-223.10506244 297.37465248 -223.94061518 294.13615382 -226.375 289.25 C-227.03993685 287.77962813 -227.70264773 286.30824786 -228.36328125 284.8359375 C-228.70182129 284.10342773 -229.04036133 283.37091797 -229.38916016 282.61621094 C-230.9116442 279.25151365 -232.25823963 275.82928539 -233.5625 272.375 C-233.80629395 271.73087158 -234.05008789 271.08674316 -234.30126953 270.4230957 C-236.93099705 263.2534681 -238.69318297 255.87706709 -240.375 248.4375 C-241.0040625 248.47230469 -241.633125 248.50710938 -242.28125 248.54296875 C-248.8208842 248.74979453 -254.73480932 248.41342231 -259.98046875 244.125 C-261.17011832 242.95201219 -262.28212246 241.70113966 -263.375 240.4375 C-264.303125 240.7675 -265.23125 241.0975 -266.1875 241.4375 C-275.07438971 243.91006206 -283.32766029 242.8607809 -291.375 238.4375 C-303.62192579 230.442979 -306.36408579 217.86345492 -309.375 204.4375 C-309.68244141 203.12072266 -309.68244141 203.12072266 -309.99609375 201.77734375 C-311.95151249 189.70212905 -310.25732836 178.59967003 -303.18359375 168.59765625 C-300.56286918 165.46750358 -297.57940337 162.89120232 -294.453125 160.27734375 C-292.16504524 158.37985112 -292.16504524 158.37985112 -290.0625 155.3125 C-285.23120578 150.14413874 -279.11211922 146.6292564 -271.94921875 146.26171875 C-270.72847656 146.27847656 -269.50773437 146.29523438 -268.25 146.3125 C-256.72963906 146.29123164 -246.77757911 140.07571278 -236.70898438 135.07177734 C-231.56854418 132.551998 -226.34516937 130.22364973 -221.125 127.875 C-210.54509631 123.05513093 -200.14453043 117.91305087 -189.77783203 112.65283203 C-187.07022384 111.28334681 -184.35261513 109.93512888 -181.6328125 108.59008789 C-178.20460151 106.89023596 -174.78928722 105.16511457 -171.375 103.4375 C-169.83030029 102.65681152 -169.83030029 102.65681152 -168.25439453 101.86035156 C-137.8439247 86.44324919 -107.80728656 69.77647764 -80.375 49.4375 C-78.47916667 48.08333333 -76.58333333 46.72916667 -74.6875 45.375 C-69.06888485 41.27160905 -63.71318998 36.89654143 -58.375 32.4375 C-57.18953919 31.48606003 -56.00330477 30.53558336 -54.81640625 29.5859375 C-48.21862885 24.22578924 -43.17538483 19.35840785 -38.8671875 11.91015625 C-30.54621709 -1.87825807 -14.67310064 -6.89191091 0 0 Z M-19.375 24.4375 C-24.56356619 32.15783644 -26.65685727 41.41359506 -28.375 50.4375 C-28.55740234 51.38898926 -28.73980469 52.34047852 -28.92773438 53.32080078 C-30.7430775 64.14710944 -30.60109801 74.86720981 -30.5 85.8125 C-30.48994313 87.72395361 -30.4808221 89.63541238 -30.47265625 91.546875 C-30.4508733 96.17721349 -30.41649499 100.80729794 -30.375 105.4375 C-29.28960938 105.6236084 -28.20421875 105.8097168 -27.0859375 106.00146484 C-25.64055501 106.25839566 -24.19524634 106.51574198 -22.75 106.7734375 C-21.68072266 106.95507446 -21.68072266 106.95507446 -20.58984375 107.14038086 C-9.71046128 109.10540694 -1.72099185 114.37179736 4.625 123.4375 C14.39160481 139.61697989 18.01352223 157.03562838 13.625 175.4375 C12.56756871 178.61996148 11.23167709 181.49728093 9.625 184.4375 C9.23828125 185.17613281 8.8515625 185.91476562 8.453125 186.67578125 C3.80363484 194.59358949 -4.05555464 200.63603095 -12.375 204.4375 C-11.7646506 210.15189626 -10.29797237 215.21947086 -8.375 220.625 C-8.06812256 221.49068604 -7.76124512 222.35637207 -7.44506836 223.24829102 C3.66943353 254.80548936 3.66943353 254.80548936 26.625 277.4375 C30.09042905 277.5635156 32.40674036 277.3593461 35.23046875 275.22265625 C49.87664129 259.82346713 48.83708262 234.03628013 48.8125 214.25 C48.81189575 213.35700195 48.8112915 212.46400391 48.81066895 211.54394531 C48.73326532 169.421272 41.15188421 127.32843019 27.625 87.4375 C27.22877441 86.25720215 26.83254883 85.0769043 26.42431641 83.86083984 C15.51980555 48.31441107 15.51980555 48.31441107 -8.6875 21.9375 C-14.11766041 19.72862119 -15.21031523 20.36966836 -19.375 24.4375 Z " fill="#000000" transform="translate(787.375,666.5625)"/>
<path d="M0 0 C0.98613281 0.54398438 1.97226562 1.08796875 2.98828125 1.6484375 C10.37666211 6.03228143 16.43758307 11.67042184 22.57080078 17.62207031 C23.76699168 18.77535037 24.9881013 19.90270983 26.21484375 21.0234375 C47.61300836 41.06507225 58.91586604 70.04646819 60.28125 98.94140625 C61.13518449 129.22050001 52.38872702 157.56345102 33 181 C32.32710937 181.83660156 31.65421875 182.67320312 30.9609375 183.53515625 C11.33747895 206.72317562 -18.06052481 220.27325189 -48 223 C-80.80869327 225.00661324 -111.37084283 215.96813206 -136.29296875 194.1640625 C-139.25845129 191.50662304 -142.13129663 188.76134172 -145 186 C-145.98226562 185.11248047 -145.98226562 185.11248047 -146.984375 184.20703125 C-165.69396255 166.82771254 -175.72114928 138.26634473 -177.15673828 113.27099609 C-178.32577079 79.32205701 -168.37795808 48.75604468 -145.3125 23.5625 C-143.55352202 21.69663445 -141.77686797 19.84894062 -140 18 C-139.43152344 17.35675781 -138.86304688 16.71351563 -138.27734375 16.05078125 C-104.33097144 -21.19472699 -41.54008677 -23.20713863 0 0 Z " fill="#000000" transform="translate(396,730)"/>
<path d="M0 0 C0.87585251 -0.00570007 1.75170502 -0.01140015 2.65409851 -0.01727295 C4.50384332 -0.02667372 6.3536045 -0.03323721 8.20336914 -0.03710938 C10.96597573 -0.04671594 13.72780493 -0.07774507 16.49023438 -0.109375 C57.97843597 -0.3539597 57.97843597 -0.3539597 69.69921875 11.203125 C69.69921875 12.523125 69.69921875 13.843125 69.69921875 15.203125 C51.22846475 30.92291564 13.10069008 27.51283217 -9.4765625 25.890625 C-16.54703706 25.23139909 -23.49872952 23.85815458 -30.42578125 22.328125 C-31.45711182 22.10431152 -31.45711182 22.10431152 -32.50927734 21.87597656 C-37.82383631 20.59860161 -43.67768365 18.74362558 -46.73828125 13.953125 C-46.92390625 13.375625 -47.10953125 12.798125 -47.30078125 12.203125 C-35.54327586 1.2294533 -15.33104205 0.07967071 0 0 Z " fill="#000000" transform="translate(1270.30078125,721.796875)"/>
<path d="M0 0 C3.17681608 2.51430059 3.91561224 3.40928571 4.5 7.5 C4 11 4 11 2.4375 13.3125 C-2.97731858 17.06122056 -10.1110595 17.64072181 -16.49267578 18.69580078 C-17.41891251 18.85214996 -18.34514923 19.00849915 -19.29945374 19.16958618 C-22.34734331 19.68263211 -25.39622512 20.189437 -28.4453125 20.6953125 C-30.57893778 21.05112312 -32.71255376 21.40698949 -34.84616089 21.76290894 C-39.31588204 22.50728202 -43.78618685 23.24803817 -48.25683594 23.98681641 C-53.95736673 24.92955399 -59.65555948 25.88569756 -65.35328865 26.84520149 C-69.76018112 27.58497967 -74.16861384 28.31523802 -78.57751083 29.04296494 C-80.67740754 29.39116317 -82.77674171 29.74277318 -84.87546158 30.09799576 C-110.31055779 34.39439338 -110.31055779 34.39439338 -117 33 C-119.75802833 30.76028025 -120.84830653 29.44559955 -122 26.0625 C-122 23 -122 23 -120.5625 20.25 C-115.72042713 15.99842382 -108.37235884 15.63185819 -102.14135742 14.62719727 C-101.4001767 14.50492767 -100.65899597 14.38265808 -99.89535522 14.25668335 C-97.46590482 13.8567325 -95.03571051 13.46151755 -92.60546875 13.06640625 C-90.89117495 12.78526355 -89.1769271 12.50384052 -87.46272278 12.22215271 C-82.95455661 11.48218814 -78.44573117 10.74631798 -73.93676758 10.01123047 C-70.30650804 9.41870609 -66.67672204 8.82331252 -63.04696178 8.22773838 C-58.64995589 7.50632639 -54.25274486 6.78616917 -49.85546875 6.06640625 C-49.04345694 5.93348238 -48.23144512 5.80055851 -47.39482689 5.66360664 C-42.72269757 4.89944622 -38.04988716 4.1396527 -33.37624741 3.3847847 C-31.73319818 3.11872646 -30.09037168 2.85129045 -28.4477272 2.5827446 C-25.88403252 2.16387712 -23.31966084 1.74938798 -20.75512695 1.33569336 C-19.97977443 1.20809159 -19.2044219 1.08048983 -18.40557384 0.94902134 C-5.37977449 -1.13682423 -5.37977449 -1.13682423 0 0 Z " fill="#000000" transform="translate(999,775)"/>
<path d="M0 0 C5.19700903 0.09475428 9.56776697 2.25423227 14.26171875 4.3125 C15.28998779 4.75255371 16.31825684 5.19260742 17.37768555 5.64599609 C20.95089645 7.18419023 24.51336936 8.74599663 28.07421875 10.3125 C29.43257896 10.90796481 30.79097852 11.50333988 32.14941406 12.09863281 C49.22870328 19.59284163 66.23102922 27.2578965 83.19921875 35 C84.29842148 35.50083099 84.29842148 35.50083099 85.41983032 36.01177979 C89.98091626 38.09176852 94.53104726 40.19365773 99.07421875 42.3125 C100.60900879 43.01753662 100.60900879 43.01753662 102.17480469 43.73681641 C103.0671582 44.1601123 103.95951172 44.5834082 104.87890625 45.01953125 C105.62897949 45.37120361 106.37905273 45.72287598 107.15185547 46.08520508 C109.44253738 47.54764577 110.64825132 49.00844263 112.07421875 51.3125 C112.60380512 54.94394937 112.57624228 56.5980819 110.44921875 59.625 C107.5362935 61.69471004 105.62500219 62.02215189 102.07421875 62.3125 C99.40307617 61.49902344 99.40307617 61.49902344 96.6796875 60.171875 C95.14368896 59.44049316 95.14368896 59.44049316 93.57666016 58.69433594 C91.93576416 57.88657715 91.93576416 57.88657715 90.26171875 57.0625 C87.89938605 55.93550955 85.53608145 54.81055438 83.171875 53.6875 C82.57292419 53.40074402 81.97397339 53.11398804 81.35687256 52.81854248 C75.69042559 50.10903677 69.95786807 47.56848162 64.19921875 45.0625 C62.14821525 44.1658728 60.09744366 43.26871498 58.046875 42.37109375 C56.95391113 41.89269043 55.86094727 41.41428711 54.73486328 40.92138672 C47.35843365 37.6793785 39.99853626 34.40001964 32.63671875 31.125 C30.42391188 30.14082306 28.21110215 29.15665286 25.99816895 28.17276001 C24.558206 27.53193721 23.11866681 26.89016129 21.67956543 26.24740601 C17.82165563 24.52578296 13.9559567 22.82509757 10.07763672 21.14990234 C9.25617661 20.79232346 8.43471649 20.43474457 7.58836365 20.06632996 C6.0095272 19.37950992 4.42829611 18.69816029 2.84437561 18.02314758 C1.77660133 17.55669075 1.77660133 17.55669075 0.68725586 17.08081055 C0.0606456 16.81108932 -0.56596466 16.5413681 -1.21156311 16.26347351 C-4.40177963 14.49368043 -5.73563868 12.93725414 -6.80078125 9.4375 C-6.94931845 5.72407001 -6.1105512 4.25353647 -3.92578125 1.3125 C-2.92578125 0.3125 -2.92578125 0.3125 0 0 Z " fill="#000000" transform="translate(886.92578125,871.6875)"/>
<path d="M0 0 C5.12973832 2.85770855 9.18948741 7.05994129 13.25 11.23828125 C16.33594191 14.34488795 19.67921508 17.14913748 23 20 C31.23201593 27.08071959 39.39182477 34.21279609 47.3671875 41.58203125 C49.57360489 43.60839975 51.80084366 45.59843002 54.0625 47.5625 C57.38226967 50.44803819 60.66940776 53.36863788 63.9375 56.3125 C64.87464844 57.15425781 65.81179688 57.99601563 66.77734375 58.86328125 C69.63461553 61.61007855 69.94347134 62.38949046 70.3125 66.375 C70 70 70 70 68.4375 72.4375 C65.02703559 74.62369513 63.00892279 74.45376177 59 74 C56.49135924 72.31962781 54.54211938 70.78984412 52.375 68.75 C51.77671387 68.21221924 51.17842773 67.67443848 50.56201172 67.12036133 C48.69138408 65.4308018 46.84457776 63.71792197 45 62 C43.82887235 60.92496653 42.65701625 59.85072599 41.484375 58.77734375 C39.2796506 56.75336046 37.08397673 54.72018195 34.89453125 52.6796875 C31.95815182 49.96125796 28.97278 47.31500134 25.9453125 44.69921875 C23.6633471 42.70593572 21.42771426 40.66506973 19.1875 38.625 C15.76770672 35.53363199 12.28041476 32.57540968 8.6875 29.6875 C4.27963791 26.11832984 0.04824414 22.40009139 -4.125 18.5625 C-4.69387939 18.04196045 -5.26275879 17.5214209 -5.84887695 16.98510742 C-10.87785839 12.31912939 -10.87785839 12.31912939 -11.3125 7.625 C-11 4 -11 4 -9.4375 1.5625 C-5.93693832 -0.68144979 -4.10475544 -0.68412591 0 0 Z " fill="#000000" transform="translate(881,952)"/>
</svg>
