<?xml version="1.0" encoding="UTF-8"?>
<svg version="1.1" xmlns="http://www.w3.org/2000/svg" width="2048" height="2048">
<path d="M0 0 C0.72719238 0.13390137 1.45438477 0.26780273 2.20361328 0.40576172 C42.57901474 8.10386808 76.57796779 29.04906941 106 57 C106.7528125 57.68835938 107.505625 58.37671875 108.28125 59.0859375 C119.74645946 69.92803775 128.92885198 83.50084549 137 97 C137.4031543 97.66547852 137.80630859 98.33095703 138.22167969 99.01660156 C145.31419407 110.83019009 150.4461644 123.01056055 155 136 C161.10477135 135.32090608 167.0508249 134.25035594 173.0625 133 C174.78216137 132.64394108 176.50220825 132.2897384 178.22265625 131.9375 C179.34812866 131.70353516 179.34812866 131.70353516 180.49633789 131.46484375 C186.34421232 130.37909505 192.06050328 129.82570866 198.00390625 129.76171875 C198.75605408 129.75197021 199.5082019 129.74222168 200.28314209 129.73217773 C216.88028582 129.5613769 232.8460874 129.69463112 249 134 C249.71800781 134.18723633 250.43601562 134.37447266 251.17578125 134.56738281 C255.86804267 135.82750311 260.43893626 137.32983225 265 139 C265.66773438 139.24057129 266.33546875 139.48114258 267.0234375 139.72900391 C305.56332368 153.86332537 334.11710505 181.67583055 354 217 C354.61746094 218.09570312 355.23492188 219.19140625 355.87109375 220.3203125 C376.47176773 259.1358363 376.57247124 302.03606872 368 344 C368.50225098 344.30591064 369.00450195 344.61182129 369.52197266 344.92700195 C384.51259563 354.1035048 398.17969609 363.9484621 411 376 C411.63808594 376.57363281 412.27617188 377.14726562 412.93359375 377.73828125 C444.88746691 407.69918935 459.95194274 452.96152071 462.19140625 495.6484375 C462.98733938 540.32681695 446.03258522 585.6743904 415 618 C413.86933429 619.32853221 412.7441591 620.66176023 411.625 622 C399.04344554 636.29722098 382.77847725 647.2085376 366 656 C364.89140625 656.58136719 363.7828125 657.16273438 362.640625 657.76171875 C335.86657303 671 335.86657303 671 324 671 C324.20496094 671.99 324.40992188 672.98 324.62109375 674 C324.89338761 675.33330098 325.16551402 676.66663618 325.4375 678 C325.57220703 678.64839844 325.70691406 679.29679688 325.84570312 679.96484375 C329.55913502 698.26028871 329.7353447 718.69291998 326 737 C325.84402344 737.7729541 325.68804688 738.5459082 325.52734375 739.34228516 C319.32334088 769.36851016 307.07341687 795.75709626 287 819 C286.32066406 819.80179688 285.64132812 820.60359375 284.94140625 821.4296875 C280.63127566 826.42036503 276.07149162 830.79504023 271 835 C270.20078125 835.68707031 269.4015625 836.37414062 268.578125 837.08203125 C236.26162505 864.3789565 194.55978043 877.76565977 152.375 874.6875 C137.654772 873.43829256 123.75526908 870.50848131 110.0871582 864.84277344 C106.13925461 863.16216407 106.13925461 863.16216407 102 864 C100.3612699 866.43147318 98.85432909 868.84970663 97.375 871.375 C93.1049778 878.42777728 88.45768431 884.80114869 83 891 C82.25878906 891.85078125 81.51757812 892.7015625 80.75390625 893.578125 C72.48217293 902.92504029 63.79431119 911.26144664 54 919 C53.03578125 919.79277344 52.0715625 920.58554687 51.078125 921.40234375 C35.96605201 933.54186431 19.00125151 941.99657019 1 949 C-0.11012451 949.43868408 -0.11012451 949.43868408 -1.24267578 949.88623047 C-19.01635243 956.78038573 -38.94082299 960.64564611 -58 961 C-59.44052734 961.05800781 -59.44052734 961.05800781 -60.91015625 961.1171875 C-94.42707986 961.89564508 -128.64956795 954.26692599 -158 938 C-159.39025391 937.30197266 -159.39025391 937.30197266 -160.80859375 936.58984375 C-173.89629807 929.91958731 -185.91186554 920.57374247 -197 911 C-197.87269531 910.24976563 -198.74539063 909.49953125 -199.64453125 908.7265625 C-204.87789831 904.12873177 -209.54735814 899.34697591 -214 894 C-214.74765625 893.15179687 -215.4953125 892.30359375 -216.265625 891.4296875 C-226.92105652 879.13238131 -235.14529563 865.20148555 -243 851 C-249.25908352 851.77359459 -255.34921986 853.12178422 -261.5 854.5 C-302.04417928 863.58480329 -343.54686488 855.22320728 -379 834 C-390.314174 826.7614239 -400.41178495 818.36968023 -410 809 C-410.69867187 808.36320313 -411.39734375 807.72640625 -412.1171875 807.0703125 C-423.59579218 796.35377286 -432.3942444 782.63086985 -440 769 C-440.38140137 768.33532715 -440.76280273 767.6706543 -441.15576172 766.98583984 C-453.52132663 745.39071926 -460.88192166 720.00493682 -461.2734375 695.0390625 C-461.28592026 694.29926651 -461.29840302 693.55947052 -461.31126404 692.79725647 C-461.55849203 674.5975462 -460.6819011 657.70710645 -456 640 C-455.68772461 638.80528076 -455.68772461 638.80528076 -455.36914062 637.58642578 C-453.04705788 628.97255086 -449.80633401 620.81098553 -446.13671875 612.6953125 C-444.87046859 610.18039826 -444.87046859 610.18039826 -445 608 C-446.43666016 607.23429688 -446.43666016 607.23429688 -447.90234375 606.453125 C-463.40379161 598.04896269 -477.37521696 588.33118344 -490 576 C-490.825 575.236875 -491.65 574.47375 -492.5 573.6875 C-504.4643258 562.33672936 -514.21859281 548.50042135 -522 534 C-522.37608398 533.30245605 -522.75216797 532.60491211 -523.13964844 531.88623047 C-544.85210532 490.83640106 -547.60206094 441.3930446 -534.41455078 397.22363281 C-528.30365732 377.93201221 -518.70433586 359.74784282 -506 344 C-505.32066406 343.12988281 -504.64132812 342.25976562 -503.94140625 341.36328125 C-490.48376856 324.23299389 -475.12928347 311.44032711 -456.25 300.625 C-455.39962158 300.13749268 -454.54924316 299.64998535 -453.6730957 299.14770508 C-447.60035736 295.73987611 -441.37710583 292.79283752 -435 290 C-435.03552979 289.34741211 -435.07105957 288.69482422 -435.10766602 288.02246094 C-437.58417478 240.80755263 -429.55718017 195.09469715 -397.015625 158.625 C-394.05969218 155.36834747 -391.05793805 152.16099267 -388 149 C-387.45110107 148.42701172 -386.90220215 147.85402344 -386.33666992 147.26367188 C-382.33752237 143.16290341 -378.1548243 139.54491398 -373.5625 136.125 C-372.87293213 135.61106689 -372.18336426 135.09713379 -371.47290039 134.56762695 C-364.34086567 129.36076436 -356.85224772 125.01981433 -349 121 C-348.38302246 120.68192383 -347.76604492 120.36384766 -347.13037109 120.03613281 C-327.73536157 110.17111867 -305.84038959 103.62092579 -284 103 C-283.32179199 102.97953613 -282.64358398 102.95907227 -281.94482422 102.93798828 C-264.88035723 102.49212335 -248.90064667 104.19587384 -232.34643555 108.41088867 C-231.4625415 108.6297876 -230.57864746 108.84868652 -229.66796875 109.07421875 C-228.49657349 109.37718872 -228.49657349 109.37718872 -227.30151367 109.6862793 C-224.55493533 110.06066703 -222.63790229 109.85109574 -220 109 C-218.32660438 106.55750335 -217.00779249 104.30959015 -215.6875 101.6875 C-214.9006623 100.21295633 -214.11025791 98.74031068 -213.31640625 97.26953125 C-212.92598145 96.54072754 -212.53555664 95.81192383 -212.13330078 95.06103516 C-188.95419369 52.9072174 -146.25574312 20.86451332 -101 6 C-68.13914777 -3.43119245 -33.72688337 -6.40260397 0 0 Z M-235 266 C-235.62487305 266.50917969 -236.24974609 267.01835937 -236.89355469 267.54296875 C-249.13310931 277.60358523 -260.33129391 288.41243924 -270 301 C-270.4316748 301.56058105 -270.86334961 302.12116211 -271.30810547 302.69873047 C-281.9302424 316.57877521 -290.53712332 331.20969481 -298 347 C-298.52335937 348.093125 -299.04671875 349.18625 -299.5859375 350.3125 C-307.59397178 367.93864953 -312.31129322 386.87712242 -315 406 C-315.1023999 406.7230835 -315.2047998 407.44616699 -315.31030273 408.19116211 C-318.25211956 432.67987089 -317.05277084 458.94768381 -312 483 C-311.77092957 484.09148346 -311.77092957 484.09148346 -311.53723145 485.20501709 C-305.93226797 511.78547652 -305.93226797 511.78547652 -298.03198242 537.75097656 C-295.43386378 545.43588083 -294.33981627 553.70905753 -297.50390625 561.3984375 C-298.16636231 562.7359819 -298.85315233 564.06172206 -299.5625 565.375 C-299.92166504 566.08906006 -300.28083008 566.80312012 -300.65087891 567.53881836 C-301.74488434 569.70494911 -302.86894002 571.85302983 -304 574 C-312.26410163 589.63072296 -312.26410163 589.63072296 -312 607 C-309.39396488 615.04952932 -305.21871079 622.07198991 -300.8125 629.25 C-300.14484619 630.34812012 -299.47719238 631.44624023 -298.78930664 632.57763672 C-296.86977462 635.72486023 -294.938048 638.86415249 -293 642 C-292.51176758 642.79245117 -292.02353516 643.58490234 -291.52050781 644.40136719 C-281.60296223 660.65309996 -281.60296223 660.65309996 -264.91015625 668.75 C-256.47960019 670.16656951 -248.14181847 670.09805788 -239.62890625 670.015625 C-226.13157695 669.91554182 -213.26800125 670.32621179 -203 680 C-196.13360035 687.95056802 -196.61204937 699.39069253 -196.0703125 709.3828125 C-195.91336811 711.95706837 -195.75579723 714.53128611 -195.59765625 717.10546875 C-195.35808 721.1251351 -195.12287168 725.14485639 -194.90087891 729.16552734 C-194.68426497 733.07248351 -194.43973827 736.97749603 -194.1953125 740.8828125 C-194.13473663 742.07883087 -194.07416077 743.27484924 -194.01174927 744.5071106 C-193.50296732 752.33617542 -192.39486732 758.23741011 -186.98046875 764.23828125 C-182.350113 766.97522809 -177.41257822 768.53098465 -172.3125 770.1875 C-171.27416016 770.54263672 -170.23582031 770.89777344 -169.16601562 771.26367188 C-162.76224888 773.37952459 -156.74136935 774.67451577 -150 775 C-147.38600973 771.0790146 -147.70298966 767.71812213 -147.69140625 763.16796875 C-147.66624059 761.38215827 -147.64084265 759.59635106 -147.61523438 757.81054688 C-147.58652873 754.99960211 -147.56250812 752.18871412 -147.54370117 749.37768555 C-147.52198048 746.66164415 -147.48253037 743.9462757 -147.44140625 741.23046875 C-147.44129044 740.39589645 -147.44117462 739.56132416 -147.4410553 738.70146179 C-147.34287043 732.88127489 -146.36447022 728.53336095 -142.25 724.125 C-138.99319286 722.49659643 -136.59414313 722.62166914 -133 723 C-129.4613006 724.65139305 -128.18929847 725.71605229 -126 729 C-124.60783133 733.73028469 -124.86509676 738.61383804 -124.859375 743.5 C-124.84105658 745.37501224 -124.82148717 747.2500126 -124.80078125 749.125 C-124.77176522 752.06791446 -124.74999834 755.01005791 -124.74951172 757.953125 C-124.74617824 760.80277185 -124.71165166 763.65065888 -124.671875 766.5 C-124.68247955 767.81581055 -124.68247955 767.81581055 -124.69329834 769.15820312 C-124.60760894 773.46138813 -124.3982249 775.45086042 -121.80834961 779.0222168 C-118.78322352 781.15266507 -117.04174941 781.76553971 -113.39453125 782.14453125 C-111.79448242 782.32338867 -111.79448242 782.32338867 -110.16210938 782.50585938 C-109.05673828 782.60705078 -107.95136719 782.70824219 -106.8125 782.8125 C-105.72646484 782.93302734 -104.64042969 783.05355469 -103.52148438 783.17773438 C-92.32826613 785.02788994 -92.32826613 785.02788994 -81.78442383 782.67114258 C-79.56422324 780.59188782 -79.05660811 778.90739418 -78.86869812 775.89530945 C-78.86521866 775.08511856 -78.8617392 774.27492767 -78.8581543 773.44018555 C-78.85111984 772.51880295 -78.84408539 771.59742035 -78.83683777 770.64811707 C-78.83059135 769.1574749 -78.83059135 769.1574749 -78.82421875 767.63671875 C-78.8010199 765.53189105 -78.77690254 763.42707331 -78.75195312 761.32226562 C-78.7168457 758.00424539 -78.68749632 754.68659155 -78.67407227 751.3684082 C-78.65857965 748.16572728 -78.61836064 744.96411632 -78.57421875 741.76171875 C-78.57612717 740.77403 -78.57803558 739.78634125 -78.58000183 738.76872253 C-78.47576896 732.88524625 -77.91312959 729.4858048 -74 725 C-70.87634385 723.0582678 -69.1379311 722.99516031 -65.4375 723.125 C-61.57487297 724.10821415 -60.29021927 724.77672844 -58 728 C-55.84034467 733.91991658 -55.72006596 739.38098025 -55.7265625 745.640625 C-55.70629284 747.70052646 -55.68544246 749.76042227 -55.6640625 751.8203125 C-55.64137704 755.04855158 -55.62495217 758.27656738 -55.61914062 761.50488281 C-55.60965598 764.63386661 -55.57595339 767.7618615 -55.5390625 770.890625 C-55.54663071 772.34375092 -55.54663071 772.34375092 -55.55435181 773.82623291 C-55.54108856 774.72436707 -55.52782532 775.62250122 -55.51416016 776.54785156 C-55.51131012 777.33726135 -55.50846008 778.12667114 -55.50552368 778.94000244 C-55.15529861 781.16916008 -55.15529861 781.16916008 -53.1512146 782.75335693 C-45.78652794 787.02124149 -32.94386072 783.75601432 -24.8125 782.625 C-23.9037915 782.49915527 -22.99508301 782.37331055 -22.05883789 782.24365234 C-17.93008891 781.62145371 -14.72071092 780.93132191 -11 779 C-10.97573944 778.11796402 -10.97573944 778.11796402 -10.95098877 777.21810913 C-10.77856245 771.0851345 -10.57954791 764.95342814 -10.36523438 758.82177734 C-10.28877785 756.53488504 -10.21905039 754.24775727 -10.15625 751.96044922 C-10.06467636 748.66809068 -9.94874312 745.37734438 -9.828125 742.0859375 C-9.80502258 741.06696381 -9.78192017 740.04799011 -9.75811768 738.99813843 C-9.51346917 733.08472498 -8.9388495 729.51138875 -5 725 C-0.87581297 722.43631617 2.35820493 723.05444915 7 724 C10 725 10 725 11.16601562 726.99609375 C12.29216304 731.0523343 12.31720965 734.87074525 12.34375 739.0625 C12.3583728 739.93140869 12.37299561 740.80031738 12.38806152 741.69555664 C12.45009768 745.39943107 12.4898653 749.1034689 12.53173828 752.80761719 C12.56555543 755.517752 12.61064431 758.22754205 12.65625 760.9375 C12.66416565 762.18768921 12.66416565 762.18768921 12.67224121 763.46313477 C12.71177616 769.51185224 12.71177616 769.51185224 15 775 C19.05773201 776.66160747 22.07150535 775.64854786 26.11328125 774.3046875 C27.8622168 773.72460938 27.8622168 773.72460938 29.64648438 773.1328125 C30.85626953 772.71773437 32.06605469 772.30265625 33.3125 771.875 C34.51068359 771.483125 35.70886719 771.09125 36.94335938 770.6875 C48.2998441 767.05825555 48.2998441 767.05825555 56.9375 759.30859375 C58.35882327 754.88263488 58.71179412 750.68684038 59 746.0625 C59.07484619 745.05630615 59.14969238 744.0501123 59.22680664 743.01342773 C59.49810852 739.34317402 59.75030018 735.67176836 60 732 C60.40521458 726.05955109 60.82084295 720.12001234 61.25170898 714.18136597 C61.43465015 711.60267083 61.6033479 709.02330007 61.77148438 706.44360352 C63.26253118 684.89456007 63.26253118 684.89456007 72 677 C81.37928341 669.80246837 93.53084783 670.65764049 104.75 670.5 C126.25034126 670.93011289 126.25034126 670.93011289 145 662 C150.89081353 655.42506164 155.34323413 647.83056226 159.83398438 640.27270508 C160.99050889 638.32845564 162.15855563 636.39150169 163.328125 634.45507812 C175.40634019 615.11127822 175.40634019 615.11127822 178 593 C176.83127148 588.76882778 174.92116161 584.9298604 173 581 C172.08314355 579.07883627 171.16793278 577.15688673 170.25390625 575.234375 C168.75987637 572.09634958 167.26135477 568.96095276 165.74682617 565.83276367 C165.27865479 564.8657251 164.8104834 563.89868652 164.328125 562.90234375 C163.9043457 562.03085693 163.48056641 561.15937012 163.04394531 560.26147461 C158.72725268 550.9103231 162.01616944 542.84743242 164.9375 533.5625 C170.80443985 514.31095603 175.02764254 494.71742195 179 475 C179.22478027 473.90478027 179.44956055 472.80956055 179.68115234 471.68115234 C190.26679821 418.43300125 175.30807099 359.85758438 146 315 C138.58623105 304.20367176 130.12209271 294.37443677 121 285 C120.46874512 284.44828125 119.93749023 283.8965625 119.39013672 283.328125 C112.32660586 276.01075178 105.08753689 269.19609681 97 263 C96.47277344 262.59104492 95.94554687 262.18208984 95.40234375 261.76074219 C56.43727459 231.67808148 10.6182309 213.64082475 -38 207 C-39.12535156 206.84422485 -39.12535156 206.84422485 -40.2734375 206.68530273 C-109.27200384 198.46731311 -181.58642496 222.45194184 -235 266 Z " fill="#000000" transform="translate(1517,93)"/>
<path d="M0 0 C0.87269531 0.43054688 1.74539063 0.86109375 2.64453125 1.3046875 C15.58850411 8.34334555 22.73995448 20.21638606 27 34 C30.06185425 49.9216421 26.90877316 67.38911532 18.0390625 81.01171875 C16.08625894 83.73039879 14.08227445 86.37956317 12 89 C11.36320312 89.83917969 10.72640625 90.67835938 10.0703125 91.54296875 C-3.65906586 107.83689137 -25.29212606 117.1451592 -46.17675781 119.21582031 C-61.76093904 120.21730029 -74.0979727 116.588694 -86.1875 106.75 C-98.82555278 95.10566508 -104.41031373 78.41560645 -105.28515625 61.5703125 C-105.79370257 44.69598564 -103.05477309 28.77261954 -91.625 15.6875 C-90.10219532 14.10661156 -88.56149639 12.54268318 -87 11 C-86.38511719 10.36320313 -85.77023437 9.72640625 -85.13671875 9.0703125 C-63.53063394 -11.7492553 -25.67732619 -12.82034831 0 0 Z " fill="#000000" transform="translate(1374,565)"/>
<path d="M0 0 C13.95494106 11.93735922 20.69709573 25.97331903 22.74609375 44.08203125 C24.00432922 63.49757243 19.81538549 82.60599673 7.25 97.875 C-1.75228709 107.34742587 -13.15257731 112.35181522 -26.0859375 113.203125 C-51.95655824 113.57182743 -73.65359682 103.82929377 -92.22265625 85.84765625 C-103.70581242 73.61223166 -111.53976858 56.41853572 -111.2109375 39.41796875 C-109.88772415 24.25002308 -104.33402655 11.29715977 -93 1 C-66.98648054 -18.99838133 -26.54886514 -19.65305602 0 0 Z " fill="#000000" transform="translate(1608,571)"/>
<path d="M0 0 C3.45231682 0.8020534 4.92326581 2.64694344 6.93359375 5.44921875 C8.32332738 9.89636635 7.93167388 12.3235533 5.93359375 16.44921875 C4.015625 18.84375 4.015625 18.84375 1.74609375 21.26171875 C0.93398438 22.13828125 0.121875 23.01484375 -0.71484375 23.91796875 C-1.49085938 24.75328125 -2.266875 25.58859375 -3.06640625 26.44921875 C-4.17642612 27.71494276 -5.28106815 28.98541436 -6.37890625 30.26171875 C-10.05082608 34.48143081 -13.86013438 38.57024986 -17.66333008 42.67114258 C-20.3401188 45.56251026 -22.98936715 48.46793823 -25.56640625 51.44921875 C-29.12635719 55.56759337 -32.82971835 59.54959332 -36.54101562 63.53125 C-39.23574066 66.43104757 -41.87740179 69.36610928 -44.47265625 72.35546875 C-48.67183412 77.17760158 -53.06431966 81.80784074 -57.4609375 86.44921875 C-61.28717218 90.50518594 -64.99602822 94.6303879 -68.60351562 98.8828125 C-70.06640625 100.44921875 -70.06640625 100.44921875 -72.06640625 101.44921875 C-76.59663567 101.57165738 -80.0497287 101.2675202 -83.62890625 98.38671875 C-85.42607935 94.71423459 -86.04072553 91.41097287 -85.06640625 87.44921875 C-82.58957017 83.27477592 -79.69447748 79.79085334 -76.37890625 76.26171875 C-72.92269849 72.52637527 -69.62378174 68.73279388 -66.44140625 64.76171875 C-63.15350378 60.68657203 -59.69987474 56.97191555 -55.94921875 53.32421875 C-53.5279349 50.91298172 -51.32277565 48.34961247 -49.09375 45.76171875 C-45.04144074 41.1394315 -40.82653222 36.6618523 -36.64697266 32.15478516 C-34.61278564 29.95972329 -32.58287797 27.76073716 -30.55371094 25.56103516 C-29.56407103 24.4885462 -28.57383863 23.41660366 -27.58300781 22.34521484 C-24.98431767 19.53436934 -22.39554199 16.71518001 -19.8203125 13.8828125 C-19.28599609 13.29757812 -18.75167969 12.71234375 -18.20117188 12.109375 C-17.18517636 10.9961973 -16.171953 9.88048026 -15.16210938 8.76171875 C-6.80595362 -0.37310521 -6.80595362 -0.37310521 0 0 Z " fill="#000000" transform="translate(941.06640625,636.55078125)"/>
<path d="M0 0 C9.91218627 4.95609313 14.46463397 15.00629277 19.25 24.4375 C19.57504517 25.07161804 19.90009033 25.70573608 20.23498535 26.35906982 C24.73088893 35.14406431 28.9385567 44.01786343 32.75 53.125 C33.14348633 54.06400146 33.53697266 55.00300293 33.94238281 55.97045898 C42.29353934 76.57330117 42.29353934 76.57330117 39.34375 86.125 C36.82961065 91.84683438 32.60329506 96.19835247 27 99 C21.12146905 99.59467726 15.65382501 99.79103606 10.625 96.40625 C6.75954699 93.06114643 3.27255108 89.15585123 0.671875 84.75 C-0.93737836 82.75131138 -0.93737836 82.75131138 -3.77734375 82.3203125 C-8.55378721 83.32770785 -10.52524347 86.21884432 -13.5625 89.875 C-20.79494853 98.41859417 -20.79494853 98.41859417 -27.4296875 99.3359375 C-33.237126 99.42870808 -37.53113747 98.91167611 -42 95 C-46.90331495 89.39621148 -48.62742264 84.37251349 -48.51171875 76.9140625 C-46.00860905 57.76813945 -34.67077293 39.04843429 -26 22 C-25.5762207 21.16243164 -25.15244141 20.32486328 -24.71582031 19.46191406 C-19.42499432 9.14457152 -13.05901494 -1.71185589 0 0 Z " fill="#000000" transform="translate(1454,659)"/>
<path d="M0 0 C11.75732627 6.72069976 18.8119458 17.38108013 25.75 28.625 C26.23307617 29.39626221 26.71615234 30.16752441 27.21386719 30.9621582 C45.03500392 59.90592748 53.02802909 94.64628176 59.75 127.625 C59.8954425 128.33843567 60.04088501 129.05187134 60.19073486 129.78692627 C69.580345 176.16023736 81.43964695 243.75352045 54.86328125 286.671875 C49.90414146 293.8130363 45.48749496 298.64669926 36.75 300.625 C27.11187864 301.80038065 18.75923311 299.5033498 11.05078125 293.53515625 C7.91220621 290.72341597 4.91216244 287.79976724 1.94921875 284.8046875 C-31.36802931 253.03879689 -103.12757139 242.30468068 -147.5 242.25 C-148.18029266 242.24791534 -148.86058533 242.24583069 -149.56149292 242.24368286 C-159.29196918 242.24707991 -168.65423091 243.13221029 -178.25 244.625 C-176.98912749 252.51071102 -175.56254503 260.80147096 -171.25 267.625 C-167.47909522 270.10412253 -163.52972766 271.27838505 -159.25 272.625 C-147.98457488 277.88451281 -140.93569837 284.83943822 -136.125 296.3125 C-134.49917557 301.23026151 -133.585526 306.13365937 -132.875 311.25 C-132.74954803 312.14450363 -132.62409607 313.03900726 -132.49484253 313.96061707 C-130.42314541 329.24109544 -128.93823154 344.59851999 -127.375 359.9375 C-127.28857868 360.78201721 -127.20215736 361.62653442 -127.11311722 362.49664307 C-124.62271449 386.83569872 -122.29794859 411.18440739 -120.35225677 435.573452 C-120.18905375 437.60565279 -120.02213419 439.63751822 -119.85430908 441.66934204 C-116.03293291 488.45810306 -116.03293291 488.45810306 -131.5078125 507.38671875 C-140.98227337 517.57709548 -153.32424956 523.00987732 -167.1640625 523.7890625 C-187.27201542 524.31695625 -203.09600372 514.56252261 -219.25 503.625 C-220.06243164 503.07924316 -220.87486328 502.53348633 -221.71191406 501.97119141 C-232.21266734 494.91245835 -242.60229549 487.72238745 -252.82739258 480.26977539 C-257.72769231 476.70336339 -262.68173162 473.229145 -267.6875 469.8125 C-273.00739913 466.18136555 -278.26214702 462.48255106 -283.453125 458.66796875 C-287.40526142 455.78114285 -291.39704058 452.95044604 -295.39306641 450.12475586 C-298.76897618 447.72598063 -302.02686188 445.22401827 -305.25 442.625 C-305.24984402 443.3175602 -305.24968804 444.01012041 -305.24952733 444.72366729 C-305.23257851 520.13492031 -305.21687343 595.54617356 -305.20765686 670.95742798 C-305.2075188 672.08414272 -305.20738075 673.21085747 -305.20723851 674.37171508 C-305.2042455 698.85908422 -305.20147533 723.34645338 -305.19893467 747.83382257 C-305.19768735 759.84266557 -305.19639079 771.85150857 -305.19506836 783.86035156 C-305.1949376 785.0553669 -305.19480684 786.25038223 -305.19467212 787.48161015 C-305.19041184 826.20574425 -305.18290132 864.92987689 -305.17370278 903.6540101 C-305.16426617 943.45272217 -305.15811362 983.25143343 -305.15608501 1023.05014659 C-305.15579686 1028.67323845 -305.15547122 1034.2963303 -305.15512276 1039.91942215 C-305.15505533 1041.02611207 -305.15498791 1042.13280199 -305.15491844 1043.27302797 C-305.15373737 1061.07763838 -305.14910104 1078.8822463 -305.14316797 1096.68685569 C-305.13727511 1114.59256363 -305.13503343 1132.4982691 -305.13649862 1150.40397798 C-305.13725838 1161.03810311 -305.13523874 1171.67221917 -305.12920246 1182.30634267 C-305.12544213 1189.41772602 -305.12534368 1196.52910346 -305.12816819 1203.64048723 C-305.12967234 1207.68742713 -305.12963626 1211.73434992 -305.12511682 1215.78128795 C-305.05769785 1280.31652152 -305.05769785 1280.31652152 -323.8671875 1299.60546875 C-338.66435746 1312.14667674 -357.08891908 1319.49299882 -376.6171875 1318.96875 C-395.82925861 1317.15083359 -411.92744095 1308.8071377 -424.375 1294.1171875 C-436.37305362 1278.03358975 -437.70945445 1259.52408283 -437.61076355 1240.24391174 C-437.61207426 1238.32118205 -437.61470555 1236.39845288 -437.61853105 1234.47572654 C-437.6251958 1229.23061829 -437.61329897 1223.98569602 -437.59819686 1218.74061143 C-437.5851825 1213.0700658 -437.58962977 1207.39952977 -437.59190369 1201.72897339 C-437.59347302 1191.91706949 -437.58409943 1182.10522566 -437.56719017 1172.29333687 C-437.54275852 1158.10718484 -437.53499064 1143.92106172 -437.5312262 1129.73489093 C-437.52466824 1106.71606492 -437.50475078 1083.69727488 -437.47631836 1060.6784668 C-437.44873889 1038.32430181 -437.42750089 1015.9701454 -437.41479492 993.6159668 C-437.41420305 992.5813043 -437.41420305 992.5813043 -437.41359923 991.52573954 C-437.40964347 984.59835974 -437.40581606 977.67097986 -437.40208265 970.74359994 C-437.37079113 912.70404497 -437.31765494 854.66452355 -437.25 796.625 C-445.5 796.625 -453.75 796.625 -462.25 796.625 C-462.24631283 799.01281236 -462.24262566 801.40062471 -462.23882675 803.86079502 C-462.15189882 860.55916548 -462.086218 917.2575356 -462.04573868 973.95595801 C-462.04074953 980.93654049 -462.03556329 987.91712282 -462.03027344 994.89770508 C-462.0297504 995.59234039 -462.02922737 996.2869757 -462.02868848 997.00266056 C-462.01165669 1019.49967862 -461.98162164 1041.99665638 -461.94481112 1064.49365005 C-461.90596634 1088.27720503 -461.88200673 1112.06072884 -461.87364602 1135.84431547 C-461.86816116 1150.08583692 -461.85084564 1164.32724262 -461.81833413 1178.56872844 C-461.79716914 1188.3383658 -461.79080448 1198.10794343 -461.79599449 1207.87760205 C-461.79855314 1213.51180604 -461.79466671 1219.14580795 -461.7731781 1224.77997589 C-461.75362179 1229.94539812 -461.75278874 1235.11048358 -461.76640442 1240.27592175 C-461.76808565 1242.13755594 -461.76308883 1243.99921169 -461.75046727 1245.86080385 C-461.6207176 1266.19195379 -466.05300819 1283.18843569 -479.67578125 1299.0546875 C-492.45083538 1311.81035612 -509.7994683 1318.38653458 -527.75 1319 C-547.09788362 1318.31207525 -565.34314755 1310.64223393 -578.6953125 1296.5234375 C-590.38525729 1282.2487813 -593.72727369 1263.64714346 -593.63476086 1245.67392921 C-593.63869929 1244.32225786 -593.64394707 1242.97058981 -593.65036663 1241.61892796 C-593.664145 1237.93117115 -593.6595403 1234.24363975 -593.65173779 1230.55587411 C-593.64656404 1226.53400422 -593.65885255 1222.51217992 -593.66886932 1218.49032438 C-593.68402476 1211.4505926 -593.68816619 1204.41092216 -593.68499184 1197.37117577 C-593.68032216 1186.90343618 -593.69283897 1176.43576582 -593.70882157 1165.9680399 C-593.73522614 1148.3574846 -593.74777565 1130.74694503 -593.75238609 1113.13637161 C-593.7569954 1095.7036397 -593.76778898 1078.27092962 -593.78681374 1060.83820724 C-593.78799386 1059.75366007 -593.78917399 1058.6691129 -593.79038988 1057.55170066 C-593.79641543 1052.04367081 -593.8025512 1046.5356411 -593.80872939 1041.02761142 C-593.85227353 1002.03013213 -593.8819944 963.03265337 -593.90356445 924.03515625 C-593.92454911 886.15331234 -593.95180855 848.27148142 -593.98754883 810.38964844 C-593.98864831 809.22164402 -593.98974778 808.05363961 -593.99088058 806.85024113 C-594.00192906 795.12049355 -594.01310496 783.3907461 -594.0243742 771.66099874 C-594.04732736 747.76686889 -594.06943017 723.87273829 -594.09101868 699.97860718 C-594.0920123 698.88003141 -594.09300591 697.78145564 -594.09402964 696.6495897 C-594.16026673 623.30807044 -594.20668264 549.96653594 -594.25 476.625 C-595.3656475 479.92194874 -596.47517975 483.22092592 -597.58374023 486.52026367 C-597.89531822 487.44079277 -598.20689621 488.36132187 -598.52791595 489.30974579 C-601.5798287 498.41121556 -604.03329066 507.61686934 -606.3125 516.9375 C-606.52344299 517.793508 -606.73438599 518.64951599 -606.95172119 519.53146362 C-616.63428528 558.95644735 -620.61245601 598.00182901 -623.4375 638.4375 C-623.56478485 640.25251007 -623.56478485 640.25251007 -623.69464111 642.10418701 C-624.26143189 650.27510841 -624.7819349 658.44782106 -625.25 666.625 C-625.30854156 667.64208038 -625.36708313 668.65916077 -625.42739868 669.70706177 C-626.21043902 684.02386585 -626.29464045 698.31193745 -626.20703125 712.64453125 C-626.20202795 713.52674913 -626.19702465 714.40896702 -626.19186974 715.31791878 C-626.14449958 723.55820144 -626.09272089 731.79838549 -626.00317383 740.03833008 C-625.95433091 744.60057997 -625.92558492 749.16259525 -625.90942955 753.72507286 C-625.89964912 755.43648781 -625.88262295 757.14787978 -625.85764503 758.8591404 C-625.63012006 774.75378012 -628.2095175 790.29691059 -639.5 802.4375 C-649.91472737 811.96149411 -661.53763478 815.30828352 -675.47265625 814.96875 C-689.20935946 813.71866739 -699.70152859 807.46250241 -708.49609375 797.015625 C-720.82398656 780.21235017 -718.41118042 758.29878134 -718.41796875 738.52734375 C-718.42119512 736.28569011 -718.42456014 734.04403666 -718.42805481 731.80238342 C-718.43401693 727.10824092 -718.4358982 722.41411672 -718.43530273 717.7199707 C-718.43522217 712.98946246 -718.4420553 708.2590525 -718.45581055 703.52856445 C-718.55655188 668.32045771 -718.18692361 633.22513871 -714.375 598.1875 C-714.19729079 596.50701324 -714.01972342 594.82651148 -713.84228516 593.14599609 C-713.40536087 589.04569758 -712.95238689 584.94734857 -712.49487305 580.8493042 C-712.26786581 578.78728405 -712.05238444 576.72400387 -711.83789062 574.66064453 C-707.76296798 535.60240759 -698.87805545 497.1601325 -687.8079834 459.53930664 C-687.02731768 456.86103059 -686.28248497 454.17319347 -685.5390625 451.484375 C-676.83401217 420.4328591 -662.33079005 388.02348075 -642.25 362.625 C-641.65348633 361.86823975 -641.65348633 361.86823975 -641.04492188 361.09619141 C-618.8249074 333.16851673 -590.4844476 315.33336323 -554.93419957 310.90353346 C-547.28496927 310.10978973 -539.60261919 310.20917047 -531.92163086 310.23681641 C-529.9790874 310.2327371 -528.03654626 310.22738771 -526.0940094 310.22088623 C-520.883281 310.20736905 -515.67273352 310.21244558 -510.46200252 310.22202349 C-504.96966415 310.2297009 -499.47733969 310.22255242 -493.98500061 310.21786499 C-484.76853701 310.21243116 -475.55214591 310.21953682 -466.33569336 310.23388672 C-455.72806775 310.25021344 -445.12061519 310.24491486 -434.51299375 310.2284075 C-425.3522695 310.21473041 -416.1915969 310.21290307 -407.03086573 310.22072351 C-401.5827985 310.22536538 -396.13481222 310.22612206 -390.68675041 310.21611404 C-385.56224147 310.20735518 -380.43795256 310.21362651 -375.31346703 310.23079681 C-373.4492555 310.23471436 -371.58502498 310.23371055 -369.72082138 310.22700882 C-325.75542332 310.08370292 -296.06758786 329.67698421 -261.6640625 355.359375 C-257.37517805 358.55294434 -253.01070907 361.62889904 -248.625 364.6875 C-241.82164514 369.43302031 -235.21731672 374.40345587 -228.69287109 379.52563477 C-228.02336426 380.04697998 -227.35385742 380.5683252 -226.6640625 381.10546875 C-226.0757666 381.56848389 -225.4874707 382.03149902 -224.88134766 382.50854492 C-223.12761909 383.81847666 -223.12761909 383.81847666 -220.25 384.625 C-220.31264038 383.94500443 -220.37528076 383.26500885 -220.43981934 382.56440735 C-221.03795778 376.05253112 -221.62670668 369.53987552 -222.20575714 363.02627277 C-222.50352973 359.6801973 -222.80554764 356.33464034 -223.11376953 352.98950195 C-225.46731633 327.40308605 -225.46731633 327.40308605 -225.59375 314.66796875 C-225.61725525 313.42857292 -225.61725525 313.42857292 -225.64123535 312.16413879 C-225.62311936 308.1004815 -225.33595745 305.80924826 -223.57568359 302.03613281 C-221.85929485 297.61967175 -222.88270222 295.12682627 -224.6953125 291.00390625 C-224.98099091 290.30031479 -225.26666931 289.59672333 -225.56100464 288.87181091 C-226.47589566 286.63332336 -227.42431666 284.41098909 -228.375 282.1875 C-228.99190042 280.69822332 -229.60650708 279.2079943 -230.21875 277.71679688 C-231.3544128 274.95541137 -232.50500335 272.20119012 -233.66845703 269.45141602 C-238.25 258.46412167 -238.25 258.46412167 -238.25 254.625 C-239.30058594 254.65980469 -240.35117187 254.69460938 -241.43359375 254.73046875 C-250.52029975 254.94261817 -258.10347143 254.90006363 -266 249.875 C-267.98586873 247.88913127 -269.12087372 246.23488988 -270.5625 243.875 C-271.74888318 242.020983 -271.74888318 242.020983 -273.25 240.625 C-276.61578051 240.23145458 -276.61578051 240.23145458 -278.9453125 240.48828125 C-286.25563764 240.92194461 -292.87447443 239.18487748 -298.47265625 234.4453125 C-309.37870024 223.27560591 -311.5625 209.32236862 -311.5625 194.4140625 C-311.44821178 186.15414081 -311.01834438 179.10788372 -305.51953125 172.56640625 C-300.82057033 168.0550286 -294.65599171 164.20767644 -288.09375 163.33984375 C-286.00571256 162.77989021 -286.00571256 162.77989021 -285.265625 160.40234375 C-285.01296875 159.46519531 -284.7603125 158.52804687 -284.5 157.5625 C-282.24345514 150.82785061 -278.80475599 146.03792891 -272.43701172 142.66455078 C-264.46594849 139.10849831 -255.87919604 137.6608948 -247.37390137 135.93478394 C-242.67369125 134.97763715 -237.9814949 133.98274944 -233.2890625 132.98828125 C-231.87862671 132.68979027 -231.87862671 132.68979027 -230.43969727 132.38526917 C-177.63822891 121.15394632 -129.48012067 100.82899209 -87.25 66.625 C-86.64833008 66.13902344 -86.04666016 65.65304687 -85.42675781 65.15234375 C-78.6102863 59.60853202 -72.23221778 53.79941249 -66.17578125 47.42578125 C-64.25 45.625 -64.25 45.625 -62.25 45.625 C-61.92 44.635 -61.59 43.645 -61.25 42.625 C-59.6484375 41.08203125 -59.6484375 41.08203125 -57.625 39.4375 C-50.71083681 33.48295376 -46.18023297 27.84566676 -42.25 19.625 C-37.7092148 10.19014938 -32.97326956 3.50858921 -23.3359375 -1.296875 C-15.36334758 -4.08223553 -7.64711561 -3.43580291 0 0 Z M-18.4375 20.5625 C-19.035625 21.573125 -19.63375 22.58375 -20.25 23.625 C-20.91 24.718125 -21.57 25.81125 -22.25 26.9375 C-30.28783957 43.83595012 -30.58998163 64.06739671 -30.45581055 82.40527344 C-30.43717313 85.04631912 -30.4353043 87.68701941 -30.43554688 90.328125 C-30.43064312 92.01823221 -30.42481986 93.70833706 -30.41796875 95.3984375 C-30.41685593 96.18270111 -30.4157431 96.96696472 -30.41459656 97.7749939 C-30.38639363 100.98309335 -30.27171654 103.55985037 -29.25 106.625 C-26.24204866 107.41397084 -23.29892987 108.04218031 -20.25 108.625 C-8.06135246 111.24248447 -0.75430635 114.32435213 6.75 124.625 C8.80801771 128.17734064 10.34992668 131.76949507 11.75 135.625 C12.0696875 136.46933594 12.389375 137.31367187 12.71875 138.18359375 C16.48123726 150.18523136 17.40061602 167.88774063 12 179.4765625 C11.38125 180.54003906 11.38125 180.54003906 10.75 181.625 C10.13125 182.71941406 10.13125 182.71941406 9.5 183.8359375 C4.22706954 191.89513236 -4.38392391 195.6696413 -13.25 198.625 C-12.67332212 204.7645096 -11.34693928 210.22809766 -9.375 216.0625 C-9.07400391 216.95702881 -8.77300781 217.85155762 -8.46289062 218.77319336 C2.92615906 252.44174886 2.92615906 252.44174886 26.61328125 277.671875 C28.85539279 278.86081264 28.85539279 278.86081264 32 278.5 C40.8645902 272.45596123 43.21491929 260.10612678 45.25927734 250.14306641 C57.40589648 183.31778038 41.04114657 92.44828318 4.6171875 35.27734375 C-2.57774244 24.84150343 -2.57774244 24.84150343 -13 18.3125 C-16.32743655 18.3108141 -16.32743655 18.3108141 -18.4375 20.5625 Z " fill="#000000" transform="translate(787.25,667.375)"/>
<path d="M0 0 C0.80824219 0.67546875 1.61648438 1.3509375 2.44921875 2.046875 C26.93191743 23.10891406 39.83911695 53.19725025 43 85 C45.26861679 115.92668865 33.02141379 146.0037408 13.328125 169.34765625 C-6.77922927 192.25519576 -36.31345433 207.2223437 -66.78271484 209.66064453 C-102.39690267 211.90958106 -132.58288844 198.38792102 -159.078125 175.1796875 C-179.1085797 156.37060199 -192.47523209 126.78566896 -193.43359375 99.421875 C-193.4572668 96.86469258 -193.45812655 94.30720881 -193.4375 91.75 C-193.43379395 91.07746185 -193.43008789 90.40492371 -193.42626953 89.71200562 C-193.18035015 58.19939249 -181.14144465 29.51893363 -159 7 C-116.05990529 -34.66164499 -45.93188355 -39.9142736 0 0 Z " fill="#000000" transform="translate(413,743)"/>
<path d="M0 0 C2.97584892 3.2638343 3.34156044 5.65002836 3.28515625 10.08984375 C2.68706627 13.59102216 0.67693275 15.05520637 -2.0625 17.125 C-6.05317008 18.9974444 -10.0068766 19.79337059 -14.33349609 20.57373047 C-15.04830643 20.70414734 -15.76311676 20.83456421 -16.49958801 20.96893311 C-18.86081859 21.39841445 -21.22333039 21.82035002 -23.5859375 22.2421875 C-25.25013034 22.5431909 -26.91424237 22.84464137 -28.57827759 23.14651489 C-32.97116207 23.94208807 -37.36518755 24.73118015 -41.75946045 25.51904297 C-46.14508773 26.30667072 -50.52949874 27.10100882 -54.9140625 27.89453125 C-63.92087384 29.52316095 -72.93010922 31.13798902 -81.94063568 32.7459259 C-83.93311467 33.10188513 -85.92533721 33.45927902 -87.9175415 33.81677246 C-91.14225746 34.39482524 -94.36777854 34.96806485 -97.59375 35.5390625 C-98.47896332 35.69833221 -99.36417664 35.85760193 -100.2762146 36.021698 C-116.19372262 38.8125161 -116.19372262 38.8125161 -122.25 35.25 C-125.08341728 31.9280625 -125.24474765 29.63458491 -125.48828125 25.29296875 C-124.82249317 21.90294687 -123.56336664 20.53490899 -121.0625 18.125 C-117.7840845 16.89335191 -114.41074935 16.37698323 -110.96484375 15.80078125 C-109.88863266 15.60341873 -108.81242157 15.40605621 -107.70359802 15.20271301 C-105.23172869 14.75119055 -102.758178 14.3088159 -100.28338623 13.87359619 C-95.64771123 13.05732986 -91.02153296 12.1921445 -86.39501953 11.32568359 C-78.28874912 9.81074907 -70.17811029 8.32127151 -62.06423378 6.84763908 C-56.39267843 5.81752517 -50.72281163 4.77873826 -45.0540781 3.73321056 C-41.36008986 3.0539114 -37.66471018 2.38243422 -33.96891594 1.71303749 C-32.22104167 1.39504827 -30.47369501 1.07414305 -28.72693062 0.75011253 C-5.73131332 -3.50896734 -5.73131332 -3.50896734 0 0 Z " fill="#000000" transform="translate(1002.0625,771.875)"/>
<path d="M0 0 C2.51369618 1.00490259 4.70857475 2.02397766 7.0625 3.3125 C8.47349574 4.05166497 9.88498214 4.78989384 11.296875 5.52734375 C12.05162109 5.92679199 12.80636719 6.32624023 13.58398438 6.73779297 C17.03432391 8.54036526 20.52343869 10.26157351 24.01220703 11.98828125 C32.55611345 16.21926542 41.03964834 20.55115576 49.46191406 25.01904297 C55.29913765 28.11410086 61.16299122 31.15456164 67.03637695 34.18041992 C71.63651942 36.55422466 76.2281999 38.94399443 80.81689453 41.33984375 C82.84698285 42.39864115 84.879016 43.4537237 86.91357422 44.50390625 C89.45197988 45.81865847 91.97748395 47.15507708 94.5 48.5 C95.22904541 48.87253906 95.95809082 49.24507812 96.70922852 49.62890625 C101.17482798 52.05077917 103.36682168 54.15765806 105 59 C105.09000361 61.97541361 104.32979981 64.34603513 103 67 C100.3125 69.5625 100.3125 69.5625 97 71 C90.37903156 70.77844893 85.10871769 67.96299576 79.25 65.0625 C78.23357422 64.56741943 77.21714844 64.07233887 76.16992188 63.56225586 C67.50657162 59.31523667 58.96518559 54.85275816 50.45605469 50.30664062 C46.02575277 47.94968477 41.57465736 45.63264287 37.125 43.3125 C36.18712646 42.82193115 35.24925293 42.3313623 34.28295898 41.82592773 C29.31323123 39.23049227 24.33419885 36.65505196 19.33679199 34.11338806 C16.71917455 32.78159818 14.1043109 31.44444378 11.48944092 30.10726929 C10.22185565 29.46111036 8.9528856 28.81765959 7.68243408 28.17715454 C-11.4553638 18.5268317 -11.4553638 18.5268317 -14 12 C-14 7.37855373 -13.48252436 5.53996774 -10.375 2.0625 C-6.36478993 -0.38818393 -4.63210186 -0.41713169 0 0 Z " fill="#000000" transform="translate(895,861)"/>
</svg>
