<?xml version="1.0" encoding="UTF-8"?>
<svg version="1.1" xmlns="http://www.w3.org/2000/svg" width="2048" height="2048">
<path d="M0 0 C2.43004908 2.15188922 4.81681029 4.34550168 7.1875 6.5625 C7.81495117 7.14612305 8.44240234 7.72974609 9.08886719 8.33105469 C18.62383281 17.28843532 26.72614004 26.82768372 34.1875 37.5625 C34.85821533 38.5220459 34.85821533 38.5220459 35.54248047 39.50097656 C38.52348167 43.79335536 41.38722047 48.15045282 44.1875 52.5625 C44.87457031 53.63242188 45.56164063 54.70234375 46.26953125 55.8046875 C51.34286222 64.15016684 54.77526571 72.78600782 57.95532227 82.0078125 C58.30393311 82.97074219 58.65254395 83.93367187 59.01171875 84.92578125 C59.31166748 85.79501221 59.61161621 86.66424316 59.9206543 87.55981445 C61.04184002 89.79349815 61.04184002 89.79349815 63.6027832 90.39648438 C67.1732456 90.62581416 70.29010271 89.71736546 73.6875 88.75 C115.76669475 77.63213348 160.69625922 84.57915556 198.32055664 106.01928711 C210.10221458 112.93287475 220.36995885 121.09874412 230.1875 130.5625 C230.81914063 131.14257812 231.45078125 131.72265625 232.1015625 132.3203125 C242.77725451 142.38885615 250.79303379 155.00354483 258.1875 167.5625 C258.72286377 168.44446045 258.72286377 168.44446045 259.26904297 169.34423828 C280.24723084 204.09767586 285.34894737 250.19348952 276.0859375 289.3203125 C275.27820457 292.79626942 275.00368929 295.97819124 275.1875 299.5625 C276.04794922 299.96855469 276.04794922 299.96855469 276.92578125 300.3828125 C291.89123144 307.96772959 305.23222201 318.8848482 317.1875 330.5625 C318.10660156 331.41972656 319.02570312 332.27695312 319.97265625 333.16015625 C351.28040244 363.05883369 366.47148326 407.04211442 368.31640625 449.53125 C368.79729068 474.40900475 363.75627727 498.66256237 354.1875 521.5625 C353.89004883 522.27712402 353.59259766 522.99174805 353.28613281 523.72802734 C345.92626809 541.06150335 335.8284698 556.64072709 323.1875 570.5625 C322.31996094 571.54992187 321.45242188 572.53734375 320.55859375 573.5546875 C315.74139309 578.98231206 310.83884682 584.00975125 305.1875 588.5625 C304.25550781 589.32046875 303.32351563 590.0784375 302.36328125 590.859375 C281.25534631 607.72712858 257.43826738 619.22813975 231.1875 625.5625 C231.373125 627.0784375 231.373125 627.0784375 231.5625 628.625 C231.65144531 629.37523437 231.74039063 630.12546875 231.83203125 630.8984375 C232.07818186 632.74321458 232.37048688 634.58219789 232.69921875 636.4140625 C240.06071536 681.00071574 227.82742152 726.9029501 201.84130859 763.40429688 C196.79848951 770.29344612 191.23561018 776.54635869 185.1875 782.5625 C184.25550781 783.49449219 183.32351563 784.42648437 182.36328125 785.38671875 C157.87424828 808.80665342 125.05084286 825.1225562 91.1875 828.5625 C90.14851563 828.67207031 89.10953125 828.78164063 88.0390625 828.89453125 C63.80500816 831.09495991 39.46152834 829.16431155 16.96948242 819.49316406 C14.17475806 818.29525987 12.26917793 817.5625 9.1875 817.5625 C7.59906139 819.54449684 7.59906139 819.54449684 6.125 822.1875 C-1.39463246 834.45802996 -9.80090658 845.23520936 -19.8125 855.5625 C-20.52277344 856.31273437 -21.23304688 857.06296875 -21.96484375 857.8359375 C-27.18399018 863.23652665 -32.92761511 867.90879498 -38.8125 872.5625 C-39.8128125 873.36816406 -40.813125 874.17382812 -41.84375 875.00390625 C-83.34368698 908.07132629 -134.58752354 919.29733525 -186.640625 913.46484375 C-208.63875533 910.80802328 -230.62227571 904.29459644 -250.04931641 893.53613281 C-251.76267921 892.59001112 -253.4964192 891.68108858 -255.23046875 890.7734375 C-269.68431473 882.95605245 -282.87827138 872.81864745 -294.8125 861.5625 C-296.20429222 860.37026623 -297.59999551 859.18257955 -299 858 C-303.00706906 854.48881573 -306.44893865 850.68893093 -309.8125 846.5625 C-310.55113281 845.66144531 -311.28976562 844.76039063 -312.05078125 843.83203125 C-321.53039754 831.90313611 -329.53924252 818.93687021 -336.8125 805.5625 C-341.82706683 806.56060643 -346.84000293 807.56536386 -351.84765625 808.59765625 C-353.5234375 808.94010417 -355.19921875 809.28255208 -356.875 809.625 C-357.70837891 809.79837891 -358.54175781 809.97175781 -359.40039062 810.15039062 C-392.7152469 816.91706571 -427.43733213 811.43168595 -457.8125 796.5625 C-458.42222656 796.27181641 -459.03195312 795.98113281 -459.66015625 795.68164062 C-476.29468725 787.68223241 -490.66776717 776.41512766 -503.8125 763.5625 C-504.59625 762.840625 -505.38 762.11875 -506.1875 761.375 C-535.13462216 734.08199911 -553.34071738 691.67245577 -554.95263672 652.12426758 C-555.40262694 633.91309605 -555.17043182 616.35985876 -550.8125 598.5625 C-550.59287598 597.65193848 -550.37325195 596.74137695 -550.14697266 595.80322266 C-547.24414758 584.0912582 -543.37250178 573.27126083 -537.8125 562.5625 C-538.50730469 562.30210937 -539.20210937 562.04171875 -539.91796875 561.7734375 C-558.08955054 554.17129127 -574.19905404 540.54387694 -587.8125 526.5625 C-588.32417725 526.06766113 -588.83585449 525.57282227 -589.36303711 525.06298828 C-593.54723989 520.99177614 -597.2164658 516.75228143 -600.6875 512.0625 C-601.2028833 511.36745361 -601.7182666 510.67240723 -602.24926758 509.95629883 C-629.96452035 472.02451047 -641.2512394 425.1640851 -634.67871094 378.6550293 C-628.88666258 343.66380279 -613.93896077 312.76887101 -589.8203125 286.78125 C-588.41361016 285.22676181 -587.06441027 283.61919448 -585.76171875 281.9765625 C-572.03341322 264.97437249 -548.57510406 252.92798523 -528.8125 244.5625 C-528.1525 244.5625 -527.4925 244.5625 -526.8125 244.5625 C-527.121875 243.510625 -527.43125 242.45875 -527.75 241.375 C-536.3532663 206.59583836 -525.11957923 165.30209456 -507.14453125 135.29296875 C-485.22240837 99.83368243 -450.3697699 72.44823169 -409.62890625 62.40209961 C-380.59175827 55.67895274 -350.71584787 55.4375543 -321.95703125 63.890625 C-317.756187 64.8563548 -317.756187 64.8563548 -313.8125 63.5625 C-311.74229936 60.85132178 -310.21127299 57.88747923 -308.625 54.875 C-297.25244258 34.28322315 -282.16418206 14.46343842 -263.8125 -0.4375 C-262.74842521 -1.33691705 -261.68465149 -2.23669034 -260.62109375 -3.13671875 C-191.45738087 -60.8734652 -88.07918058 -63.75196846 0 0 Z M-266.8125 214.5625 C-267.66102539 214.91151367 -268.50955078 215.26052734 -269.38378906 215.62011719 C-301.53324629 228.95643928 -331.14906905 246.24002384 -358.15917969 268.21777344 C-359.73664704 269.50080506 -361.32510039 270.77029427 -362.9140625 272.0390625 C-371.30385044 278.88662902 -378.95589745 286.4944075 -386.625 294.125 C-387.16097809 294.65571106 -387.69695618 295.18642212 -388.24917603 295.73321533 C-395.24317499 302.67404989 -401.69146938 309.82441752 -407.8125 317.5625 C-408.80115463 318.75943732 -409.79286698 319.95386278 -410.7890625 321.14453125 C-419.54392111 331.76780481 -427.18666876 343.11276943 -434.8125 354.5625 C-434.4825 355.2225 -434.1525 355.8825 -433.8125 356.5625 C-432.82636719 355.46808594 -432.82636719 355.46808594 -431.8203125 354.3515625 C-419.62842283 340.92712948 -407.13603315 327.72739796 -392.8125 316.5625 C-390.91281014 314.96290219 -389.01717736 313.35847741 -387.125 311.75 C-368.10343669 295.92718482 -347.45480396 282.51673485 -325.8125 270.5625 C-324.94850586 270.08458008 -324.08451172 269.60666016 -323.19433594 269.11425781 C-264.11716897 236.72536649 -198.74430771 220.74958759 -131.4375 221.1875 C-129.51025085 221.19447906 -129.51025085 221.19447906 -127.54406738 221.20159912 C-40.53932351 221.57013745 45.37552807 249.54880161 114.1875 303.5625 C114.99574219 304.19027344 115.80398438 304.81804687 116.63671875 305.46484375 C134.72560172 319.70874677 152.88506793 335.24437469 167.6796875 352.93359375 C169.28790045 354.7982874 169.28790045 354.7982874 172.1875 356.5625 C162.42099943 335.3492407 144.48149054 316.25709582 128.6953125 299.31640625 C126.87480882 297.31725502 125.17779271 295.32030893 123.4921875 293.21484375 C122.73164062 292.33957031 121.97109375 291.46429688 121.1875 290.5625 C120.5275 290.5625 119.8675 290.5625 119.1875 290.5625 C119.1875 289.9025 119.1875 289.2425 119.1875 288.5625 C117.80792584 287.12782984 117.80792584 287.12782984 115.9375 285.625 C112.43639003 282.66158231 109.08406086 279.58761267 105.75 276.4375 C98.33774891 269.5696381 90.32143532 263.54272863 82.1875 257.5625 C81.424375 256.9962793 80.66125 256.43005859 79.875 255.84667969 C19.34709768 211.18213176 -55.94552188 189.26212702 -130.75 189.375 C-131.87944534 189.37590637 -131.87944534 189.37590637 -133.03170776 189.37683105 C-178.38827405 189.47461183 -224.73579102 197.17029114 -266.8125 214.5625 Z M-298.8125 308.5625 C-299.51358887 308.93165527 -300.21467773 309.30081055 -300.93701172 309.68115234 C-312.72716327 315.93094615 -323.87036507 322.93186289 -334.8125 330.5625 C-335.56563477 331.0874707 -336.31876953 331.61244141 -337.09472656 332.15332031 C-348.05221213 339.83712261 -358.53605047 347.99422231 -368.8125 356.5625 C-369.93214447 357.4858556 -371.05193019 358.40903996 -372.171875 359.33203125 C-380.05210807 365.87008576 -387.52400537 372.80684579 -394.96923828 379.83251953 C-397.32408889 382.0426482 -399.70207569 384.22673621 -402.08300781 386.40869141 C-411.06850944 394.64934917 -419.21333863 403.00641174 -426.8125 412.5625 C-427.5034375 413.38621094 -428.194375 414.20992187 -428.90625 415.05859375 C-435.66496059 423.93632631 -437.06148699 433.66989228 -435.8125 444.5625 C-433.71904715 454.52017374 -426.59509992 462.1485699 -418.4375 467.875 C-410.15082588 472.93828625 -401.86500378 476.11249656 -392.38256836 478.04345703 C-387.93300447 479.01360875 -385.05694639 480.34843232 -381.8125 483.5625 C-376.34319433 499.970417 -385.40830192 521.83601178 -392.7421875 536.56640625 C-398.04354261 546.94422012 -403.65573161 557.15019645 -409.35229492 567.31494141 C-425.4606195 596.1472951 -440.02656784 626.19127439 -432.03125 659.8515625 C-428.25543291 672.18806834 -421.96106123 682.52248102 -412.8125 691.5625 C-412.11382813 692.28308594 -411.41515625 693.00367188 -410.6953125 693.74609375 C-399.14075871 704.94089037 -382.61415169 709.54427433 -366.8125 709.5625 C-349.63155857 708.50194806 -333.93130654 701.75111424 -322.01171875 689.2109375 C-307.74855458 672.03433838 -301.84937602 651.74343573 -303.8125 629.5625 C-307.20379887 602.23473186 -322.54994892 576.99914066 -335.57519531 553.31152344 C-352.94840019 521.68929318 -352.94840019 521.68929318 -353.0625 503.0625 C-353.083125 502.22074219 -353.10375 501.37898437 -353.125 500.51171875 C-353.15504104 495.74270395 -353.04189806 492.36400588 -349.8125 488.5625 C-343.39215863 486.33503463 -338.63912529 488.86730052 -332.8125 491.5625 C-329.31995226 493.44237322 -325.94256294 495.48849016 -322.5625 497.5625 C-313.82546799 502.8369364 -304.97718518 507.82735804 -295.95800781 512.60351562 C-283.67243142 519.17476387 -283.67243142 519.17476387 -281.8125 524.5625 C-279.60461882 538.08577222 -286.78227323 549.78877753 -292.9375 561.25 C-299.53151702 573.54239961 -304.62950233 585.17656338 -300.75 599.3125 C-297.78477683 606.98310079 -292.11675134 612.11709842 -284.8125 615.5625 C-277.46037159 617.82000001 -269.721268 617.37522161 -262.87890625 613.88671875 C-255.75601372 609.32214301 -251.47451156 603.10253854 -249.0625 595.0625 C-247.66019004 581.03940037 -253.48050663 569.73445572 -259.76904297 557.60302734 C-261.47518191 554.2665956 -263.09057737 550.88978668 -264.6875 547.5 C-265.24179688 546.33339844 -265.79609375 545.16679688 -266.3671875 543.96484375 C-268.83147099 538.1637872 -270.3305476 533.78649517 -268.8125 527.5625 C-262.89265343 528.07841959 -258.19517207 529.37808846 -252.75 531.6875 C-214.40859886 547.13061999 -172.02041424 553.77735898 -130.8125 553.8125 C-130.08560974 553.81317474 -129.35871948 553.81384949 -128.60980225 553.81454468 C-34.86808601 553.6785545 52.45618439 514.7112276 122.1875 453.5625 C122.91074463 452.92900635 123.63398926 452.2955127 124.37915039 451.64282227 C131.09905641 445.67980064 137.52387282 439.44473257 143.88549805 433.10473633 C145.63996786 431.36011617 147.40484276 429.62645573 149.16992188 427.89257812 C150.30013318 426.76888659 151.42971389 425.64456037 152.55859375 424.51953125 C153.08045761 424.01001419 153.60232147 423.50049713 154.13999939 422.97554016 C157.31993283 419.77605224 159.38324979 416.69159739 161.1875 412.5625 C157.1895939 406.08221544 152.74313431 400.68367124 147.33203125 395.34375 C146.58974777 394.60096802 145.84746429 393.85818604 145.08268738 393.09289551 C143.52055642 391.53308996 141.95476851 389.97693893 140.38549805 388.42431641 C138.01504235 386.07739302 135.65812623 383.71749966 133.30273438 381.35546875 C125.56805648 373.6357395 117.81397145 366.28362638 109.1875 359.5625 C108.10849557 358.65191441 107.03565248 357.73391066 105.97265625 356.8046875 C65.51448144 321.62871342 16.73621498 294.30546428 -34.8125 279.5625 C-36.44203613 279.09287842 -36.44203613 279.09287842 -38.10449219 278.61376953 C-54.50568269 273.95396082 -70.88206629 270.58581609 -87.8125 268.5625 C-89.27478027 268.38678467 -89.27478027 268.38678467 -90.76660156 268.20751953 C-162.73859062 260.04487231 -234.9434789 274.7079019 -298.8125 308.5625 Z " fill="#000000" transform="translate(1610.8125,138.4375)"/>
<path d="M0 0 C31.37445273 8.22936465 62.44756738 26.43819325 88 46 C88.68578125 46.51884766 89.3715625 47.03769531 90.078125 47.57226562 C100.74006593 55.65260023 111.03860181 64.07098487 121 73 C121.59748047 73.53431641 122.19496094 74.06863281 122.81054688 74.61914062 C124.56794274 76.19717144 126.3171595 77.78365272 128.0625 79.375 C128.57466064 79.8385791 129.08682129 80.3021582 129.61450195 80.77978516 C133.39191147 84.26557244 136.72423079 88.04241287 140 92 C132.8478307 99.34010952 125.74052244 106.51365137 117.68359375 112.875 C114.87333432 115.10030004 112.16060556 117.41911129 109.4375 119.75 C87.13356889 138.33660926 62.15473072 153.50774501 36 166 C35.25830566 166.35562012 34.51661133 166.71124023 33.75244141 167.07763672 C10.49121832 178.13465042 -15.13791961 188.68713102 -41 191 C-37.6855502 188.30440618 -34.30422498 185.77269618 -30.8125 183.3125 C-25.17857089 179.22884669 -20.05454343 174.77465014 -15 170 C-14.24976563 169.31421875 -13.49953125 168.6284375 -12.7265625 167.921875 C11.04301656 145.40332642 22.40337566 112.93972823 24.28125 80.859375 C24.93454924 53.96522304 17.28513105 26.08710454 1.46875 4.1875 C0 2 0 2 0 0 Z " fill="#000000" transform="translate(1585,459)"/>
<path d="M0 0 C-0.56847656 0.84820312 -1.13695312 1.69640625 -1.72265625 2.5703125 C-13.17734244 19.86576686 -21.42346211 38.22038921 -24 59 C-24.10957031 59.87269531 -24.21914062 60.74539063 -24.33203125 61.64453125 C-28.02767167 96.08790001 -18.07397527 130.74537153 3.58764648 157.81201172 C14.05455786 170.48763539 25.79770183 180.67999697 40 189 C36.72407493 190.09197502 35.82771472 189.92645106 32.58984375 189.1015625 C31.24913818 188.76088745 31.24913818 188.76088745 29.88134766 188.41333008 C28.90987793 188.15318115 27.9384082 187.89303223 26.9375 187.625 C25.91962402 187.35389404 24.90174805 187.08278809 23.85302734 186.8034668 C-13.94132987 176.46480341 -48.06475035 159.58415853 -81.03466797 138.71191406 C-90.61704192 132.69443374 -99.65316289 129.70318963 -110.69921875 127.44921875 C-116.66917919 125.95926258 -119.2400736 122.98815501 -122.49609375 117.8359375 C-127.96264706 107.52757984 -130.75272636 96.72810356 -128.421875 85.12109375 C-118.66557537 53.94528175 -66.66351873 29.1995652 -40 15 C-30.77188155 10.19171545 -21.25804253 6.20342168 -11.5625 2.4375 C-10.6432373 2.07809326 -9.72397461 1.71868652 -8.77685547 1.34838867 C-7.49705811 0.86462769 -7.49705811 0.86462769 -6.19140625 0.37109375 C-5.04973999 -0.0631189 -5.04973999 -0.0631189 -3.88500977 -0.50610352 C-2 -1 -2 -1 0 0 Z " fill="#000000" transform="translate(1374,460)"/>
<path d="M0 0 C2.1602892 1.57688429 4.05152462 3.15684762 6 5 C6 5.33 6 5.66 6 6 C4.53240234 6.03867187 4.53240234 6.03867187 3.03515625 6.078125 C-7.65351805 6.54056519 -16.29037162 7.93178425 -24 16 C-28.54961378 22.76064104 -28.99377794 30.05981464 -28 38 C-25.95991055 44.79666164 -21.54034089 49.67052976 -15.5 53.3125 C-9.33851204 56.17152377 -2.13052089 56.09056657 4.3671875 54.375 C11.65798932 51.19768559 16.3930353 45.00997596 19.375 37.8125 C20.57876889 34.57279155 21.38401631 31.39998842 22 28 C30.54797961 35.71136884 32.37902222 47.88293331 33.21875 58.859375 C33.84509861 78.17179038 27.42067957 95.28898235 15 110 C14.45859375 110.65484375 13.9171875 111.3096875 13.359375 111.984375 C1.53313726 125.00518221 -17.61544002 133.00905388 -34.8515625 134.28515625 C-56.56231252 135.02794828 -74.91715192 127.66398187 -91.3125 113.625 C-104.37133983 101.40326528 -111.7604433 83.50281339 -113.2734375 65.80078125 C-113.80719131 47.46839068 -108.1628126 28.29417368 -95.625 14.625 C-93.78192793 12.71351628 -91.89850801 10.85788373 -90 9 C-89.29230469 8.26007813 -88.58460937 7.52015625 -87.85546875 6.7578125 C-65.24846034 -15.46016518 -25.82752681 -17.35500479 0 0 Z " fill="#000000" transform="translate(1519,475)"/>
<path d="M0 0 C0.02578125 0.95519531 0.0515625 1.91039062 0.078125 2.89453125 C0.56848165 14.07243407 2.57362406 23.06299148 9.046875 32.44140625 C10 34 10 34 10 36 C7.16607074 36.08174796 4.33455181 36.14084985 1.5 36.1875 C0.31277344 36.22520508 0.31277344 36.22520508 -0.8984375 36.26367188 C-6.99635832 36.33864631 -12.69275502 35.6519196 -17.63500977 31.68896484 C-20.03244095 29.1672953 -20.98978059 27.49053187 -21.0625 24 C-18.73850511 17.43813207 -14.06990619 12.67059798 -9.375 7.6875 C-8.78976562 7.05521484 -8.20453125 6.42292969 -7.6015625 5.77148438 C-2.20742062 0 -2.20742062 0 0 0 Z " fill="#000000" transform="translate(1233,549)"/>
<path d="M0 0 C3.19124462 2.48207915 4.72717283 4.12695307 5.9375 8 C6.05084762 13.44068584 3.74430402 16.62880303 0.125 20.5 C-0.68066406 21.37140625 -1.48632812 22.2428125 -2.31640625 23.140625 C-3.20199219 24.08421875 -4.08757812 25.0278125 -5 26 C-6.94125093 28.07986342 -8.87794893 30.16390438 -10.8125 32.25 C-11.32047119 32.7968042 -11.82844238 33.3436084 -12.35180664 33.90698242 C-15.94111772 37.79281896 -19.39837752 41.77253134 -22.8125 45.8125 C-27.90455999 51.83301226 -33.22854779 57.60553224 -38.66137695 63.31958008 C-41.65475579 66.47249726 -44.59323087 69.65232437 -47.44140625 72.9375 C-51.87581411 78.04672255 -56.55118633 82.92129293 -61.21484375 87.8203125 C-64.19453864 90.96522947 -67.1314688 94.09991166 -69.8671875 97.4609375 C-72.32273683 100.38421051 -73.01637915 100.8882249 -76.75 101.3125 C-80.83140958 100.92005677 -82.84684973 99.56651766 -86 97 C-87.20643566 93.38069302 -87.32268559 90.80768995 -87 87 C-84.4104185 82.60845164 -81.30585289 79.00748942 -77.8125 75.3125 C-74.32457586 71.58454667 -70.98637455 67.81646482 -67.8125 63.8125 C-63.12734895 57.98359598 -58.00974588 52.59517177 -52.84692383 47.1887207 C-49.05517048 43.21366888 -45.37956981 39.17125544 -41.78173828 35.02026367 C-37.96144409 30.68853794 -33.94017771 26.54053173 -29.9609375 22.35546875 C-22.54572828 14.55586745 -22.54572828 14.55586745 -15.67358398 6.28198242 C-11.39942251 0.76854206 -6.98480938 -2.37780745 0 0 Z " fill="#000000" transform="translate(943,637)"/>
<path d="M0 0 C42.95859552 33.87791679 53.68961636 114.21083929 59.984375 164.640625 C60.07439789 165.34451355 60.16442078 166.0484021 60.25717163 166.77362061 C61.84559479 179.41548623 62.34755719 191.90572875 62.296875 204.640625 C62.29538452 205.57273804 62.29389404 206.50485107 62.2923584 207.46520996 C62.11215126 270.43819226 62.11215126 270.43819226 42.65625 290.3125 C36.24248462 295.40754726 30.12314971 297.4594066 21.9296875 297.05078125 C11.4618219 295.59305461 4.09454759 289.56185004 -3.33984375 282.40234375 C-25.438567 261.25331769 -61.91958904 252.49662854 -91.015625 246.640625 C-92.23830078 246.39038574 -93.46097656 246.14014648 -94.72070312 245.88232422 C-103.80021429 244.02851831 -112.89502961 242.2811632 -122.015625 240.640625 C-122.84868164 240.48932129 -123.68173828 240.33801758 -124.54003906 240.18212891 C-134.67485777 238.42414391 -144.8878708 238.44554916 -155.140625 238.390625 C-155.81463348 238.38508606 -156.48864197 238.37954712 -157.18307495 238.37384033 C-166.98580641 238.31497225 -176.35244908 239.11932888 -186.015625 240.640625 C-184.84085165 244.23584429 -183.62015867 247.81379977 -182.390625 251.390625 C-181.89369141 252.91429687 -181.89369141 252.91429687 -181.38671875 254.46875 C-179.28580231 260.49483121 -179.28580231 260.49483121 -175.10546875 265.19921875 C-172.16424687 266.57129318 -169.24869775 267.83193021 -166.203125 268.953125 C-155.68558575 273.2409446 -148.55881891 279.61778129 -143.9440918 290.06689453 C-141.27868494 297.09357419 -139.99574574 303.81708683 -139.140625 311.265625 C-138.90363892 313.22230103 -138.90363892 313.22230103 -138.66186523 315.21850586 C-138.19563168 319.11572949 -137.75452984 323.01548662 -137.31964111 326.9163208 C-136.99451373 329.82980415 -136.66494455 332.74276931 -136.33544922 335.65576172 C-133.1805922 363.69792563 -130.47067541 391.76438026 -128.203125 419.890625 C-128.09807648 421.18565948 -127.99302795 422.48069397 -127.88479614 423.81497192 C-126.90568572 435.96844044 -125.97059939 448.12697988 -125.28125 460.30078125 C-125.20253914 461.50985138 -125.20253914 461.50985138 -125.12223816 462.74334717 C-124.48976159 475.24353816 -127.09708653 488.71158901 -135.015625 498.640625 C-135.68722656 499.50042969 -136.35882812 500.36023437 -137.05078125 501.24609375 C-145.39140843 511.20483202 -155.82593557 516.63560185 -168.453125 519.390625 C-195.8187389 521.31101896 -215.01873411 507.16707664 -236.765625 492.390625 C-237.38223999 491.97232422 -237.99885498 491.55402344 -238.63415527 491.12304688 C-246.180842 485.99968891 -253.67072469 480.82006335 -260.97949219 475.36035156 C-265.25070713 472.17373168 -269.61061033 469.13916864 -274.015625 466.140625 C-279.92618755 462.11420621 -285.7307875 457.96926777 -291.48095703 453.71728516 C-296.51719998 449.99414421 -301.602828 446.34473809 -306.71337891 442.72436523 C-310.91516563 439.74108437 -310.91516563 439.74108437 -312.015625 438.640625 C-312.01515706 439.34407064 -312.01468912 440.04751628 -312.01420699 440.77227846 C-311.96336703 517.35891799 -311.91625089 593.94555948 -311.88859558 670.5322113 C-311.88818141 671.67625707 -311.88776724 672.82030284 -311.88734052 673.99901665 C-311.87836177 698.86228783 -311.87005123 723.72555918 -311.86242901 748.5888308 C-311.85868701 760.78179545 -311.85479734 772.97476004 -311.85083008 785.16772461 C-311.8504378 786.38107033 -311.85004552 787.59441606 -311.84964136 788.84452983 C-311.83685761 828.17166113 -311.81432389 867.49877949 -311.78673334 906.82590294 C-311.75843167 947.24005102 -311.73996776 987.65419194 -311.73388003 1028.06834977 C-311.73301557 1033.77673146 -311.73203866 1039.48511313 -311.73099327 1045.1934948 C-311.730791 1046.31698479 -311.73058873 1047.44047479 -311.73038033 1048.59800994 C-311.72683536 1066.68217198 -311.71292164 1084.7663119 -311.6951289 1102.85046492 C-311.67746197 1121.03169603 -311.67072237 1139.21290521 -311.67512087 1157.3941446 C-311.67740235 1168.19556245 -311.67132152 1178.9969 -311.65323237 1189.79830334 C-311.64196879 1197.01736593 -311.64164384 1204.23637604 -311.65012956 1211.45544228 C-311.65465115 1215.56638574 -311.65449624 1219.67717751 -311.64097545 1223.7881046 C-311.62874313 1227.53589164 -311.63060344 1231.28341009 -311.64320507 1235.0311935 C-311.64632275 1236.9978383 -311.63485239 1238.96449023 -311.62259957 1240.93109933 C-311.73703857 1261.28465616 -317.51046732 1280.69962756 -331.578125 1295.828125 C-345.96620429 1309.50005555 -365.38931263 1315.19838475 -384.9296875 1314.84375 C-400.57390669 1314.25122068 -415.58847559 1306.44685935 -426.46484375 1295.41015625 C-441.9177215 1278.63207 -444.32024155 1258.71261712 -444.2940979 1236.77851868 C-444.2991059 1234.86336491 -444.30498317 1232.94821325 -444.31165063 1231.03306454 C-444.3274036 1225.79037938 -444.33087872 1220.54774788 -444.33229923 1215.30504191 C-444.3360015 1209.64395356 -444.35116111 1203.98289436 -444.36491394 1198.32182312 C-444.38716461 1188.52024454 -444.40219109 1178.71867637 -444.41228104 1168.91707802 C-444.42687981 1154.74569529 -444.45242003 1140.57434881 -444.48061232 1126.40298738 C-444.52605851 1103.40969877 -444.56269932 1080.41640753 -444.59375 1057.4230957 C-444.62393003 1035.09007856 -444.65827602 1012.75707414 -444.69824219 990.42407227 C-444.69947319 989.73526522 -444.70070419 989.04645818 -444.7019725 988.33677819 C-444.71433971 981.41928311 -444.7267914 974.50178818 -444.73930498 967.58429335 C-444.84418364 909.60308872 -444.93467361 851.62186775 -445.015625 793.640625 C-452.605625 793.310625 -460.195625 792.980625 -468.015625 792.640625 C-468.01285962 796.16188144 -468.01285962 796.16188144 -468.01003838 799.75427437 C-467.96657767 855.49124215 -467.9337356 911.22820901 -467.91349434 966.96519018 C-467.91099975 973.82689114 -467.90840663 980.68859206 -467.90576172 987.55029297 C-467.9055002 988.2331003 -467.90523868 988.91590762 -467.90496924 989.61940608 C-467.89645257 1011.73538336 -467.88143445 1033.8513504 -467.86303056 1055.96732148 C-467.8436105 1079.34697847 -467.83162887 1102.72662691 -467.82744801 1126.10629261 C-467.82470511 1140.10671002 -467.81604477 1154.10709802 -467.79979207 1168.10750638 C-467.78921239 1177.71079755 -467.78602661 1187.31407352 -467.78862225 1196.9173701 C-467.78990199 1202.45620347 -467.7879533 1207.99498545 -467.77721405 1213.53380966 C-467.76744222 1218.61089634 -467.76701554 1223.68789733 -467.77382721 1228.76498805 C-467.77466842 1230.59564398 -467.77216483 1232.42630537 -467.76585864 1234.25695063 C-467.69437276 1256.30187499 -470.53361147 1278.00062612 -486.25390625 1295 C-499.38060809 1307.224423 -516.02559715 1314.26614641 -533.953125 1315.015625 C-554.20012087 1314.20977442 -571.71722922 1306.46627075 -585.890625 1291.890625 C-597.98435582 1277.73745451 -600.16908243 1259.44746491 -600.1542902 1241.56650639 C-600.15673961 1240.22470239 -600.15962407 1238.88289912 -600.16290298 1237.5410969 C-600.17066478 1233.84816115 -600.17224444 1230.15524457 -600.1728304 1226.46230167 C-600.17456037 1222.44692693 -600.18204626 1218.43156228 -600.18880695 1214.41619343 C-600.19986388 1207.37700153 -600.2072357 1200.33781322 -600.21220589 1193.2986145 C-600.21961302 1182.83156182 -600.23269645 1172.36452164 -600.24695164 1161.89747632 C-600.27076924 1144.29075533 -600.28997046 1126.68403211 -600.30655098 1109.07730293 C-600.32298551 1091.64158384 -600.34146554 1074.2058689 -600.36268425 1056.77015495 C-600.36400186 1055.68651295 -600.36531946 1054.60287094 -600.366677 1053.4863913 C-600.37337898 1047.98323886 -600.38011757 1042.48008645 -600.38687026 1036.97693407 C-600.43464771 997.98666124 -600.4778286 958.99638454 -600.51831055 920.00610352 C-600.55765148 882.12491575 -600.59907184 844.2437312 -600.64331055 806.36254883 C-600.64535434 804.61140227 -600.64535434 804.61140227 -600.64743942 802.82487901 C-600.66112467 791.10117756 -600.67485222 779.37747617 -600.68861077 767.6537748 C-600.71663816 743.77072463 -600.74438315 719.88767412 -600.7719574 696.00462341 C-600.7732256 694.9064921 -600.7744938 693.8083608 -600.77580042 692.67695278 C-600.8604725 619.3315154 -600.93856106 545.98607072 -601.015625 472.640625 C-602.13139996 475.92833291 -603.23985812 479.21846552 -604.34716797 482.5090332 C-604.81409309 483.88442638 -604.81409309 483.88442638 -605.29045105 485.28760529 C-608.44261869 494.67731294 -610.85934141 504.19600058 -613.140625 513.828125 C-613.35317932 514.71515106 -613.56573364 515.60217712 -613.784729 516.51608276 C-631.41578659 590.13806176 -635.91657541 668.82456282 -632.390625 744.390625 C-631.48800618 764.37145835 -633.10397292 783.8171132 -647.140625 799.390625 C-656.86224061 808.48850863 -669.09827328 811.06658512 -681.9453125 810.828125 C-685.88995319 810.58723091 -689.2943159 809.93823579 -693.015625 808.640625 C-693.79292969 808.39570312 -694.57023438 808.15078125 -695.37109375 807.8984375 C-706.82994862 803.88339688 -714.59734156 796.41955056 -720.015625 785.640625 C-724.72063128 774.68140305 -725.16665374 763.7112247 -725.16088867 751.92895508 C-725.16424728 750.91870773 -725.1676059 749.90846039 -725.17106628 748.86759949 C-725.18050797 745.54843891 -725.18251778 742.22932941 -725.18359375 738.91015625 C-725.18681729 736.55547568 -725.19018213 734.20079529 -725.19367981 731.84611511 C-725.19965881 726.9010675 -725.2015216 721.9560373 -725.20092773 717.01098633 C-725.20084734 712.02429508 -725.20764904 707.03769739 -725.22143555 702.05102539 C-725.28653986 678.12904471 -725.34903957 654.22466001 -724.1171875 630.328125 C-724.07743994 629.55187586 -724.03769238 628.77562672 -723.99674034 627.97585487 C-719.88425135 550.3199457 -705.91480693 467.69727813 -652.015625 362.640625 C-651.62584473 362.11984375 -651.23606445 361.5990625 -650.83447266 361.0625 C-629.97611257 333.21999905 -602.33649261 312.73904343 -567.38912964 307.57966614 C-557.95575753 306.29665474 -548.54314262 306.35189187 -539.03955078 306.3659668 C-537.07479663 306.36160949 -535.11004418 306.35642298 -533.14529419 306.35047913 C-527.85180195 306.33718817 -522.55838154 306.33649927 -517.26487589 306.33904243 C-512.82692364 306.34011879 -508.38898553 306.33521193 -503.95103633 306.330437 C-493.47206666 306.3193763 -482.99313283 306.31888515 -472.51416016 306.32495117 C-461.74471656 306.33098995 -450.97540364 306.31867439 -440.20598233 306.2973811 C-430.92055693 306.27970477 -421.63517291 306.27377318 -412.34973133 306.27701885 C-406.82116247 306.27882207 -401.29268689 306.27629221 -395.76413345 306.26230431 C-390.56173613 306.24963173 -385.35954106 306.25175827 -380.15714645 306.26471519 C-378.26145608 306.26706004 -376.36575104 306.26442258 -374.47007751 306.25609207 C-342.06163356 306.12407771 -316.00094586 316.52099092 -290.015625 335.640625 C-289.28698242 336.17558594 -288.55833984 336.71054687 -287.80761719 337.26171875 C-284.65294066 339.58184603 -281.50156716 341.90624384 -278.35839844 344.24194336 C-272.6924004 348.44359872 -266.94223859 352.50394981 -261.140625 356.515625 C-251.1730137 363.41764558 -241.54977264 370.74353349 -231.96655273 378.16699219 C-230.35790385 379.38208475 -228.69302707 380.52235695 -227.015625 381.640625 C-227.09603027 380.68623535 -227.17643555 379.7318457 -227.25927734 378.74853516 C-227.98712058 370.09963527 -228.70843067 361.45021909 -229.4221344 352.80014038 C-229.82706853 347.89732582 -230.24099128 342.99537291 -230.66015625 338.09375 C-231.46169821 328.5347224 -232.19786983 318.98575753 -232.328125 309.390625 C-232.34576904 308.68147949 -232.36341309 307.97233398 -232.3815918 307.24169922 C-232.37687604 303.74432325 -232.02164472 301.65200669 -230.37109375 298.53125 C-228.67871601 295.731158 -228.67871601 295.731158 -229.74536133 292.93237305 C-230.16454834 291.84609619 -230.58373535 290.75981934 -231.015625 289.640625 C-231.47388672 288.45283447 -231.93214844 287.26504395 -232.40429688 286.04125977 C-232.92954272 284.72094042 -233.45630484 283.40122353 -233.984375 282.08203125 C-234.56129252 280.62959487 -235.13811244 279.17711971 -235.71484375 277.72460938 C-236.6153895 275.4619575 -237.51697961 273.19973408 -238.42041016 270.93823242 C-239.29885647 268.73732946 -240.17310457 266.53479397 -241.046875 264.33203125 C-241.31463745 263.66514786 -241.5823999 262.99826447 -241.85827637 262.31117249 C-243.51275653 258.13171833 -244.84687249 253.97334752 -246.015625 249.640625 C-246.675625 249.970625 -247.335625 250.300625 -248.015625 250.640625 C-257.15721917 251.39656452 -266.78972427 250.71695062 -274.015625 244.640625 C-274.88233222 243.46179496 -275.74398296 242.27923682 -276.6015625 241.09375 C-279.71500389 237.41661889 -282.19710092 236.74424639 -286.89379883 236.26513672 C-287.71775146 236.20342285 -288.5417041 236.14170898 -289.390625 236.078125 C-298.094351 235.04910492 -302.9852217 233.52856091 -308.66796875 226.63671875 C-316.15159624 216.4084846 -318.2162068 205.35647235 -318.328125 193.015625 C-318.35712891 191.97277344 -318.38613281 190.92992187 -318.41601562 189.85546875 C-318.48314729 181.58278259 -317.13789094 174.7335756 -312.04296875 168.0546875 C-306.48492054 163.29658268 -299.64848328 158.640625 -292.015625 158.640625 C-291.92087891 157.8053125 -291.92087891 157.8053125 -291.82421875 156.953125 C-290.50187333 148.71282512 -286.33374603 144.40206044 -280.06884766 139.18823242 C-275.42854246 135.91594076 -270.51728656 135.03004977 -265.01953125 133.95703125 C-263.95435776 133.73417953 -262.88918427 133.51132782 -261.79173279 133.28172302 C-258.3902589 132.57291922 -254.98469873 131.88695543 -251.578125 131.203125 C-247.14039301 130.29512017 -242.70459904 129.37795502 -238.26953125 128.45703125 C-237.17113922 128.22962753 -236.07274719 128.00222382 -234.94107056 127.76792908 C-219.50727551 124.53614475 -203.96089833 121.03162968 -189.015625 115.953125 C-188.04399414 115.62481689 -187.07236328 115.29650879 -186.07128906 114.95825195 C-153.88137785 103.73624709 -123.64514736 85.80343359 -97.015625 64.640625 C-96.11457031 63.93035156 -95.21351563 63.22007812 -94.28515625 62.48828125 C-87.80765629 57.28983629 -81.66967519 51.76196634 -75.59667969 46.10400391 C-73.95790895 44.58720468 -72.30507438 43.08709713 -70.6484375 41.58984375 C-57.64324449 29.81317623 -57.64324449 29.81317623 -49.27734375 14.56640625 C-45.48867632 5.78092046 -38.26754809 -1.12177197 -29.828125 -5.4921875 C-19.02548959 -9.77466082 -9.17400337 -6.18711856 0 0 Z M-25.203125 16.578125 C-25.80125 17.58875 -26.399375 18.599375 -27.015625 19.640625 C-27.675625 20.73375 -28.335625 21.826875 -29.015625 22.953125 C-37.67159756 41.18519318 -37.33093172 63.07785642 -37.140625 82.765625 C-37.13055697 84.61067213 -37.121438 86.45572468 -37.11328125 88.30078125 C-37.09161216 92.74753423 -37.05730194 97.19401641 -37.015625 101.640625 C-33.20823778 103.69099836 -29.4958462 104.34306818 -25.265625 105.015625 C-15.27153687 106.75191941 -7.24986423 110.00367386 -1.015625 118.453125 C7.73224316 132.22876274 10.76482829 150.70883058 7.984375 166.640625 C5.78094919 175.3287444 2.40246478 182.97360415 -5.375 187.83984375 C-10.14318362 190.65820091 -15.05989207 193.17016319 -20.015625 195.640625 C-18.82341729 202.4146544 -17.15171669 208.79492866 -14.828125 215.265625 C-14.52060303 216.13026367 -14.21308105 216.99490234 -13.89624023 217.88574219 C-11.21738558 225.29949121 -8.25096054 232.54360556 -4.92041016 239.6875 C-4.30505069 241.01585286 -3.70094266 242.34946345 -3.10693359 243.6875 C2.33541521 255.93638234 9.74522677 268.02560823 21.921875 274.703125 C24.80401194 274.61578752 26.40254981 273.30820647 28.47265625 271.39453125 C42.62782981 254.97160379 41.37412333 226.98508365 41.296875 206.640625 C41.29414078 205.14595703 41.29414078 205.14595703 41.29135132 203.62109375 C41.2487291 189.77762092 40.88029524 176.19829485 38.48925781 162.53027344 C37.91649884 159.2521423 37.39989525 155.96704778 36.8828125 152.6796875 C32.64495155 126.34028943 26.37292949 100.96332279 17.984375 75.640625 C17.64647949 74.61356445 17.30858398 73.58650391 16.96044922 72.52832031 C10.34700087 52.67149931 1.2468984 28.75184017 -16.015625 15.640625 C-21.00939131 13.87685008 -21.00939131 13.87685008 -25.203125 16.578125 Z " fill="#000000" transform="translate(794.015625,671.359375)"/>
<path d="M0 0 C22.76184359 19.98098487 37.6402852 48.45488006 39.9765625 78.8203125 C42.02644235 111.33316215 33.36838454 141.39593925 12.00390625 166.578125 C-7.46606797 188.31644573 -36.18455938 205.60460242 -65.90917969 207.49609375 C-69.76632061 207.61343662 -73.61373554 207.65363693 -77.47265625 207.6484375 C-78.15513428 207.64789368 -78.8376123 207.64734985 -79.54077148 207.64678955 C-90.5579484 207.60649853 -100.90780467 206.7983647 -111.41015625 203.2734375 C-112.05259277 203.05913086 -112.6950293 202.84482422 -113.35693359 202.62402344 C-128.59723101 197.3534046 -142.06395605 189.57000707 -154.41015625 179.2734375 C-155.28285156 178.55414062 -156.15554688 177.83484375 -157.0546875 177.09375 C-178.05573839 159.03615349 -192.09455213 132.82058174 -195.41015625 105.2734375 C-195.72362094 100.22844336 -195.79231926 95.20240474 -195.78515625 90.1484375 C-195.78428009 89.46712769 -195.78340393 88.78581787 -195.78250122 88.0838623 C-195.735632 77.00456226 -194.86164684 66.82115361 -191.41015625 56.2734375 C-191.16346191 55.49613281 -190.91676758 54.71882812 -190.66259766 53.91796875 C-185.7271495 38.67231184 -179.00706617 25.43284075 -168.41015625 13.2734375 C-167.67667969 12.41878906 -166.94320312 11.56414063 -166.1875 10.68359375 C-123.2372968 -38.30763288 -48.97540442 -41.17587804 0 0 Z " fill="#000000" transform="translate(415.41015625,744.7265625)"/>
<path d="M0 0 C1.20919818 3.62759454 0.63882754 4.9210919 -0.375 8.5625 C-5.21211449 28.55739263 -3.42157804 50.03598973 7.25 67.9375 C16.99464403 82.12300772 31.27973203 87.85717451 47 93 C39.0223578 97.59103691 25.92829819 95.88327951 17.1640625 94.3125 C10.87394842 92.37210491 5.87920528 89.38175919 1 85 C0.39542969 84.48695313 -0.20914062 83.97390625 -0.83203125 83.4453125 C-11.06999423 74.12185166 -15.28158116 60.82215073 -15.98828125 47.33203125 C-16.0474603 30.50545594 -9.13158403 13.90554285 0 0 Z " fill="#000000" transform="translate(1210,731)"/>
<path d="M0 0 C2.03494845 3.74430515 2.55050684 6.70341558 1.5625 10.875 C-2.83572332 16.49495202 -7.23559283 18.00010864 -14.07250977 19.21606445 C-14.73198105 19.33512146 -15.39145233 19.45417847 -16.07090759 19.57684326 C-18.25590649 19.96982879 -20.44235667 20.35402571 -22.62890625 20.73828125 C-24.17286611 21.01434348 -25.71672325 21.29098076 -27.26048279 21.56816101 C-31.34431348 22.29992716 -35.42940501 23.02439614 -39.51483154 23.74719238 C-44.3643666 24.60640465 -49.21246236 25.47368759 -54.06072998 26.34001732 C-58.01159378 27.0458945 -61.96266058 27.75057084 -65.91430664 28.45205688 C-73.11779429 29.73244861 -80.31717964 31.02882316 -87.50585938 32.39013672 C-89.35521339 32.73917305 -89.35521339 32.73917305 -91.2419281 33.09526062 C-93.49776015 33.52334347 -95.75277561 33.9557649 -98.00672913 34.39363098 C-116.43604093 37.89254239 -116.43604093 37.89254239 -123.2265625 34.46875 C-125.4375 32.875 -125.4375 32.875 -126.4375 30.875 C-126.67578125 28.88671875 -126.67578125 28.88671875 -126.75 26.5625 C-126.78738281 25.80324219 -126.82476563 25.04398438 -126.86328125 24.26171875 C-126.23299445 20.72864318 -125.03896598 19.37583516 -122.4375 16.875 C-119.21538792 15.65565235 -115.89770233 15.15434056 -112.5078125 14.58984375 C-111.43685333 14.39382065 -110.36589417 14.19779755 -109.26248169 13.99583435 C-106.76824269 13.53991641 -104.27244086 13.09250281 -101.7755127 12.65155029 C-96.92697361 11.79117273 -92.09022937 10.87086413 -87.25292969 9.94970703 C-78.61606566 8.30776158 -69.97411907 6.69532476 -61.32799911 5.10285378 C-56.2802312 4.1727784 -51.23380402 3.23644898 -46.18994141 2.28540039 C-41.23588127 1.35140849 -36.27917909 0.43293331 -31.32019424 -0.47453499 C-29.44934582 -0.8195686 -27.57948854 -1.17002471 -25.71072006 -1.52615166 C-23.11416264 -2.01988335 -20.5146793 -2.49355412 -17.91357422 -2.96264648 C-17.15515228 -3.11159363 -16.39673035 -3.26054077 -15.61532593 -3.41400146 C-9.69593923 -4.44750608 -4.73328769 -4.12645594 0 0 Z " fill="#000000" transform="translate(1003.4375,773.125)"/>
<path d="M0 0 C2.61123834 1.02054948 4.82648884 2.03186444 7.25 3.375 C8.65451147 4.11541183 10.05948138 4.85495451 11.46484375 5.59375 C12.56868408 6.18349609 12.56868408 6.18349609 13.69482422 6.78515625 C16.8668636 8.45684318 20.07919695 10.04204085 23.29370117 11.63012695 C31.33094324 15.60239576 39.29609948 19.69796245 47.2175293 23.89575195 C54.02716152 27.50076973 60.86841719 31.04312724 67.71542358 34.57641602 C69.61148581 35.55552142 71.50671187 36.53622446 73.40161133 37.51757812 C74.01498856 37.83523132 74.62836578 38.15288452 75.2603302 38.48016357 C76.47469195 39.10907875 77.68903746 39.73802527 78.90336609 40.36700439 C82.43972547 42.19724506 85.98304695 44.01316139 89.53125 45.8203125 C91.06265597 46.60907226 92.59392065 47.39810643 94.125 48.1875 C94.79869629 48.52531494 95.47239258 48.86312988 96.16650391 49.21118164 C99.63197337 51.01192081 102.02359056 52.5893212 104 56 C105.13936787 59.74363729 105.18893485 61.4928591 103.8125 65.1875 C100.90386196 69.70090386 100.90386196 69.70090386 98 71 C90.95978584 71.17112313 85.47314576 68.68677885 79.3828125 65.44140625 C78.48617889 64.97822495 77.58954529 64.51504364 76.66574097 64.03782654 C73.81164765 62.55940218 70.9683836 61.06139978 68.125 59.5625 C66.25588734 58.59049008 64.38609999 57.61977638 62.515625 56.65039062 C55.31144733 52.90932553 48.13040214 49.12462207 40.95092773 45.33642578 C39.34363144 44.48852298 37.73629184 43.64070225 36.12890625 42.79296875 C35.35287552 42.38359573 34.57684479 41.97422272 33.77729797 41.55244446 C28.75257628 38.9072298 23.70754939 36.30545199 18.64453125 33.734375 C17.33007483 33.06511064 16.01562166 32.39583989 14.70117188 31.7265625 C12.73745084 30.72702973 10.7726463 29.7299399 8.80444336 28.73925781 C-11.45403932 18.53002611 -11.45403932 18.53002611 -14 12 C-13.92298313 7.76407233 -13.38298138 5.54545833 -10.9375 2.0625 C-7.24627574 -0.52921065 -4.33553485 -0.56827631 0 0 Z " fill="#000000" transform="translate(895,861)"/>
</svg>
