<?xml version="1.0" encoding="UTF-8"?>
<svg version="1.1" xmlns="http://www.w3.org/2000/svg" width="2048" height="2048">
<path d="M0 0 C32.72643605 -0.62410367 67.07682893 6.16540094 95.87402344 22.04785156 C97.98583588 23.2049947 100.11797752 24.31774541 102.25390625 25.4296875 C126.0663558 38.01023362 147.20042091 55.99601956 163.83984375 77.125 C164.65582031 78.14722656 165.47179688 79.16945313 166.3125 80.22265625 C180.02005369 97.55367956 191.78111078 117.1047952 198.83984375 138.125 C200.11859375 137.856875 201.39734375 137.58875 202.71484375 137.3125 C207.74254771 136.309824 212.78558237 135.41889607 217.83984375 134.5625 C218.57444824 134.43576904 219.30905273 134.30903809 220.06591797 134.1784668 C249.26649688 129.2945104 279.60271029 131.34081671 307.83984375 140.125 C308.5167627 140.33463379 309.19368164 140.54426758 309.89111328 140.76025391 C330.11936931 147.2275206 348.03991005 158.67363278 363.55078125 173.02734375 C365.55632117 174.86518494 367.61343668 176.58727074 369.71484375 178.3125 C398.86317354 204.02132687 417.66324978 245.21647623 420.69482422 283.71142578 C421.79781748 302.0686504 420.30879549 319.94423595 417.83984375 338.125 C417.49975003 340.79087924 417.16924939 343.45777374 416.83984375 346.125 C417.80921875 346.76824219 418.77859375 347.41148437 419.77734375 348.07421875 C441.87522744 362.89433963 462.40021344 380.25538304 477.83984375 402.125 C478.23461914 402.68074707 478.62939453 403.23649414 479.03613281 403.80908203 C505.62763222 441.79224847 512.16385946 491.07141419 504.625 536.02270508 C497.91498831 572.96589442 480.4886896 603.27896615 454.83984375 630.125 C453.82857422 631.21554687 453.82857422 631.21554687 452.796875 632.328125 C442.41102437 643.22330306 429.7849654 651.60041666 416.83984375 659.125 C416.18177734 659.50897949 415.52371094 659.89295898 414.84570312 660.28857422 C385.58119503 677.125 385.58119503 677.125 374.83984375 677.125 C374.98421875 678.31351563 375.12859375 679.50203125 375.27734375 680.7265625 C380.83454252 729.14439845 371.26555885 776.63935859 340.71875 815.5703125 C336.9467674 820.27191272 333.00782428 824.77028199 328.83984375 829.125 C328.12054687 829.90746094 327.40125 830.68992187 326.66015625 831.49609375 C319.17297744 839.37401758 310.61038547 845.75210235 301.83984375 852.125 C301.2144873 852.58438965 300.58913086 853.0437793 299.94482422 853.51708984 C274.77328486 871.83299386 244.86558093 881.33200991 213.83984375 882.125 C213.18193848 882.15078125 212.5240332 882.1765625 211.84619141 882.203125 C191.76915525 882.95701512 172.18031087 879.75080144 152.84082031 874.53637695 C150.52730547 873.99074907 150.52730547 873.99074907 146.83984375 874.125 C145.44955363 875.629096 145.44955363 875.629096 144.33984375 877.75 C135.24692741 892.29866615 121.84490817 906.68644245 108.66015625 917.609375 C107.39273433 918.66465334 106.16005267 919.76248043 104.95703125 920.890625 C70.6974702 952.93568971 19.7866241 970.48764276 -26.90771484 969.21826172 C-70.49958389 967.41335233 -110.63369833 952.49288732 -145.16015625 926.125 C-145.8567334 925.59358398 -146.55331055 925.06216797 -147.27099609 924.51464844 C-169.43144021 907.44063904 -188.55528359 886.33474532 -201.16015625 861.125 C-201.73942871 861.21587891 -202.31870117 861.30675781 -202.91552734 861.40039062 C-253.61662798 869.06896896 -305.87283138 863.73872314 -348.22119141 832.84960938 C-349.87610695 831.61897038 -351.5205691 830.37597054 -353.16015625 829.125 C-354.57554687 828.04798828 -354.57554687 828.04798828 -356.01953125 826.94921875 C-368.42143705 817.14597819 -378.77833341 805.79501128 -388.16015625 793.125 C-388.78277344 792.29742188 -389.40539063 791.46984375 -390.046875 790.6171875 C-404.97033986 770.09307498 -413.73066163 747.81092605 -419.16015625 723.125 C-419.42916748 721.92085449 -419.42916748 721.92085449 -419.70361328 720.69238281 C-427.51912916 683.98196561 -419.21093837 650.65336397 -407.16015625 616.125 C-406.83015625 615.135 -406.50015625 614.145 -406.16015625 613.125 C-407.77470703 612.19880859 -407.77470703 612.19880859 -409.421875 611.25390625 C-433.73706464 597.20096784 -433.73706464 597.20096784 -441.62109375 588.734375 C-443.20962512 587.07327113 -444.88320131 585.64350714 -446.66015625 584.1875 C-449.90323023 581.45725064 -452.63023775 578.45756393 -455.36328125 575.22265625 C-456.52558169 573.86579682 -457.72220118 572.53729649 -458.95703125 571.24609375 C-475.58108935 553.69466051 -486.63251208 530.8501486 -494.16015625 508.125 C-494.52149658 507.07844238 -494.52149658 507.07844238 -494.89013672 506.01074219 C-504.13417671 479.08049937 -506.29127835 444.88102045 -499.16015625 417.125 C-498.97211426 416.36606445 -498.78407227 415.60712891 -498.59033203 414.82519531 C-487.02317183 369.38475212 -458.27503614 328.15204643 -417.92382812 303.77392578 C-409.86659961 299.08171577 -401.73394921 294.79714558 -393.16015625 291.125 C-393.2684375 289.54525391 -393.2684375 289.54525391 -393.37890625 287.93359375 C-396.32867166 243.09506376 -387.01147228 198.29518776 -356.91015625 163.5 C-354.69347961 161.00978435 -352.43491164 158.56214475 -350.16015625 156.125 C-349.6084375 155.52413574 -349.05671875 154.92327148 -348.48828125 154.30419922 C-319.9923579 123.48632417 -278.02915894 105.74425672 -236.40625 103.25 C-219.134248 102.58489282 -202.20383594 103.69066219 -185.32421875 107.5390625 C-180.75307187 108.43313903 -180.75307187 108.43313903 -176.16015625 108.125 C-174.38763624 105.88106509 -173.19934625 104.00333487 -171.91015625 101.5 C-171.13639506 100.11184933 -170.35761014 98.7264888 -169.57421875 97.34375 C-169.17750977 96.63734375 -168.78080078 95.9309375 -168.37207031 95.203125 C-152.50747343 67.99936822 -127.89059626 45.25590773 -101.16015625 29.125 C-100.49951172 28.7228125 -99.83886719 28.320625 -99.15820312 27.90625 C-69.0393138 9.77258192 -34.92816204 1.38158367 0 0 Z M42.83984375 71.125 C42.75234863 71.70467529 42.66485352 72.28435059 42.57470703 72.8815918 C41.50699617 79.17278565 40.38589284 85.71857042 36.83984375 91.125 C32.56454234 94.07882596 27.71512422 94.78458822 22.6640625 95.5390625 C20.77107422 95.82910156 20.77107422 95.82910156 18.83984375 96.125 C18.50984375 96.785 18.17984375 97.445 17.83984375 98.125 C19.04382812 98.47433594 20.2478125 98.82367188 21.48828125 99.18359375 C23.06383125 99.64312917 24.6393505 100.10277006 26.21484375 100.5625 C27.00890625 100.79259766 27.80296875 101.02269531 28.62109375 101.25976562 C29.76191406 101.59331055 29.76191406 101.59331055 30.92578125 101.93359375 C31.97838135 102.23994751 31.97838135 102.23994751 33.05224609 102.55249023 C34.83984375 103.125 34.83984375 103.125 36.83984375 104.125 C37.61767578 105.98266602 37.61767578 105.98266602 38.34765625 108.37890625 C38.61191406 109.23291016 38.87617187 110.08691406 39.1484375 110.96679688 C39.41785156 111.86462891 39.68726563 112.76246094 39.96484375 113.6875 C40.24199219 114.58919922 40.51914063 115.49089844 40.8046875 116.41992188 C41.48995379 118.65294478 42.1679905 120.88791196 42.83984375 123.125 C45.07328039 120.21294045 45.07328039 120.21294045 45.4609375 116.54296875 C46.25993095 112.05716855 47.05312717 107.83027126 49.83984375 104.125 C55.47404795 100.53493662 62.33876327 99.28430692 68.83984375 98.125 C68.34484375 97.135 68.34484375 97.135 67.83984375 96.125 C65.77828344 95.80913274 63.71654261 95.49438873 61.65380859 95.1862793 C57.34880087 94.43544494 53.48088652 93.64061366 49.83984375 91.125 C45.99521148 85.26334013 44.87133461 77.95886437 43.83984375 71.125 C43.50984375 71.125 43.17984375 71.125 42.83984375 71.125 Z M-74.16015625 137.125 C-74.31532715 138.13288574 -74.47049805 139.14077148 -74.63037109 140.17919922 C-79.17751915 167.37545769 -79.17751915 167.37545769 -86.97955322 173.56939697 C-96.52814163 179.16578064 -108.32513389 180.7918317 -119.16015625 182.125 C-119.16015625 182.785 -119.16015625 183.445 -119.16015625 184.125 C-118.18143555 184.38079834 -117.20271484 184.63659668 -116.19433594 184.90014648 C-112.54581109 185.86417907 -108.91208217 186.87630727 -105.28076172 187.90307617 C-103.71111075 188.33970102 -102.13780587 188.76341384 -100.56103516 189.17358398 C-87.65165856 192.54567951 -87.65165856 192.54567951 -84.34814453 196.04370117 C-83.24065265 198.40697623 -82.68273012 200.56877495 -82.16015625 203.125 C-81.54890261 205.14633517 -80.93135599 207.16577461 -80.30859375 209.18359375 C-79.71095882 211.30808108 -79.11989146 213.43442606 -78.53515625 215.5625 C-77.94485443 217.7087051 -77.34878627 219.85333518 -76.74609375 221.99609375 C-76.48876465 222.93380615 -76.23143555 223.87151855 -75.96630859 224.83764648 C-75.28928112 227.28378076 -75.28928112 227.28378076 -73.16015625 229.125 C-72.8677002 228.17133545 -72.57524414 227.2176709 -72.27392578 226.23510742 C-71.1867337 222.69451405 -70.09311797 219.15593228 -68.99755859 215.61791992 C-68.52445056 214.08688527 -68.05308218 212.5553119 -67.58349609 211.02319336 C-66.90790025 208.82000819 -66.22605501 206.61884135 -65.54296875 204.41796875 C-65.33455353 203.73349167 -65.12613831 203.04901459 -64.91140747 202.34379578 C-63.938051 199.22780561 -62.98719117 196.86555239 -61.16015625 194.125 C-58.24267578 192.98999023 -58.24267578 192.98999023 -54.54296875 191.93359375 C-53.88940399 191.74281754 -53.23583923 191.55204132 -52.56246948 191.35548401 C-50.47289742 190.74733009 -48.3794313 190.15423489 -46.28515625 189.5625 C-44.19883801 188.96472384 -42.11350668 188.36378568 -40.02926636 187.75880432 C-38.13345901 187.20979876 -36.23500006 186.6699744 -34.33642578 186.13061523 C-31.75269538 185.31259944 -29.51987325 184.43477138 -27.16015625 183.125 C-32.25058573 181.29309385 -37.16574583 179.87900365 -42.48046875 178.85546875 C-59.78768016 175.15252465 -59.78768016 175.15252465 -63.97460938 169.80957031 C-66.62466971 164.39553303 -67.75718311 158.6915551 -68.70263672 152.77099609 C-69.33406642 149.1192164 -70.42619258 145.76439102 -71.59765625 142.25 C-72.11965924 140.54202371 -72.64105004 138.83385894 -73.16015625 137.125 C-73.49015625 137.125 -73.82015625 137.125 -74.16015625 137.125 Z M132.83984375 175.125 C132.69933594 176.35476563 132.55882812 177.58453125 132.4140625 178.8515625 C131.58602112 183.91361033 130.76129764 188.81667615 127.83984375 193.125 C122.30923336 196.91829969 115.36632497 198.0855868 108.83984375 199.125 C112.02138252 202.30653877 116.67732741 202.82045373 120.98632812 203.83007812 C125.19115631 204.99016363 126.4761421 205.49373915 128.74609375 209.43359375 C129.96959223 213.56290113 131.08436461 217.68137465 132.09375 221.8671875 C132.33996094 222.61226562 132.58617187 223.35734375 132.83984375 224.125 C133.49984375 224.455 134.15984375 224.785 134.83984375 225.125 C135.67646237 222.3342793 136.50927112 219.54251988 137.33984375 216.75 C137.57832031 215.9559375 137.81679687 215.161875 138.0625 214.34375 C138.28808594 213.58320313 138.51367188 212.82265625 138.74609375 212.0390625 C138.95556641 211.3373291 139.16503906 210.6355957 139.38085938 209.91259766 C139.92274162 208.10973622 139.92274162 208.10973622 139.83984375 206.125 C140.52949219 205.94324219 141.21914062 205.76148438 141.9296875 205.57421875 C147.9768749 203.95665834 153.92801207 202.18319325 159.83984375 200.125 C157.16090091 198.33903811 155.83667685 197.73330822 152.828125 197.0546875 C151.69213867 196.79365234 151.69213867 196.79365234 150.53320312 196.52734375 C149.35467773 196.26630859 149.35467773 196.26630859 148.15234375 196 C147.35505859 195.81824219 146.55777344 195.63648438 145.73632812 195.44921875 C143.77208724 195.00226573 141.80612361 194.56289584 139.83984375 194.125 C139.57171875 192.84625 139.30359375 191.5675 139.02734375 190.25 C137.89465415 185.12437583 136.40783074 180.13210512 134.83984375 175.125 C134.17984375 175.125 133.51984375 175.125 132.83984375 175.125 Z M-105.16015625 256.125 C-112.51196416 269.28473616 -116.35678403 282.90606109 -116.22265625 298.0625 C-116.21814453 298.74634766 -116.21363281 299.43019531 -116.20898438 300.13476562 C-116.19735185 301.79821604 -116.17942319 303.4616205 -116.16015625 305.125 C-110.16943448 307.01446698 -104.18430896 308.86678136 -98.11328125 310.48046875 C-78.55474966 315.72635335 -65.11623918 321.85943705 -53.4921875 338.78515625 C-51.50615636 341.67235623 -49.38685232 344.41713283 -47.16015625 347.125 C-45.51015625 346.795 -43.86015625 346.465 -42.16015625 346.125 C-40.95198956 330.98264416 -47.64724766 319.11200356 -56.91015625 307.5 C-60.25647574 303.7651896 -64.19031178 300.76478013 -68.09375 297.63671875 C-81.99391898 286.25097524 -95.72137862 272.75285587 -103.16015625 256.125 C-103.82015625 256.125 -104.48015625 256.125 -105.16015625 256.125 Z M74.03515625 265.8125 C67.77579337 272.80409023 63.31884174 278.88316603 62.66796875 288.46875 C63.11134395 295.32091218 66.25872694 301.39315499 69.83984375 307.125 C76.07468885 304.52143831 80.20884901 298.21600181 82.77734375 292.125 C85.5686751 283.26252295 83.29215953 275.51639528 79.83984375 267.125 C79.17984375 266.135 78.51984375 265.145 77.83984375 264.125 C75.67152853 263.89733536 75.67152853 263.89733536 74.03515625 265.8125 Z M103.70703125 280.88671875 C100.19811049 285.09301916 97.64430362 289.96077176 95.83984375 295.125 C96.16984375 296.115 96.49984375 297.105 96.83984375 298.125 C106.19252416 298.60508055 114.55182483 298.12724388 122.08984375 292.0625 C127.51307331 286.88128069 131.6826033 280.60050729 132.83984375 273.125 C121.40252945 272.68572904 112.37045877 272.76258089 103.70703125 280.88671875 Z M-180.16015625 278.125 C-187.65144349 301.59770002 -182.05137585 329.3173865 -171.44238281 351 C-159.37504287 374.33262105 -139.2701768 392.14356874 -114.3203125 400.4453125 C-111.27818891 401.38998932 -108.23408107 402.29042682 -105.16015625 403.125 C-121.03844812 423.59963952 -149.1206795 429.26673347 -173.46435547 432.42382812 C-175.36236796 432.66227819 -177.2611857 432.89430392 -179.16015625 433.125 C-181.11633551 438.99353779 -177.41315681 446.50550986 -175.16015625 452.125 C-167.41913638 467.40086245 -155.15079667 478.15764731 -139.16015625 484.125 C-134.71377462 485.43035975 -130.80490512 486.125 -126.16015625 486.125 C-125.71027344 485.18140625 -125.26039063 484.2378125 -124.796875 483.265625 C-120.24366832 474.04577367 -115.13683854 465.79920737 -107.16015625 459.125 C-106.42772705 458.50141602 -105.69529785 457.87783203 -104.94067383 457.23535156 C-96.73392238 451.10018477 -89.20237766 451.37631551 -79.47265625 451.875 C-56.90603113 452.82379247 -35.69049848 449.13867487 -18.03515625 433.875 C-3.48571595 420.19078463 3.37667149 404.31886829 6.53515625 384.9765625 C8.22134267 374.68143733 10.25912197 364.2841137 18.90234375 357.5 C23.6016739 354.32867291 28.00690121 352.90810428 33.65234375 352.5 C35.11607422 352.38785156 35.11607422 352.38785156 36.609375 352.2734375 C37.34542969 352.22445312 38.08148437 352.17546875 38.83984375 352.125 C38.04320312 353.84783203 38.04320312 353.84783203 37.23046875 355.60546875 C29.20379553 372.70228211 29.20379553 372.70228211 25.83984375 391.125 C26.49984375 391.785 27.15984375 392.445 27.83984375 393.125 C29.91233332 393.07180037 29.91233332 393.07180037 31.83984375 392.125 C33.04489618 389.43260327 33.9732226 386.92588685 34.83984375 384.125 C35.35179561 382.58124292 35.86617253 381.03828821 36.3828125 379.49609375 C36.64747314 378.6963916 36.91213379 377.89668945 37.18481445 377.07275391 C46.59567633 349.03378496 64.68154983 325.96994767 86.9765625 306.7578125 C89.74814741 304.32904417 92.32868652 301.82449402 94.83984375 299.125 C94.83984375 298.465 94.83984375 297.805 94.83984375 297.125 C80.21886082 299.10795428 63.57264749 317.04961053 54.83984375 328.125 C47.14920337 338.19234008 47.14920337 338.19234008 40.83984375 349.125 C36.55748385 347.51655382 33.93719402 344.25647733 30.96484375 340.9375 C30.1598645 340.05783569 30.1598645 340.05783569 29.33862305 339.16040039 C26.65230637 336.20998988 24.09763901 333.2172753 21.65234375 330.0625 C17.80439474 325.56576889 12.99388703 323.5782477 7.203125 322.74609375 C-2.25415587 322.32786878 -10.08359932 324.99198938 -17.28515625 331.125 C-20.91827394 334.59715678 -23.85388744 338.29933173 -26.78515625 342.375 C-31.51027421 348.8823993 -35.72088595 352.78994522 -43.78515625 354.125 C-48.07512659 354.34575319 -50.65015133 353.77700372 -54.16015625 351.125 C-55.77888461 349.01891257 -57.19505817 346.84456066 -58.60546875 344.59375 C-69.68722901 326.99658296 -85.29330907 320.99201604 -104.78515625 316.25 C-131.47298308 309.47162656 -154.53315785 298.67003344 -175.34765625 280.5 C-177.80130979 277.90993973 -177.80130979 277.90993973 -180.16015625 278.125 Z M41.83984375 289.125 C36.45464255 295.16780003 33.73091318 303.79518267 33.89453125 311.80078125 C35.06727823 319.49543746 38.95915276 325.5574276 44.71484375 330.6875 C45.41609375 331.161875 46.11734375 331.63625 46.83984375 332.125 C52.16401887 325.50575526 55.30226669 318.78862976 54.83984375 310.125 C53.66908001 302.03145938 49.4892897 294.92713367 43.83984375 289.125 C43.17984375 289.125 42.51984375 289.125 41.83984375 289.125 Z M81.83984375 318.125 C87.81089021 324.89218598 95.350083 329.64344204 104.40234375 330.4375 C111.8529143 330.33983334 119.48809888 327.29220194 124.83984375 322.125 C117.98922298 315.30747401 111.22750843 310.1787483 101.27734375 309.625 C93.90614598 309.98965289 87.69027074 313.92469344 81.83984375 318.125 Z M-306.16015625 313.125 C-306.24765137 313.67438232 -306.33514648 314.22376465 -306.42529297 314.78979492 C-307.5014917 320.80142331 -308.65863733 327.01980439 -312.16015625 332.125 C-317.44412696 335.70803538 -323.94469714 336.41484796 -330.16015625 337.125 C-329.83015625 337.785 -329.50015625 338.445 -329.16015625 339.125 C-327.20201698 339.51578745 -325.24299214 339.90271093 -323.27954102 340.26586914 C-313.51371547 342.26129748 -313.51371547 342.26129748 -310.90087891 345.85888672 C-308.84132755 350.41955901 -308.070592 355.23333675 -307.16015625 360.125 C-306.17865241 362.49897208 -306.17865241 362.49897208 -305.16015625 364.125 C-304.72049123 362.83406867 -304.28360326 361.54219164 -303.84765625 360.25 C-303.56792969 359.4353125 -303.28820313 358.620625 -303 357.78125 C-302.12344157 355.13447362 -302.12344157 355.13447362 -301.5390625 352.40625 C-299.93334877 345.6243535 -299.93334877 345.6243535 -296.16015625 343.1875 C-294.84049547 342.78537161 -293.5037443 342.43802231 -292.16015625 342.125 C-290.20102121 341.60719047 -288.24272163 341.0862123 -286.28515625 340.5625 C-285.33898438 340.33433594 -284.3928125 340.10617187 -283.41796875 339.87109375 C-282.67289063 339.62488281 -281.9278125 339.37867188 -281.16015625 339.125 C-280.83015625 338.465 -280.50015625 337.805 -280.16015625 337.125 C-281.413125 336.88007813 -282.66609375 336.63515625 -283.95703125 336.3828125 C-296.90551971 333.54543664 -296.90551971 333.54543664 -300.140625 329.8828125 C-301.13065934 327.28851843 -301.68839975 324.85876842 -302.16015625 322.125 C-302.71960076 320.40869513 -303.30164966 318.69952943 -303.91015625 317 C-304.32995331 315.70934733 -304.74787234 314.41807226 -305.16015625 313.125 C-305.49015625 313.125 -305.82015625 313.125 -306.16015625 313.125 Z M57.83984375 343.125 C62.83995179 348.79178911 70.22927938 354.48648428 77.93359375 355.36328125 C86.91123861 355.64018913 94.28555987 352.85829457 101.83984375 348.125 C96.67127449 341.188236 90.44474646 336.85647433 81.83984375 335.125 C72.6420843 334.3320897 65.16344908 337.72865923 57.83984375 343.125 Z M383.83984375 390.125 C382.01943838 394.70644573 380.4737855 399.26365776 379.15625 404.015625 C378.86814453 405.05460937 378.58003906 406.09359375 378.28320312 407.1640625 C377.69224683 409.31823578 377.10900172 411.47453823 376.53320312 413.6328125 C376.24380859 414.66664063 375.95441406 415.70046875 375.65625 416.765625 C375.40302979 417.69922852 375.14980957 418.63283203 374.88891602 419.59472656 C373.62026126 422.65461437 372.46073964 424.0903319 369.83984375 426.125 C367.41749924 427.06483239 365.16051883 427.81627903 362.66796875 428.484375 C361.98555115 428.67847961 361.30313354 428.87258423 360.60003662 429.0725708 C358.43324574 429.68582989 356.26187885 430.28061415 354.08984375 430.875 C352.61424266 431.28915269 351.13897761 431.70450468 349.6640625 432.12109375 C346.05973183 433.13632097 342.45118616 434.1350181 338.83984375 435.125 C338.83984375 435.785 338.83984375 436.445 338.83984375 437.125 C339.7935083 437.41221924 340.74717285 437.69943848 341.72973633 437.99536133 C345.27175834 439.06487339 348.80986136 440.14687538 352.34692383 441.23266602 C353.87746054 441.70059564 355.40903503 442.16514489 356.94165039 442.6262207 C359.14621939 443.29009253 361.34675326 443.96608729 363.546875 444.64453125 C364.23135208 444.84778519 364.91582916 445.05103912 365.62104797 445.26045227 C371.92593157 447.22919477 371.92593157 447.22919477 373.83984375 450.125 C374.77698261 452.63427791 375.58183251 455.07034299 376.3203125 457.63671875 C376.53802811 458.36494339 376.75574371 459.09316803 376.98005676 459.84346008 C377.67154093 462.16389878 378.34958087 464.4880208 379.02734375 466.8125 C379.49456102 468.38893346 379.96264998 469.96510884 380.43164062 471.54101562 C381.57783491 475.39942501 382.71199006 479.26119156 383.83984375 483.125 C386.07039423 479.77917427 386.7997341 477.03913725 387.828125 473.15625 C388.20815444 471.76669984 388.58904033 470.37738367 388.97070312 468.98828125 C389.56511837 466.80474512 390.15359418 464.62022872 390.72729492 462.43115234 C391.28517853 460.31353007 391.86711393 458.20373527 392.453125 456.09375 C392.79126221 454.82982422 393.12939941 453.56589844 393.4777832 452.26367188 C395.10412026 448.51601295 396.13468049 447.72547239 399.83984375 446.125 C402.16856953 445.30699335 404.52238139 444.55863789 406.890625 443.86328125 C407.54943161 443.66776169 408.20823822 443.47224213 408.88700867 443.27079773 C410.97359131 442.6531606 413.06284799 442.04520003 415.15234375 441.4375 C416.57505802 441.01821631 417.99758625 440.59830078 419.41992188 440.17773438 C422.89110737 439.15283933 426.3647566 438.13659771 429.83984375 437.125 C429.83984375 436.465 429.83984375 435.805 429.83984375 435.125 C425.49848834 433.86061262 421.15684733 432.59721241 416.81494141 431.3347168 C415.33862591 430.90529915 413.86238812 430.47561424 412.38623047 430.0456543 C410.26159833 429.42686413 408.13668644 428.80904299 406.01171875 428.19140625 C405.35427673 427.99970352 404.69683472 427.80800079 404.01947021 427.61048889 C400.97197558 426.72567254 397.92660596 425.86269537 394.83984375 425.125 C394.57917114 424.15469849 394.57917114 424.15469849 394.31323242 423.16479492 C392.34725038 415.89589449 390.27176218 408.66299122 388.15234375 401.4375 C387.83201172 400.34244141 387.51167969 399.24738281 387.18164062 398.11914062 C386.40193163 395.45416511 385.6213197 392.7894578 384.83984375 390.125 C384.50984375 390.125 384.17984375 390.125 383.83984375 390.125 Z M-381.16015625 408.125 C-381.52983521 409.49434692 -381.52983521 409.49434692 -381.90698242 410.89135742 C-382.83487407 414.29651406 -383.77768329 417.69680209 -384.73071289 421.0949707 C-385.13905718 422.56271552 -385.54149506 424.03211755 -385.93774414 425.50317383 C-386.51049821 427.62531031 -387.10468137 429.74045289 -387.703125 431.85546875 C-387.87418259 432.50774948 -388.04524017 433.16003021 -388.22148132 433.83207703 C-389.56695922 438.4734087 -391.37147944 441.14069048 -395.16015625 444.125 C-398.3581543 445.39526367 -398.3581543 445.39526367 -401.921875 446.29296875 C-402.55374222 446.45871902 -403.18560944 446.6244693 -403.83662415 446.79524231 C-405.83651764 447.3173267 -407.84123763 447.81614364 -409.84765625 448.3125 C-411.86360964 448.82316329 -413.87807638 449.33873275 -415.89082336 449.8618927 C-417.70804426 450.33246584 -419.52911844 450.78808331 -421.3503418 451.24291992 C-424.26284564 451.91911975 -424.26284564 451.91911975 -426.16015625 454.125 C-423.89115095 454.88830741 -421.62163534 455.65002406 -419.35131836 456.40942383 C-417.42477862 457.05563405 -415.49981208 457.70655264 -413.57641602 458.36206055 C-409.41512751 459.76858941 -405.2981358 461.15589604 -401.01171875 462.12890625 C-399.88507813 462.39574219 -398.7584375 462.66257812 -397.59765625 462.9375 C-396.14166016 463.22560547 -396.14166016 463.22560547 -394.65625 463.51953125 C-387.2400651 468.28956567 -385.82705444 482.97374218 -383.62890625 490.99414062 C-383.19191406 492.54584961 -383.19191406 492.54584961 -382.74609375 494.12890625 C-382.48876465 495.06549072 -382.23143555 496.0020752 -381.96630859 496.96704102 C-381.37314105 499.30241119 -381.37314105 499.30241119 -379.16015625 500.125 C-378.89388428 499.11074951 -378.6276123 498.09649902 -378.35327148 497.05151367 C-377.35515268 493.28063199 -376.31944194 489.52093972 -375.2722168 485.76342773 C-374.82475749 484.13764273 -374.38746185 482.50902407 -373.96069336 480.87768555 C-373.34427139 478.52869543 -372.69163363 476.19242676 -372.03125 473.85546875 C-371.8486412 473.12724411 -371.66603241 472.39901947 -371.47789001 471.64872742 C-370.32621712 467.72397838 -369.50044515 466.31937061 -365.90405273 464.26513672 C-364.66856689 463.8888916 -363.43308105 463.51264648 -362.16015625 463.125 C-360.50234131 462.60860962 -360.50234131 462.60860962 -358.81103516 462.08178711 C-357.68101074 461.7750708 -356.55098633 461.46835449 -355.38671875 461.15234375 C-354.15050781 460.81009766 -352.91429687 460.46785156 -351.640625 460.11523438 C-349.69880975 459.58502241 -347.75697385 459.05487323 -345.81396484 458.52905273 C-343.91969343 458.01443366 -342.02815134 457.48980064 -340.13671875 456.96484375 C-339.01346191 456.65925537 -337.89020508 456.35366699 -336.73291016 456.03881836 C-334.01247208 455.40726087 -334.01247208 455.40726087 -333.16015625 453.125 C-334.17440674 452.84301758 -335.18865723 452.56103516 -336.23364258 452.27050781 C-340.00056633 451.21907869 -343.76184548 450.14857525 -347.52172852 449.07226562 C-349.14883493 448.60936933 -350.77742014 448.15163828 -352.4074707 447.69921875 C-354.75230658 447.04743871 -357.09117075 446.3771772 -359.4296875 445.703125 C-360.15791214 445.50503235 -360.88613678 445.3069397 -361.63642883 445.10284424 C-364.52798299 444.25338775 -366.77509594 443.48311017 -369.00195312 441.41210938 C-370.54631808 438.36244434 -371.51663975 435.23429805 -372.421875 431.953125 C-372.61739456 431.2707074 -372.81291412 430.58828979 -373.01435852 429.88519287 C-373.63349588 427.71731968 -374.2407173 425.54631627 -374.84765625 423.375 C-375.26679451 421.89951676 -375.68670805 420.42425352 -376.10742188 418.94921875 C-377.13399474 415.34363146 -378.14989835 411.73519098 -379.16015625 408.125 C-379.82015625 408.125 -380.48015625 408.125 -381.16015625 408.125 Z M187.21875 476.62890625 C181.18359285 483.46875101 177.90589449 489.8944096 177.83984375 499.125 C178.73414932 506.15168663 183.17479268 511.05175696 187.83984375 516.125 C188.49984375 516.455 189.15984375 516.785 189.83984375 517.125 C196.19437931 510.94697932 200.7315147 506.02603011 201.21484375 496.875 C200.99732241 488.79952022 197.48524945 482.23926443 192.20703125 476.3046875 C190.07345671 474.46371747 189.2373539 474.75622552 187.21875 476.62890625 Z M75.83984375 511.125 C71.81980873 517.99255983 71.97206812 525.35714439 72.83984375 533.125 C75.04710108 540.05600129 80.63953596 543.81816918 86.83984375 547.125 C90.17710752 548.49293675 90.17710752 548.49293675 92.83984375 549.125 C96.63524971 542.48303957 96.86102457 535.630679 95.83984375 528.125 C93.08649569 520.92874938 87.48790073 516.65136066 80.83984375 513.125 C79.18349094 512.43310579 77.51902418 511.75948821 75.83984375 511.125 Z M159.83984375 512.125 C157.35622472 519.5758571 158.96491697 526.99417723 161.83984375 534.125 C164.90433443 539.51850359 170.30462214 542.59507338 175.83984375 545.125 C178.93812501 545.82770297 181.64423979 546.021916 184.83984375 546.125 C186.93497128 538.45412986 185.96999428 531.36568783 182.83984375 524.125 C179.47559145 518.6227182 174.95898917 515.13163868 168.83984375 513.125 C165.84108064 512.57468266 162.88408753 512.26593721 159.83984375 512.125 Z M198.49609375 521.05078125 C194.06470317 526.60047087 193.4081882 531.71988407 193.65234375 538.5625 C193.66587891 539.29404297 193.67941406 540.02558594 193.69335938 540.77929688 C193.72830501 542.56152422 193.7820957 544.34336573 193.83984375 546.125 C201.76635382 546.09127017 207.67384009 544.20867323 213.83984375 539.125 C219.07771074 532.86598921 220.00074407 527.38327247 219.90234375 519.375 C219.89783203 518.67761719 219.89332031 517.98023438 219.88867188 517.26171875 C219.87694395 515.54944197 219.85901028 513.83720967 219.83984375 512.125 C211.52896223 512.125 204.65775036 515.65933172 198.49609375 521.05078125 Z M288.9921875 519.90625 C284.00535669 525.49346094 282.44666241 529.99011168 282.5703125 537.4765625 C282.99014281 541.60185159 284.28751256 545.29961242 285.83984375 549.125 C292.59244447 548.11448757 298.2210144 544.21703863 302.77734375 539.1875 C307.53832019 532.11817135 307.21595677 525.27070126 305.83984375 517.125 C305.22418331 515.4388255 304.57222504 513.76385322 303.83984375 512.125 C297.63496913 512.125 293.38156174 515.6746334 288.9921875 519.90625 Z M260.83984375 531.125 C255.08211906 539.02933285 252.76205965 546.32696269 253.83984375 556.125 C255.75060823 563.255101 261.33624102 568.49305442 266.83984375 573.125 C267.82984375 573.455 268.81984375 573.785 269.83984375 574.125 C270.65482937 572.5220947 271.46674302 570.91762722 272.27734375 569.3125 C272.72980469 568.41917969 273.18226563 567.52585937 273.6484375 566.60546875 C276.66906309 560.31662531 276.59450609 553.97557557 275.83984375 547.125 C273.23726925 539.91269944 268.38919102 534.9702015 261.83984375 531.125 C261.50984375 531.125 261.17984375 531.125 260.83984375 531.125 Z M-136.91015625 565.875 C-141.47658405 571.14333455 -144.51725748 576.69564048 -147.16015625 583.125 C-147.50046875 583.92808594 -147.84078125 584.73117187 -148.19140625 585.55859375 C-151.93725107 596.3972651 -151.47818771 610.96480016 -149.16015625 622.125 C-148.50015625 622.125 -147.84015625 622.125 -147.16015625 622.125 C-145.70613283 620.4873728 -144.32166947 618.78765804 -142.97265625 617.0625 C-127.65755017 597.9977495 -103.87909821 579.28125932 -80.16015625 572.125 C-84.02700944 576.09477324 -88.08726903 579.75927412 -92.28515625 583.375 C-92.94894287 583.95000244 -93.61272949 584.52500488 -94.29663086 585.11743164 C-98.04350919 588.3498996 -101.84281637 591.48975905 -105.72265625 594.5625 C-116.35936636 603.20185471 -125.8549235 613.242789 -134.16015625 624.125 C-134.58361328 624.6720459 -135.00707031 625.2190918 -135.44335938 625.78271484 C-148.96707644 643.31976521 -161.20161695 663.26975112 -166.16015625 685.125 C-166.7428125 684.01125 -167.32546875 682.8975 -167.92578125 681.75 C-175.90848973 666.77891173 -185.35243215 653.35117966 -197.16015625 641.125 C-197.98604248 640.26841797 -197.98604248 640.26841797 -198.82861328 639.39453125 C-206.54513663 631.42961755 -214.37802512 623.92212889 -223.16015625 617.125 C-224.4240493 616.13001319 -225.68701168 615.13384347 -226.94921875 614.13671875 C-230.34532033 611.45641023 -233.75048836 608.78802529 -237.16015625 606.125 C-231.82787732 606.63903717 -227.57011249 607.98644783 -222.78515625 610.4375 C-222.1003418 610.78578857 -221.41552734 611.13407715 -220.70996094 611.49291992 C-205.59372824 619.44729702 -192.95010117 630.2624645 -180.97265625 642.3125 C-180.04453125 643.240625 -179.11640625 644.16875 -178.16015625 645.125 C-177.83015625 645.125 -177.50015625 645.125 -177.16015625 645.125 C-176.56710389 628.75016543 -177.22268264 614.93107647 -187.16015625 601.125 C-187.63839844 600.44050781 -188.11664062 599.75601563 -188.609375 599.05078125 C-202.15995467 581.67736802 -227.59035065 575.1630671 -248.3671875 572.37109375 C-261.26951775 570.87337138 -274.18933426 570.89347359 -287.16015625 571.125 C-283.78336505 597.49485845 -273.08329696 626.16513875 -255.16015625 646.125 C-254.598125 646.76824219 -254.03609375 647.41148437 -253.45703125 648.07421875 C-243.27732562 659.03880823 -228.40283543 664.63454755 -213.66796875 665.27734375 C-208.35409868 665.3287683 -203.37572274 665.22358897 -198.16015625 664.1875 C-196.0390625 663.94140625 -196.0390625 663.94140625 -194.16015625 664.125 C-191.27130711 666.4832442 -190.04981827 668.0077826 -188.16015625 671.125 C-187.52207031 672.17300781 -186.88398437 673.22101563 -186.2265625 674.30078125 C-176.82968661 690.48987912 -173.03582546 707.79196341 -170.16015625 726.125 C-170.86720703 725.9791748 -171.57425781 725.83334961 -172.30273438 725.68310547 C-186.49202288 722.9032905 -199.48018159 724.19520084 -211.91015625 731.875 C-221.14360277 738.44908178 -227.12623458 747.34379866 -229.03125 758.55078125 C-229.53608468 768.63217688 -223.07647619 777.10548957 -216.66015625 784.25 C-203.07251972 797.26607247 -183.33324466 799.66651254 -165.3828125 799.40234375 C-150.0383022 798.83777363 -135.49889574 793.22449958 -124.35546875 782.546875 C-118.05678086 775.59814459 -114.33952967 768.10935238 -114.09765625 758.69140625 C-114.50708519 750.49003286 -118.03028774 742.70893402 -123.5078125 736.56640625 C-127.33815904 733.22504012 -131.7723491 730.66221189 -136.16015625 728.125 C-136.87042969 727.70734375 -137.58070313 727.2896875 -138.3125 726.859375 C-140.33556372 725.82554157 -140.33556372 725.82554157 -143.16015625 727.125 C-142.87140625 727.85203125 -142.58265625 728.5790625 -142.28515625 729.328125 C-138.30073331 740.11927046 -137.61927826 749.42150187 -142.16015625 760.125 C-142.49015625 760.125 -142.82015625 760.125 -143.16015625 760.125 C-143.48886719 758.78308594 -143.48886719 758.78308594 -143.82421875 757.4140625 C-146.07798433 748.82043602 -148.86574891 741.15019943 -154.72680664 734.29174805 C-156.40941453 731.74820436 -156.5461481 730.39331121 -156.55859375 727.37109375 C-156.5649585 726.44409668 -156.57132324 725.51709961 -156.57788086 724.56201172 C-156.56378174 723.57217285 -156.54968262 722.58233398 -156.53515625 721.5625 C-156.52427979 720.53398926 -156.51340332 719.50547852 -156.50219727 718.44580078 C-155.93254258 690.61655716 -146.71628609 665.07029151 -131.16015625 642.125 C-129.86464844 642.28484375 -128.56914063 642.4446875 -127.234375 642.609375 C-105.61111932 644.99270824 -85.2923585 642.19320568 -67.83984375 628.3671875 C-42.59520913 607.24412588 -28.05249009 567.69397271 -24.47265625 535.8359375 C-24.36953125 534.61132812 -24.26640625 533.38671875 -24.16015625 532.125 C-63.22646611 531.10437695 -108.40050538 536.17744701 -136.91015625 565.875 Z M108.83984375 538.125 C103.73420032 543.76807958 102.38997578 548.64562012 102.51171875 556.1328125 C103.18748437 562.29515132 105.41408068 567.98635539 108.83984375 573.125 C115.54937589 570.83394025 119.98294679 566.00019529 123.77734375 560.125 C126.53623996 552.33517542 125.98263953 546.67247168 122.83984375 539.125 C121.35333595 536.32420176 119.78694728 533.6324211 117.83984375 531.125 C114.8278622 531.125 110.9556097 536.14946025 108.83984375 538.125 Z M159.83984375 549.125 C158.35542387 556.99242536 158.85862384 564.3040759 162.58984375 571.5 C168.02938513 577.84613161 173.63031192 581.21522976 181.83984375 583.125 C184.09507101 582.811246 184.09507101 582.811246 185.83984375 582.125 C186.26088399 572.90889708 185.9877387 565.03638245 180.40234375 557.375 C175.86257093 552.48162678 168.60838991 549.29420003 161.96875 548.99609375 C160.91494141 549.05990234 160.91494141 549.05990234 159.83984375 549.125 Z M200.57421875 556.0625 C195.02770632 562.21493396 193.52237135 567.15378384 193.71484375 575.4375 C193.72386719 576.17806641 193.73289062 576.91863281 193.7421875 577.68164062 C193.76560162 579.49623467 193.8014676 581.31066071 193.83984375 583.125 C202.17675789 582.6618381 209.60955919 579.99081302 215.33984375 573.6875 C219.64297333 568.49622449 220.12913768 562.77120514 219.96484375 556.25 C219.95582031 555.56164062 219.94679688 554.87328125 219.9375 554.1640625 C219.91416888 552.48422162 219.87830701 550.80456254 219.83984375 549.125 C212.83302713 548.71434408 205.88211709 551.52333177 200.57421875 556.0625 Z M63.83984375 557.125 C66.54659479 566.65205136 70.57692925 573.71958473 79.02734375 579.1875 C85.54102518 580.78922494 93.4458379 581.72825293 99.65234375 578.625 C100.37421875 578.13 101.09609375 577.635 101.83984375 577.125 C98.94100048 568.33844399 95.10908836 560.98368329 86.58984375 556.625 C79.07493383 553.72675829 71.29708019 554.47353816 63.83984375 557.125 Z M284.734375 562.4375 C281.28018337 567.10956126 278.95575463 571.42145551 277.83984375 577.125 C283.68093344 581.13031865 289.96890871 580.85666628 296.83984375 580.125 C302.61990959 578.63548546 306.17115212 575.3356909 309.51953125 570.49609375 C311.87934941 566.25819546 313.39685538 561.7425628 314.83984375 557.125 C304.56837097 552.55990099 292.41200885 554.00492256 284.734375 562.4375 Z M122.83984375 573.125 C118.45036936 578.37689002 118.23244884 584.20527765 118.44921875 590.85546875 C119.01839355 595.61946182 120.18466876 600.08487262 122.83984375 604.125 C124.880774 605.4127005 124.880774 605.4127005 126.83984375 606.125 C133.21513654 601.06273277 138.22378435 595.97317821 140.83984375 588.125 C141.70315797 579.8371835 138.35472289 571.97772067 133.83984375 565.125 C130.19278581 565.125 125.38045275 570.7863472 122.83984375 573.125 Z M244.83984375 566.125 C240.09465185 574.09014354 237.2622195 580.76805619 238.83984375 590.125 C240.9869344 596.42313256 246.35457399 602.46815349 251.83984375 606.125 C253.9149771 606.1743947 253.9149771 606.1743947 255.83984375 605.125 C260.99275231 598.01941031 262.18830977 589.64686315 260.83984375 581.125 C258.56933924 574.84465953 253.31842754 569.79267116 247.83984375 566.125 C246.84984375 566.125 245.85984375 566.125 244.83984375 566.125 Z M159.83984375 586.125 C157.30872787 591.18723177 158.63918324 598.59155807 159.953125 603.921875 C162.47284679 610.18232915 168.02254846 614.97396505 173.83984375 618.125 C178.01946857 619.59153502 181.44380275 620.2151752 185.83984375 620.125 C186.21896565 610.12741518 186.3980154 602.45863497 180.15234375 594.375 C174.46391023 588.23821704 168.00445525 586.50299127 159.83984375 586.125 Z M200.46484375 592.3125 C193.50372113 599.77084567 193.39576007 607.21798786 193.69921875 616.94140625 C193.745625 617.99199219 193.79203125 619.04257812 193.83984375 620.125 C202.19982933 619.66055636 209.63985801 616.99230115 215.33984375 610.625 C219.60107056 605.37279021 220.11848116 600.42481757 219.96484375 593.8125 C219.95582031 593.07193359 219.94679688 592.33136719 219.9375 591.56835938 C219.91408588 589.75376533 219.8782199 587.93933929 219.83984375 586.125 C212.64852026 585.84278236 206.29586471 588.05023087 200.46484375 592.3125 Z M79.83984375 590.125 C80.19620282 596.89582239 83.89046862 602.85718334 88.359375 607.80859375 C94.04251395 612.86193893 99.82114515 613.50446473 107.13671875 613.39453125 C110.89204772 613.02008371 113.52560677 611.89259306 116.83984375 610.125 C114.76846193 601.56328847 110.39757008 594.58036543 102.75390625 589.828125 C95.10375949 586.62292517 87.57745631 588.1189523 79.83984375 590.125 Z M267.83984375 597.125 C264.91944209 601.79321781 262.83984375 605.55978541 262.83984375 611.125 C269.89583469 614.26099597 278.40487964 614.38092875 285.65234375 611.75 C292.40048595 608.29632287 296.14952242 601.36900274 298.77734375 594.5 C299.30328125 592.829375 299.30328125 592.829375 299.83984375 591.125 C287.94927753 586.50089092 276.63503227 586.85683088 267.83984375 597.125 Z M141.3984375 602.4921875 C135.38827461 608.78854862 133.45177405 615.21045652 133.47265625 623.76171875 C134.08275592 629.34997214 136.36035382 634.13059886 138.83984375 639.125 C144.02262932 639.125 145.27026131 637.44389893 148.9375 634.0703125 C154.1972956 628.69171248 156.24338665 623.53265701 156.19921875 616.03515625 C155.46935992 610.12488638 153.09850616 603.38366241 148.83984375 599.125 C145.28201888 599.125 144.02054489 600.20356509 141.3984375 602.4921875 Z M229.83984375 599.125 C228.85820953 601.06125098 227.87961921 602.99904539 226.90234375 604.9375 C226.35707031 606.01644531 225.81179688 607.09539063 225.25 608.20703125 C222.98598282 612.8918535 222.08073149 616.95954647 222.83984375 622.125 C225.19219748 628.87614973 229.01778496 634.86591001 234.83984375 639.125 C236.96301762 639.83028401 236.96301762 639.83028401 238.83984375 640.125 C244.16956843 632.47623481 246.69410005 626.04736613 245.4375 616.64453125 C243.77821337 609.64949936 239.92679342 604.66139011 234.48828125 600.12109375 C232.73290784 598.86641123 232.73290784 598.86641123 229.83984375 599.125 Z M94.83984375 624.125 C97.66198093 632.2261938 100.81187606 640.21361235 108.65234375 644.5625 C116.13461258 647.7428192 122.19965142 647.43864109 129.87109375 645.01171875 C132.01870732 644.29383204 132.01870732 644.29383204 132.83984375 642.125 C129.47794848 634.27636481 124.99502833 627.89512305 117.83984375 623.125 C114.24102369 621.92539331 111.25846393 621.95613271 107.46484375 621.9375 C106.15773438 621.92332031 104.850625 621.90914062 103.50390625 621.89453125 C100.10185412 622.1085196 97.87300628 622.64355189 94.83984375 624.125 Z M253.58984375 629.375 C250.8055255 632.9145169 248.20233023 636.80262909 246.83984375 641.125 C247.50519074 644.26475002 247.50519074 644.26475002 250.0078125 645.2890625 C256.41428798 647.18007733 264.10956597 647.33680931 270.27734375 644.5625 C277.25308539 640.36236924 281.32919008 633.74557233 283.83984375 626.125 C283.83984375 625.135 283.83984375 624.145 283.83984375 623.125 C272.60862895 620.52341917 261.7177283 620.58320409 253.58984375 629.375 Z M183.83984375 630.125 C183.83984375 647.945 183.83984375 665.765 183.83984375 684.125 C187.79984375 684.125 191.75984375 684.125 195.83984375 684.125 C195.83984375 666.305 195.83984375 648.485 195.83984375 630.125 C191.87984375 630.125 187.91984375 630.125 183.83984375 630.125 Z M230.83984375 648.125 C224.2281716 659.69132472 219.05102133 670.85793455 216.83984375 684.125 C221.12984375 684.125 225.41984375 684.125 229.83984375 684.125 C230.28714844 682.86945312 230.73445313 681.61390625 231.1953125 680.3203125 C237.05935111 664.0352904 237.05935111 664.0352904 240.9921875 656.83984375 C241.98755203 655.14499773 241.98755203 655.14499773 241.83984375 653.125 C240.38446807 652.28651196 238.92544002 651.45436066 237.46484375 650.625 C236.65273437 650.1609375 235.840625 649.696875 235.00390625 649.21875 C232.94647501 647.97464141 232.94647501 647.97464141 230.83984375 648.125 Z M146.83984375 648.125 C144.58660216 649.11917008 144.58660216 649.11917008 142.21484375 650.5625 C141.39757813 651.03558594 140.5803125 651.50867188 139.73828125 651.99609375 C138.79855469 652.55490234 138.79855469 652.55490234 137.83984375 653.125 C138.50271888 657.6944192 140.25922857 661.64478796 142.15234375 665.8125 C142.78637784 667.23252811 143.41919175 668.65310166 144.05078125 670.07421875 C144.35725586 670.76306152 144.66373047 671.4519043 144.97949219 672.16162109 C146.70832644 676.10693468 148.27279315 680.11335046 149.83984375 684.125 C155.77984375 683.63 155.77984375 683.63 161.83984375 683.125 C159.61644844 671.19951605 154.98951386 659.58484945 148.83984375 649.125 C148.17984375 648.795 147.51984375 648.465 146.83984375 648.125 Z M141.7809906 694.96104431 C140.45205479 698.01663356 140.94744831 699.96729305 141.83984375 703.125 C144.44763763 705.73279388 146.27794675 705.3742275 149.83033752 705.40716553 C150.66935104 705.40468811 151.50836456 705.40221069 152.37280273 705.3996582 C153.69737488 705.4073246 153.69737488 705.4073246 155.04870605 705.41514587 C157.97785149 705.42908549 160.90676278 705.42808182 163.8359375 705.42578125 C165.86613554 705.42966582 167.89633277 705.43399999 169.92652893 705.43876648 C174.18615348 705.44623813 178.44569517 705.44593061 182.70532227 705.44067383 C188.1711111 705.43487841 193.63656117 705.45180744 199.10229397 705.4750185 C203.29639173 705.48973173 207.49040745 705.49063082 211.68452644 705.48750877 C213.7000095 705.48802322 215.715497 705.49328388 217.73095512 705.50332069 C220.5466924 705.51562093 223.36176407 705.50893207 226.17749023 705.49731445 C227.01447952 705.50495819 227.85146881 705.51260193 228.71382141 705.52047729 C232.91768992 705.59690101 232.91768992 705.59690101 236.55793858 703.78911114 C238.51451612 701.24917094 238.16349724 699.23207346 237.83984375 696.125 C236.84984375 694.64 236.84984375 694.64 235.83984375 693.125 C232.89640309 692.81767061 230.16202344 692.70531004 227.21508789 692.72094727 C225.87588539 692.71065239 225.87588539 692.71065239 224.5096283 692.70014954 C221.54792536 692.68179509 218.5867478 692.68573139 215.625 692.69140625 C213.57238084 692.68684847 211.51976321 692.68154411 209.46714783 692.67552185 C205.16040863 692.66657365 200.85385469 692.66903313 196.54711914 692.67895508 C191.02068677 692.69044454 185.49489335 692.67024209 179.96854496 692.64103794 C175.72810281 692.62271466 171.48781485 692.6229607 167.24734306 692.62867546 C165.20952903 692.62882916 163.17170485 692.62274467 161.1339283 692.61038399 C158.28687291 692.59554951 155.44101148 692.60609542 152.59399414 692.62329102 C151.74765411 692.61362305 150.90131409 692.60395508 150.02932739 692.59399414 C145.4969434 692.61625577 145.4969434 692.61625577 141.7809906 694.96104431 Z M151.83984375 716.125 C151.54851563 718.02378906 151.2571875 719.92257812 150.95703125 721.87890625 C147.16884911 745.94343533 141.12768734 768.87346334 133.83984375 792.125 C135.46234316 792.96319158 137.08792872 793.7954116 138.71484375 794.625 C139.61976563 795.0890625 140.5246875 795.553125 141.45703125 796.03125 C143.70581234 797.26405589 143.70581234 797.26405589 145.83984375 797.125 C159.62013899 757.47887186 159.62013899 757.47887186 164.83984375 716.125 C160.54984375 716.125 156.25984375 716.125 151.83984375 716.125 Z M183.83984375 716.125 C183.83984375 743.515 183.83984375 770.905 183.83984375 799.125 C187.79984375 799.125 191.75984375 799.125 195.83984375 799.125 C195.83984375 771.735 195.83984375 744.345 195.83984375 716.125 C191.87984375 716.125 187.91984375 716.125 183.83984375 716.125 Z M214.83984375 716.125 C216.56899498 743.67216785 222.46002667 771.86391998 233.83984375 797.125 C235.29878635 796.64769162 236.75697871 796.16808958 238.21484375 795.6875 C239.02695313 795.42066406 239.8390625 795.15382813 240.67578125 794.87890625 C242.85016174 794.17320271 242.85016174 794.17320271 244.83984375 793.125 C243.30771506 787.34466349 241.70052349 781.59731786 239.9375 775.8828125 C233.83940243 756.08254191 229.75317773 736.74369115 227.83984375 716.125 C223.54984375 716.125 219.25984375 716.125 214.83984375 716.125 Z M-28.16015625 823.125 C-29.42628506 827.44753859 -30.68962672 831.7708785 -31.95043945 836.0949707 C-32.37936921 837.56459311 -32.80904777 839.0339972 -33.23950195 840.50317383 C-33.85957651 842.62002953 -34.47691699 844.73766654 -35.09375 846.85546875 C-35.28545273 847.50774948 -35.47715546 848.16003021 -35.67466736 848.83207703 C-36.66493156 852.24234108 -37.52660943 855.63027398 -38.16015625 859.125 C-39.07152344 859.34414063 -39.98289062 859.56328125 -40.921875 859.7890625 C-52.42471962 862.59242872 -63.7936732 865.8158547 -75.16015625 869.125 C-72.46442276 871.82073349 -69.98894717 872.20854446 -66.32421875 873.25390625 C-65.31057755 873.5457505 -65.31057755 873.5457505 -64.27645874 873.8434906 C-62.11439721 874.46431126 -59.94984688 875.07591722 -57.78515625 875.6875 C-56.33446768 876.10293034 -54.88394468 876.5189393 -53.43359375 876.93554688 C-45.8258607 879.13814172 -45.8258607 879.13814172 -38.16015625 881.125 C-37.83144531 882.50945313 -37.83144531 882.50945313 -37.49609375 883.921875 C-34.79032452 895.11735885 -31.54364791 906.11737381 -28.16015625 917.125 C-25.45515799 914.42000174 -25.09319928 911.93675474 -24.06640625 908.25390625 C-23.87421509 907.57577377 -23.68202393 906.8976413 -23.48400879 906.19895935 C-22.8697875 904.03018139 -22.26415211 901.8591462 -21.66015625 899.6875 C-21.05572063 897.51956205 -20.44931428 895.35228215 -19.83630371 893.18675232 C-19.27945296 891.21917314 -18.73035865 889.24940373 -18.18164062 887.27954102 C-17.16015625 884.125 -17.16015625 884.125 -15.16015625 881.125 C-12.58154297 880.09765625 -12.58154297 880.09765625 -9.33984375 879.1875 C-8.16421875 878.84976563 -6.98859375 878.51203125 -5.77734375 878.1640625 C-4.54242187 877.82117188 -3.3075 877.47828125 -2.03515625 877.125 C9.0284097 874.00411125 9.0284097 874.00411125 19.83984375 870.125 C16.50476303 867.90161285 13.73239148 867.12796777 9.87109375 866.06640625 C8.48170101 865.67668113 7.09238026 865.2866993 5.703125 864.89648438 C3.51842116 864.28945829 1.3329319 863.68560705 -0.85400391 863.08666992 C-2.96898175 862.50520572 -5.08024966 861.91157106 -7.19140625 861.31640625 C-8.45533203 860.96779541 -9.71925781 860.61918457 -11.02148438 860.26000977 C-15.38729824 858.68123965 -15.38729824 858.68123965 -17.16015625 856.125 C-18.09570312 853.72412109 -18.09570312 853.72412109 -18.87890625 850.8984375 C-19.31783203 849.34962891 -19.31783203 849.34962891 -19.765625 847.76953125 C-20.20841797 846.15111328 -20.20841797 846.15111328 -20.66015625 844.5 C-21.25226966 842.38235421 -21.84599641 840.26515881 -22.44140625 838.1484375 C-22.72628906 837.13233398 -23.01117187 836.11623047 -23.3046875 835.06933594 C-24.47404836 831.04465217 -25.7975851 827.08808803 -27.16015625 823.125 C-27.49015625 823.125 -27.82015625 823.125 -28.16015625 823.125 Z " fill="#000000" transform="translate(1474.16015625,89.875)"/>
<path d="M0 0 C3.040264 1.49446373 5.0744616 3.20969885 7 6 C8.42396021 10.22277854 7.71281847 13.55857277 5.765625 17.49609375 C3.94574395 20.41223648 1.993925 23.19994433 0 26 C-1.62013832 28.38522272 -3.21551908 30.78673235 -4.8125 33.1875 C-5.44744385 34.13423584 -5.44744385 34.13423584 -6.09521484 35.10009766 C-9.15654763 39.67771627 -12.10123146 44.31807372 -15 49 C-18.53746404 54.70846095 -22.17797325 60.32990083 -25.92480469 65.90283203 C-29.58781487 71.35852661 -33.17140304 76.86366274 -36.75 82.375 C-42.87163831 91.78228619 -49.0463527 101.15382827 -55.25744629 110.5022583 C-56.24881313 111.99522741 -57.2389758 113.48899684 -58.22790527 114.98358154 C-59.62244293 117.09032993 -61.02153486 119.19398045 -62.421875 121.296875 C-62.84001465 121.93023773 -63.2581543 122.56360046 -63.68896484 123.21615601 C-68.68723781 130.69470647 -68.68723781 130.69470647 -72.015625 131.46875 C-77.31584226 131.54287891 -80.41004942 130.67719514 -84.58984375 127.38671875 C-86 126 -86 126 -88 123 C-87.6844261 119.00491644 -86.20542188 116.37229857 -84.0078125 113.078125 C-83.39083496 112.14395752 -82.77385742 111.20979004 -82.13818359 110.24731445 C-81.47383301 109.25820068 -80.80948242 108.26908691 -80.125 107.25 C-78.7445113 105.16555024 -77.36430477 103.08091358 -75.984375 100.99609375 C-75.30310547 99.97241699 -74.62183594 98.94874023 -73.91992188 97.89404297 C-71.37253554 94.05417552 -68.86938009 90.18691942 -66.375 86.3125 C-63.58968707 81.99889394 -60.79938152 77.6886701 -57.99609375 73.38671875 C-52.726885 65.29924822 -47.48214216 57.1983835 -42.29858398 49.05566406 C-35.71500006 38.71939684 -29.0392599 28.45199108 -22.25 18.25 C-21.86373444 17.66805878 -21.47746887 17.08611755 -21.07949829 16.48654175 C-19.97757317 14.82777317 -18.87167057 13.17164896 -17.765625 11.515625 C-16.81864746 10.09685059 -16.81864746 10.09685059 -15.85253906 8.64941406 C-11.3131553 2.15740133 -8.45002534 -1.54740141 0 0 Z " fill="#000000" transform="translate(881,567)"/>
<path d="M0 0 C3.46402199 2.91707115 4.87560955 4.70633935 5.3125 9.25 C4.84232014 14.89215831 2.84431352 17.37585539 -1.2578125 20.98828125 C-3.11535065 22.51276227 -4.98757791 24.01945254 -6.87109375 25.51171875 C-10.13931055 28.11078754 -13.32427523 30.78974009 -16.5 33.5 C-20.47944387 36.88762014 -24.49267231 40.22071438 -28.5625 43.5 C-33.04786573 47.14558027 -37.29529391 50.98650953 -41.52636719 54.91845703 C-45.55928904 58.64624797 -49.75267605 62.11816344 -54.02734375 65.5625 C-57.53318473 68.43719747 -60.95670198 71.39722667 -64.375 74.375 C-69.59354818 78.91982597 -74.83729983 83.42999793 -80.13378906 87.88378906 C-83.04893743 90.33798747 -85.94313777 92.81322921 -88.81640625 95.31640625 C-89.4518335 95.86804443 -90.08726074 96.41968262 -90.74194336 96.98803711 C-91.97128521 98.05671818 -93.19751294 99.12899514 -94.42016602 100.20532227 C-96.93697174 102.388844 -98.8052731 103.93509103 -102 105 C-102 105.66 -102 106.32 -102 107 C-103.8467334 108.86079482 -105.8423571 110.49547724 -107.84765625 112.18359375 C-109.13333119 113.26860073 -110.3995771 114.3783947 -111.62109375 115.53515625 C-115.25856227 118.91632618 -118.04002208 120 -123 120 C-127.07983427 118.50929132 -130.1081924 116.99381605 -132 113 C-132.67904764 108.5316989 -132.88695797 105.30816175 -130.2890625 101.4765625 C-127.97871421 98.97697067 -125.61351027 96.91310894 -122.9375 94.8125 C-118.99946002 91.65893014 -115.20823373 88.42093872 -111.5 85 C-107.94329756 81.72581577 -104.32838189 78.59357567 -100.5625 75.5625 C-96.56776014 72.34056899 -92.75445651 68.99344505 -89 65.5 C-84.38995664 61.21044887 -79.62217044 57.19589328 -74.71484375 53.24609375 C-71.89326505 50.9116941 -69.19409288 48.48009402 -66.5 46 C-62.10570042 41.95997917 -57.57886653 38.15367551 -52.9375 34.40234375 C-49.64602637 31.71051358 -46.41167999 28.95923388 -43.1875 26.1875 C-42.60154053 25.68395996 -42.01558105 25.18041992 -41.41186523 24.66162109 C-38.99681259 22.58405025 -36.58389253 20.50402264 -34.17236328 18.42236328 C-28.30282055 13.35699659 -22.43079841 8.29394418 -16.4375 3.375 C-15.69371094 2.76398437 -14.94992187 2.15296875 -14.18359375 1.5234375 C-8.98472044 -2.10368341 -5.93969441 -2.37587776 0 0 Z " fill="#000000" transform="translate(946,641)"/>
<path d="M0 0 C2.73539903 17.41230481 5.28359186 34.84619642 7.71810913 52.30285645 C8.78887 59.97994484 9.86685576 67.65602076 10.9453125 75.33203125 C11.06221876 76.16439175 11.17912502 76.99675224 11.2995739 77.85433578 C13.42389347 92.97262538 15.57884202 108.08646902 17.7421875 123.19921875 C17.98544171 124.89902232 17.98544171 124.89902232 18.23361015 126.63316536 C19.69784437 136.86442564 21.16261303 147.09560897 22.63150024 157.32620239 C24.7690972 172.21538634 26.89449723 187.1062417 29 202 C29.2446336 203.72895004 29.2446336 203.72895004 29.49420929 205.49282837 C30.49814438 212.59438197 31.49490876 219.69688911 32.48276711 226.80069733 C32.79572665 229.04590651 33.11050634 231.29086283 33.4272213 233.53554535 C33.8653586 236.6444093 34.29648406 239.75416923 34.72583008 242.86425781 C34.85570879 243.77567787 34.9855875 244.68709793 35.11940193 245.62613678 C35.8254842 250.80576985 36.12366563 255.77215924 36 261 C27.76792101 260.42053406 19.83738849 258.86369717 11.7734375 257.15625 C10.393839 256.86780755 9.01415756 256.57976154 7.63439941 256.29208374 C3.96875735 255.52618274 0.30461506 254.75333392 -3.35916901 253.97859955 C-5.63184889 253.49855335 -7.90493199 253.02046544 -10.17816162 252.54302979 C-39.53393813 246.37663471 -68.80777154 239.90014711 -98 233 C-98.04560059 234.1048877 -98.09120117 235.20977539 -98.13818359 236.34814453 C-98.84273331 252.1186116 -101.7886037 265.2136603 -113 277 C-117.3 280 -117.3 280 -120 280 C-119.81207886 281.31991943 -119.81207886 281.31991943 -119.62036133 282.66650391 C-113.45517427 326.30092984 -109.00516347 370.03461046 -106 414 C-105.93363342 414.96917358 -105.86726685 415.93834717 -105.79888916 416.93688965 C-105.42918943 422.39751554 -105.08264006 427.85888038 -104.76913452 433.32302856 C-104.67506115 434.94785076 -104.57695805 436.57244609 -104.47427368 438.19674683 C-103.3981639 455.51579773 -104.49120681 473.08527375 -116 487 C-125.10806366 496.77490403 -136.70954344 503.60067958 -150.26171875 504.3359375 C-172.54791093 504.79248885 -188.64497909 494.18765769 -206.5 482.125 C-207.92022577 481.17265918 -209.34079759 480.22083422 -210.76171875 479.26953125 C-221.96107852 471.75938186 -233.06222524 464.1116366 -244.0625 456.3125 C-250.42277575 451.81210417 -256.80066302 447.33760928 -263.1875 442.875 C-283.57443457 428.62272382 -283.57443457 428.62272382 -291 423 C-290.8391913 423.8190288 -290.6783826 424.6380576 -290.51270092 425.48190546 C-289.93692093 429.43284128 -289.82588015 433.3066877 -289.79678535 437.28951263 C-289.78709894 438.11142085 -289.77741252 438.93332906 -289.76743258 439.78014359 C-289.73634008 442.5338616 -289.7121846 445.28759283 -289.68826294 448.04138184 C-289.6678792 450.02533796 -289.64720095 452.00929108 -289.62625194 453.99324131 C-289.57061459 459.4276483 -289.52203992 464.86209701 -289.47552595 470.29658902 C-289.44557953 473.76586606 -289.41409413 477.23512634 -289.38227868 480.70438671 C-288.89198081 534.71973709 -288.85139222 588.73465329 -288.86469959 642.7518346 C-288.86707349 652.58511128 -288.86727346 662.41838633 -288.86618423 672.25166321 C-288.86606966 673.32522976 -288.86606966 673.32522976 -288.86595276 674.42048453 C-288.86564105 677.33130413 -288.86532261 680.24212374 -288.864993 683.15294334 C-288.86197168 710.16485957 -288.86464237 737.17677243 -288.8700899 764.18868814 C-288.8746473 786.95786314 -288.87466253 809.72703305 -288.87008052 832.49620804 C-288.85485254 908.60725954 -288.87102477 984.71817239 -288.99462295 1068.31623363 C-288.99993089 1071.95265618 -289.00498037 1075.58907898 -289.00993538 1079.22550201 C-289.04478953 1104.71678311 -289.09061701 1130.20792184 -289.19435847 1155.69902849 C-289.20193438 1157.56081166 -289.2095067 1159.42259485 -289.21707535 1161.28437805 C-289.22078209 1162.19245762 -289.22448883 1163.1005372 -289.2283079 1164.03613433 C-289.25285685 1170.2716189 -289.26767482 1176.50707626 -289.27782822 1182.74259949 C-289.28990753 1190.07642416 -289.31537178 1197.4100378 -289.35968432 1204.74374187 C-289.38131791 1208.36972418 -289.3972805 1211.99544698 -289.39570665 1215.62150002 C-289.39218651 1242.70815831 -289.39218651 1242.70815831 -294 1255 C-294.3029001 1255.82947395 -294.60580021 1256.65894791 -294.9178791 1257.51355743 C-301.1379696 1273.7133873 -313.51339965 1284.8024831 -329 1292 C-347.23937613 1299.69843798 -364.49976758 1301.46091147 -383.11865234 1294.17041016 C-399.3174555 1287.26016927 -411.13128006 1276.37391824 -418 1260 C-422.86477798 1246.46615399 -424.29695167 1233.74574666 -424.24723816 1219.44847107 C-424.24882872 1217.78344292 -424.25129476 1216.11841542 -424.25455457 1214.4533897 C-424.26093986 1209.90009622 -424.25492134 1205.34689229 -424.24679029 1200.79360473 C-424.24018902 1195.87186591 -424.24516766 1190.95013672 -424.24867249 1186.02839661 C-424.25370962 1176.3843836 -424.2480753 1166.74040494 -424.23882218 1157.0963962 C-424.22839726 1145.82028304 -424.22850963 1134.54417717 -424.22899476 1123.2680601 C-424.22949546 1103.09398275 -424.22034019 1082.91992123 -424.20581055 1062.74584961 C-424.19179628 1043.27677115 -424.1846367 1023.80770663 -424.18530273 1004.33862305 C-424.18534269 1003.14511498 -424.18538265 1001.95160691 -424.18542381 1000.72193193 C-424.18546417 999.53028332 -424.18550452 998.33863472 -424.1855461 997.11087555 C-424.18624215 974.84295331 -424.18030127 952.57503688 -424.17139288 930.30711655 C-424.16883217 923.59817133 -424.16745731 916.88922714 -424.16706113 910.18028146 C-424.16143509 817.61491277 -424.16143509 817.61491277 -423 776 C-430.59 776 -438.18 776 -446 776 C-445.99631283 778.37750489 -445.99262566 780.75500978 -445.98882675 783.20456028 C-445.90189826 839.65855423 -445.83621772 896.11254715 -445.79573868 952.56659347 C-445.79074953 959.5171334 -445.78556329 966.46767318 -445.78027344 973.41821289 C-445.7797504 974.10985851 -445.77922737 974.80150414 -445.77868848 975.51410872 C-445.76165683 997.91412326 -445.73162187 1020.31409731 -445.69481112 1042.71408735 C-445.65596594 1066.3951859 -445.63200664 1090.07625038 -445.62364602 1113.75738138 C-445.61816124 1127.93748412 -445.60084616 1142.11747061 -445.56833413 1156.29753756 C-445.54716866 1166.02512541 -445.54080459 1175.75265327 -445.54599449 1185.48026247 C-445.54855307 1191.09016361 -445.54466757 1196.69986178 -445.5231781 1202.30972672 C-445.50362073 1207.45294433 -445.50278942 1212.59582372 -445.51640442 1217.73905735 C-445.51808555 1219.59261625 -445.51308963 1221.44619682 -445.50046727 1223.2997135 C-445.36836367 1243.90874557 -449.93673645 1262.59657962 -464.734375 1277.796875 C-465.85585938 1278.88742187 -465.85585938 1278.88742187 -467 1280 C-467.68578125 1280.70640625 -468.3715625 1281.4128125 -469.078125 1282.140625 C-480.11171374 1292.84729259 -496.27855818 1298.99233665 -511.5625 1299.4375 C-532.2564399 1298.67762461 -551.8056205 1290.09402327 -566 1275 C-576.68265599 1261.59982626 -579.3108339 1242.0887378 -579.26171303 1225.5567379 C-579.26490564 1224.21143597 -579.26897068 1222.86613588 -579.27382231 1221.52083892 C-579.28461159 1217.83215742 -579.28306754 1214.14356977 -579.27947159 1210.45487809 C-579.27776139 1206.43891911 -579.28763338 1202.42298565 -579.29602563 1198.40703738 C-579.30913817 1191.37147851 -579.31488284 1184.33594366 -579.31578636 1177.30037308 C-579.31716333 1166.83876917 -579.32995251 1156.3772009 -579.3450741 1145.91560893 C-579.37018902 1128.31690562 -579.3860576 1110.71820532 -579.39665604 1093.11948776 C-579.40718 1075.69461799 -579.42181388 1058.26975966 -579.44193649 1040.84489822 C-579.44318536 1039.76146244 -579.44443423 1038.67802665 -579.44572094 1037.56175948 C-579.45208469 1032.05953388 -579.45852187 1026.55730836 -579.46498732 1021.05508287 C-579.51064967 982.08311459 -579.54709747 943.1111426 -579.578125 904.13916016 C-579.60828886 866.27847754 -579.64262736 828.41780247 -579.68261719 790.55712891 C-579.68384819 789.39009244 -579.68507919 788.22305598 -579.6863475 787.02065478 C-579.69871436 775.30079216 -579.71116608 763.58092962 -579.72367998 751.86106715 C-579.7491703 727.98636828 -579.77409418 704.11166882 -579.79867554 680.23696899 C-579.79980645 679.13924956 -579.80093736 678.04153012 -579.80210253 676.91054645 C-579.87755744 603.60703975 -579.93980819 530.30352063 -580 457 C-581.1184854 460.95912709 -582.23325521 464.91929151 -583.34741211 468.87963867 C-583.66082298 469.98885429 -583.97423386 471.09806992 -584.29714203 472.24089813 C-587.00360872 481.87268015 -589.39608729 491.54651034 -591.5625 501.3125 C-591.74976654 502.1507431 -591.93703308 502.98898621 -592.12997437 503.85263062 C-605.69420556 564.85061485 -609.64959344 626.75982959 -610.08425522 689.10897541 C-610.1299562 695.65596942 -610.18731412 702.20281332 -610.24986649 708.74966717 C-610.29518376 713.64930397 -610.3220999 718.54859774 -610.33496761 723.44842148 C-610.34710732 726.55467165 -610.37560306 729.66063525 -610.40787697 732.76673508 C-610.41955335 734.21043414 -610.42466642 735.65420568 -610.42227745 737.09794998 C-610.40549867 751.29358463 -612.29600057 765.33873811 -621 777 C-621.52464844 777.71671875 -622.04929687 778.4334375 -622.58984375 779.171875 C-628.92998299 787.10823753 -637.9550604 792.39227819 -648 794 C-663.37418767 795.23054269 -676.55340633 792.72952025 -689 783 C-698.38664981 774.6261679 -703.31279914 762.7708922 -704.18526459 750.36583519 C-704.25767976 747.55221224 -704.27043946 744.74494815 -704.25878906 741.93041992 C-704.2622937 740.86982864 -704.26579834 739.80923737 -704.26940918 738.71650696 C-704.2781795 735.22109332 -704.27237901 731.72588438 -704.265625 728.23046875 C-704.26697645 725.75181541 -704.26892095 723.27316233 -704.27142334 720.79450989 C-704.27437122 715.58197523 -704.2701005 710.36950909 -704.26074219 705.15698242 C-704.2495535 698.62009045 -704.25597098 692.08336496 -704.26762009 685.54647923 C-704.30474436 661.0073502 -704.20508694 636.49413757 -703.09375 611.9765625 C-703.05385201 611.08646673 -703.01395401 610.19637096 -702.97284698 609.2793026 C-700.55703611 557.02587743 -692.55013571 505.01097988 -678.06787109 454.7421875 C-676.93208556 450.76200444 -675.83134138 446.77331467 -674.73828125 442.78125 C-664.03449568 403.79199765 -650.17899179 365.02031925 -621.8828125 335 C-620.30316513 333.32203432 -618.86029203 331.62161305 -617.4375 329.8125 C-614.25598303 326.14151889 -610.70956936 323.1241722 -607 320 C-606.10023438 319.21238281 -605.20046875 318.42476562 -604.2734375 317.61328125 C-576.13901501 293.37610726 -543.67562115 288.82182618 -507.73291016 288.87060547 C-506.03434207 288.86924718 -504.33577428 288.86746486 -502.63720703 288.86529541 C-498.05805875 288.8607684 -493.47893321 288.86249196 -488.89978456 288.8656745 C-484.07392604 288.86822684 -479.24806931 288.86585223 -474.42221069 288.86428833 C-466.3106044 288.86247323 -458.19900724 288.8648538 -450.08740234 288.86962891 C-440.76893045 288.87505186 -431.4504805 288.87332055 -422.13200915 288.8678025 C-414.0830446 288.86323046 -406.03408657 288.86264119 -397.98512113 288.86524117 C-393.19971889 288.866784 -388.41432687 288.86705384 -383.62892532 288.86370468 C-349.46630774 288.8432505 -349.46630774 288.8432505 -335.50927734 289.41064453 C-334.63674631 289.444653 -333.76421528 289.47866146 -332.86524391 289.51370049 C-306.07538689 290.83452581 -284.19852733 307.47280113 -263.08203125 322.42578125 C-259.00635837 325.30716909 -254.88693157 328.11537738 -250.74584961 330.90161133 C-235.64188686 341.08446007 -219.92842473 352.07157527 -207 365 C-207.4135369 353.77746416 -208.17805778 342.60679593 -209.14477539 331.42016602 C-212.86292105 288.35992433 -212.86292105 288.35992433 -208 276 C-208.59167969 275.53851562 -209.18335938 275.07703125 -209.79296875 274.6015625 C-217.77053823 268.01648884 -222.24570486 260.79283923 -223.7890625 250.484375 C-224.68423487 235.6974537 -222.74446122 220.66702343 -221 206 C-222.1653125 205.86722656 -223.330625 205.73445312 -224.53125 205.59765625 C-228.57537655 205.09214043 -232.51902906 204.31790704 -236.5 203.4375 C-238.34078125 203.03337891 -238.34078125 203.03337891 -240.21875 202.62109375 C-241.1365625 202.41613281 -242.054375 202.21117187 -243 202 C-243 205.63 -243 209.26 -243 213 C-252.62656867 215.47257757 -262.13595767 216.92369243 -272 218 C-273.58460467 212.86131309 -274.59556276 207.84604241 -275.34448242 202.52612305 C-275.52289421 201.30045876 -275.52289421 201.30045876 -275.70491028 200.05003357 C-276.09340756 197.37128645 -276.47474485 194.69158089 -276.85546875 192.01171875 C-277.12380309 190.1431786 -277.39238697 188.27467426 -277.66120911 186.40620422 C-278.22166587 182.50230094 -278.77845246 178.59789568 -279.33276367 174.69311523 C-280.0447556 169.68037755 -280.76692951 164.66916691 -281.49193859 159.65829754 C-282.04796366 155.8063248 -282.59813819 151.95353386 -283.14657021 148.1004734 C-283.41059059 146.25135505 -283.67656702 144.40251491 -283.94450951 142.5539608 C-284.31693851 139.97909028 -284.68137491 137.40321304 -285.04370117 134.8269043 C-285.15636322 134.05963013 -285.26902527 133.29235596 -285.38510132 132.50183105 C-286.11422091 127.22844182 -286.11422091 127.22844182 -285 125 C-282.22436523 124.40576172 -282.22436523 124.40576172 -278.55859375 123.9296875 C-276.60083008 123.66865234 -276.60083008 123.66865234 -274.60351562 123.40234375 C-273.21486857 123.22636653 -271.82619634 123.05058787 -270.4375 122.875 C-269.04481207 122.69224105 -267.65223203 122.5086579 -266.25976562 122.32421875 C-262.84082209 121.87466908 -259.42098934 121.43365987 -256 121 C-254.80712589 124.87684087 -254 127.91621923 -254 132 C-242.1596872 126.54312834 -230.56960126 120.78361644 -219.16552734 114.46386719 C-213.17909276 111.15699415 -207.13702403 108.01744108 -201 105 C-193.06927573 101.09416137 -185.3042471 96.93863334 -177.5625 92.671875 C-170.59474478 88.84204591 -163.56480071 85.14734807 -156.5 81.5 C-148.69559068 77.46912499 -140.94350938 73.36367211 -133.25 69.125 C-124.20686208 64.14680717 -115.06064784 59.38246727 -105.88031006 54.66403198 C-97.32599242 50.26533367 -88.82761726 45.77975723 -80.375 41.1875 C-69.46308146 35.26439484 -58.44314996 29.57265002 -47.38986206 23.91931152 C-33.57983245 16.85289603 -19.8848512 9.58826109 -6.24194336 2.20483398 C-2.13920973 0 -2.13920973 0 0 0 Z M-197 211 C-201.65726469 215.65726469 -200.22398121 233.23782539 -200.3125 239.8125 C-200.32925781 241.05644531 -200.34601563 242.30039062 -200.36328125 243.58203125 C-199.88370516 248.09417186 -198.22538705 251.27331825 -195.625 254.9375 C-194.0128987 256.24209776 -194.0128987 256.24209776 -191.80859375 255.72265625 C-188.5633775 254.88765624 -185.55000779 253.74067518 -182.4375 252.5 C-171.81518467 248.27563414 -160.43041819 247.09120836 -149.4140625 250.94140625 C-144.7657437 252.97974669 -140.3977973 255.47794053 -136 258 C-134.6720752 258.67737578 -133.34073249 259.34834165 -132 260 C-126.50411263 255.85604215 -123.82247914 252.99362337 -122.671875 246.0078125 C-121.86110274 240.01236501 -121.91654963 234.03818385 -122 228 C-136.21520092 223.9231591 -150.67671096 220.93142146 -165.125 217.8125 C-167.66413077 217.26138215 -170.20319383 216.70995226 -172.7421875 216.15820312 C-177.36825438 215.15416 -181.99447907 214.15086985 -186.62158203 213.15161133 C-187.54230499 212.95271805 -188.46302795 212.75382477 -189.41165161 212.54890442 C-190.26580658 212.36776596 -191.11996155 212.1866275 -192 212 C-192.91530487 211.79062302 -193.83060974 211.58124603 -194.77365112 211.36552429 C-195.50834625 211.24490128 -196.24304138 211.12427826 -197 211 Z " fill="#000000" transform="translate(773,688)"/>
<path d="M0 0 C1.10637093 0.87030029 2.21316677 1.74006058 3.3203125 2.609375 C28.18850907 22.56665415 44.91764482 52.4928869 48.75 84.1875 C48.85738601 85.79023622 48.93933164 87.39481637 49 89 C49.0515625 89.99386719 49.103125 90.98773437 49.15625 92.01171875 C50.09365606 125.64116098 36.43579436 156.34575368 13.71826172 180.72045898 C-5.33962093 200.51133712 -33.22706429 214.36098392 -60.88671875 215.23828125 C-97.00010782 215.82903892 -128.91466105 205.01381988 -155.2578125 179.703125 C-156.61519531 178.36507812 -156.61519531 178.36507812 -158 177 C-158.80179688 176.21109375 -159.60359375 175.4221875 -160.4296875 174.609375 C-180.2157624 153.93326905 -190.47740149 121.86902808 -190.1484375 93.578125 C-188.69623356 58.57236693 -171.29797562 27.0566694 -145.78857422 3.54589844 C-137.28627563 -3.80279863 -127.23217482 -9.46296376 -117 -14 C-116.02160156 -14.43957031 -115.04320312 -14.87914062 -114.03515625 -15.33203125 C-77.6116945 -30.53526686 -30.77241565 -25.50988659 0 0 Z " fill="#000000" transform="translate(408,738)"/>
<path d="M0 0 C2.4763249 2.70144534 3.9599675 4.75670613 4.21484375 8.46875 C4.10849609 9.59796875 4.10849609 9.59796875 4 10.75 C3.94714844 11.5028125 3.89429688 12.255625 3.83984375 13.03125 C2.7020171 16.27891601 0.8889915 17.33347219 -1.9375 19.25 C-5.13438416 20.14974976 -5.13438416 20.14974976 -8.80444336 20.72021484 C-9.81748504 20.88429274 -9.81748504 20.88429274 -10.8509922 21.05168533 C-13.09520127 21.41133154 -15.3421807 21.74860872 -17.58984375 22.0859375 C-19.19478802 22.33844257 -20.79951538 22.59232969 -22.40403748 22.84750366 C-26.69925442 23.52675251 -30.99719093 24.18704818 -35.29586029 24.84403992 C-39.64200199 25.51194328 -43.98516023 26.19865862 -48.32861328 26.88378906 C-58.14090201 28.42794536 -67.95740597 29.94410263 -77.77484131 31.45513916 C-81.42720635 32.0178532 -85.07922212 32.58281583 -88.73124123 33.14776993 C-98.25564728 34.62104356 -107.78134223 36.08566976 -117.30841064 37.54162598 C-120.28935557 37.99728383 -123.26995146 38.45510578 -126.25018311 38.91540527 C-130.02918073 39.49897034 -133.80939252 40.07435908 -137.58984375 40.6484375 C-138.65997208 40.81477692 -139.7301004 40.98111633 -140.83265686 41.15249634 C-153.96589576 43.12626855 -153.96589576 43.12626855 -158.75 41 C-161.6067623 38.71459016 -162.69579337 36.6722527 -163.30859375 33.06640625 C-163.43110758 28.90814282 -163.33713273 26.83696057 -160.9375 23.3125 C-154.60115238 18.95626101 -146.09206554 18.55001654 -138.62231445 17.41821289 C-137.51371063 17.24717545 -136.40510681 17.076138 -135.26290894 16.8999176 C-131.60941352 16.33720269 -127.95512056 15.77986231 -124.30078125 15.22265625 C-121.73930887 14.82943397 -119.1778828 14.43590993 -116.61650085 14.042099 C-111.24459891 13.21694755 -105.87234673 12.39413906 -100.49975586 11.57348633 C-93.67013333 10.53026331 -86.84119446 9.48263657 -80.01247883 8.43349552 C-73.44216366 7.42408033 -66.8714705 6.41713315 -60.30078125 5.41015625 C-58.45960441 5.1277241 -58.45960441 5.1277241 -56.58123207 4.83958626 C-49.74323736 3.79141893 -42.90424056 2.7503524 -36.06332779 1.72139359 C-33.99717811 1.40980582 -31.93135122 1.0960692 -29.86587143 0.78007126 C-27.00810582 0.34359566 -24.14918766 -0.0843425 -21.28979492 -0.51000977 C-20.46854032 -0.63716086 -19.64728571 -0.76431196 -18.8011446 -0.89531612 C-4.91691489 -2.92922589 -4.91691489 -2.92922589 0 0 Z " fill="#000000" transform="translate(990.9375,775.75)"/>
<path d="M0 0 C4.87714812 1.90998142 9.76005041 3.80515851 14.64233398 5.70196533 C16.12147278 6.27725479 16.12147278 6.27725479 17.63049316 6.86416626 C26.24425846 10.21040297 34.88283501 13.48831723 43.53146362 16.74319458 C58.4566878 22.36049145 73.33969538 28.0687905 88.15356445 33.97491455 C91.36330917 35.24647676 94.58200263 36.49305353 97.80249023 37.73712158 C99.81187441 38.52680051 101.82100283 39.31713065 103.82983398 40.10821533 C104.73854248 40.45344238 105.64725098 40.79866943 106.58349609 41.15435791 C111.36217562 43.06112166 114.67240087 44.58090696 117.32983398 49.23321533 C118.09878388 52.33022731 118.0016783 55.11676103 117.32983398 58.23321533 C115.14824253 60.9889098 113.45805905 62.6691028 110.32983398 64.23321533 C104.21512985 64.75831157 99.71910179 63.2283004 94.13842773 61.04180908 C93.25327484 60.70544434 92.36812195 60.36907959 91.45614624 60.02252197 C88.55538046 58.91661585 85.66142528 57.79395974 82.76733398 56.67071533 C80.73273532 55.89068176 78.69781891 55.11147654 76.66259766 54.33306885 C62.59104821 48.93756227 48.56746368 43.41923867 34.5637207 37.85040283 C19.80702592 31.98811409 4.96836036 26.34663843 -9.88288879 20.72895813 C-13.06432012 19.52230858 -16.24153197 18.30474408 -19.41888428 17.08740234 C-21.63406537 16.24691273 -23.85643131 15.42839244 -26.08081055 14.61260986 C-27.43501325 14.10255793 -28.78902822 13.59200718 -30.14282227 13.08087158 C-31.31208252 12.64911621 -32.48134277 12.21736084 -33.68603516 11.77252197 C-37.03702537 10.04397797 -38.61624838 8.36722642 -40.67016602 5.23321533 C-41.26394928 1.39697517 -40.51438183 -2.26282982 -38.61547852 -5.64569092 C-36.95364723 -7.78749211 -35.38210543 -9.47572708 -32.84399414 -10.5133667 C-22.96850337 -11.66462 -9.09995545 -3.56400845 0 0 Z " fill="#000000" transform="translate(870.670166015625,860.7667846679688)"/>
<path d="M0 0 C5.12787211 1.36853179 8.65118 5.09832084 12.4296875 8.6484375 C13.3580542 9.50888672 13.3580542 9.50888672 14.30517578 10.38671875 C17.72467713 13.55757385 21.12249745 16.74931959 24.5 19.96484375 C27.76629113 23.05746538 31.1217011 26.02900216 34.51904297 28.97631836 C37.37605561 31.47666076 40.15263895 34.06004131 42.9296875 36.6484375 C47.06279506 40.48246592 51.2270537 44.26515352 55.48828125 47.95703125 C62.08572506 53.70490483 68.51951231 59.63845487 74.96337891 65.55712891 C78.14633772 68.47850266 81.34288169 71.3838191 84.5546875 74.2734375 C85.35132813 74.99273438 86.14796875 75.71203125 86.96875 76.453125 C88.69851168 77.99618224 90.44492113 79.52068048 92.203125 81.03125 C93.10289062 81.81242188 94.00265625 82.59359375 94.9296875 83.3984375 C95.744375 84.09453125 96.5590625 84.790625 97.3984375 85.5078125 C99.59957212 87.82746976 100.53365456 89.59601759 101.4296875 92.6484375 C101.22612007 97.53405593 99.75926642 100.11706592 96.4296875 103.6484375 C92.60249016 105.56203617 89.45783413 105.81237788 85.4296875 104.6484375 C81.24913218 101.49998935 77.63299023 97.91656212 73.96826172 94.19091797 C71.90907192 92.12650014 69.74300567 90.19959443 67.5546875 88.2734375 C63.24746612 84.4166445 59.02293134 80.47681246 54.8046875 76.5234375 C50.39269936 72.39012416 45.96525688 68.2964494 41.3828125 64.3515625 C38.86356474 62.15477845 36.39865754 59.90154131 33.9296875 57.6484375 C30.83236783 54.82266366 27.725646 52.01624971 24.5546875 49.2734375 C20.40888139 45.67134367 16.39019928 41.93654703 12.36132812 38.20507812 C3.08947681 29.61678299 3.08947681 29.61678299 -6.5078125 21.3984375 C-9.23175726 19.04154912 -11.26000483 17.08799515 -12.5703125 13.6484375 C-12.5703125 8.82000036 -12.24341157 6.6580861 -9.5703125 2.6484375 C-6.10574213 0.33872392 -4.11658158 -0.28343676 0 0 Z " fill="#000000" transform="translate(842.5703125,915.3515625)"/>
<path d="M0 0 C1.01578125 0.4125 2.0315625 0.825 3.078125 1.25 C17.12175611 7.58763865 27.44877252 18.94981118 33.375 33.125 C38.80648793 49.90441807 37.77894126 67.14596489 30 83 C20.58585101 98.68339668 6.29986046 108.09032527 -11.29296875 112.5859375 C-28.24599142 115.17904053 -43.87345133 111.81233281 -58 102 C-69.96838325 93.00501196 -78.37065017 79.82972815 -81 65 C-82.67306291 46.83848612 -79.56100399 30.259225 -67.8125 15.8125 C-50.45555459 -2.84430476 -23.67564927 -9.81374063 0 0 Z " fill="#000000" transform="translate(1222,991)"/>
<path d="M0 0 C9.37476249 -0.52743673 19.11050252 2.44556699 26.31640625 8.49609375 C34.64386593 16.45670498 40.07995768 24.27226132 40.38256836 36.02929688 C40.49395804 48.55994864 37.95402039 57.8912865 29.08984375 67.19140625 C21.57380236 74.32527604 12.94155467 77.37578628 2.65234375 77.69140625 C-9.20445144 77.30660154 -18.59535174 73.80778398 -26.91015625 65.19140625 C-35.04138264 54.69171503 -37.19916454 44.28258765 -35.91015625 31.19140625 C-33.77160378 20.80598078 -27.65342597 12.49630373 -19.01953125 6.47265625 C-12.87952839 2.74317303 -7.13704666 0.71516418 0 0 Z " fill="#000000" transform="translate(1097.91015625,1084.80859375)"/>
<path d="M0 0 C5.27921649 4.82431802 8.56786596 10.06277876 9.3515625 17.203125 C9.68017314 25.19355216 8.91510881 31.52207747 4 38 C-1.36096059 43.48915747 -8.00173849 46.69218917 -15.6640625 47.1640625 C-24.07648753 46.85600187 -30.59075647 43.49666003 -36.4375 37.5 C-40.96552316 30.25516295 -42.87736365 23.95914201 -41.4375 15.4375 C-39.46205158 7.92817951 -34.32260751 2.54265522 -28.0625 -1.80859375 C-19.28088653 -6.88130608 -8.19030526 -5.83008826 0 0 Z " fill="#000000" transform="translate(1031,1146)"/>
</svg>
