 <svg version="1.0" xmlns="http://www.w3.org/2000/svg" width="700.000000pt" height="700.000000pt" viewBox="0 0 700.000000 700.000000" preserveAspectRatio="xMidYMid meet">
<metadata>
Created by potrace 1.12, written by Peter Selinger 2001-2015
</metadata>
<g transform="translate(0.000000,700.000000) scale(0.100000,-0.100000)" fill="#000000" stroke="none">
<path d="M627 3459 c-4 -1573 -5 -2865 -2 -2870 4 -5 1124 -9 2877 -9 l2871 0
-6 1352 c-4 743 -7 2035 -7 2870 l0 1518 -2863 0 -2864 0 -6 -2861z m2857
2509 c4 -84 5 -299 2 -478 -2 -179 -4 -706 -5 -1173 l-1 -847 -1327 2 -1328 3
-3 1323 -2 1322 1329 0 1329 0 6 -152z m2691 -3470 c-2 -519 -7 -1117 -10
-1331 l-5 -387 -1323 2 -1322 3 -3 1315 c-1 723 0 1321 3 1328 3 9 280 12
1335 12 l1330 0 -5 -942z"></path>
</g>
</svg>