 <svg version="1.0" xmlns="http://www.w3.org/2000/svg" width="700.000000pt" height="700.000000pt" viewBox="0 0 700.000000 700.000000" preserveAspectRatio="xMidYMid meet">
<metadata>
Created by potrace 1.12, written by Peter Selinger 2001-2015
</metadata>
<g transform="translate(0.000000,700.000000) scale(0.100000,-0.100000)" fill="#000000" stroke="none">
<path d="M3185 6675 c-217 -55 -399 -238 -445 -446 -19 -85 -9 -260 19 -331
51 -131 164 -261 278 -320 316 -165 696 -24 828 307 23 57 29 90 33 179 6 132
-6 193 -60 303 -63 130 -183 233 -343 292 -78 30 -225 37 -310 16z"></path>
<path d="M1315 5814 c-95 -25 -155 -71 -187 -144 -27 -62 -27 -178 0 -240 22
-50 106 -134 537 -530 33 -31 106 -99 162 -152 126 -119 168 -138 306 -138 68
0 113 7 172 24 44 13 149 45 232 70 84 25 162 46 173 46 20 0 20 -6 20 -345 0
-281 -3 -347 -14 -351 -7 -3 -159 27 -337 67 -442 97 -455 96 -683 -55 -115
-76 -419 -275 -661 -434 -77 -50 -147 -96 -155 -101 -55 -37 -203 -131 -242
-154 -31 -18 -57 -44 -75 -75 -25 -41 -28 -57 -28 -132 0 -76 4 -92 32 -145
61 -117 153 -171 275 -162 37 2 76 11 87 18 10 8 147 105 303 217 155 112 292
210 303 218 137 98 327 234 432 307 l54 38 162 -51 c89 -28 180 -57 202 -65
22 -7 81 -25 130 -40 50 -14 106 -33 125 -42 l34 -15 -24 -19 c-14 -11 -47
-33 -75 -50 -27 -16 -70 -43 -95 -58 -25 -16 -94 -58 -155 -95 -182 -111 -188
-121 -211 -319 -8 -73 -28 -247 -44 -387 -17 -140 -37 -316 -46 -390 -9 -74
-24 -204 -34 -288 l-19 -154 23 -78 c20 -68 32 -94 70 -145 6 -8 -144 -165
-470 -494 -363 -365 -483 -491 -494 -521 -20 -54 -6 -89 45 -115 40 -20 63
-20 2485 -23 1797 -2 2461 0 2505 8 140 27 241 113 296 252 19 48 19 107 19
2477 l0 2429 -26 68 c-42 113 -88 144 -171 114 -16 -6 -809 -792 -1848 -1830
-1001 -1001 -1826 -1820 -1833 -1820 -16 0 -17 -17 23 283 19 144 43 320 52
390 l17 128 54 32 c30 18 69 41 87 52 18 11 103 63 188 115 86 52 197 120 246
150 246 150 333 200 351 200 20 0 20 6 20 620 0 551 2 620 15 620 9 0 75 -20
148 -45 73 -25 166 -57 207 -72 60 -20 94 -25 167 -25 107 0 92 -7 278 132
154 115 251 187 351 260 41 30 108 80 149 110 40 30 135 100 211 155 184 135
186 137 212 188 34 67 31 155 -8 232 -21 41 -30 75 -30 108 0 68 -30 97 -100
97 -59 0 -112 -24 -212 -97 -37 -26 -89 -63 -115 -81 -62 -43 -212 -149 -238
-168 -11 -8 -83 -59 -160 -113 -77 -55 -169 -120 -204 -146 -36 -25 -70 -44
-75 -41 -37 16 -228 95 -321 132 -60 25 -119 49 -130 54 -11 5 -72 30 -135 55
-63 25 -124 50 -135 55 -140 63 -240 83 -302 59 -27 -10 -361 -101 -518 -141
-44 -11 -163 -42 -264 -69 l-183 -49 -58 47 c-59 50 -297 254 -409 352 -172
150 -199 172 -244 196 -48 26 -147 40 -192 29z"></path>
</g>
</svg>