<?xml version="1.0" encoding="UTF-8"?>
<svg version="1.1" xmlns="http://www.w3.org/2000/svg" width="2048" height="2048">
<path d="M0 0 C0.70853119 -0.00208466 1.41706238 -0.00416931 2.14706421 -0.00631714 C33.628142 0.00419651 66.36498387 8.13454459 90.4375 29.375 C91.04464844 29.84035156 91.65179687 30.30570312 92.27734375 30.78515625 C110.26031028 44.771908 119.15557172 68.91851128 121.97265625 90.80078125 C124.95460222 117.75103395 117.92227231 143.95882122 100.99755859 165.09521484 C91.94840472 175.9683244 81.64954856 185.76631884 70.4375 194.375 C69.92477539 194.76993652 69.41205078 195.16487305 68.88378906 195.57177734 C66.68691088 197.2639673 64.48805456 198.95353762 62.28613281 200.63916016 C43.39637468 215.11905525 29.97931222 227.99156542 26.4375 252.375 C26.3085366 254.45254049 26.21619439 256.53260522 26.15625 258.61328125 C26.11886719 259.76248047 26.08148437 260.91167969 26.04296875 262.09570312 C25.97208323 264.50974887 25.90177992 266.92381177 25.83203125 269.33789062 C25.79464844 270.48064453 25.75726562 271.62339844 25.71875 272.80078125 C25.68845703 273.84661377 25.65816406 274.89244629 25.62695312 275.9699707 C25.4375 278.375 25.4375 278.375 24.4375 279.375 C22.38193339 279.46913687 20.32309819 279.49242998 18.26538086 279.48852539 C17.29955833 279.48874443 17.29955833 279.48874443 16.31422424 279.4889679 C14.17689697 279.48826885 12.03965587 279.48047691 9.90234375 279.47265625 C8.42403715 279.47079204 6.94572993 279.46936815 5.46742249 279.46836853 C1.56951198 279.46454359 -2.32836149 279.45471352 -6.22625732 279.44366455 C-10.20096333 279.43344992 -14.17567529 279.4288708 -18.15039062 279.42382812 C-25.954444 279.41309122 -33.75846682 279.39601509 -41.5625 279.375 C-41.57965187 275.12263162 -41.5920461 270.87028224 -41.6002655 266.6178894 C-41.60369656 265.17497405 -41.60836803 263.73206103 -41.61436462 262.28915405 C-41.74086288 231.04070332 -34.49339341 205.38300214 -12.25 182.8125 C-5.64323181 176.25411567 1.45200818 170.45629869 8.8125 164.765625 C25.82627908 151.58329168 43.67390443 137.41040961 47.19140625 114.74609375 C48.84987948 98.76683583 45.06121026 84.40518983 36.25 71.0625 C26.71853426 61.95465496 14.56741224 56.95639833 1.4375 56.375 C0.78007813 56.3234375 0.12265625 56.271875 -0.5546875 56.21875 C-15.76781063 55.52985386 -29.58646191 60.4846783 -41.375 70 C-55.61525028 83.53347315 -59.00481917 101.68283 -60.5625 120.375 C-83.9925 120.375 -107.4225 120.375 -131.5625 120.375 C-131.5625 105.06874594 -131.5625 105.06874594 -130.375 98 C-130.2411792 97.19328857 -130.1073584 96.38657715 -129.96948242 95.55541992 C-124.84190911 66.61533899 -107.62764822 39.63441775 -83.58300781 22.72021484 C-58.50239882 6.02203268 -29.72403374 0.03539205 0 0 Z " fill="#000000" transform="translate(1508.5625,467.625)"/>
<path d="M0 0 C-0.74851985 20.30630856 -9.66005881 40.16202252 -24.3046875 54.2109375 C-42.37840673 69.67730052 -61.33640117 70.516587 -84 70 C-83.84853516 70.59538574 -83.69707031 71.19077148 -83.54101562 71.80419922 C-82.8582294 74.49385172 -82.1790718 77.18440742 -81.5 79.875 C-81.26152344 80.81214844 -81.02304687 81.74929688 -80.77734375 82.71484375 C-80.55175781 83.61074219 -80.32617188 84.50664063 -80.09375 85.4296875 C-79.88427734 86.25710449 -79.67480469 87.08452148 -79.45898438 87.93701172 C-79 90 -79 90 -79 92 C-78.43192627 91.80889648 -77.86385254 91.61779297 -77.27856445 91.42089844 C-27.41829765 74.66809071 -27.41829765 74.66809071 -0.8671875 86.5703125 C17.44117959 95.69955277 30.26825863 110.69104461 37.10131836 129.84887695 C48.84853777 165.32674498 40.36622772 203.59708329 24.49731445 236.39306641 C11.498807 262.11310481 -9.43622657 286.91500943 -37.41796875 296.125 C-48.85484494 298.91874075 -58.7952437 297.11059643 -69.75 293.5 C-83.68614862 288.91893665 -93.11358302 289.12665367 -107 294 C-120.37601288 298.62643571 -133.93258853 298.69474741 -147 293 C-177.78995905 277.15286024 -198.23125547 244.27899225 -208.87548828 212.37597656 C-210.79474218 206.30294839 -212.45229477 200.17701333 -214 194 C-214.17934082 193.31405762 -214.35868164 192.62811523 -214.54345703 191.92138672 C-220.86102547 167.18437346 -218.35422555 137.53644098 -205.47460938 115.29150391 C-195.42045916 98.95125349 -179.96453088 86.97872888 -161.37109375 82.03515625 C-138.14201723 76.86519768 -119.56648108 83.89923343 -98 92 C-103.7438527 69.35498782 -111.83325066 48.82115455 -132.16796875 35.62890625 C-134.7353987 34.15219137 -137.22136907 33.01087304 -140 32 C-138.64737628 27.25869791 -136.66645646 23.67711421 -133.875 19.625 C-133.15054688 18.56539062 -132.42609375 17.50578125 -131.6796875 16.4140625 C-131.12539063 15.61742187 -130.57109375 14.82078125 -130 14 C-116.92870006 16.48688305 -106.36298095 29.17912149 -99.125 39.625 C-90 53.38622083 -90 53.38622083 -90 58 C-89.34 58 -88.68 58 -88 58 C-87.938125 56.7625 -87.87625 55.525 -87.8125 54.25 C-86.18665734 40.04058057 -77.47775734 27.37678784 -66.87109375 18.28125 C-47.00216381 2.49423628 -24.71922138 -0.66057944 0 0 Z " fill="#000000" transform="translate(421,592)"/>
<path d="M0 0 C1.40452033 1.21673647 2.78105767 2.46666683 4.125 3.75 C4.76179688 4.34683594 5.39859375 4.94367187 6.0546875 5.55859375 C14.57828629 14.35655731 17.39769517 25.57579609 17.44628906 37.46240234 C17.2684745 48.08562097 13.12416659 56.57938181 5.9375 64.3125 C-2.73585583 72.6899631 -13.80534316 76.33376674 -25.6875 76.1875 C-26.99908081 76.17505249 -26.99908081 76.17505249 -28.3371582 76.16235352 C-42.07230109 75.80534906 -51.31379577 70.76797372 -60.6875 60.9375 C-64.27002969 56.67337533 -66.20645084 52.02476831 -67.875 46.75 C-68.06835938 46.13898437 -68.26171875 45.52796875 -68.4609375 44.8984375 C-70.85226337 32.49061459 -68.37672245 20.6885116 -61.66796875 10.13671875 C-55.6360237 2.10726684 -46.35135976 -4.91309252 -36.3515625 -6.96484375 C-23.57946465 -8.43544808 -10.72622593 -7.9044869 0 0 Z " fill="#000000" transform="translate(1528.875,784.25)"/>
<path d="M0 0 C0.69359619 0.00087616 1.38719238 0.00175232 2.10180664 0.00265503 C14.91522638 0.0555985 27.09392903 1.36287927 39.5625 4.375 C40.46677734 4.58447266 41.37105469 4.79394531 42.30273438 5.00976562 C59.84038188 9.19362383 76.01217842 16.50212818 92.45257568 23.72016907 C125.26681651 38.08329446 153.14618934 42.53618535 187.2421875 29.69335938 C195.02973119 26.60124644 202.69356152 23.20892097 210.3770752 19.86883545 C259.76553152 -1.57487802 310.19762394 -6.8253121 361.28027344 13.21362305 C381.28635525 21.52310455 399.3942753 33.7008522 414.90185547 48.765625 C416.60988482 50.4209219 418.33774405 52.05378778 420.06640625 53.6875 C443.23050135 75.87834052 459.56444965 104.4578991 470.5625 134.375 C470.8315918 135.08688477 471.10068359 135.79876953 471.37792969 136.53222656 C487.52998009 179.91143417 490.72068064 231.74915924 484.5625 277.375 C484.40652344 278.55852051 484.25054688 279.74204102 484.08984375 280.96142578 C479.99391806 311.38884414 473.92664663 341.10220548 464.5625 370.375 C464.21993164 371.46941406 463.87736328 372.56382812 463.52441406 373.69140625 C453.2410159 406.46794094 439.37034856 437.44552608 422.5625 467.375 C421.95607666 468.46522461 421.34965332 469.55544922 420.72485352 470.67871094 C416.37861508 478.43844992 411.72769209 485.92922112 406.76293945 493.30761719 C405.62289917 495.00312443 404.49167276 496.70426766 403.36132812 498.40625 C396.75363603 508.30915122 389.80340576 517.9450516 382.0625 527 C381.37124023 527.80908813 381.37124023 527.80908813 380.66601562 528.63452148 C376.38404579 533.62596943 371.99883805 538.52042132 367.5625 543.375 C366.6430861 544.38789099 365.72382221 545.40091816 364.8046875 546.4140625 C362.07491961 549.41760003 359.32228116 552.39901478 356.5625 555.375 C355.98113281 556.01179688 355.39976562 556.64859375 354.80078125 557.3046875 C350.04588728 562.31109979 344.56010135 566.40503229 339.10546875 570.609375 C336.03262776 572.98485112 333.07729999 575.47576144 330.125 578 C303.0211569 600.14726222 269.20315476 610.45864841 234.5625 608.375 C218.61945583 606.68366039 203.91781884 601.06918146 189.25488281 594.89306641 C157.87330446 581.75622054 129.89193733 584.80486407 98.95532227 597.29394531 C89.65202961 601.0326576 80.36583106 604.24185189 70.5625 606.375 C69.74628174 606.55683838 68.93006348 606.73867676 68.08911133 606.92602539 C60.82565649 608.40789372 53.77574372 608.72381944 46.375 608.6875 C45.18680664 608.68258545 43.99861328 608.6776709 42.77441406 608.67260742 C12.39060895 608.26889783 -13.55912579 595.23498289 -37.4375 577.375 C-38.94957031 576.26705078 -38.94957031 576.26705078 -40.4921875 575.13671875 C-59.33707966 561.06064404 -75.88181219 543.79826733 -90.4375 525.375 C-91.31660337 524.31960495 -92.19826923 523.26634084 -93.08203125 522.21484375 C-140.02941864 465.81877461 -170.23015424 392.94682481 -184.4375 321.375 C-184.89166546 319.16400874 -185.34609487 316.95307169 -185.80078125 314.7421875 C-190.18472425 293.05522002 -193.54029224 271.12677676 -193.640625 248.9609375 C-193.64763931 247.91573944 -193.65465363 246.87054138 -193.66188049 245.79367065 C-193.67926215 242.44573598 -193.68573109 239.09797812 -193.6875 235.75 C-193.68817474 234.60672241 -193.68884949 233.46344482 -193.68954468 232.28552246 C-193.67406679 215.80026897 -193.42449959 199.63592002 -190.4375 183.375 C-190.27121094 182.44123535 -190.10492187 181.5074707 -189.93359375 180.54541016 C-181.8456661 136.53360384 -164.32229304 96.62331361 -135.4375 62.375 C-134.90511719 61.71886719 -134.37273437 61.06273437 -133.82421875 60.38671875 C-130.7293182 56.62445421 -127.37907143 53.43626919 -123.65625 50.296875 C-122.13509758 48.97925706 -120.65688928 47.61088106 -119.21875 46.203125 C-97.71997191 25.38468799 -69.81862244 12.35909042 -41.125 5.0625 C-39.69498657 4.69862183 -39.69498657 4.69862183 -38.23608398 4.32739258 C-25.53862787 1.24958405 -13.05597393 -0.01833704 0 0 Z " fill="#000000" transform="translate(1357.4375,861.625)"/>
<path d="M0 0 C5.25652046 3.94239035 10.42312267 7.90423428 15.5 12.0625 C16.90364568 13.20703143 18.30729152 14.35156268 19.7109375 15.49609375 C21.1406945 16.66397742 22.57038244 17.83194564 24 19 C26.70687671 21.21012583 29.41511756 23.41856053 32.125 25.625 C32.78806152 26.16511719 33.45112305 26.70523438 34.13427734 27.26171875 C38.42514283 30.74745495 42.76099843 34.16902589 47.125 37.5625 C52.56243194 41.79547664 57.81305558 46.21294813 63.02294922 50.72192383 C67.91242219 54.94854628 72.92292254 59.00064379 78 63 C88.67653681 71.49695673 99.2072721 80.1680875 109.73828125 88.84399414 C117.33598474 95.1024672 124.95098081 101.33895978 132.59521484 107.54052734 C141.04859297 114.3996191 149.46207431 121.30570377 157.85888672 128.23388672 C161.40407919 131.15816521 164.95217826 134.0789125 168.5 137 C169.91668076 138.16664955 171.33334743 139.33331622 172.75 140.5 C173.45125 141.0775 174.1525 141.655 174.875 142.25 C177 144 179.125 145.75 181.25 147.5 C181.95157227 148.0777417 182.65314453 148.6554834 183.37597656 149.25073242 C184.78948203 150.41484354 186.20289384 151.5790684 187.61621094 152.7434082 C191.20547571 155.70012504 194.79645822 158.65471204 198.390625 161.60546875 C204.9421619 166.987271 211.47950768 172.38108818 217.9375 177.875 C222.26865395 181.5591058 226.65890246 185.15344741 231.11328125 188.6875 C235.07999822 191.86516772 239.01022231 195.08628666 242.9375 198.3125 C244.05753418 199.22962769 244.05753418 199.22962769 245.20019531 200.1652832 C245.9062793 200.74624756 246.61236328 201.32721191 247.33984375 201.92578125 C248.28911743 202.70562378 248.28911743 202.70562378 249.25756836 203.5012207 C250.92157662 204.93254293 252.47073148 206.42667726 254 208 C252.62840255 211.17404746 251.15773943 212.97625583 248.47265625 215.13671875 C247.76834473 215.70946533 247.0640332 216.28221191 246.33837891 216.87231445 C245.58733887 217.47132568 244.83629883 218.07033691 244.0625 218.6875 C243.29341309 219.31035889 242.52432617 219.93321777 241.73193359 220.57495117 C240.19319119 221.82068425 238.65221297 223.06366127 237.10888672 224.30371094 C234.43308882 226.45599663 231.77845503 228.63273869 229.125 230.8125 C227.41679002 232.20848429 225.70845897 233.60432044 224 235 C221.24698762 237.25210612 218.49432931 239.50464258 215.7421875 241.7578125 C213.93675589 243.2340486 212.12950859 244.70806736 210.3203125 246.1796875 C205.31476701 250.25666803 200.35535681 254.38063432 195.4375 258.5625 C190.94670202 262.37833882 186.40656235 266.11492937 181.7890625 269.77734375 C176.11491841 274.29917567 170.49895622 278.89349433 164.87304688 283.47509766 C163.24445041 284.80098576 161.61452922 286.12524635 159.984375 287.44921875 C155.72599285 290.91693637 151.50030103 294.41636793 147.32250977 297.98046875 C141.6804607 302.79268083 135.94585836 307.45194424 130.09716797 312.01074219 C124.65795145 316.25220771 119.32269976 320.61333388 114 325 C112.29212417 326.39639307 110.58377851 327.79221168 108.875 329.1875 C105.58160269 331.87953518 102.29608491 334.58045649 99.01953125 337.29296875 C91.75903945 343.29890856 84.46577506 349.24162704 77.02807617 355.02685547 C72.5480282 358.5282803 68.21176459 362.17769097 63.89355469 365.87573242 C60.00695149 369.18852609 56.03221358 372.36661664 52 375.5 C46.22851306 379.98706934 40.63141306 384.64666229 35.0703125 389.390625 C31.43461346 392.49013196 27.7422172 395.51755685 24.03515625 398.53125 C21.66186896 400.46164584 19.29599668 402.40010442 16.93359375 404.34375 C15.4974743 405.52092907 14.06127658 406.69801265 12.625 407.875 C11.94655029 408.43493652 11.26810059 408.99487305 10.5690918 409.57177734 C9.91980713 410.1023877 9.27052246 410.63299805 8.6015625 411.1796875 C8.02744629 411.65132324 7.45333008 412.12295898 6.86181641 412.60888672 C4.68646077 414.23427046 2.3285385 415.6028769 0 417 C0 380.37 0 343.74 0 306 C-9.34699219 306.0721875 -18.69398438 306.144375 -28.32421875 306.21875 C-34.4645151 306.2649696 -40.60481134 306.3110401 -46.74511719 306.35595703 C-47.53066215 306.36170439 -48.31620711 306.36745175 -49.12555647 306.37337327 C-101.04081538 306.75235743 -152.95561223 307.10721515 -204.87247086 307.12338257 C-208.20033326 307.12497622 -211.52818836 307.12850985 -214.85604858 307.13256836 C-220.10506531 307.13849664 -225.35405314 307.13860819 -230.60307121 307.13431931 C-232.45703047 307.13336016 -234.31099139 307.13381687 -236.16494942 307.13615799 C-255.78343918 307.15665662 -275.39084026 306.54563555 -295 306 C-295.02332597 280.85319785 -295.04097769 255.70639731 -295.05181217 230.55958652 C-295.05697577 218.88436586 -295.06401969 207.20915191 -295.07543945 195.53393555 C-295.08538434 185.36177327 -295.09185296 175.18961585 -295.09408849 165.01744884 C-295.09539594 159.6278075 -295.09848388 154.23818006 -295.10573006 148.84854317 C-295.11248719 143.78188566 -295.11461759 138.71524786 -295.11310768 133.64858627 C-295.11338415 131.78327642 -295.11539108 129.91796596 -295.11920547 128.05265999 C-295.12413794 125.51750892 -295.12299996 122.98243349 -295.12025452 120.44728088 C-295.12316736 119.6992407 -295.1260802 118.95120052 -295.12908131 118.18049246 C-295.11412121 113.11412121 -295.11412121 113.11412121 -294 112 C-292.43094107 111.9030153 -290.85749849 111.8762835 -289.28544521 111.87695217 C-288.25933587 111.87496112 -287.23322652 111.87297007 -286.17602295 111.87091869 C-285.03499699 111.87383153 -283.89397103 111.87674437 -282.71836853 111.87974548 C-281.51694971 111.87889106 -280.31553089 111.87803663 -279.07770544 111.87715632 C-275.72788054 111.87578811 -272.37811335 111.87893566 -269.0282954 111.88393438 C-265.42159896 111.88823551 -261.81490445 111.8867927 -258.20820618 111.8860321 C-251.95435599 111.88550665 -245.7005162 111.88865565 -239.44666862 111.89426994 C-230.4045516 111.9023821 -221.36243963 111.90499987 -212.32031936 111.90625793 C-197.65161305 111.9084489 -182.98291228 111.9151102 -168.31420898 111.92456055 C-154.06127958 111.93373351 -139.80835168 111.94081491 -125.55541992 111.94506836 C-124.67750595 111.94533108 -123.79959197 111.94559381 -122.89507454 111.94586449 C-118.49102823 111.94716949 -114.08698192 111.94843321 -109.6829356 111.94967639 C-73.12195214 111.9600504 -36.56097893 111.97848945 0 112 C0 75.04 0 38.08 0 0 Z " fill="#000000" transform="translate(840,875)"/>
<path d="M0 0 C0.45714227 17.37140613 -7.37401572 35.20674822 -19 48 C-19.76570312 48.89203125 -20.53140625 49.7840625 -21.3203125 50.703125 C-31.82150602 62.17607075 -45.34031325 68.69493017 -60.90625 69.4140625 C-63.43724084 69.49315596 -65.96852648 69.56325674 -68.5 69.625 C-69.799375 69.66367187 -71.09875 69.70234375 -72.4375 69.7421875 C-75.62486286 69.83593347 -78.8122279 69.92164349 -82 70 C-81.52069748 75.25749059 -81.04529664 80.45528235 -79.9375 85.625 C-79.625 87.08333333 -79.3125 88.54166667 -79 90 C-72.16143957 89.49777172 -66.51308682 87.98752148 -60.125 85.5625 C-40.12487547 78.32047666 -20.65422599 77.6879535 -0.86328125 86.57421875 C18.47746329 96.20501242 30.821966 111.70950874 38 132 C39.2380771 136.63435864 40.21066398 141.26966255 41 146 C41.18304688 147.02867187 41.36609375 148.05734375 41.5546875 149.1171875 C43.52909237 166.33261243 42.30195146 183.28008105 38 200 C37.64474558 201.50885889 37.2905694 203.01797207 36.9375 204.52734375 C31.06788151 228.51519716 18.81940389 250.96269761 2 269 C1.49742676 269.55026855 0.99485352 270.10053711 0.47705078 270.66748047 C-13.04681215 285.37136261 -29.07326047 296.40184172 -49.5625 297.4375 C-57.05874415 297.32202512 -63.83220165 294.86633948 -70.91455078 292.64160156 C-85.8496142 288.04673541 -96.31210036 289.79724271 -110.65234375 294.87890625 C-124.31888638 299.45568307 -137.37716122 296.95666812 -150.0625 290.8125 C-178.80417453 276.16474187 -198.0837597 244.70709975 -208 215 C-213.12091926 198.76430059 -217.40535787 182.93737566 -217.3125 165.8125 C-217.30758545 164.72606201 -217.3026709 163.63962402 -217.29760742 162.52026367 C-216.94195895 137.85649804 -209.49013602 116.56585089 -192 99 C-191.36449219 98.3296875 -190.72898438 97.659375 -190.07421875 96.96875 C-181.47569581 88.57994713 -168.63244371 83.29093968 -157 81 C-155.88625 80.773125 -154.7725 80.54625 -153.625 80.3125 C-135.13317411 78.71837708 -120.03761887 83.32093577 -103.14379883 90.19970703 C-101.11114223 90.95850994 -99.11389202 91.51971989 -97 92 C-106.98995775 59.24547723 -106.98995775 59.24547723 -131 36 C-133.95172082 34.52632605 -136.92555037 33.1956193 -140 32 C-138.64910629 27.36239582 -136.76738109 23.66335601 -134.125 19.625 C-133.44695312 18.56539062 -132.76890625 17.50578125 -132.0703125 16.4140625 C-131.38710938 15.61742187 -130.70390625 14.82078125 -130 14 C-123.64669726 14 -119.87369674 18.20702285 -115 22 C-114.06607422 22.680625 -114.06607422 22.680625 -113.11328125 23.375 C-102.1037245 31.90540717 -95.00185109 44.72114133 -89 57 C-88.64808594 55.82824219 -88.29617188 54.65648437 -87.93359375 53.44921875 C-81.91728376 34.0598888 -72.03448105 19.78744881 -54.07421875 9.71875 C-36.86276387 0.70538284 -19.12860974 -0.69139553 0 0 Z " fill="#000000" transform="translate(421,915)"/>
<path d="M0 0 C1.28214271 18.27053364 -8.32476214 37.41950511 -20 51 C-30.65229999 62.07761868 -44.67219949 69.45456136 -60.24902344 70.09204102 C-62.83354043 70.13417439 -65.41518314 70.1364036 -68 70.125 C-69.31484375 70.13080078 -69.31484375 70.13080078 -70.65625 70.13671875 C-75.21806549 70.12984855 -79.51177028 69.93012655 -84 69 C-83.72285156 70.07378906 -83.44570313 71.14757813 -83.16015625 72.25390625 C-82.79407904 73.69005529 -82.42820442 75.12625599 -82.0625 76.5625 C-81.88009766 77.26697266 -81.69769531 77.97144531 -81.50976562 78.69726562 C-80.3884486 83.12137098 -79.56543671 87.47055438 -79 92 C-72.88613103 90.68759881 -67.1474362 89.22890713 -61.5 86.5 C-45.83740384 79.00723066 -27.30756234 77.88558459 -10.765625 83 C10.22341668 90.63237879 25.04141592 103.7187225 34.65625 123.89453125 C47.56369564 153.72423847 44.44827507 189.00791698 33.21484375 218.91015625 C24.79974573 240.14937755 12.8102255 258.58258711 -3 275 C-3.73863281 275.81339844 -4.47726562 276.62679688 -5.23828125 277.46484375 C-16.13311608 289.11654096 -32.09098417 297.77480798 -48.25 298.375 C-56.58818194 298.33367072 -64.15453889 295.54532448 -72 293 C-86.34462232 288.3880926 -98.52686904 291.1813471 -112.19555664 296.35595703 C-123.4778131 300.38282654 -135.94497354 298.02683393 -146.6328125 293.44140625 C-155.6070581 289.15129039 -162.56628814 283.47761967 -169.54052734 276.45214844 C-170.87536077 275.12401374 -172.25790976 273.8442838 -173.64453125 272.5703125 C-201.38811936 246.61804268 -216.32316147 204.35354629 -218.04467773 167.11938477 C-218.3700474 151.66837244 -215.3481465 137.04097428 -209 123 C-208.55914062 122.00742188 -208.11828125 121.01484375 -207.6640625 119.9921875 C-199.45834071 103.34358433 -182.96071264 89.55280431 -165.5625 83.625 C-145.08032261 77.21561116 -125.44715137 81.57352173 -106.2421875 89.73046875 C-103.45463928 90.82197859 -100.94611462 91.53862733 -98 92 C-102.68369106 71.28367414 -110.085753 51.96385059 -128 39 C-131.9336334 36.54087283 -135.93270481 34.23023353 -140 32 C-138.58323076 28.14947371 -136.79814024 24.79047335 -134.625 21.3125 C-134.03976562 20.35988281 -133.45453125 19.40726563 -132.8515625 18.42578125 C-131.00291019 16.00381272 -129.81066807 15.0586437 -127 14 C-110.4919466 25.5907609 -98.28282091 38.94747893 -89 57 C-88.72027344 56.05640625 -88.44054687 55.1128125 -88.15234375 54.140625 C-82.3796372 35.35903691 -72.24259588 20.64939247 -54.86181641 10.97705078 C-45.08763366 5.84771963 -34.88682197 2.8212661 -24 1 C-22.83791016 0.80277344 -22.83791016 0.80277344 -21.65234375 0.6015625 C-14.49657643 -0.38820719 -7.20603122 -0.08544701 0 0 Z " fill="#000000" transform="translate(421,1238)"/>
</svg>
