 <svg version="1.0" xmlns="http://www.w3.org/2000/svg" width="700.000000pt" height="700.000000pt" viewBox="0 0 700.000000 700.000000" preserveAspectRatio="xMidYMid meet">
<metadata>
Created by potrace 1.12, written by Peter Selinger 2001-2015
</metadata>
<g transform="translate(0.000000,700.000000) scale(0.100000,-0.100000)" fill="#000000" stroke="none">
<path d="M3799 6505 c-15 -8 -90 -85 -167 -172 -331 -374 -772 -762 -1098
-968 -92 -58 -307 -166 -404 -203 -64 -24 -236 -67 -330 -82 -85 -13 -263 -13
-352 1 -87 13 -179 54 -237 105 -53 46 -122 184 -142 283 -13 71 -8 218 12
296 25 97 110 217 193 270 70 44 101 53 226 66 215 24 355 -16 474 -135 73
-73 106 -146 114 -252 4 -69 3 -72 -28 -108 -38 -43 -121 -89 -153 -84 -18 2
-21 9 -19 33 9 103 6 152 -13 190 -25 50 -69 75 -143 82 -110 10 -169 -41
-197 -173 -12 -60 -12 -75 1 -121 19 -66 43 -96 97 -122 127 -62 438 20 498
130 36 67 27 242 -18 341 -18 41 -46 78 -95 123 -120 114 -240 156 -443 158
-195 1 -331 -49 -447 -167 -114 -114 -168 -251 -168 -425 0 -82 17 -201 31
-216 5 -5 9 -17 9 -28 0 -36 68 -163 115 -216 51 -55 170 -151 189 -151 6 0
24 -7 40 -15 45 -24 188 -45 298 -45 171 0 281 17 424 66 182 61 240 57 298
-19 l26 -34 0 -1704 c0 -1794 0 -1766 -44 -1976 -19 -87 -67 -198 -103 -235
-37 -39 -84 -52 -160 -44 -82 8 -103 17 -153 62 -61 56 -74 86 -73 181 0 68 5
91 27 136 33 67 33 80 -1 106 -50 40 -76 20 -167 -131 -128 -212 -328 -462
-528 -660 -113 -113 -168 -178 -168 -200 0 -4 9 -12 20 -18 23 -12 42 -5 110
47 120 92 287 138 531 147 222 8 325 35 491 129 114 64 162 118 331 369 156
233 224 321 385 497 86 94 238 223 300 255 43 22 41 44 -5 51 -55 9 -84 26
-105 60 -17 29 -18 102 -18 1830 l0 1801 138 136 c75 74 147 139 159 142 12 4
31 2 43 -4 l20 -11 0 -1984 0 -1985 23 -14 c12 -8 34 -18 50 -21 l27 -7 0
2006 0 2006 21 21 c18 18 30 21 95 17 60 -3 78 -8 96 -26 l23 -23 5 -1960 5
-1961 24 -19 c13 -10 34 -19 47 -19 l24 0 0 548 c0 513 1 554 20 642 28 130
69 210 149 292 79 79 128 98 260 98 103 0 136 -16 181 -86 25 -40 41 -102 45
-174 1 -36 -27 -133 -49 -168 -43 -68 -59 -77 -145 -77 -68 0 -76 2 -79 20 -1
11 13 45 33 75 43 66 44 98 7 138 -32 34 -86 49 -129 35 -42 -14 -81 -85 -89
-160 -13 -117 33 -202 124 -232 40 -13 48 -13 130 14 79 26 93 35 153 95 59
58 69 74 88 137 26 86 27 159 2 239 -31 102 -88 160 -193 194 -104 33 -263 9
-369 -56 -58 -35 -121 -98 -142 -141 -5 -13 -17 -23 -24 -23 -12 0 -14 31 -11
179 3 176 4 180 28 206 14 15 34 32 45 38 30 16 214 36 341 36 140 1 388 -26
432 -46 l32 -15 0 -592 c0 -526 -2 -594 -16 -614 -9 -13 -68 -62 -131 -109
-113 -85 -136 -112 -124 -145 3 -9 74 -78 156 -154 83 -75 206 -189 274 -253
117 -109 167 -151 183 -151 11 0 89 69 268 238 330 310 341 322 338 345 -2 16
-32 39 -107 84 -122 73 -181 126 -181 163 0 14 -6 32 -12 38 -10 10 -14 312
-16 1425 -1 777 0 1427 3 1445 5 27 37 64 156 180 170 166 214 220 225 276 6
34 5 38 -10 33 -9 -4 -239 -156 -512 -339 -273 -183 -525 -352 -562 -375 -98
-63 -104 -86 -33 -123 22 -11 46 -30 53 -43 19 -32 24 -741 6 -777 -36 -71
-247 -102 -542 -81 -190 14 -242 25 -262 56 -34 52 12 99 213 215 147 84 297
215 372 324 108 157 59 350 -105 417 -74 29 -182 24 -236 -11 -94 -63 -105
-201 -20 -265 41 -30 132 -28 166 4 36 34 37 99 1 132 -13 13 -25 34 -25 47 0
49 105 10 136 -51 24 -45 14 -107 -27 -161 -32 -42 -134 -129 -338 -288 -71
-56 -93 -68 -123 -68 -34 0 -38 3 -43 33 -3 17 -5 298 -3 622 3 642 1 622 60
646 34 14 68 3 141 -44 28 -19 122 -78 207 -130 257 -159 271 -168 283 -194 8
-18 8 -32 -1 -57 -18 -48 -16 -96 4 -96 20 0 169 101 824 558 36 25 137 96
225 157 252 176 256 178 246 188 -7 7 -53 -5 -216 -58 -22 -7 -69 -19 -105
-25 -36 -7 -72 -17 -81 -21 -35 -18 -331 -31 -452 -20 -112 10 -247 42 -324
77 -17 8 -36 14 -41 14 -6 0 -80 29 -164 65 -160 69 -308 144 -394 201 -97 64
-177 81 -235 49z"></path>
</g>
</svg>