 <svg version="1.0" xmlns="http://www.w3.org/2000/svg" width="700.000000pt" height="700.000000pt" viewBox="0 0 700.000000 700.000000" preserveAspectRatio="xMidYMid meet">
<metadata>
Created by potrace 1.12, written by Peter Selinger 2001-2015
</metadata>
<g transform="translate(0.000000,700.000000) scale(0.100000,-0.100000)" fill="#000000" stroke="none">
<path d="M3245 6900 c-314 -66 -587 -245 -774 -507 -245 -342 -308 -740 -180
-1126 66 -198 166 -372 291 -503 l68 -71 0 -109 c1 -187 34 -227 195 -228 l90
-1 3 60 c3 88 9 103 45 125 40 25 52 25 77 0 17 -17 20 -33 20 -125 l0 -105
60 0 60 0 0 100 c0 94 2 103 25 126 23 23 26 24 54 10 38 -20 41 -31 41 -142
l0 -95 63 3 62 3 5 97 c4 74 9 101 23 116 23 26 62 35 87 22 17 -9 20 -23 22
-123 l3 -112 38 -3 37 -3 0 93 c0 71 4 99 17 118 31 46 47 46 96 2 26 -25 27
-30 27 -119 l0 -93 54 0 54 0 4 101 c3 92 5 102 27 120 35 29 70 35 89 15 14
-13 17 -39 19 -124 l2 -107 63 -3 c76 -4 126 10 169 45 49 41 59 78 59 208 l0
115 71 82 c137 160 217 300 284 500 51 156 65 239 65 397 0 193 -30 326 -115
508 -175 374 -541 663 -938 738 -114 22 -347 19 -462 -5z m-207 -895 c172 -86
213 -220 125 -407 -75 -158 -174 -233 -308 -233 -91 0 -154 24 -199 76 -45 53
-60 110 -54 208 4 64 11 93 41 155 64 135 185 236 283 236 27 0 65 -12 112
-35z m1155 -39 c65 -31 134 -104 167 -173 12 -26 27 -83 33 -126 12 -95 -4
-147 -67 -215 -73 -79 -168 -108 -277 -82 -159 38 -238 137 -261 327 -10 89
-9 106 5 145 22 57 80 113 143 138 71 29 182 23 257 -14z m-644 -451 c94 -48
201 -274 201 -422 0 -71 -15 -110 -56 -142 -25 -19 -39 -21 -193 -21 -189 0
-213 7 -246 76 -17 35 -17 48 -7 131 21 164 96 325 175 373 38 24 87 26 126 5z"></path>
<path d="M1805 5018 c-104 -22 -193 -43 -197 -46 -4 -4 26 -117 67 -252 77
-252 83 -280 64 -280 -10 0 -157 81 -639 352 -96 54 -177 98 -181 98 -4 0 -47
-64 -95 -142 -48 -79 -93 -150 -101 -159 -21 -26 -16 -35 40 -63 181 -93 772
-423 771 -431 -1 -12 -17 -18 -286 -101 -120 -37 -223 -71 -229 -75 -8 -5 6
-60 47 -189 57 -179 58 -182 84 -176 14 3 218 57 454 121 237 63 438 115 447
115 16 0 991 -558 1012 -579 5 -5 -20 -26 -65 -52 -40 -23 -268 -157 -506
-296 l-433 -253 -462 125 c-253 69 -464 121 -468 117 -4 -4 -28 -79 -54 -167
-60 -203 -68 -235 -64 -239 2 -2 114 -29 249 -60 289 -68 280 -65 280 -75 0
-7 -46 -36 -533 -325 -171 -102 -297 -183 -294 -189 8 -22 198 -312 206 -315
4 -1 68 31 142 72 74 41 257 142 408 225 151 83 278 148 281 144 4 -5 -28
-125 -71 -267 -43 -143 -76 -263 -74 -267 3 -4 19 -9 37 -12 79 -11 309 -58
334 -67 15 -6 31 -7 35 -3 6 7 63 213 205 746 l48 178 65 37 c37 21 125 72
196 114 72 42 267 155 434 252 166 97 309 176 317 176 12 0 14 -91 14 -587 l0
-588 -337 -337 -337 -338 139 -142 c77 -79 141 -145 143 -147 1 -3 85 77 186
177 101 100 188 182 195 182 8 0 12 -131 13 -477 l3 -478 205 0 205 0 3 477
c1 263 5 478 9 478 5 0 89 -81 189 -181 l181 -181 149 145 149 146 -337 338
-338 338 0 588 c0 466 3 587 13 587 7 0 80 -40 162 -88 192 -113 258 -152 577
-337 l262 -152 38 -139 c131 -472 217 -774 223 -785 3 -4 18 -4 33 2 15 5 97
24 182 43 85 18 154 37 153 42 -1 5 -29 126 -62 268 -34 143 -59 262 -56 264
2 3 192 -97 421 -222 245 -134 420 -224 426 -218 14 14 199 315 195 318 -2 2
-321 195 -691 418 -66 40 -121 77 -124 84 -4 13 1 14 293 82 121 28 223 55
227 58 7 7 -107 391 -120 404 -4 4 -214 -49 -467 -117 l-459 -124 -451 261
c-609 353 -569 328 -553 343 7 7 137 84 288 171 151 86 372 213 490 281 118
67 224 123 236 123 11 0 153 -36 315 -81 541 -148 591 -161 600 -152 4 4 35
86 67 181 42 119 56 174 49 180 -6 4 -126 43 -265 87 -140 44 -254 84 -254 89
0 8 509 294 742 417 41 22 75 44 75 49 0 15 -189 329 -198 329 -4 1 -148 -77
-320 -173 -172 -95 -339 -188 -372 -206 -33 -18 -77 -42 -98 -53 -23 -13 -41
-17 -46 -11 -5 5 17 115 50 254 32 135 60 251 61 259 2 11 -42 25 -182 57
-102 23 -186 41 -187 41 -1 -2 -61 -217 -189 -677 -36 -129 -71 -240 -77 -247
-12 -11 -195 -120 -712 -423 -137 -81 -305 -179 -372 -218 -67 -40 -129 -72
-138 -72 -18 0 -151 77 -1056 609 l-176 103 -37 142 c-91 350 -213 780 -222
782 -5 1 -94 -16 -199 -38z"></path>
</g>
</svg>