<?xml version="1.0" encoding="UTF-8"?>
<svg version="1.1" xmlns="http://www.w3.org/2000/svg" width="2048" height="2048">
<path d="M0 0 C3.42504128 -0.03691661 6.83734172 0.01070899 10.26171875 0.08984375 C11.03257812 0.10241211 11.8034375 0.11498047 12.59765625 0.12792969 C88.95926808 1.54955544 163.64132279 29.44714239 222.17919922 78.37207031 C223.67987624 79.60990895 225.19662853 80.82835014 226.72314453 82.03417969 C233.83786154 87.6986237 240.30862015 93.82749885 246.70556641 100.27294922 C248.38486303 101.96297617 250.07460844 103.64202139 251.765625 105.3203125 C258.37712126 111.92328793 264.4719327 118.74228752 270.26171875 126.08984375 C271.30948935 127.36835864 272.35993496 128.64469003 273.4140625 129.91796875 C280.26836966 138.30264008 286.44571301 146.95805209 292.26171875 156.08984375 C292.91398437 157.09917969 293.56625 158.10851562 294.23828125 159.1484375 C327.26171875 211.40157215 327.26171875 211.40157215 327.26171875 228.08984375 C327.9487085 227.9290332 328.63569824 227.76822266 329.34350586 227.60253906 C374.05902641 217.2103037 417.62435428 212.80344413 463.26171875 219.08984375 C464.27379395 219.2290625 465.28586914 219.36828125 466.32861328 219.51171875 C512.18527305 226.09861053 555.92783565 244.21313317 592.26171875 273.08984375 C593.15761719 273.79367187 594.05351563 274.4975 594.9765625 275.22265625 C611.42987099 288.3947454 627.43709963 303.34346061 640.26171875 320.08984375 C641.17957586 321.25529627 642.09755216 322.42065492 643.015625 323.5859375 C654.45375095 338.28724351 664.43752774 354.13479121 672.29931641 371.03369141 C673.31974831 373.21382269 674.37463924 375.37549284 675.4296875 377.5390625 C702.21478686 433.54795648 705.12414824 494.66708072 695.3828125 554.9765625 C694.51650242 560.34094 693.79232745 565.6824045 693.26171875 571.08984375 C693.844375 571.42604736 694.42703125 571.76225098 695.02734375 572.10864258 C728.87000308 591.70053587 761.61348732 615.40669199 785.26171875 647.08984375 C785.67260742 647.62963867 786.08349609 648.16943359 786.50683594 648.72558594 C789.84809472 653.11813664 793.08343471 657.57815453 796.26171875 662.08984375 C796.69709961 662.70472656 797.13248047 663.31960938 797.58105469 663.953125 C840.27928105 724.9964885 855.56494896 805.01074068 842.76220703 877.93505859 C833.10666103 930.71454178 811.11756418 984.21617422 773.640625 1023.5703125 C771.71621425 1025.60848152 769.88196253 1027.67739801 768.0546875 1029.80078125 C763.89985979 1034.57027135 759.48544569 1039.05809816 755.01171875 1043.52734375 C754.1719751 1044.36628174 753.33223145 1045.20521973 752.46704102 1046.06958008 C746.65725729 1051.82216875 740.75154552 1057.11252206 734.26171875 1062.08984375 C733.55402344 1062.68796875 732.84632812 1063.28609375 732.1171875 1063.90234375 C718.51627003 1075.33568944 702.96792878 1084.83660626 687.26171875 1093.08984375 C686.63555664 1093.42145508 686.00939453 1093.75306641 685.36425781 1094.09472656 C666.38503617 1104.07509555 646.68666851 1111.62820995 626.26171875 1118.08984375 C626.34736084 1118.76974365 626.43300293 1119.44964355 626.52124023 1120.15014648 C626.91456895 1123.27579511 627.30690016 1126.40156819 627.69921875 1129.52734375 C627.9012793 1131.13125977 627.9012793 1131.13125977 628.10742188 1132.76757812 C628.37471456 1134.8994003 628.63862201 1137.03164962 628.89916992 1139.16430664 C629.11065251 1140.8708358 629.33058055 1142.57643461 629.5715332 1144.27905273 C633.87559737 1176.71031333 628.77772798 1210.58564599 621.26171875 1242.08984375 C621.03758301 1243.0329541 620.81344727 1243.97606445 620.58251953 1244.94775391 C617.5590698 1257.39788038 613.64003412 1269.12736905 608.31494141 1280.78076172 C607.26896997 1283.07394621 606.25486624 1285.37945473 605.2421875 1287.6875 C593.87797856 1313.09173821 577.89767146 1336.47673924 559.26171875 1357.08984375 C558.70339355 1357.70988281 558.14506836 1358.32992188 557.56982422 1358.96875 C546.64391696 1371.04427128 535.08357908 1382.01552492 522.26171875 1392.08984375 C521.7006543 1392.53408691 521.13958984 1392.97833008 520.56152344 1393.43603516 C481.85065942 1423.91744213 436.01915994 1442.58715598 387.26171875 1449.08984375 C386.39305176 1449.2069873 385.52438477 1449.32413086 384.62939453 1449.44482422 C344.99903021 1454.54936684 305.29140501 1449.17447467 266.91088867 1438.96948242 C265.97865479 1438.72431885 265.0464209 1438.47915527 264.0859375 1438.2265625 C263.27213623 1438.00701904 262.45833496 1437.78747559 261.61987305 1437.5612793 C258.98160826 1437.03384485 256.93791609 1436.70691128 254.26171875 1437.08984375 C252.33536355 1438.92116127 252.33536355 1438.92116127 250.80859375 1441.48046875 C249.88687378 1442.87749023 249.88687378 1442.87749023 248.9465332 1444.30273438 C248.30804443 1445.30498047 247.66955566 1446.30722656 247.01171875 1447.33984375 C245.66847191 1449.37749327 244.32343285 1451.41396252 242.9765625 1453.44921875 C242.33315918 1454.43083984 241.68975586 1455.41246094 241.02685547 1456.42382812 C237.66852527 1461.49616088 234.05496918 1466.33301271 230.26171875 1471.08984375 C229.46894531 1472.08628906 228.67617187 1473.08273437 227.859375 1474.109375 C221.23113403 1482.21327751 213.90554069 1489.62956602 206.51171875 1497.02734375 C206.01621521 1497.5238443 205.52071167 1498.02034485 205.01019287 1498.53189087 C195.56794022 1507.97199533 185.69186577 1516.52491626 175.12060547 1524.65917969 C173.9163845 1525.58599016 172.71471261 1526.51612602 171.51611328 1527.45019531 C153.61365855 1541.35116414 133.49443417 1552.00581882 113.26171875 1562.08984375 C112.54258301 1562.45384277 111.82344727 1562.8178418 111.08251953 1563.19287109 C86.69161957 1575.39129195 58.9874545 1583.22121939 32.26171875 1588.08984375 C30.94276611 1588.33420166 30.94276611 1588.33420166 29.59716797 1588.58349609 C-58.20712263 1604.41371892 -149.60191269 1580.4255229 -222.42919922 1530.23535156 C-232.62635965 1523.03939429 -242.40838674 1515.37994057 -251.73828125 1507.08984375 C-252.45556396 1506.45796143 -253.17284668 1505.8260791 -253.91186523 1505.17504883 C-260.71318655 1499.12965566 -267.23912728 1492.83040254 -273.67578125 1486.40234375 C-274.20497162 1485.87416046 -274.73416199 1485.34597717 -275.27938843 1484.80178833 C-283.07969709 1476.99144996 -290.30350835 1469.06987784 -296.73828125 1460.08984375 C-297.59959347 1458.9532429 -298.46429531 1457.81920428 -299.33203125 1456.6875 C-309.0859727 1443.85308842 -317.87312747 1430.15822693 -325.73828125 1416.08984375 C-331.52840298 1416.66707069 -337.21349946 1417.47955032 -342.94140625 1418.49902344 C-403.06109741 1429.14193997 -462.83075675 1421.40905301 -518.73828125 1397.08984375 C-519.90738037 1396.59000977 -519.90738037 1396.59000977 -521.10009766 1396.08007812 C-549.8502305 1383.68988034 -575.73550361 1365.12980953 -598.73828125 1344.08984375 C-599.75325502 1343.17896133 -600.76890751 1342.26883475 -601.78515625 1341.359375 C-606.77657305 1336.8720711 -611.60649095 1332.37250758 -615.921875 1327.21484375 C-618.1494527 1324.60881737 -620.50952561 1322.14495403 -622.86328125 1319.65234375 C-634.31510967 1307.28810616 -644.00346718 1293.47137643 -652.73828125 1279.08984375 C-653.25922363 1278.23680664 -653.78016602 1277.38376953 -654.31689453 1276.50488281 C-663.12132983 1261.93977898 -669.94769261 1247.08122185 -675.73828125 1231.08984375 C-676.1029248 1230.09339844 -676.46756836 1229.09695313 -676.84326172 1228.0703125 C-700.8374296 1161.76863719 -699.00647431 1088.80517687 -673.73828125 1023.08984375 C-673.40828125 1022.42984375 -673.07828125 1021.76984375 -672.73828125 1021.08984375 C-673.54394531 1020.8475 -674.34960938 1020.60515625 -675.1796875 1020.35546875 C-705.67628363 1009.50925893 -734.58409175 988.15803803 -758.19140625 966.41796875 C-760.32039511 964.47183783 -762.47984778 962.58410943 -764.67578125 960.71484375 C-773.95120327 952.6178565 -782.13672733 943.7621658 -789.73828125 934.08984375 C-790.5958758 933.04411025 -791.45532536 931.99989589 -792.31640625 930.95703125 C-804.32226886 916.27020582 -813.9341994 899.85322696 -822.73828125 883.08984375 C-823.11549316 882.38021484 -823.49270508 881.67058594 -823.88134766 880.93945312 C-841.60665207 847.16379721 -851.75858753 806.4532322 -851.94140625 768.359375 C-851.94846588 767.37415359 -851.95552551 766.38893219 -851.96279907 765.37385559 C-852.19109079 724.1846361 -852.19109079 724.1846361 -848.73828125 707.08984375 C-848.53428711 706.06455566 -848.33029297 705.03926758 -848.12011719 703.98291016 C-843.31634039 680.49894454 -836.34540849 658.04165897 -826.73828125 636.08984375 C-826.4124707 635.33509766 -826.08666016 634.58035156 -825.75097656 633.80273438 C-815.24988398 609.66654438 -800.20992096 587.70453438 -782.73828125 568.08984375 C-781.86816406 567.10886719 -780.99804688 566.12789062 -780.1015625 565.1171875 C-770.548885 554.53254192 -760.71444387 544.13355224 -749.5 535.29296875 C-747.51840902 533.71218047 -745.59953241 532.11758665 -743.6953125 530.44921875 C-735.82334157 523.56290915 -727.59429977 517.64818792 -718.73828125 512.08984375 C-717.86163818 511.53780273 -717.86163818 511.53780273 -716.96728516 510.97460938 C-699.89718507 500.30639535 -681.95939625 489.69550798 -662.8671875 483.09765625 C-662.16464844 482.76507812 -661.46210937 482.4325 -660.73828125 482.08984375 C-659.59486317 478.65958952 -659.79304063 476.47067501 -660.078125 472.875 C-660.17158203 471.63041016 -660.26503906 470.38582031 -660.36132812 469.10351562 C-660.46509766 467.79962891 -660.56886719 466.49574219 -660.67578125 465.15234375 C-666.07978032 396.50412331 -644.49644121 325.63247717 -600.35742188 272.42529297 C-598.58624084 270.36646664 -596.76434041 268.36380775 -594.8984375 266.390625 C-593.04012009 264.41133214 -591.26220284 262.3940565 -589.48828125 260.33984375 C-579.57267786 248.97208169 -568.78549451 238.39196398 -556.61181641 229.46728516 C-554.55955251 227.95844063 -552.53058368 226.42069109 -550.5 224.8828125 C-540.38341739 217.30781804 -529.95514865 210.89649124 -518.73828125 205.08984375 C-518.06055664 204.73583496 -517.38283203 204.38182617 -516.68457031 204.01708984 C-449.15070569 168.89882105 -375.10301763 161.79604367 -301.51220703 180.69433594 C-299.7158498 181.16238145 -299.7158498 181.16238145 -297.73828125 181.08984375 C-297.41778809 180.47278564 -297.09729492 179.85572754 -296.76708984 179.2199707 C-283.65125974 154.11802561 -268.62430433 131.4965327 -249.265625 110.8046875 C-246.9703451 108.33912408 -244.7594966 105.82008032 -242.55078125 103.27734375 C-232.95134539 92.59215482 -222.04072017 82.92659687 -210.73828125 74.08984375 C-209.80628906 73.33960938 -208.87429688 72.589375 -207.9140625 71.81640625 C-148.37791922 24.7058601 -75.37189665 1.81144579 0 0 Z M-195.73828125 121.08984375 C-196.31803711 121.61916504 -196.89779297 122.14848633 -197.49511719 122.69384766 C-225.3854085 148.1723559 -246.63912968 178.88034935 -263.05078125 212.83984375 C-266.9768594 220.77973364 -271.2449931 225.57631285 -279.67578125 228.83984375 C-286.56741925 229.67519381 -292.53051022 228.67985282 -299.1875 227.0078125 C-300.08080521 226.79296707 -300.97411041 226.57812164 -301.89448547 226.35676575 C-305.67367749 225.44771247 -309.44774685 224.51824439 -313.22192383 223.58862305 C-367.87215791 210.19400495 -429.37888791 210.57589629 -480.73828125 236.08984375 C-481.60275879 236.51394531 -482.46723633 236.93804687 -483.35791016 237.375 C-507.25970829 249.18810691 -528.45200024 263.70452769 -547.73828125 282.08984375 C-548.46660156 282.77691406 -549.19492187 283.46398437 -549.9453125 284.171875 C-587.45682834 320.49959547 -614.56812151 377.97725521 -615.89941406 430.38671875 C-615.91896292 431.87103102 -615.93274663 433.35542801 -615.94140625 434.83984375 C-615.94819397 435.64800034 -615.95498169 436.45615692 -615.9619751 437.2888031 C-615.97885011 439.88918979 -615.98516785 442.48940592 -615.98828125 445.08984375 C-615.99061768 445.97713165 -615.9929541 446.86441956 -615.99536133 447.77859497 C-616.00823591 460.75134204 -615.34380625 473.304521 -613.39453125 486.1484375 C-612.44745577 492.61322981 -611.82664984 499.07155085 -614.23828125 505.27734375 C-614.51671875 506.05464844 -614.79515625 506.83195312 -615.08203125 507.6328125 C-620.26036364 515.31481974 -629.12408191 518.16400617 -637.42578125 521.33984375 C-655.6735249 528.56162236 -673.10323251 536.64707338 -689.73828125 547.08984375 C-690.37427246 547.4863916 -691.01026367 547.88293945 -691.66552734 548.29150391 C-706.56864968 557.66301687 -720.04545202 568.91797378 -732.73828125 581.08984375 C-733.29757324 581.6219043 -733.85686523 582.15396484 -734.43310547 582.70214844 C-743.0365089 590.92818879 -750.67307092 599.51511785 -757.73828125 609.08984375 C-758.16592773 609.66202637 -758.59357422 610.23420898 -759.03417969 610.82373047 C-765.54758002 619.56332327 -771.35092077 628.61790183 -776.73828125 638.08984375 C-777.10276367 638.72164551 -777.46724609 639.35344727 -777.84277344 640.00439453 C-807.62090615 692.03070848 -815.3543757 756.98664549 -800.48828125 814.90234375 C-793.44651955 840.40716091 -782.69901095 865.22369877 -767.73828125 887.08984375 C-767.33399902 887.68796875 -766.9297168 888.28609375 -766.51318359 888.90234375 C-754.03070029 907.26737666 -738.82860761 924.89574063 -721.73828125 939.08984375 C-720.99989014 939.70472656 -720.99989014 939.70472656 -720.24658203 940.33203125 C-697.37899185 959.22416808 -671.38940479 974.38585107 -644.17578125 986.0546875 C-643.44858887 986.36744629 -642.72139648 986.68020508 -641.97216797 987.00244141 C-640.61825001 987.58018413 -639.2607403 988.14962069 -637.89892578 988.70849609 C-632.02283121 991.18584135 -627.8694713 993.97698442 -624.92578125 999.71484375 C-624.29736328 1000.87886719 -624.29736328 1000.87886719 -623.65625 1002.06640625 C-620.87389839 1011.23040688 -623.64664922 1018.57887044 -627.23828125 1027.08984375 C-636.52716099 1050.27078119 -642.66579961 1073.5043868 -646.73828125 1098.08984375 C-646.88523437 1098.96543945 -647.0321875 1099.84103516 -647.18359375 1100.74316406 C-656.53932695 1159.14184977 -638.29300851 1223.48987364 -604.24072266 1271.1875 C-599.18242475 1278.03398193 -593.66766803 1284.4845565 -587.8984375 1290.7421875 C-586.46732576 1292.2975187 -585.05790462 1293.87311287 -583.671875 1295.46875 C-573.2732751 1307.39937199 -561.37995983 1317.62111905 -548.73828125 1327.08984375 C-547.9198877 1327.70956055 -547.9198877 1327.70956055 -547.08496094 1328.34179688 C-517.73019609 1350.4586406 -481.77779948 1367.66590751 -445.48828125 1374.21484375 C-444.58625977 1374.38024658 -443.68423828 1374.54564941 -442.75488281 1374.71606445 C-403.49279895 1381.73902986 -362.1617273 1380.34400514 -323.671875 1369.5769043 C-316.70552351 1367.72431884 -310.27151928 1367.40425083 -303.86328125 1371.08984375 C-302.83203125 1371.74984375 -301.80078125 1372.40984375 -300.73828125 1373.08984375 C-299.74828125 1373.41984375 -298.75828125 1373.74984375 -297.73828125 1374.08984375 C-296.69140625 1375.88745117 -296.69140625 1375.88745117 -295.73828125 1378.08984375 C-289.36864793 1390.21320609 -282.59451165 1401.8744173 -274.73828125 1413.08984375 C-274.24650391 1413.79802246 -273.75472656 1414.50620117 -273.24804688 1415.23583984 C-264.99126048 1427.12115752 -256.52638778 1438.40906191 -246.73828125 1449.08984375 C-245.88105469 1450.05148437 -245.02382813 1451.013125 -244.140625 1452.00390625 C-224.13156092 1474.38002479 -199.48859865 1492.81655438 -173.73828125 1508.08984375 C-173.06958008 1508.49267578 -172.40087891 1508.89550781 -171.71191406 1509.31054688 C-106.83130815 1548.1343139 -27.59589544 1557.98228172 45.26171875 1540.08984375 C59.64263464 1536.1936259 73.68527562 1531.2218022 87.26171875 1525.08984375 C88.55577637 1524.51242432 88.55577637 1524.51242432 89.87597656 1523.92333984 C129.30100669 1506.19101464 166.20480881 1479.00869875 193.26171875 1445.08984375 C194.18556968 1443.97756053 195.11143747 1442.86695015 196.0390625 1441.7578125 C205.45996232 1430.39413607 213.48878736 1418.15221439 221.0234375 1405.46875 C230.1360956 1390.18715364 230.1360956 1390.18715364 238.8515625 1387.203125 C248.05351407 1384.97039341 255.57064796 1388.46795711 264.23291016 1391.48706055 C307.37013817 1406.40275422 352.24033778 1412.48128361 397.26171875 1403.08984375 C398.1110498 1402.91324219 398.96038086 1402.73664063 399.83544922 1402.5546875 C418.9494025 1398.39361724 438.13552819 1391.54551297 455.30322266 1382.15966797 C457.43933111 1380.99282339 459.59036509 1379.8563318 461.7421875 1378.71875 C479.43204807 1369.25161948 494.78124144 1357.34447742 509.4375 1343.66796875 C511.40448952 1341.87237666 513.36554764 1340.16042662 515.421875 1338.4765625 C517.64913947 1336.60467999 519.52125812 1334.8592958 521.38671875 1332.65234375 C523.55349718 1330.09983114 525.72651712 1327.55897125 527.953125 1325.05859375 C570.67626628 1276.75114551 589.19143634 1213.50181305 585.51660156 1149.70214844 C584.71582124 1138.35315831 582.97103767 1127.33688285 580.07421875 1116.33984375 C577.64029351 1107.08156659 577.15695318 1099.91675834 581.26171875 1091.08984375 C587.65293863 1081.0188306 600.2273632 1078.69183674 611.03027344 1075.58422852 C653.07997711 1063.41630245 688.57385201 1043.04195429 721.26171875 1014.08984375 C721.77637695 1013.63834961 722.29103516 1013.18685547 722.82128906 1012.72167969 C728.75818756 1007.50626594 734.26682427 1002.21163515 739.26171875 996.08984375 C739.68001953 995.5892041 740.09832031 995.08856445 740.52929688 994.57275391 C783.84731787 942.68451249 807.38780278 875.99319903 801.43676758 808.26000977 C799.30781935 786.70817225 795.67625143 765.48417011 788.26171875 745.08984375 C787.98521484 744.31576172 787.70871094 743.54167969 787.42382812 742.74414062 C779.86398597 721.87351544 769.63161501 701.83453897 756.26171875 684.08984375 C755.60937256 683.2086084 755.60937256 683.2086084 754.94384766 682.30957031 C748.19214987 673.22564964 740.71842442 664.90839681 732.87060547 656.76171875 C731.45099912 655.28653449 730.04475321 653.79851817 728.640625 652.30859375 C722.53433711 645.97169071 715.83784046 640.65796628 708.86035156 635.33447266 C706.7279322 633.67425978 704.69221745 631.90641773 702.63671875 630.15234375 C690.74082656 620.64339241 676.69762808 613.57276115 663.15307617 606.74291992 C654.77805427 602.48257208 649.03977409 597.91053113 644.94921875 589.33984375 C643.05961982 580.40719427 644.6574894 572.2552322 647.01171875 563.58984375 C651.53653128 545.88562757 654.81330505 527.39682052 655.26171875 509.08984375 C655.28218262 508.26049316 655.30264648 507.43114258 655.32373047 506.57666016 C656.64720211 443.60784823 637.09659872 382.32444343 593.26171875 336.08984375 C592.19378192 334.82357579 591.1309917 333.55294343 590.07421875 332.27734375 C579.89871493 320.65159289 567.84766543 310.96011748 555.26171875 302.08984375 C554.62733887 301.64125 553.99295898 301.19265625 553.33935547 300.73046875 C523.1006614 279.52674411 487.47993607 268.12732888 451.26171875 262.08984375 C450.54322754 261.9599707 449.82473633 261.83009766 449.08447266 261.69628906 C410.59630773 254.84840724 370.34147365 262.78141008 333.23046875 272.7578125 C331.57437375 273.2024007 329.91813282 273.64644579 328.26171875 274.08984375 C327.51140381 274.2906958 326.76108887 274.49154785 325.98803711 274.69848633 C317.45911156 276.91701584 310.34474218 276.82518033 302.26171875 273.08984375 C292.63166608 267.23628232 289.79102836 254.93236022 286.13671875 244.90234375 C273.48286061 210.3313544 254.65857294 176.74430547 229.5625 149.6015625 C227.69085007 147.55831818 225.87755387 145.48611601 224.0703125 143.38671875 C213.85753186 131.68784672 202.64509696 120.47943822 190.26171875 111.08984375 C188.97932383 110.08088058 187.69817644 109.0703307 186.41796875 108.05859375 C108.66198889 47.04769734 5.03282525 29.419139 -195.73828125 121.08984375 Z " fill="#000000" transform="translate(1035.73828125,101.91015625)"/>
<path d="M0 0 C11.31053667 9.98818242 22.76307217 21.93035209 27.94140625 36.4296875 C29.75100336 33.71529183 30.99218855 31.08248967 32.24951172 28.08642578 C38.45211026 13.31521804 46.77604511 -2.8753144 60.94140625 -11.5703125 C64.37431827 -12.18790283 65.61592678 -11.78550957 68.546875 -9.84765625 C76.39782472 -2.73310423 76.39782472 -2.73310423 77.94140625 0.9921875 C77.94140625 6.24279561 75.37718783 8.6625018 71.94140625 12.4296875 C71.2040625 13.26113281 70.46671875 14.09257813 69.70703125 14.94921875 C67.46659406 17.45655366 65.20891284 19.94683112 62.94140625 22.4296875 C49.30778398 37.36174999 44.62556132 56.34375686 39.94140625 75.4296875 C41.05773438 75.45546875 42.1740625 75.48125 43.32421875 75.5078125 C96.32293476 77.22448633 144.37961997 100.95511886 181.94140625 137.4296875 C182.53864502 138.0064624 183.13588379 138.5832373 183.7512207 139.17749023 C187.55855078 142.90940718 191.00374986 146.768578 194.25390625 150.9921875 C194.71974121 151.59369629 195.18557617 152.19520508 195.66552734 152.81494141 C197.10025404 154.67955239 198.5230731 156.55258364 199.94140625 158.4296875 C200.3792041 159.0067041 200.81700195 159.5837207 201.26806641 160.17822266 C233.90209484 203.51274467 247.2179705 259.97864572 239.84765625 313.390625 C234.41839464 350.35406775 220.24724145 388.25812433 194.94140625 416.4296875 C194.28760986 417.16155273 194.28760986 417.16155273 193.62060547 417.90820312 C188.86233557 423.21930779 183.99256111 428.39517565 178.94140625 433.4296875 C178.4 434.0175 177.85859375 434.6053125 177.30078125 435.2109375 C170.37675483 442.60552883 162.07272156 448.44831481 153.94140625 454.4296875 C153.35133789 454.86490723 152.76126953 455.30012695 152.15332031 455.74853516 C121.38806773 478.25054471 82.01953306 492.42132241 43.71875 492.6328125 C42.86392029 492.63982681 42.00909058 492.64684113 41.12835693 492.65406799 C38.37848594 492.67149649 35.62883048 492.67792202 32.87890625 492.6796875 C31.93866608 492.68036224 30.9984259 492.68103699 30.0296936 492.68173218 C2.31448884 492.6501373 -24.35600032 489.24489806 -50.05859375 478.4296875 C-50.82494141 478.11547852 -51.59128906 477.80126953 -52.38085938 477.47753906 C-65.49120625 472.06467403 -77.37437293 465.45807966 -89.05859375 457.4296875 C-89.8568457 456.88151367 -90.65509766 456.33333984 -91.47753906 455.76855469 C-102.60404883 448.03672474 -112.71367584 439.59671585 -122.36474609 430.09277344 C-123.86716438 428.61764035 -125.39291767 427.16635762 -126.921875 425.71875 C-142.96142139 410.30282517 -154.80008402 390.5217178 -164.05859375 370.4296875 C-164.5896875 369.2953125 -165.12078125 368.1609375 -165.66796875 366.9921875 C-187.48392202 318.41233279 -187.9186366 261.16237744 -169.60009766 211.53491211 C-168.16885233 207.79722599 -166.63508852 204.10817529 -165.05859375 200.4296875 C-164.56601074 199.27388184 -164.56601074 199.27388184 -164.06347656 198.09472656 C-153.91607853 174.64874422 -138.61460172 154.7963625 -121.05859375 136.4296875 C-120.42308594 135.75292969 -119.78757812 135.07617188 -119.1328125 134.37890625 C-82.78775867 96.64597447 -31.36185454 80.68756396 18.94140625 73.4296875 C21.41640625 62.5396875 21.41640625 62.5396875 23.94140625 51.4296875 C21.44578125 52.2134375 18.95015625 52.9971875 16.37890625 53.8046875 C-9.20449989 61.48834822 -36.14697445 59.85364634 -59.9296875 47.4609375 C-69.15556496 42.3835932 -76.7104647 35.91997515 -84.05859375 28.4296875 C-84.94289063 27.5325 -85.8271875 26.6353125 -86.73828125 25.7109375 C-95.45134377 16.48214854 -110.05859375 0.94649085 -110.05859375 -12.5703125 C-73.14062919 -24.39340748 -31.35464849 -26.34911712 0 0 Z M177.31640625 222.46484375 C174.94545854 225.85287415 175.82903567 229.92504936 176.05859375 233.89257812 C176.21296598 238.2192886 175.74240789 240.17168033 172.94140625 243.4296875 C173.07664464 247.2652783 173.07664464 247.2652783 174.94140625 250.4296875 C177.31362581 250.93103949 177.31362581 250.93103949 179.94140625 250.4296875 C184.82017238 245.55092137 186.23015731 240.70605291 186.25390625 233.9296875 C186.27066406 232.82625 186.28742188 231.7228125 186.3046875 230.5859375 C185.90292859 227.09538698 185.02595523 225.22937372 182.94140625 222.4296875 C180.50293236 221.21045056 179.63697811 220.98659485 177.31640625 222.46484375 Z M198.94140625 263.4296875 C197.95140625 264.0896875 196.96140625 264.7496875 195.94140625 265.4296875 C195.65206301 268.15927342 195.65206301 268.15927342 195.87890625 271.2421875 C196.0915346 275.63105477 195.69216176 278.41444128 193.94140625 282.4296875 C193.77382868 285.63838983 193.77382868 285.63838983 193.94140625 288.4296875 C195.92140625 289.4196875 195.92140625 289.4196875 197.94140625 290.4296875 C203.04321389 284.65658938 205.38279745 280.50688949 205.19921875 272.65234375 C204.82395679 269.41713076 203.75191543 267.11192332 201.94140625 264.4296875 C200.95140625 264.0996875 199.96140625 263.7696875 198.94140625 263.4296875 Z M163.94140625 288.4296875 C161.81682807 291.61655478 161.71153396 292.63184004 161.56640625 296.3046875 C161.21428466 300.97707009 159.94388288 302.82671555 156.94140625 306.4296875 C157.07758197 309.67262334 157.07758197 309.67262334 157.94140625 312.4296875 C160.18124125 313.37989166 160.18124125 313.37989166 162.94140625 313.4296875 C167.39779374 309.69875844 170.15190655 306.21935196 170.94140625 300.4296875 C171.29278281 295.51041571 171.21282312 292.28528595 167.94140625 288.4296875 C166.62140625 288.4296875 165.30140625 288.4296875 163.94140625 288.4296875 Z M189.94140625 323.4296875 C189.28425191 326.43382163 188.85006802 329.37308722 188.56640625 332.4296875 C188.14870415 336.07944521 186.88425091 338.30424175 184.94140625 341.4296875 C184.52359746 344.05663172 184.52359746 344.05663172 184.94140625 346.4296875 C185.60140625 347.0896875 186.26140625 347.7496875 186.94140625 348.4296875 C189.40790823 348.48814559 189.40790823 348.48814559 191.94140625 347.4296875 C196.93636127 342.14930648 198.35994164 337.97880991 198.19140625 330.84765625 C197.86042296 327.64642721 197.19003057 325.75585059 194.94140625 323.4296875 C192.31446203 323.01187871 192.31446203 323.01187871 189.94140625 323.4296875 Z M104.94140625 329.4296875 C104.42578125 330.6259375 103.91015625 331.8221875 103.37890625 333.0546875 C101.39867915 337.08637289 99.03143156 339.38555772 95.4296875 342.0078125 C93.60017865 343.75568972 93.23529869 344.93907361 92.94140625 347.4296875 C93.27140625 348.0896875 93.60140625 348.7496875 93.94140625 349.4296875 C97.91856664 349.74786033 100.4379888 349.67132788 104.06640625 347.9296875 C108.83030799 343.78716425 111.71007399 339.85867618 112.31640625 333.4921875 C112.2763735 330.55934743 112.2763735 330.55934743 110.94140625 329.4296875 C108.94182261 329.38887967 106.94095371 329.38714394 104.94140625 329.4296875 Z M154.18359375 348.4375 C151.00173869 349.84549858 148.27281601 349.54514169 144.81640625 349.4296875 C141.16507764 349.26229289 141.16507764 349.26229289 137.94140625 349.4296875 C137.28140625 350.0896875 136.62140625 350.7496875 135.94140625 351.4296875 C135.86564747 354.47607577 135.86564747 354.47607577 136.94140625 357.4296875 C142.46860189 360.33413653 149.11691578 360.43758571 155.10546875 358.859375 C158.16134232 357.62402185 161.23438636 356.31028357 162.94140625 353.4296875 C162.70857476 350.28046841 162.70857476 350.28046841 161.94140625 347.4296875 C157.89840164 347.13304211 157.89840164 347.13304211 154.18359375 348.4375 Z M112.94140625 376.4296875 C111.00733487 379.33079457 110.67267243 380.40249402 110.19140625 383.6796875 C109.28533952 388.29239085 107.33762282 390.53461629 104.140625 393.85546875 C102.63043572 395.48996347 102.63043572 395.48996347 103.06640625 398.3671875 C103.74348958 400.62760417 103.74348958 400.62760417 106.00390625 401.3046875 C109.38935885 401.44874931 109.94281372 401.0399576 112.50390625 398.9921875 C117.468832 394.28743253 120.12819026 389.45225007 120.31640625 382.5546875 C120.27608275 379.0643381 120.27608275 379.0643381 117.94140625 376.4296875 C115.44140625 376.01302083 115.44140625 376.01302083 112.94140625 376.4296875 Z M56.94140625 386.4296875 C56.96316386 391.32515052 57.17485046 395.23213431 60.62890625 398.9296875 C63.58213375 401.46507226 65.95317275 402.60308896 69.94140625 402.4296875 C72.33936006 400.61681555 72.33936006 400.61681555 73.94140625 398.4296875 C72.53898711 393.52122049 69.89433617 391.51297284 65.94140625 388.4296875 C65.19890625 387.6665625 64.45640625 386.9034375 63.69140625 386.1171875 C60.84944646 383.37672628 60.21324284 384.24846311 56.94140625 386.4296875 Z M157.69140625 388.3046875 C154.12078552 391.70793539 150.99780198 392.34858551 146.17578125 392.91015625 C143.54047482 393.52291107 142.53555669 394.26395022 140.94140625 396.4296875 C141.18345974 399.74787735 141.18345974 399.74787735 142.94140625 402.4296875 C150.79686058 403.05313626 157.66131301 401.88218459 163.94140625 396.81640625 C165.60374127 395.08095927 166.85754945 393.57434032 167.94140625 391.4296875 C167.98526321 388.08372814 167.98526321 388.08372814 166.94140625 385.4296875 C162.60801113 384.79553212 160.72597097 385.33499471 157.69140625 388.3046875 Z M109.87890625 426.2421875 C106.0123376 429.12154713 102.25493114 429.74004603 97.5859375 430.71875 C94.80889181 431.22934474 94.80889181 431.22934474 92.94140625 433.4296875 C92.52473958 435.9296875 92.52473958 435.9296875 92.94140625 438.4296875 C96.95874868 441.10791579 99.40916275 440.55827011 104.08203125 440.0390625 C108.42446126 439.1136266 111.50309722 437.16580666 114.94140625 434.4296875 C115.78703125 433.7696875 116.63265625 433.1096875 117.50390625 432.4296875 C119.2320322 430.474594 119.2320322 430.474594 118.75390625 427.7421875 C118.15213726 425.49617483 118.15213726 425.49617483 116.94140625 424.4296875 C113.67045625 423.97538889 112.40310848 424.02394918 109.87890625 426.2421875 Z M42.94140625 439.4296875 C41.63997709 443.09011442 41.63997709 443.09011442 41.94140625 446.4296875 C42.60140625 447.0896875 43.26140625 447.7496875 43.94140625 448.4296875 C48.57016111 448.4296875 51.06754599 445.87235973 54.29296875 442.90234375 C55.94140625 441.4296875 55.94140625 441.4296875 58.94140625 439.4296875 C59.27481096 436.38773323 59.27481096 436.38773323 58.94140625 433.4296875 C57.80833086 432.10196895 57.80833086 432.10196895 54.87890625 431.9296875 C49.37669088 432.62838152 46.36651076 435.1399935 42.94140625 439.4296875 Z " fill="#000000" transform="translate(1439.05859375,591.5703125)"/>
<path d="M0 0 C1.08425752 31.93972433 -4.39484177 58.93487895 -26.0546875 83.3125 C-45.28723693 103.60178291 -72.75075812 112.54405974 -100 115 C-101.99961227 115.03937967 -104.00083693 115.05785359 -106 115 C-112.42711057 97.66472568 -105.56519718 74.53286948 -98.40234375 58.3125 C-94.87730818 50.68851474 -90.54540643 44.28410034 -85 38 C-84.32324219 37.18015625 -83.64648438 36.3603125 -82.94921875 35.515625 C-63.28266716 12.36158619 -30.0148873 -0.54352915 0 0 Z " fill="#000000" transform="translate(732,574)"/>
<path d="M0 0 C27.89711178 17.04598557 45.12655657 48.75436965 52.69140625 79.70703125 C59.06476013 107.05132309 59.06476013 107.05132309 59 120 C71.10369343 118.09532078 82.44796189 114.85643039 94.0625 111 C128.87606315 99.4660337 164.08658762 95.92957715 197.98022461 112.81884766 C226.75179733 127.90714826 249.05010307 154.94375371 258.98803711 185.84399414 C279.59547391 253.5744543 264.11981946 330.78105555 231.70629883 392.29907227 C222.9421435 408.60595186 212.77309908 423.72583724 201 438 C200.52594727 438.58233398 200.05189453 439.16466797 199.56347656 439.76464844 C180.33495845 463.30898625 156.73267993 481.63763004 125.69140625 485.671875 C106.76603983 487.35412979 90.07334671 484.12538788 71.74560547 479.42138672 C53.01917321 474.62822612 37.3386088 477.38366709 18.84765625 482.2734375 C-5.85654727 488.71854062 -32.75951342 487.12348449 -55.75 475.25 C-109.48275933 443.75148591 -141.58820588 379.14107884 -156.73095703 321.22631836 C-159.18009901 311.54295851 -161.41006113 301.86350963 -163 292 C-163.22429687 290.61167969 -163.22429687 290.61167969 -163.453125 289.1953125 C-167.46291805 263.13165768 -168.43234772 234.92711413 -163 209 C-162.82307617 208.12359863 -162.64615234 207.24719727 -162.46386719 206.34423828 C-155.22433011 171.17809314 -137.17266484 139.82026381 -106.97460938 119.64697266 C-92.88792926 110.54739977 -78.55155038 104.86551389 -62 102 C-60.72125 101.773125 -59.4425 101.54625 -58.125 101.3125 C-31.08178665 98.63664521 -5.06433692 106.4010846 20.28564453 114.95825195 C27.06441025 117.19305382 34.01212555 118.57949373 41 120 C36.59124391 102.07748763 31.84880111 84.78116599 24 68 C23.66500488 67.28295898 23.33000977 66.56591797 22.98486328 65.82714844 C16.50081358 52.25227884 7.60638659 39.48933185 -4.47265625 30.34765625 C-5.10204102 29.86828613 -5.73142578 29.38891602 -6.37988281 28.89501953 C-7.64297471 27.94243506 -8.91679814 27.00387314 -10.20214844 26.08154297 C-13.15338309 23.87497468 -14.83227087 22.31723583 -16.58203125 19.0078125 C-17.11094331 15.20162289 -16.33629789 13.70478061 -14.375 10.4375 C-13.52808594 9.01630859 -13.52808594 9.01630859 -12.6640625 7.56640625 C-6.51545229 -1.9163095 -6.51545229 -1.9163095 0 0 Z " fill="#000000" transform="translate(565,598)"/>
<path d="M0 0 C3.20074384 1.40547052 5.34964769 3.73498088 7.75469971 6.19876099 C8.29838699 6.74361649 8.84207428 7.28847198 9.40223694 7.84983826 C11.19963598 9.65442873 12.98627678 11.46930448 14.77325439 13.28421021 C16.02559535 14.5446925 17.27867889 15.80443741 18.5324707 17.06347656 C21.83697795 20.38511664 25.13283212 23.71520598 28.42651367 27.0475769 C33.68154531 32.36171632 38.9490815 37.66345017 44.21749115 42.96432114 C46.04808239 44.80875337 47.87472711 46.65702163 49.70080566 48.50592041 C54.76390385 53.61975421 59.82196978 58.63013655 65.30477905 63.29864502 C69.18856872 66.71996382 72.76997108 70.45962998 76.40216064 74.14358521 C78.13966043 75.8937147 79.87729448 77.6437109 81.61505127 79.39358521 C84.32716542 82.13064004 87.03764387 84.86927883 89.7456665 87.61038208 C92.37683323 90.27161793 95.01407492 92.92671062 97.65216064 95.58108521 C98.46465775 96.40704193 99.27715485 97.23299866 100.11427307 98.08398438 C100.86903427 98.84212433 101.62379547 99.60026428 102.40142822 100.38137817 C103.06346756 101.05087494 103.7255069 101.7203717 104.40760803 102.41015625 C106.21843247 104.18482912 106.21843247 104.18482912 109.19512939 104.96389771 C111.00396599 103.8733306 111.00396599 103.8733306 112.76757812 102.13931274 C113.47578453 101.4863472 114.18399094 100.83338165 114.91365814 100.16062927 C119.01175973 96.21474167 123.03931982 92.2058126 127.03594971 88.15725708 C127.99588248 87.18883718 128.95608524 86.22068484 129.91653442 85.2527771 C131.9682676 83.18445063 134.01858155 81.11473142 136.06790924 79.04402161 C139.30797641 75.77112598 142.55418056 72.50436387 145.80175781 69.23892212 C146.91666059 68.11775999 148.03156309 66.99659757 149.1464653 65.87543488 C149.70427106 65.31451299 150.26207683 64.7535911 150.83678579 64.17567158 C158.38661777 56.58290165 165.93172618 48.98552464 173.46270752 41.37405396 C178.55883544 36.22355575 183.66371372 31.08191121 188.77890849 25.95034647 C191.48189306 23.23797553 194.18007067 20.52117202 196.86753082 17.79341125 C199.38831797 15.23491876 201.92036853 12.68815567 204.46170425 10.15007782 C205.83863277 8.76874294 207.2030456 7.37496796 208.56710815 5.98092651 C209.79489487 4.76128204 209.79489487 4.76128204 211.04748535 3.51699829 C211.75609333 2.80248253 212.46470131 2.08796677 213.19478226 1.35179901 C215.19512939 -0.03610229 215.19512939 -0.03610229 217.2732048 0.092659 C220.57321462 1.58860546 222.98984517 4.16808779 225.57012939 6.65139771 C226.20281738 7.25137573 226.83550537 7.85135376 227.48736572 8.46951294 C233.70048699 14.40473102 239.79533767 20.46259497 245.88262939 26.52639771 C246.60697174 27.24658585 246.60697174 27.24658585 247.34594727 27.98132324 C248.74009562 29.36962929 250.12979111 30.76240247 251.51934814 32.15530396 C252.32460937 32.96169312 253.12987061 33.76808228 253.95953369 34.59890747 C258.41176387 39.30882925 258.41176387 39.30882925 260.19512939 41.96389771 C259.82616499 45.21066881 258.67286303 46.86008459 256.39530945 49.13121033 C255.79967697 49.73241196 255.20404449 50.33361359 254.59036255 50.95303345 C253.93327301 51.6009082 253.27618347 52.24878296 252.59918213 52.91629028 C251.90962936 53.60788742 251.2200766 54.29948456 250.5096283 55.01203918 C248.22318536 57.30149502 245.92616153 59.58001122 243.62872314 61.85842896 C242.03447679 63.44961668 240.44082143 65.04139671 238.84773254 66.63374329 C235.50216666 69.97470184 232.15174658 73.31068606 228.79742432 76.64285278 C224.51256082 80.89954839 220.2363127 85.16476429 215.96327114 89.43332386 C211.87573352 93.51568267 207.78352763 97.5933497 203.69122314 101.67092896 C202.91680815 102.44346323 202.14239315 103.21599751 201.34451103 104.01194191 C199.1311854 106.21833205 196.91452891 108.4213197 194.69683838 110.62332153 C194.05391846 111.2651236 193.41099854 111.90692566 192.74859619 112.56817627 C188.94937786 116.33214095 185.03941413 119.91613118 180.98368835 123.40260983 C178.28282686 125.76027452 175.73619937 128.26073445 173.19903564 130.79202271 C172.68002182 131.30770813 172.161008 131.82339355 171.62626648 132.35470581 C170.54710037 133.42887082 169.46922634 134.50433547 168.39263916 135.58108521 C166.7416869 137.22981877 165.08284632 138.87034562 163.42364502 140.51077271 C162.3691212 141.56236754 161.31506703 142.61443361 160.26153564 143.66702271 C159.51946617 144.3983139 159.51946617 144.3983139 158.7624054 145.14437866 C156.49847245 147.42363336 155.227712 148.8661499 154.19512939 151.96389771 C157.03600208 154.82980519 159.88039075 157.69217468 162.72784424 160.55154419 C163.69264398 161.52132044 164.65653835 162.49199841 165.6194458 163.46365356 C170.72427104 168.61363074 175.86420989 173.61478455 181.37237549 178.33035278 C184.47120688 181.10751336 187.22819667 184.18481842 190.00762939 187.27639771 C191.11540692 188.50428029 192.22597783 189.72964991 193.33966064 190.95217896 C193.81766113 191.48367554 194.29566162 192.01517212 194.78814697 192.56277466 C196.3455754 194.20435645 196.3455754 194.20435645 199.19512939 195.96389771 C199.19512939 196.62389771 199.19512939 197.28389771 199.19512939 197.96389771 C199.85512939 197.96389771 200.51512939 197.96389771 201.19512939 197.96389771 C201.19512939 198.62389771 201.19512939 199.28389771 201.19512939 199.96389771 C201.73973816 200.18318939 202.28434692 200.40248108 202.84545898 200.62841797 C205.96565208 202.40183889 208.29095918 204.79739328 210.78985596 207.33157349 C211.33664001 207.87806549 211.88342407 208.4245575 212.44677734 208.98760986 C214.24788588 210.79010863 216.04181187 212.59958166 217.83575439 214.40921021 C219.08513435 215.66232137 220.33495741 216.91499089 221.58520508 218.16723633 C224.87099811 221.46065726 228.15074009 224.76004062 231.42926025 228.06069946 C234.77727192 231.42918765 238.13096846 234.7920053 241.48419189 238.15530396 C248.06008236 244.75262946 254.62959455 251.35626753 261.19512939 257.96389771 C259.85124998 261.95534797 258.18602038 264.34102105 255.20440674 267.29519653 C254.38370697 268.11566971 253.5630072 268.93614288 252.71743774 269.78147888 C251.83093536 270.65249741 250.94443298 271.52351593 250.03106689 272.42092896 C249.12385895 273.32389206 248.216651 274.22685516 247.2819519 275.15718079 C244.87846786 277.54925019 242.46611004 279.9321701 240.05175781 282.31326294 C237.58628604 284.74796075 235.12936128 287.19125045 232.67169189 289.63381958 C227.85399388 294.4184543 223.02783123 299.1944206 218.19512939 303.96389771 C213.23144937 299.80376063 208.56899516 295.47303608 204.00982666 290.87625122 C203.32915131 290.1941156 202.64847595 289.51197998 201.94717407 288.80917358 C200.48053827 287.33875451 199.01505804 285.8671821 197.55063057 284.39456367 C195.22733254 282.05841161 192.90084606 279.72547675 190.5735321 277.39332581 C184.79521427 271.6016924 179.02235479 265.80462815 173.24932861 260.00772095 C168.36402263 255.10262192 163.47663246 250.19961736 158.58650017 245.29932976 C156.30460072 243.01099056 154.02575651 240.71963909 151.74702454 238.42814636 C150.33477506 237.01226104 148.92238312 235.59651779 147.50982666 234.18093872 C146.57361229 233.23697487 146.57361229 233.23697487 145.6184845 232.27394104 C141.87149005 228.52650509 138.00347256 224.97787868 133.98284817 221.52521324 C131.33018119 219.2084897 128.86633169 216.7468682 126.38262939 214.24905396 C125.88343994 213.74844955 125.38425049 213.24784515 124.86993408 212.73207092 C123.30925569 211.16589006 121.75213092 209.59623299 120.19512939 208.02639771 C119.12375052 206.94999117 118.05213757 205.87381756 116.98028564 204.79788208 C114.38253302 202.18923026 111.78794977 199.57745299 109.19512939 196.96389771 C105.73961423 198.44953205 103.51552857 200.40275347 100.8754425 203.06326294 C100.01892593 203.92136566 99.16240936 204.77946838 98.27993774 205.66357422 C97.33890778 206.61646618 96.39796211 207.56944139 95.45709229 208.52249146 C94.46015488 209.52490582 93.46275225 210.52685769 92.46492004 211.52838135 C90.31880284 213.68420335 88.17578465 215.84304327 86.03505135 218.00421143 C82.64937015 221.42172134 79.25552778 224.83104665 75.86027527 228.23904419 C67.42855134 236.70484494 59.00615589 245.17991019 50.58862305 253.65982056 C44.04614441 260.25075247 37.50051142 266.83847233 30.94425195 273.41569996 C27.56897734 276.80249581 24.20076671 280.196117 20.83768284 283.59501648 C18.74335698 285.70854245 16.64279214 287.81578094 14.54044151 289.92132187 C13.56750504 290.89827523 12.59715411 291.87781146 11.62961578 292.86011124 C10.30732882 294.20183813 8.97479881 295.53344726 7.64179993 296.86453247 C6.89942109 297.61227432 6.15704226 298.36001617 5.39216709 299.13041687 C3.08004922 301.05993488 1.0359407 302.01300342 -1.80487061 302.96389771 C-7.14216608 297.69612522 -12.47133829 292.42025311 -17.79026699 287.13393784 C-20.26034566 284.67951233 -22.73313576 282.22795423 -25.21234131 279.78274536 C-28.06270309 276.97122671 -30.90083675 274.14764367 -33.73846436 271.32327271 C-34.63012802 270.4470929 -35.52179169 269.57091309 -36.44047546 268.66818237 C-37.67163841 267.43735931 -37.67163841 267.43735931 -38.92767334 266.18167114 C-39.65381332 265.46219299 -40.37995331 264.74271484 -41.12809753 264.00143433 C-42.87183114 261.88253038 -43.63812831 260.69780318 -43.80487061 257.96389771 C-42.06471382 255.64873259 -40.38228864 253.70173768 -38.36737061 251.65139771 C-37.53084961 250.77330444 -37.53084961 250.77330444 -36.6774292 249.87747192 C-33.2993692 246.3705007 -29.78670439 243.14076295 -26.05096436 240.01858521 C-22.84637323 237.08708098 -19.93722089 233.90362725 -16.99237061 230.71389771 C-2.90646848 215.4591814 -2.90646848 215.4591814 4.76153564 208.89749146 C9.96414959 204.37820955 14.80775032 199.50117008 19.66802979 194.62136841 C21.25472886 193.02930804 22.84670681 191.4426678 24.43927002 189.85647583 C29.39014451 184.90815993 34.21303582 179.90705311 38.76568604 174.58474731 C40.65567139 172.44168792 42.71631395 170.57398007 44.88262939 168.71389771 C50.92528306 163.39747976 56.5508059 157.69550455 62.19512939 151.96389771 C59.82238668 147.37490332 56.51617041 144.27422533 52.72637939 140.87014771 C44.98057783 133.75630389 37.52213966 126.38148555 30.10137939 118.93264771 C29.52089844 118.35054535 28.94041748 117.76844299 28.34234619 117.16870117 C24.12306561 112.93728703 19.90855352 108.70114232 15.69512939 104.46389771 C11.44898553 100.19395102 7.2010829 95.92578159 2.94895935 91.66178894 C1.27195386 89.97839576 -0.40197033 88.29198216 -2.07574463 86.6053772 C-6.93118149 81.72661917 -11.81962818 76.94769834 -17.05569458 72.47262573 C-21.61420638 68.54074329 -25.85919257 64.2537119 -30.14447021 60.02932739 C-31.30308718 58.89254634 -32.46793822 57.7620879 -33.63861084 56.63772583 C-35.34531279 54.99762341 -37.03175896 53.33893795 -38.71502686 51.67483521 C-39.50539085 50.92621719 -39.50539085 50.92621719 -40.3117218 50.16247559 C-42.50738285 47.9539834 -43.76910137 46.62094217 -43.9418335 43.44802856 C-42.44233785 40.17180606 -40.27399939 37.95475633 -37.70330811 35.50686646 C-37.18861969 35.0002095 -36.67393127 34.49355255 -36.14364624 33.97154236 C-34.49826989 32.35507668 -32.83989364 30.75280615 -31.17987061 29.15139771 C-29.01678181 27.04502991 -26.8592551 24.9330412 -24.70330811 22.81936646 C-24.18406769 22.31221603 -23.66482727 21.80506561 -23.12985229 21.282547 C-19.62006085 17.83289348 -16.31303336 14.27378096 -13.15740967 10.49905396 C-11.26580588 8.35204951 -9.07420263 6.69575635 -6.80487061 4.96389771 C-5.95924561 4.03577271 -5.11362061 3.10764771 -4.24237061 2.15139771 C-1.80487061 -0.03610229 -1.80487061 -0.03610229 0 0 Z " fill="#000000" transform="translate(938.8048706054688,710.0361022949219)"/>
<path d="M0 0 C11.54360103 8.43095147 15.84339401 20.97871153 18.0625 34.625 C21.32666748 57.42145362 21.89936927 85.69717115 7.94921875 105.3046875 C0.74306539 114.08459849 -7.62741839 117.8520619 -18.75 119.375 C-29.93868391 120.31057255 -40.75940286 117.70635035 -49.7578125 110.84375 C-61.01042741 100.51667484 -63.83227926 83.18225691 -64.66015625 68.54296875 C-64.70462891 66.97482422 -64.70462891 66.97482422 -64.75 65.375 C-64.77046387 64.72096191 -64.79092773 64.06692383 -64.81201172 63.39306641 C-65.36245314 43.31787646 -64.21218371 23.1627534 -52.5625 6.1875 C-38.84542784 -7.52957216 -16.59550453 -10.07484255 0 0 Z M-33.9375 17.9375 C-39.55774976 25.49576692 -39.89839016 36.33583066 -39.953125 45.40625 C-39.95882507 46.15982788 -39.96452515 46.91340576 -39.97039795 47.68981934 C-39.9797955 49.27985251 -39.98636091 50.86990471 -39.99023438 52.45996094 C-39.99986195 54.84086104 -40.03090222 57.22086714 -40.0625 59.6015625 C-40.21852426 78.1710364 -40.21852426 78.1710364 -33.19140625 94.91796875 C-30.16687773 97.97528349 -26.99905363 99.23988244 -22.734375 99.49609375 C-17.44759713 99.18332636 -14.37075196 97.3325661 -10.75 93.375 C-4.91807711 82.96253849 -5.38086776 69.800529 -5.4375 58.25 C-5.43923721 57.15732315 -5.43923721 57.15732315 -5.44100952 56.04257202 C-4.97778736 34.65584813 -4.97778736 34.65584813 -13.875 16.0625 C-21.27015204 11.72186728 -27.19614701 13.12224787 -33.9375 17.9375 Z " fill="#000000" transform="translate(1348.75,1209.625)"/>
<path d="M0 0 C7.89881591 6.69753765 12.52070459 15.1259456 13.6875 25.4375 C13.3575 27.0875 13.0275 28.7375 12.6875 30.4375 C5.7575 30.4375 -1.1725 30.4375 -8.3125 30.4375 C-12.1875 20.8125 -12.1875 20.8125 -13.3125 17.4375 C-17.54841704 15.05479667 -22.49755005 14.37795115 -27.3125 14.4375 C-32.05376411 16.04774064 -34.72935283 18.16194607 -37.3125 22.4375 C-44.60230584 42.58209738 -44.90814276 72.71955047 -35.875 92.375 C-34.16708012 95.66119568 -32.82408788 97.16762689 -29.3125 98.4375 C-25.10884117 99.01653708 -21.39635951 98.86161894 -17.4375 97.3125 C-13.33109264 93.68919939 -11.65170652 88.76583789 -11.10717773 83.42285156 C-11.07052002 82.7315918 -11.0338623 82.04033203 -10.99609375 81.328125 C-10.93325195 80.19697266 -10.93325195 80.19697266 -10.86914062 79.04296875 C-10.82982422 78.26566406 -10.79050781 77.48835938 -10.75 76.6875 C-10.68522461 75.49833984 -10.68522461 75.49833984 -10.61914062 74.28515625 C-10.51347009 72.33612185 -10.41252034 70.38683252 -10.3125 68.4375 C-15.5925 68.4375 -20.8725 68.4375 -26.3125 68.4375 C-25.9825 62.4975 -25.6525 56.5575 -25.3125 50.4375 C-19.91897411 50.41459215 -14.52561579 50.39466474 -9.13208008 50.38256836 C-7.29581125 50.37752769 -5.45954646 50.37069523 -3.62329102 50.36206055 C-0.98973599 50.34998328 1.64376616 50.34426919 4.27734375 50.33984375 C5.10338608 50.33468246 5.92942841 50.32952118 6.78050232 50.32420349 C8.74986368 50.32400795 10.71911614 50.37545848 12.6875 50.4375 C13.6875 51.4375 13.6875 51.4375 13.80775452 54.02540588 C13.80553391 55.17790329 13.80331329 56.3304007 13.80102539 57.51782227 C13.80091209 59.46973228 13.80091209 59.46973228 13.80079651 61.46107483 C13.79568909 62.89201902 13.79047308 64.32296282 13.78515625 65.75390625 C13.78329203 67.2097926 13.78186815 68.66567957 13.78086853 70.12156677 C13.77704365 73.96029379 13.76721364 77.79898319 13.75616455 81.63769531 C13.74594978 85.55207816 13.74137077 89.46646706 13.73632812 93.38085938 C13.72559133 101.06642541 13.70799479 108.75195265 13.6875 116.4375 C8.4075 116.4375 3.1275 116.4375 -2.3125 116.4375 C-3.3025 114.1275 -4.2925 111.8175 -5.3125 109.4375 C-5.725 109.83582031 -6.1375 110.23414063 -6.5625 110.64453125 C-13.85639476 117.33602845 -22.00742434 119.81175499 -31.85546875 119.6484375 C-40.82871806 118.87807905 -48.75545526 115.06558998 -55.06640625 108.65625 C-69.62008257 90.85626493 -67.69971091 60.82028196 -66.08544922 39.42871094 C-64.58156313 24.66569513 -60.94028977 11.49646099 -49.3125 1.4375 C-35.52110425 -7.63578668 -14.10134451 -9.53596669 0 0 Z " fill="#000000" transform="translate(1446.3125,1209.5625)"/>
<path d="M0 0 C0.91644287 0.00523682 1.83288574 0.01047363 2.77709961 0.01586914 C3.76645508 0.0190918 4.75581055 0.02231445 5.77514648 0.02563477 C6.81606445 0.03401367 7.85698242 0.04239258 8.92944336 0.05102539 C10.49662109 0.05779297 10.49662109 0.05779297 12.09545898 0.06469727 C14.68600996 0.07652627 17.27644895 0.0930085 19.86694336 0.11352539 C21.9979401 3.71380323 22.53886562 7.22764393 23.19897461 11.33227539 C23.31587646 12.05093277 23.43277832 12.76959015 23.55322266 13.51002502 C23.93568627 15.87678704 24.30788597 18.24502861 24.67944336 20.61352539 C24.94254985 22.25995372 25.20581699 23.90635638 25.46923828 25.55273438 C27.59655884 38.95502389 29.50226236 52.38676966 31.30566406 65.83618164 C31.45322144 66.93034645 31.45322144 66.93034645 31.60375977 68.0466156 C31.86801136 70.01140212 32.12895433 71.97663283 32.38964844 73.94189453 C32.76053281 76.40642596 33.23980392 78.71021342 33.86694336 81.11352539 C34.0378952 80.20199203 34.20884705 79.29045868 34.38497925 78.3513031 C35.99984232 69.74391606 37.61787659 61.13713246 39.23943901 52.53100491 C40.07290584 48.10693216 40.90516238 43.68263899 41.73461914 39.2578125 C42.53574418 34.98437374 43.34009258 30.71155301 44.14664078 26.4391346 C44.45316591 24.81235231 44.75854628 23.18535387 45.06274033 21.55813408 C45.49033922 19.27189014 45.9220722 16.98646187 46.35473633 14.70117188 C46.54031601 13.7009903 46.54031601 13.7009903 46.72964478 12.68060303 C47.55102395 8.37247957 48.65229197 4.36480527 49.86694336 0.11352539 C56.46694336 0.11352539 63.06694336 0.11352539 69.86694336 0.11352539 C72.03345205 5.16871234 73.40647134 8.80245792 74.44506836 14.01196289 C74.5773735 14.66840286 74.70967865 15.32484283 74.84599304 16.00117493 C75.2782075 18.16202694 75.69810456 20.325044 76.11694336 22.48852539 C76.41711077 24.01042538 76.71732331 25.53231647 77.01757812 27.05419922 C80.65773236 45.67699641 83.74487112 64.39857434 86.86694336 83.11352539 C87.0857869 81.66439507 87.0857869 81.66439507 87.30905151 80.18598938 C88.68543009 71.07728582 90.06817279 61.96956814 91.45713615 52.86277485 C92.17099408 48.18096728 92.88261323 43.49884228 93.58911133 38.81591797 C94.27112681 34.29583266 94.959029 29.77667896 95.65100479 25.25810814 C95.91384424 23.53488156 96.17456859 21.81133099 96.43313217 20.08745766 C96.79592056 17.67118029 97.16624315 15.25616903 97.53833008 12.84130859 C97.64334839 12.12992737 97.7483667 11.41854614 97.85656738 10.68560791 C98.46633201 6.78679099 99.37265072 3.849257 100.86694336 0.11352539 C108.45694336 0.11352539 116.04694336 0.11352539 123.86694336 0.11352539 C122.61330309 8.62775664 121.14611153 17.03561973 119.36303711 25.45336914 C119.12362396 26.59906372 118.88421082 27.7447583 118.63754272 28.9251709 C118.12643658 31.37095388 117.61397487 33.81645391 117.10025024 36.26168823 C115.74590806 42.71056328 114.402311 49.16166806 113.06225586 55.61352539 C112.85965999 56.58847867 112.85965999 56.58847867 112.65297127 57.58312798 C109.48521216 72.84157655 106.4914662 88.13277138 103.54638672 103.43554688 C103.37072174 104.34518188 103.19505676 105.25481689 103.0140686 106.1920166 C102.6894249 107.87474688 102.36660219 109.55782996 102.04598999 111.24133301 C101.46108501 114.27537964 100.84537053 117.17824388 99.86694336 120.11352539 C91.94694336 120.11352539 84.02694336 120.11352539 75.86694336 120.11352539 C74.65853049 116.48828679 73.58765789 113.23054097 72.78540039 109.55883789 C72.5982547 108.7093457 72.41110901 107.85985352 72.21829224 106.98461914 C72.02242523 106.0784082 71.82655823 105.17219727 71.62475586 104.23852539 C71.415112 103.27817383 71.20546814 102.31782227 70.98947144 101.32836914 C70.54577565 99.29129264 70.10376674 97.25384809 69.66333008 95.21606445 C69.00592231 92.17812338 68.34115126 89.14186499 67.67553711 86.10571289 C65.27201628 75.06888543 63.04284898 64.02179608 61.11624146 52.89086914 C60.96549164 52.02848633 60.81474182 51.16610352 60.65942383 50.27758789 C60.46484085 49.13990967 60.46484085 49.13990967 60.2663269 47.97924805 C59.93114705 46.03352983 59.93114705 46.03352983 58.86694336 44.11352539 C58.76529373 44.65713715 58.6636441 45.2007489 58.55891418 45.76083374 C55.66912937 61.21314836 52.77211356 76.66409582 49.86694336 92.11352539 C49.71126892 92.94190918 49.55559448 93.77029297 49.39520264 94.6237793 C48.55751949 99.07966747 47.71455743 103.53451293 46.86694336 107.98852539 C46.67205322 109.02412598 46.47716309 110.05972656 46.27636719 111.12670898 C46.01182739 112.50850342 46.01182739 112.50850342 45.74194336 113.91821289 C45.59499023 114.69148926 45.44803711 115.46476562 45.29663086 116.26147461 C44.86694336 118.11352539 44.86694336 118.11352539 43.86694336 120.11352539 C35.94694336 120.11352539 28.02694336 120.11352539 19.86694336 120.11352539 C18.18974211 115.92052225 17.15986271 112.12627578 16.3581543 107.73828125 C16.22119644 107.01199524 16.08423859 106.28570923 15.94313049 105.53741455 C15.64678538 103.9621118 15.35280702 102.38636237 15.06093597 100.81022453 C14.5933002 98.28507248 14.11944734 95.7611538 13.644104 93.23744202 C12.80046153 88.75271018 11.9623002 84.26697425 11.12591553 79.78088379 C9.80626701 72.7029848 8.48277781 65.62581331 7.15211487 58.54997635 C6.82681626 56.82014069 6.5019763 55.09021871 6.17759705 53.36021042 C3.86734113 41.05745076 1.40012168 28.80343183 -1.394104 16.60057068 C-2.57546003 11.33086756 -3.55435727 6.52068497 -3.13305664 1.11352539 C-2.13305664 0.11352539 -2.13305664 0.11352539 0 0 Z " fill="#000000" transform="translate(505.133056640625,1205.886474609375)"/>
<path d="M0 0 C1.29804565 -0.00315216 2.59609131 -0.00630432 3.93347168 -0.009552 C5.36124709 -0.00776222 6.78902219 -0.00571127 8.21679688 -0.00341797 C9.67028825 -0.00409105 11.12377952 -0.00506111 12.57727051 -0.00631714 C15.62720814 -0.00779393 18.67711654 -0.00564017 21.72705078 -0.00097656 C25.64485247 0.00472073 29.56258566 0.00144162 33.48038483 -0.00454903 C36.48285441 -0.00815515 39.48530764 -0.00701582 42.48777771 -0.00442123 C43.93273425 -0.00375211 45.37769226 -0.00457989 46.82264709 -0.00690079 C48.83879571 -0.00942812 50.8549495 -0.00489598 52.87109375 0 C54.59531555 0.00119339 54.59531555 0.00119339 56.35437012 0.00241089 C58.93554688 0.12939453 58.93554688 0.12939453 59.93554688 1.12939453 C59.87082261 3.97726211 59.74409855 6.78893229 59.56054688 9.62939453 C59.51671875 10.42732422 59.47289062 11.22525391 59.42773438 12.04736328 C59.06383858 18.00110283 59.06383858 18.00110283 57.93554688 19.12939453 C54.90576884 19.21810726 51.89887665 19.24458804 48.86914062 19.22705078 C47.96051773 19.22563583 47.05189484 19.22422089 46.11573792 19.22276306 C43.20147467 19.21714646 40.28728707 19.20459118 37.37304688 19.19189453 C35.40234486 19.18688167 33.43164164 19.18231839 31.4609375 19.17822266 C26.61908773 19.1680207 21.7774024 19.14844862 16.93554688 19.12939453 C16.93554688 28.69939453 16.93554688 38.26939453 16.93554688 48.12939453 C19.66707031 48.11779297 22.39859375 48.10619141 25.21289062 48.09423828 C27.84724817 48.08644811 30.48160444 48.08037112 33.1159668 48.07446289 C34.95223562 48.06942222 36.78850042 48.06258976 38.62475586 48.05395508 C41.25831089 48.04187781 43.89181304 48.03616372 46.52539062 48.03173828 C47.35143295 48.026577 48.17747528 48.02141571 49.02854919 48.01609802 C50.99791055 48.01590249 52.96716301 48.06735301 54.93554688 48.12939453 C55.93554688 49.12939453 55.93554688 49.12939453 56.04907227 50.89526367 C56.04383545 51.64412842 56.03859863 52.39299316 56.03320312 53.16455078 C56.02998047 53.9734375 56.02675781 54.78232422 56.0234375 55.61572266 C56.01086914 56.89092773 56.01086914 56.89092773 55.99804688 58.19189453 C55.99353516 59.04589844 55.98902344 59.89990234 55.984375 60.77978516 C55.97255061 62.89635117 55.95461456 65.01288138 55.93554688 67.12939453 C52.76263974 68.7158481 49.34729303 68.25017666 45.86523438 68.22705078 C45.06900665 68.22563583 44.27277893 68.22422089 43.4524231 68.22276306 C40.90509307 68.21715798 38.35785041 68.20460467 35.81054688 68.19189453 C34.08528773 68.18688018 32.3600272 68.18231716 30.63476562 68.17822266 C26.40163184 68.16803706 22.16868734 68.14846273 17.93554688 68.12939453 C17.60554687 78.68939453 17.27554688 89.24939453 16.93554688 100.12939453 C31.12554688 100.12939453 45.31554687 100.12939453 59.93554688 100.12939453 C61.15290577 103.78147122 60.84569837 106.92433041 60.56054688 110.69189453 C60.51671875 111.37703125 60.47289062 112.06216797 60.42773438 112.76806641 C60.06757366 117.86534096 60.06757366 117.86534096 58.93554688 120.12939453 C50.47787354 120.15252113 42.02021331 120.17031123 33.56251621 120.1812067 C29.63566029 120.18643484 25.70882593 120.19353122 21.78198242 120.20483398 C17.9954043 120.21566533 14.20884697 120.22167189 10.42225456 120.22427177 C8.97450368 120.22612558 7.52675399 120.22974534 6.07901192 120.23512459 C4.05797553 120.2423382 2.0369184 120.24280261 0.01586914 120.24291992 C-1.71287697 120.24625084 -1.71287697 120.24625084 -3.47654724 120.24964905 C-6.06445312 120.12939453 -6.06445312 120.12939453 -7.06445312 119.12939453 C-7.16243701 117.60085963 -7.19077143 116.06780489 -7.19143677 114.53613281 C-7.19425659 113.54333313 -7.19707642 112.55053345 -7.19998169 111.52764893 C-7.19795746 110.4294281 -7.19593323 109.33120728 -7.19384766 108.19970703 C-7.19559998 107.05024597 -7.19735229 105.90078491 -7.19915771 104.7164917 C-7.20357903 100.89577753 -7.20063725 97.07510921 -7.19726562 93.25439453 C-7.19793858 90.61263012 -7.19890854 87.97086576 -7.20016479 85.32910156 C-7.20198633 79.78401182 -7.1995806 74.23893538 -7.19482422 68.69384766 C-7.18938162 62.27444709 -7.19114429 55.85507828 -7.19665062 49.43567848 C-7.20172738 43.2713847 -7.20120024 37.10710505 -7.19826889 30.94281006 C-7.19759934 28.31443274 -7.19842901 25.68605461 -7.20074844 23.05767822 C-7.20327332 19.3914573 -7.19943669 15.72529831 -7.19384766 12.05908203 C-7.19587189 10.96086121 -7.19789612 9.86264038 -7.19998169 8.73114014 C-7.19716187 7.73834045 -7.19434204 6.74554077 -7.19143677 5.72265625 C-7.19105974 4.85470428 -7.19068272 3.98675232 -7.19029427 3.09249878 C-6.91633962 -1.18115544 -3.55169089 0.00245824 0 0 Z " fill="#000000" transform="translate(646.064453125,1205.87060546875)"/>
<path d="M0 0 C1.20970459 0.00523682 2.41940918 0.01047363 3.66577148 0.01586914 C4.97094727 0.0190918 6.27612305 0.02231445 7.62084961 0.02563477 C9.00952213 0.03399138 10.39819401 0.04245634 11.78686523 0.05102539 C13.17944179 0.05603873 14.57202005 0.06060193 15.96459961 0.06469727 C19.38456394 0.07653105 22.80444367 0.09301659 26.22436523 0.11352539 C29.04176208 7.05387683 30.84915924 14.11574365 32.63061523 21.38305664 C32.95494815 22.69057328 33.27974781 23.99797421 33.60498047 25.30526733 C34.47119476 28.79145711 35.33195234 32.2789718 36.19161987 35.76678085 C37.62027312 41.55718646 39.05901908 47.34510002 40.49662781 53.13328743 C40.85718218 54.58524945 41.21754349 56.03725941 41.57771301 57.48931694 C43.91593139 66.91469906 46.28965096 76.32968369 48.72436523 85.73071289 C48.98527954 86.73964096 49.24619385 87.74856903 49.51501465 88.78807068 C50.71023127 93.4043149 51.9128197 98.01848969 53.12475586 102.63037109 C53.54357158 104.24319458 53.96220375 105.85606574 54.38061523 107.46899414 C54.57042969 108.18058685 54.76024414 108.89217957 54.95581055 109.62533569 C55.91388523 113.34203814 56.22436523 116.20107734 56.22436523 120.11352539 C48.30436523 120.11352539 40.38436523 120.11352539 32.22436523 120.11352539 C29.91436523 111.20352539 27.60436523 102.29352539 25.22436523 93.11352539 C11.36436523 92.61852539 11.36436523 92.61852539 -2.77563477 92.11352539 C-3.43563477 95.74352539 -4.09563477 99.37352539 -4.77563477 103.11352539 C-5.43435981 106.00197256 -6.1083591 108.86936936 -6.83813477 111.73852539 C-7.01151367 112.44364258 -7.18489258 113.14875977 -7.36352539 113.87524414 C-8.64876459 118.98665522 -8.64876459 118.98665522 -9.77563477 120.11352539 C-11.48335834 120.20066371 -13.19462125 120.22052546 -14.90454102 120.21118164 C-16.45625 120.20634766 -16.45625 120.20634766 -18.03930664 120.20141602 C-19.12791992 120.19303711 -20.2165332 120.1846582 -21.33813477 120.17602539 C-22.97685547 120.16925781 -22.97685547 120.16925781 -24.64868164 120.16235352 C-27.35771972 120.15052366 -30.06665076 120.13404082 -32.77563477 120.11352539 C-32.14734834 112.46369301 -30.48730402 105.28202037 -28.59985352 97.85180664 C-28.27454777 96.55405157 -27.94972037 95.25617652 -27.62533569 93.95819092 C-26.75787766 90.49417542 -25.88281008 87.03212694 -25.00581741 83.57051468 C-24.28002909 80.70245671 -23.55832818 77.83337622 -22.83648205 74.964324 C-18.23619989 56.68478097 -13.57585355 38.42044272 -8.83813477 20.17602539 C-8.5836557 19.19268219 -8.32917664 18.20933899 -8.06698608 17.19619751 C-7.36054286 14.47097432 -6.64919715 11.74708921 -5.93579102 9.02368164 C-5.72924896 8.22581238 -5.52270691 7.42794312 -5.30990601 6.605896 C-3.60568365 0.14747497 -3.60568365 0.14747497 0 0 Z M11.22436523 24.11352539 C9.69823715 29.20479559 8.51025096 34.28043367 7.49780273 39.49633789 C7.26898911 40.66227982 7.26898911 40.66227982 7.03555298 41.85177612 C6.71639344 43.48348003 6.39881934 45.11549478 6.08276367 46.74780273 C5.59920479 49.2393521 5.10736365 51.72917359 4.61499023 54.21899414 C4.304591 55.81134401 3.99467834 57.40378882 3.68530273 58.99633789 C3.53846039 59.73602814 3.39161804 60.47571838 3.24032593 61.23782349 C2.52048488 64.99493284 2.22436523 68.25088468 2.22436523 72.11352539 C8.49436523 72.11352539 14.76436523 72.11352539 21.22436523 72.11352539 C19.479253 62.22455604 17.43184428 52.41045903 15.34741211 42.58813477 C14.05826052 36.43814225 12.86149516 30.36683763 12.22436523 24.11352539 C11.89436523 24.11352539 11.56436523 24.11352539 11.22436523 24.11352539 Z " fill="#000000" transform="translate(745.775634765625,1205.886474609375)"/>
<path d="M0 0 C7.92 0 15.84 0 24 0 C24.33 16.5 24.66 33 25 50 C27.64 45.05 30.28 40.1 33 35 C35.41447601 31.00160303 37.86887628 27.07456199 40.45483398 23.18823242 C43.02291118 19.28995646 45.2766844 15.56369639 47.04296875 11.234375 C50.85054883 2.53789962 50.85054883 2.53789962 55 0 C63.83256136 -1.93954003 73.08584361 -0.97566014 82 0 C78.52306653 7.58943542 73.91294919 14.3563659 69.25 21.25 C68.46831327 22.41246686 67.68706073 23.57522581 66.90625 24.73828125 C66.52102173 25.31122925 66.13579346 25.88417725 65.7388916 26.4744873 C64.9677175 27.62293577 64.19809258 28.77242608 63.43005371 29.92297363 C61.53281916 32.7579847 59.60659809 35.56081785 57.60351562 38.32226562 C56.86294922 39.36576172 56.12238281 40.40925781 55.359375 41.484375 C54.68874023 42.40444336 54.01810547 43.32451172 53.32714844 44.27246094 C51.64395933 47.73173038 51.96219419 49.34070215 53 53 C53.90354137 55.4933478 53.90354137 55.4933478 55.08984375 57.9375 C55.53618164 58.89712646 55.98251953 59.85675293 56.44238281 60.84545898 C56.93577148 61.88645752 57.42916016 62.92745605 57.9375 64 C58.70658691 65.64754272 58.70658691 65.64754272 59.49121094 67.32836914 C62.48231394 73.71777977 65.5158075 80.08675055 68.55641174 86.45272827 C69.79879608 89.05443656 71.03928685 91.6570413 72.27954102 94.25976562 C73.91442614 97.69051887 75.55805903 101.11689651 77.20678711 104.54101562 C77.96622689 106.13009183 78.72543374 107.71927939 79.484375 109.30859375 C79.84006058 110.04186386 80.19574615 110.77513397 80.56221008 111.53062439 C83 116.65941724 83 116.65941724 83 120 C78.93846834 120.23272688 74.87864757 120.37454311 70.8125 120.5 C69.66201172 120.56703125 68.51152344 120.6340625 67.32617188 120.703125 C59.15047615 120.89270635 59.15047615 120.89270635 56.32739258 118.70214844 C54.90514411 116.5453768 53.97760408 114.39381244 53 112 C52.18668887 110.31123147 51.37301757 108.62262813 50.55369568 106.93676758 C49.011423 103.72870135 47.54171264 100.487492 46.0625 97.25 C44.86858653 94.64979268 43.67151988 92.0510534 42.47265625 89.453125 C42.18339264 88.82539185 41.89412903 88.19765869 41.59609985 87.55090332 C38.85757641 81.63591579 35.95899046 75.80801156 33 70 C24.01827573 80.11211212 23.84754318 88.81778979 24 101.75 C23.99189161 103.52606182 23.98019928 105.30211105 23.96484375 107.078125 C23.92866115 111.38787512 23.96584534 115.68797457 24 120 C16.41 120 8.82 120 1 120 C-0.21955116 117.56089768 -0.12314886 116.00622874 -0.12025452 113.27975464 C-0.12162918 112.28413513 -0.12300385 111.28851562 -0.12442017 110.26272583 C-0.12082489 109.16652924 -0.11722961 108.07033264 -0.11352539 106.94091797 C-0.11367142 105.78970459 -0.11381744 104.63849121 -0.1139679 103.45239258 C-0.11326904 99.63230531 -0.1054779 95.81226629 -0.09765625 91.9921875 C-0.09579197 89.34945706 -0.09436812 86.70672627 -0.09336853 84.06399536 C-0.09025748 77.80959377 -0.08204714 71.55520961 -0.07201904 65.3008157 C-0.06085088 58.18119741 -0.05534568 51.06157829 -0.05032361 43.94195342 C-0.03986435 29.29462534 -0.02152167 14.64731613 0 0 Z " fill="#000000" transform="translate(811,1206)"/>
<path d="M0 0 C9.9 0 19.8 0 30 0 C33.85438869 13.56975795 37.34710536 27.20534656 40.73406982 40.89855957 C45.91273095 61.83245548 51.20673148 82.72921731 56.79931641 103.55664062 C57.22819915 105.16796634 57.65707339 106.77929432 58.0859375 108.390625 C58.28209656 109.11086853 58.47825562 109.83111206 58.68035889 110.57318115 C59.55747026 113.88008321 60 116.54364369 60 120 C52.08 120 44.16 120 36 120 C32.625 109.875 32.625 109.875 31.83203125 105.96484375 C31.59963745 104.84130493 31.59963745 104.84130493 31.36254883 103.69506836 C31.18103271 102.7850708 30.9995166 101.87507324 30.8125 100.9375 C30.214375 97.988125 29.61625 95.03875 29 92 C19.76 92.33 10.52 92.66 1 93 C-0.93355482 101.51069382 -0.93355482 101.51069382 -2.85913086 110.02319336 C-3.10026611 111.07643799 -3.34140137 112.12968262 -3.58984375 113.21484375 C-3.83597412 114.29886475 -4.08210449 115.38288574 -4.33569336 116.49975586 C-5 119 -5 119 -6 120 C-7.70772358 120.08713831 -9.41898649 120.10700007 -11.12890625 120.09765625 C-12.68061523 120.09282227 -12.68061523 120.09282227 -14.26367188 120.08789062 C-15.35228516 120.07951172 -16.44089844 120.07113281 -17.5625 120.0625 C-19.2012207 120.05573242 -19.2012207 120.05573242 -20.87304688 120.04882812 C-23.58208495 120.03699826 -26.29101599 120.02051543 -29 120 C-28.35154567 111.49850347 -26.31183866 103.38278543 -24.28125 95.12890625 C-23.90028284 93.56421806 -23.5197171 91.99943208 -23.13952637 90.43455505 C-22.33936999 87.14633703 -21.53540711 83.85908141 -20.72851562 80.57250977 C-19.72203461 76.47237468 -18.72323712 72.37042084 -17.72712708 68.26775551 C-13.62853194 51.39655889 -9.41860524 34.55960526 -4.96875 17.77734375 C-4.77382462 17.04207521 -4.57889923 16.30680668 -4.37806702 15.54925728 C-1.22067375 3.66202126 -1.22067375 3.66202126 0 0 Z M14 23 C12.87689861 28.85287324 11.75595314 34.70615382 10.63696289 40.55981445 C10.25636385 42.54918444 9.87518628 44.53844384 9.4934082 46.52758789 C8.94328407 49.39440164 8.39527363 52.26161275 7.84765625 55.12890625 C7.6778273 56.01147598 7.50799835 56.89404572 7.33302307 57.80335999 C7.17293259 58.64370285 7.0128421 59.48404572 6.84790039 60.34985352 C6.70800186 61.08043472 6.56810333 61.81101593 6.42396545 62.56373596 C5.87858964 65.6976693 5.44986605 68.85093768 5 72 C11.27 72 17.54 72 24 72 C22.53232645 62.84653842 20.79166126 53.76963333 18.9375 44.6875 C18.40263029 42.06686224 17.87049582 39.44571937 17.33984375 36.82421875 C17.10644287 35.68041748 16.87304199 34.53661621 16.63256836 33.3581543 C15.98410836 29.91563506 15.47009534 26.47098548 15 23 C14.67 23 14.34 23 14 23 Z " fill="#000000" transform="translate(957,1206)"/>
<path d="M0 0 C4.06153166 -0.23272688 8.12135243 -0.37454311 12.1875 -0.5 C13.33798828 -0.56703125 14.48847656 -0.6340625 15.67382812 -0.703125 C23.92370674 -0.89442653 23.92370674 -0.89442653 26.76269531 1.46484375 C28.14259529 3.58317669 29.07667905 5.64752826 30 8 C30.34925537 8.74701172 30.69851074 9.49402344 31.05834961 10.26367188 C32.23676656 12.81633677 33.31182682 15.39726284 34.375 18 C34.78419678 18.9902417 35.19339355 19.9804834 35.61499023 21.00073242 C42.85722831 38.76707415 49.93230962 56.79692887 56 75 C56 50.25 56 25.5 56 0 C63.59 0 71.18 0 79 0 C79.02254742 15.4984013 79.04097941 30.99679453 79.05181217 46.49520779 C79.05697503 53.69090295 79.06401753 60.88658722 79.07543945 68.08227539 C79.0853866 74.35184694 79.0918535 80.62141061 79.09408849 86.89098984 C79.09539555 90.21265621 79.09899997 93.53429466 79.10573006 96.85595512 C79.11293628 100.55819947 79.11399112 104.26039631 79.11352539 107.96264648 C79.11712067 109.07178909 79.12071594 110.1809317 79.12442017 111.32368469 C79.1230455 112.32634369 79.12167084 113.32900269 79.12025452 114.36204529 C79.12117631 115.23867042 79.1220981 116.11529554 79.12304783 117.01848507 C79 119 79 119 78 120 C76.14630389 120.08737645 74.28932459 120.10698153 72.43359375 120.09765625 C71.30888672 120.09443359 70.18417969 120.09121094 69.02539062 120.08789062 C67.84138672 120.07951172 66.65738281 120.07113281 65.4375 120.0625 C64.24962891 120.05798828 63.06175781 120.05347656 61.83789062 120.04882812 C58.89187774 120.03699675 55.94596319 120.02051287 53 120 C46.25572468 107.73348434 41.66486142 94.7675958 36.9375 81.625 C36.15378615 79.46325461 35.3692854 77.30179432 34.58398438 75.140625 C33.44064091 71.99343636 32.29795347 68.84602838 31.15878296 65.69732666 C28.17038758 57.44023354 25.11177583 49.21131357 22 41 C22.00785522 42.35919556 22.00785522 42.35919556 22.01586914 43.74584961 C22.1097136 62.75351117 22.00544587 81.74671639 21.5625 100.75 C21.54285187 101.66079315 21.52320374 102.5715863 21.50296021 103.50997925 C21.4462852 106.08494766 21.38266299 108.65963738 21.31640625 111.234375 C21.29968872 112.00868362 21.28297119 112.78299225 21.26574707 113.58076477 C21.11522366 118.88477634 21.11522366 118.88477634 20 120 C18.5112814 120.08669432 17.018555 120.10703494 15.52734375 120.09765625 C14.62822266 120.09443359 13.72910156 120.09121094 12.80273438 120.08789062 C11.38444336 120.07532227 11.38444336 120.07532227 9.9375 120.0625 C8.98810547 120.05798828 8.03871094 120.05347656 7.06054688 120.04882812 C4.70696935 120.0370011 2.35351523 120.02052025 0 120 C-0.81746933 92.57129495 -1.11148007 65.15300218 -1.12338257 37.71365356 C-1.125004 35.24391285 -1.12856812 32.77418127 -1.13256836 30.30444336 C-1.13841101 26.38196844 -1.13865417 22.45953253 -1.13431931 18.53705597 C-1.13332056 17.07291942 -1.13391467 15.60878086 -1.13615799 14.14464569 C-1.13869445 12.13191257 -1.1342335 10.11917422 -1.12939453 8.10644531 C-1.12859894 6.97055969 -1.12780334 5.83467407 -1.12698364 4.66436768 C-1 2 -1 2 0 0 Z " fill="#000000" transform="translate(1027,1206)"/>
<path d="M0 0 C2.88916016 -0.34057617 2.88916016 -0.34057617 6.5390625 -0.29296875 C8.49199219 -0.2784668 8.49199219 -0.2784668 10.484375 -0.26367188 C11.86458923 -0.23860388 13.24479756 -0.21320902 14.625 -0.1875 C16.01300663 -0.17245517 17.40102867 -0.15876641 18.7890625 -0.14648438 C22.19309509 -0.1110257 25.59635622 -0.06160298 29 0 C31.78433007 8.80794612 33.97516529 17.74017178 36.18527222 26.70474243 C40.64372011 44.77347988 45.24518825 62.80316876 49.9375 80.8125 C50.21213074 81.86727539 50.48676147 82.92205078 50.76971436 84.00878906 C51.56303614 87.05426887 52.3574973 90.09944905 53.15234375 93.14453125 C53.3992395 94.09212311 53.64613525 95.03971497 53.9005127 96.01602173 C55.01021829 100.26413977 56.13273897 104.50739769 57.30126953 108.73974609 C57.49572159 109.44854416 57.69017365 110.15734222 57.89051819 110.88761902 C58.40057999 112.73856567 58.91787269 114.58751561 59.43579102 116.4362793 C59.71507446 117.70532104 59.71507446 117.70532104 60 119 C59 120 59 120 56.59155273 120.11352539 C55.54942627 120.10828857 54.5072998 120.10305176 53.43359375 120.09765625 C52.42095459 120.09515869 51.40831543 120.09266113 50.36499023 120.09008789 C49.06891846 120.08098389 47.77284668 120.07187988 46.4375 120.0625 C42.333125 120.041875 38.22875 120.02125 34 120 C31.03 106.635 31.03 106.635 28 93 C14.14 92.505 14.14 92.505 0 92 C-1.56288256 100.09097844 -1.56288256 100.09097844 -3.11083984 108.18481445 C-3.30887207 109.1924585 -3.5069043 110.20010254 -3.7109375 111.23828125 C-4.00943604 112.7857605 -4.00943604 112.7857605 -4.31396484 114.36450195 C-5 117 -5 117 -7 120 C-9.33837891 120.34057617 -9.33837891 120.34057617 -12.2265625 120.29296875 C-13.2578125 120.28330078 -14.2890625 120.27363281 -15.3515625 120.26367188 C-16.97191406 120.2259668 -16.97191406 120.2259668 -18.625 120.1875 C-19.71296875 120.17396484 -20.8009375 120.16042969 -21.921875 120.14648438 C-24.61507409 120.11104754 -27.30729374 120.06164331 -30 120 C-31.37755475 117.24489049 -30.65037301 116.00413893 -29.84985352 113.04980469 C-29.57245834 112.0073761 -29.29506317 110.96494751 -29.00926208 109.89093018 C-28.54254845 108.17374786 -28.54254845 108.17374786 -28.06640625 106.421875 C-27.40848223 103.94514866 -26.75247627 101.46791219 -26.09814453 98.99023438 C-25.92617396 98.34098118 -25.7542034 97.69172798 -25.5770216 97.02280045 C-23.6403527 89.68758379 -21.83021278 82.32215326 -20.02734375 74.953125 C-19.68923519 73.57440829 -19.35106957 72.19570557 -19.0128479 70.8170166 C-17.98594181 66.62844837 -16.96152822 62.4392726 -15.9375 58.25 C-8.23722083 26.75100857 -8.23722083 26.75100857 -4.62890625 12.671875 C-4.27057961 11.24998871 -4.27057961 11.24998871 -3.90501404 9.79937744 C-3.68185013 8.93842468 -3.45868622 8.07747192 -3.22875977 7.19042969 C-2.94319969 6.07652863 -2.94319969 6.07652863 -2.65187073 4.94012451 C-2 3 -2 3 0 0 Z M13 23 C11.85445628 29.1735851 10.71585075 35.34842091 9.58203125 41.52416992 C9.19560345 43.62439855 8.80759558 45.7243371 8.41796875 47.82397461 C7.85780604 50.84413759 7.30335698 53.86530238 6.75 56.88671875 C6.48751465 58.29167854 6.48751465 58.29167854 6.21972656 59.72502136 C6.05956055 60.60555679 5.89939453 61.48609222 5.734375 62.39331055 C5.59225586 63.16386276 5.45013672 63.93441498 5.30371094 64.72831726 C4.88957066 67.44400164 4.88957066 67.44400164 5 72 C10.94 72 16.88 72 23 72 C22.36857645 66.94861164 21.71065477 62.23280386 20.66015625 57.296875 C20.40169922 56.06839844 20.14324219 54.83992188 19.87695312 53.57421875 C19.60818359 52.31222656 19.33941406 51.05023437 19.0625 49.75 C17.1731032 40.85926177 15.40629187 31.98111491 14 23 C13.67 23 13.34 23 13 23 Z " fill="#000000" transform="translate(1145,1206)"/>
<path d="M0 0 C7.59 0 15.18 0 23 0 C24.93224465 1.93224465 24.12018438 4.83610389 24.12442017 7.40708923 C24.12082489 8.32921707 24.11722961 9.25134491 24.11352539 10.20141602 C24.11367142 11.16716553 24.11381744 12.13291504 24.1139679 13.12792969 C24.11326834 16.33661099 24.10547397 19.54523503 24.09765625 22.75390625 C24.09579222 24.97208118 24.09436825 27.19025652 24.09336853 29.40843201 C24.08954216 35.25940071 24.07971086 41.11034477 24.06866455 46.96130371 C24.05845299 52.92667304 24.05387146 58.89204633 24.04882812 64.85742188 C24.03808869 76.57162718 24.02049093 88.28580769 24 100 C37.2 100 50.4 100 64 100 C64 106.6 64 113.2 64 120 C42.88 120 21.76 120 0 120 C0 80.4 0 40.8 0 0 Z " fill="#000000" transform="translate(1214,1206)"/>
<path d="M0 0 C8.58 0 17.16 0 26 0 C30.50003926 9.00007852 30.50003926 9.00007852 31.6315918 12.25708008 C32.01670174 13.35280083 32.01670174 13.35280083 32.40959167 14.47065735 C32.80045708 15.60859993 32.80045708 15.60859993 33.19921875 16.76953125 C33.47973587 17.57235031 33.76025299 18.37516937 34.04927063 19.20231628 C34.93371574 21.73732439 35.81070371 24.27483758 36.6875 26.8125 C37.2866212 28.53337316 37.88622637 30.25407791 38.48632812 31.97460938 C42.46403654 43.39210963 42.46403654 43.39210963 44 48 C44.33209473 47.00782471 44.66418945 46.01564941 45.00634766 44.9934082 C46.26264515 41.24659674 47.52866307 37.50312611 48.79736328 33.76049805 C49.34095817 32.1526438 49.88205388 30.54394203 50.42041016 28.93432617 C53.7568781 18.96530788 57.39969329 9.47000075 62 0 C69.92 0 77.84 0 86 0 C87 2 87 2 86.32592773 4.12182617 C85.76047241 5.44404175 85.76047241 5.44404175 85.18359375 6.79296875 C84.75578613 7.80085449 84.32797852 8.80874023 83.88720703 9.84716797 C83.40880371 10.94947754 82.93040039 12.05178711 82.4375 13.1875 C81.94878418 14.32848145 81.46006836 15.46946289 80.95654297 16.64501953 C76.12038285 27.86690654 71.08847348 39.00180544 66.00352478 50.112854 C65.17215007 51.94313265 64.35851162 53.78065815 63.54492188 55.61889648 C62 59 62 59 60.50195312 61.71118164 C55.10138442 72.20319234 56.25168619 84.19021602 56.25 95.6875 C56.22838683 99.02049147 56.20001685 102.35332994 56.16766357 105.68623352 C56.14988549 107.74948504 56.13961668 109.81281737 56.13751221 111.87614441 C56.13370544 112.79833267 56.12989868 113.72052094 56.12597656 114.6706543 C56.12551331 115.48495407 56.12505005 116.29925385 56.12457275 117.13822937 C56 119 56 119 55 120 C53.30441274 120.09932153 51.60474253 120.13080007 49.90625 120.1328125 C48.87628906 120.13410156 47.84632812 120.13539062 46.78515625 120.13671875 C45.15900391 120.13091797 45.15900391 120.13091797 43.5 120.125 C42.41589844 120.12886719 41.33179688 120.13273437 40.21484375 120.13671875 C39.18488281 120.13542969 38.15492187 120.13414063 37.09375 120.1328125 C36.14177734 120.13168457 35.18980469 120.13055664 34.20898438 120.12939453 C32 120 32 120 31 119 C30.95047165 117.66358471 30.96954819 116.32453321 31.0168457 114.98803711 C31.04144867 114.12916901 31.06605164 113.2703009 31.09140015 112.38540649 C31.11924591 111.44224579 31.14709167 110.49908508 31.17578125 109.52734375 C31.62264193 85.51000577 30.59597556 66.30026741 19.14109802 45.02284241 C14.99569934 37.29297765 11.63477928 29.22274718 8.20559692 21.15658569 C7.14243 18.66583441 6.06402426 16.18227357 4.98022461 13.70043945 C4.32266614 12.18835196 3.66519109 10.6762282 3.0078125 9.1640625 C2.54945259 8.1181469 2.54945259 8.1181469 2.08183289 7.05110168 C0 2.22723867 0 2.22723867 0 0 Z " fill="#000000" transform="translate(1464,1206)"/>
<path d="M0 0 C0.99 0.7425 1.98 1.485 3 2.25 C19.85631233 16.5381761 29.32372914 39.43543288 32 61 C33.35110062 87.97147912 28.93284063 113.44734946 10.5625 134.25 C9.05040417 135.84167982 7.52977757 137.42530668 6 139 C5.32582031 139.74765625 4.65164063 140.4953125 3.95703125 141.265625 C-12.76501866 159.21123954 -37.27773598 168.54861601 -61.53466797 169.41992188 C-89.59237871 169.65586618 -115.24573241 159.25621058 -135.3671875 139.69921875 C-152.28264514 121.81799969 -162.20384334 97.69052424 -162 73 C-160.95299721 45.05811297 -150.61614941 20.27916048 -130.19921875 0.85546875 C-92.73639232 -33.39855028 -38.0079791 -31.16809738 0 0 Z " fill="#000000" transform="translate(670,1601)"/>
<path d="M0 0 C13.91786081 11.87743369 22.29498407 28.10018942 23.7890625 46.30078125 C24.35085193 62.70503263 20.07020798 77.87037008 9.21875 90.34765625 C7.67423201 91.96914357 6.11207466 93.57404455 4.53125 95.16015625 C3.84289062 95.87171875 3.15453125 96.58328125 2.4453125 97.31640625 C-9.55615122 108.91633401 -24.97034111 113.66391493 -41.34277344 113.51196289 C-60.34157198 112.9683339 -75.06031055 105.02928305 -88.15625 91.53515625 C-100.4118063 77.41415244 -103.60435411 60.83998132 -102.67578125 42.64990234 C-101.33773126 26.55858889 -92.49320663 11.65828867 -80.46875 1.16015625 C-57.12284827 -17.42378189 -23.77518351 -18.27546433 0 0 Z " fill="#000000" transform="translate(484.46875,1751.83984375)"/>
<path d="M0 0 C8.86961069 7.14266157 15.42759038 16.43935565 16.73095703 27.99853516 C17.47539743 41.44035716 15.23082203 51.57078836 6.8359375 62.4375 C-1.09146135 71.22946416 -9.86000888 75.57046494 -21.578125 76.328125 C-34.20893033 76.84418603 -44.54043018 74.18411098 -54.4921875 66.01953125 C-63.51555079 57.40713302 -67.45880445 47.65715035 -67.8671875 35.26953125 C-67.65049827 22.60675438 -62.7126127 12.63179948 -54.3671875 3.33203125 C-39.42732356 -10.88067117 -16.55152696 -11.4606054 0 0 Z " fill="#000000" transform="translate(332.4921875,1837.98046875)"/>
</svg>
