 <svg version="1.0" xmlns="http://www.w3.org/2000/svg" width="700.000000pt" height="700.000000pt" viewBox="0 0 700.000000 700.000000" preserveAspectRatio="xMidYMid meet">
<metadata>
Created by potrace 1.12, written by Peter Selinger 2001-2015
</metadata>
<g transform="translate(0.000000,700.000000) scale(0.100000,-0.100000)" fill="#000000" stroke="none">
<path d="M3641 6349 c0 -14 -4 -29 -8 -33 -5 -4 -15 -49 -23 -99 -21 -126 -30
-127 -143 -4 -48 52 -87 99 -87 105 0 5 -7 13 -16 16 -12 5 -14 1 -8 -17 4
-12 9 -24 13 -27 22 -18 91 -162 91 -190 l0 -29 -82 6 c-46 3 -87 9 -92 14
-12 11 -46 12 -46 1 0 -4 21 -18 48 -31 89 -46 131 -76 132 -93 0 -10 -7 -18
-15 -18 -8 0 -15 -4 -15 -9 0 -5 -28 -24 -62 -41 -74 -37 -109 -56 -163 -90
-22 -13 -47 -28 -55 -32 -8 -4 14 -5 50 -2 36 3 70 10 75 14 6 4 61 13 124 19
63 7 119 13 124 14 22 4 18 -36 -7 -73 -14 -22 -26 -44 -26 -49 0 -5 -4 -11
-9 -13 -5 -1 -13 -16 -17 -33 -7 -28 -4 -27 57 28 70 62 99 72 99 33 0 -14 5
-28 10 -31 6 -3 11 -41 11 -83 1 -87 15 -224 17 -175 1 17 6 34 10 37 5 3 14
48 22 100 13 91 15 96 38 96 13 0 42 -15 65 -34 80 -64 149 -81 327 -80 112 0
114 1 260 72 76 37 151 80 205 118 38 27 161 84 179 84 8 0 17 4 20 9 4 5 30
12 59 16 28 4 57 12 64 17 17 14 268 14 285 1 7 -6 31 -14 53 -18 22 -4 45
-10 50 -15 6 -4 26 -13 46 -19 20 -6 45 -21 54 -31 10 -11 24 -20 32 -20 7 0
13 -5 13 -11 0 -6 9 -22 20 -36 30 -39 28 -154 -6 -252 -14 -42 -30 -80 -35
-86 -5 -5 -9 -16 -9 -26 0 -22 -38 -69 -57 -69 -8 0 -34 16 -57 35 -24 19 -47
35 -51 35 -5 0 -23 11 -41 25 -18 14 -37 25 -43 25 -5 0 -14 6 -18 13 -10 15
-195 107 -216 107 -9 0 -19 5 -22 10 -16 26 -95 -2 -95 -34 0 -4 -32 -44 -71
-89 -39 -45 -81 -95 -94 -112 -14 -16 -56 -67 -95 -112 -38 -45 -70 -86 -70
-91 0 -4 -10 -18 -22 -29 -13 -11 -41 -43 -63 -71 -22 -28 -47 -52 -55 -54
-15 -4 -137 22 -155 33 -5 3 -39 12 -75 19 -36 7 -69 16 -75 20 -5 4 -50 13
-100 19 -49 7 -99 17 -110 22 -31 14 -230 33 -335 33 -119 -1 -348 -21 -375
-34 -11 -5 -54 -14 -95 -21 -41 -6 -80 -15 -85 -19 -6 -5 -33 -14 -60 -21 -28
-6 -54 -15 -60 -19 -5 -4 -23 -10 -40 -14 -95 -23 -365 -166 -502 -265 -23
-17 -47 -31 -52 -31 -6 0 -16 -9 -23 -20 -7 -11 -18 -20 -25 -20 -29 0 -383
-365 -428 -442 -5 -9 -22 -34 -36 -55 -62 -92 -79 -120 -79 -131 0 -7 -4 -12
-10 -12 -5 0 -10 -6 -10 -14 0 -7 -9 -25 -20 -39 -11 -14 -23 -39 -26 -56 -4
-17 -10 -31 -14 -31 -4 0 -13 -18 -20 -40 -7 -22 -16 -40 -20 -40 -4 0 -10
-14 -14 -31 -3 -17 -13 -45 -21 -62 -24 -52 -65 -186 -65 -212 0 -14 -4 -25
-8 -25 -8 0 -32 -145 -32 -197 0 -17 -6 -33 -12 -36 -18 -5 -19 -522 -2 -558
7 -13 17 -69 24 -124 7 -55 16 -104 20 -110 4 -5 11 -30 15 -55 4 -25 11 -49
15 -55 4 -5 10 -23 14 -40 4 -16 16 -48 26 -70 10 -22 22 -53 25 -68 9 -33
112 -237 150 -297 16 -25 34 -52 40 -62 36 -58 80 -118 87 -118 4 0 8 -7 8
-16 0 -21 334 -354 354 -354 8 0 20 -9 26 -20 6 -11 15 -20 21 -20 6 0 30 -16
53 -35 24 -19 46 -35 50 -35 3 0 28 -15 54 -33 26 -18 63 -39 82 -47 19 -8 37
-17 40 -20 3 -3 21 -12 40 -20 19 -8 37 -16 40 -19 7 -8 95 -51 104 -51 4 0
26 -8 49 -19 23 -10 58 -22 77 -26 19 -4 40 -11 45 -15 6 -4 35 -13 65 -20 30
-7 60 -16 65 -20 6 -4 35 -11 65 -15 30 -4 60 -11 65 -15 49 -38 782 -38 830
0 6 5 33 11 60 15 28 4 55 11 60 15 6 4 37 14 70 21 33 7 65 15 70 19 6 4 23
10 40 14 16 4 54 18 83 32 29 13 56 24 60 24 9 0 155 73 162 81 3 3 12 8 20
12 8 4 38 20 65 37 28 17 60 36 73 42 12 6 22 15 22 20 0 4 6 8 13 8 6 1 28
14 47 30 19 17 38 30 44 30 5 0 22 14 38 30 15 16 32 30 37 30 11 0 281 270
281 281 0 5 14 23 30 39 17 16 30 32 30 35 0 4 16 26 35 49 19 24 35 47 35 52
0 5 14 27 30 48 17 22 30 45 30 52 0 6 6 17 14 23 14 12 126 230 126 245 0 6
14 40 55 131 7 17 17 48 20 70 4 22 11 45 16 51 4 5 13 44 19 85 6 40 15 83
20 94 46 100 46 709 0 810 -5 11 -14 54 -21 95 -6 41 -15 80 -19 85 -4 6 -13
30 -19 55 -7 25 -18 59 -25 75 -15 32 -40 91 -61 140 -7 17 -18 45 -24 63 -6
18 -19 46 -31 61 -11 16 -20 34 -20 40 0 6 -4 11 -8 11 -4 0 -13 12 -19 28
-12 27 -16 34 -60 103 -28 43 -29 80 -3 104 11 10 20 22 20 27 0 9 73 105 105
139 8 9 15 19 15 23 0 5 18 30 40 56 22 26 40 51 40 54 0 3 7 14 15 24 51 59
125 152 125 158 0 3 18 28 40 54 25 30 40 58 40 75 0 35 -70 124 -185 234
l-87 84 6 43 c3 23 21 71 40 106 19 35 38 82 41 104 4 21 12 45 18 52 14 18
15 165 1 183 -6 8 -16 33 -24 57 -7 23 -17 42 -22 42 -4 0 -8 6 -8 13 0 16
-81 97 -97 97 -6 0 -13 7 -17 15 -3 8 -12 15 -19 15 -8 0 -20 7 -27 15 -7 8
-31 20 -54 25 -22 6 -50 15 -61 20 -31 14 -132 30 -192 30 -60 0 -187 -17
-218 -30 -11 -4 -40 -14 -65 -21 -48 -15 -118 -49 -161 -80 -15 -10 -30 -19
-34 -19 -4 0 -30 -17 -58 -37 -77 -57 -160 -101 -232 -123 -22 -7 -44 -16 -50
-20 -15 -11 -134 -30 -188 -30 -65 0 -95 14 -154 73 -63 61 -71 97 -22 97 50
0 224 -23 229 -30 3 -4 30 -9 60 -12 30 -3 47 -3 38 -1 -10 2 -18 8 -18 12 0
4 -18 14 -40 21 -22 7 -40 16 -40 19 0 4 -12 12 -27 19 -98 43 -188 99 -191
117 -3 19 38 45 168 110 11 5 20 13 20 17 0 12 -88 10 -95 -2 -3 -5 -35 -10
-71 -10 -64 0 -64 0 -64 28 0 16 13 47 29 69 15 21 34 56 42 76 7 20 17 37 21
37 4 0 8 5 8 11 0 5 11 27 25 47 48 70 24 55 -95 -64 -81 -79 -128 -119 -143
-119 -21 0 -22 6 -29 110 -8 112 -15 161 -17 114z m44 -2224 c21 -8 53 -15 72
-15 39 0 209 -36 233 -49 9 -5 29 -11 46 -15 56 -12 275 -229 319 -315 53
-105 75 -244 56 -357 -17 -93 -48 -186 -77 -229 -13 -20 -44 -71 -70 -115 -25
-44 -58 -88 -72 -99 -65 -46 -145 -87 -252 -128 -63 -25 -139 -54 -168 -65
-29 -12 -75 -42 -103 -68 -45 -43 -49 -50 -49 -94 0 -54 -18 -95 -56 -125 -22
-17 -41 -21 -101 -21 -85 0 -125 16 -148 60 -20 38 -21 221 -1 276 15 44 66
125 105 167 13 15 34 46 46 70 12 23 40 56 64 72 127 91 146 110 180 180 29
59 35 84 39 158 5 96 -10 192 -38 247 -25 49 -96 127 -140 155 -83 53 -306 72
-389 35 -24 -11 -48 -20 -55 -20 -6 0 -22 -9 -36 -20 -14 -11 -39 -20 -57 -20
-25 0 -39 -9 -68 -42 l-36 -43 63 -6 c91 -10 129 -29 170 -85 57 -79 81 -159
76 -252 -5 -91 -29 -147 -74 -173 -16 -10 -64 -31 -106 -48 -66 -26 -90 -31
-166 -31 -67 0 -100 5 -133 20 -43 19 -149 120 -182 172 -26 42 -39 115 -38
218 1 109 11 144 57 218 19 29 34 54 34 57 0 18 157 182 200 210 19 12 53 28
75 35 22 7 45 16 50 20 25 20 186 75 235 81 99 13 454 2 495 -16z m-164 -1898
c31 -12 68 -30 82 -40 15 -9 31 -17 36 -17 18 0 111 -104 131 -148 26 -54 23
-73 -13 -90 -24 -12 -27 -19 -27 -60 0 -87 -92 -226 -175 -263 -31 -14 -65
-19 -148 -19 -121 0 -135 5 -230 77 -66 51 -92 95 -102 173 -16 126 86 302
211 365 96 49 156 54 235 22z"></path>
</g>
</svg>