 <svg version="1.0" xmlns="http://www.w3.org/2000/svg" width="700.000000pt" height="700.000000pt" viewBox="0 0 700.000000 700.000000" preserveAspectRatio="xMidYMid meet">
<metadata>
Created by potrace 1.12, written by Peter Selinger 2001-2015
</metadata>
<g transform="translate(0.000000,700.000000) scale(0.100000,-0.100000)" fill="#000000" stroke="none">
<path d="M2227 6529 c-68 -16 -167 -76 -167 -101 0 -5 -10 -23 -22 -39 -22
-29 -23 -40 -22 -192 1 -89 6 -187 12 -217 6 -30 16 -80 22 -110 31 -156 122
-364 215 -495 12 -16 24 -37 28 -45 17 -48 357 -388 407 -408 8 -3 38 -23 66
-44 28 -21 55 -38 59 -38 5 0 16 -6 24 -14 20 -18 312 -166 327 -166 7 0 45
-16 85 -36 41 -20 88 -42 104 -49 128 -55 153 -65 159 -65 4 0 40 -15 79 -34
40 -19 92 -44 117 -55 25 -11 56 -26 70 -34 14 -8 68 -35 120 -61 183 -90 304
-162 398 -238 22 -18 53 -41 67 -51 14 -10 36 -33 48 -51 92 -135 120 -182
129 -214 5 -21 14 -48 21 -61 16 -32 17 -422 1 -442 -6 -8 -14 -30 -18 -50
-14 -80 -67 -161 -176 -269 -113 -114 -157 -144 -372 -252 -76 -38 -138 -73
-138 -78 0 -4 19 -15 43 -25 78 -31 349 -163 461 -225 l69 -38 46 25 c25 14
59 32 75 41 34 17 296 278 296 294 0 6 17 33 37 60 43 59 102 174 122 238 8
25 18 50 22 55 4 6 10 28 14 50 4 22 11 45 15 50 11 15 30 146 30 204 0 27 5
53 10 56 6 3 10 46 10 95 0 49 -4 92 -10 95 -5 3 -10 28 -10 54 0 50 -15 145
-30 196 -58 188 -80 236 -177 386 -47 72 -245 269 -270 269 -6 0 -18 10 -29
21 -41 45 -247 173 -394 244 -131 63 -201 95 -207 95 -4 0 -30 11 -58 24 -152
73 -181 86 -188 86 -4 0 -29 10 -55 21 -70 32 -121 54 -182 79 -54 22 -188 84
-265 122 -156 78 -266 158 -387 279 -60 60 -108 113 -108 119 0 6 -11 26 -24
43 -59 78 -116 219 -131 322 -4 28 -11 55 -16 61 -4 5 -11 77 -15 160 -6 130
-10 155 -31 194 -37 70 -104 125 -177 145 -88 24 -87 24 -129 14z"></path>
<path d="M4786 6520 c-41 -13 -73 -32 -103 -62 -72 -70 -84 -103 -93 -264 -4
-78 -13 -150 -18 -160 -5 -11 -12 -39 -16 -64 -8 -54 -62 -166 -130 -268 -43
-65 -197 -221 -229 -231 -7 -2 -30 -19 -52 -37 -22 -18 -52 -38 -65 -44 -35
-16 -87 -45 -102 -58 -7 -5 -59 -33 -115 -61 -72 -37 -103 -57 -103 -70 0 -13
40 -37 145 -89 80 -39 156 -74 170 -78 13 -3 29 -12 36 -20 6 -8 16 -14 21
-14 6 0 43 -15 82 -34 106 -50 101 -50 164 -8 31 20 62 39 68 42 7 3 47 34 89
70 43 36 87 70 97 76 26 15 118 106 118 116 0 5 26 41 58 81 70 88 67 83 146
242 36 72 69 146 72 165 4 19 10 40 15 45 4 6 10 28 14 50 4 22 11 45 16 50 7
9 15 67 34 230 14 120 16 177 8 188 -5 7 -16 32 -23 56 -19 58 -83 121 -146
143 -79 27 -96 27 -158 8z"></path>
<path d="M2898 6337 c-89 -35 14 -217 152 -267 52 -19 80 -20 537 -20 266 0
491 4 501 9 9 5 28 14 42 20 56 26 79 43 114 81 20 22 36 49 36 59 0 11 5 23
10 26 22 13 11 63 -19 84 -29 21 -37 21 -688 20 -436 -1 -667 -5 -685 -12z"></path>
<path d="M3120 5801 c-75 -21 -6 -162 120 -246 l45 -30 275 0 275 0 45 27
c136 82 201 233 108 252 -42 8 -837 6 -868 -3z"></path>
<path d="M2690 4653 c-75 -27 -118 -60 -262 -202 -87 -86 -158 -159 -158 -163
0 -5 -20 -34 -44 -65 -51 -67 -121 -197 -131 -245 -4 -18 -11 -37 -15 -43 -9
-12 -37 -116 -53 -195 -14 -70 -13 -431 1 -490 40 -168 52 -206 88 -290 26
-62 66 -134 96 -171 15 -20 28 -42 28 -48 0 -16 218 -231 234 -231 7 0 23 -12
37 -26 22 -24 165 -123 249 -172 66 -38 383 -192 397 -192 4 0 40 -15 78 -34
108 -52 196 -92 235 -106 41 -14 73 -28 160 -69 36 -17 69 -31 73 -31 27 0
289 -134 344 -176 17 -13 35 -24 39 -24 11 0 164 -122 208 -166 123 -124 248
-340 261 -451 4 -32 12 -63 17 -70 5 -6 12 -84 17 -172 5 -100 12 -166 19
-173 7 -7 12 -19 12 -28 0 -8 19 -37 42 -64 48 -56 127 -96 188 -96 96 0 220
84 241 165 6 22 16 50 21 61 9 20 8 53 -7 189 -19 185 -28 251 -35 260 -4 6
-11 30 -15 55 -4 25 -11 50 -15 55 -4 6 -11 24 -15 42 -9 45 -113 249 -158
311 -20 29 -37 55 -37 58 0 35 -380 414 -414 414 -4 0 -27 15 -50 34 -23 19
-53 40 -66 46 -37 17 -88 46 -103 58 -16 14 -233 122 -243 122 -7 0 -37 13
-139 60 -22 10 -65 28 -95 40 -30 12 -68 28 -85 35 -16 7 -50 21 -75 30 -25 9
-139 63 -255 120 -115 57 -217 106 -225 109 -8 4 -31 16 -50 29 -20 12 -62 37
-95 56 -58 34 -265 229 -265 250 0 6 -13 31 -30 57 -16 26 -35 72 -41 103 -7
31 -16 61 -20 67 -14 18 -21 255 -11 329 24 162 44 216 125 337 80 120 240
239 467 348 36 18 80 39 98 47 17 9 32 19 32 22 0 6 -571 292 -580 290 -3 0
-12 -3 -20 -6z"></path>
<path d="M3007 3872 c-47 -26 -147 -128 -160 -164 -3 -9 2 -23 12 -32 16 -14
90 -16 700 -16 451 0 689 4 702 10 34 19 25 70 -20 114 -41 40 -47 44 -129 89
l-51 27 -503 -1 -503 0 -48 -27z"></path>
<path d="M2874 3305 c-13 -21 -14 -30 -4 -62 20 -59 44 -86 105 -118 l57 -30
541 0 542 0 50 27 c105 56 147 136 100 188 -18 20 -26 20 -696 20 l-679 0 -16
-25z"></path>
<path d="M2786 2061 c-3 -5 -20 -16 -38 -24 -18 -9 -64 -42 -102 -74 -38 -32
-78 -63 -89 -70 -27 -15 -215 -203 -230 -229 -7 -12 -35 -55 -63 -96 -61 -90
-152 -271 -169 -338 -4 -14 -13 -38 -20 -55 -7 -16 -16 -52 -20 -80 -4 -27
-11 -55 -16 -61 -13 -16 -32 -240 -27 -319 12 -188 181 -301 349 -233 55 22
119 72 119 94 0 6 6 17 14 23 18 15 27 61 36 196 8 116 32 239 56 292 8 17 14
37 14 45 0 8 16 37 35 64 19 27 35 54 35 60 0 29 296 314 325 314 3 0 21 11
39 25 18 14 36 25 40 25 3 0 25 12 49 27 23 15 87 50 142 78 55 28 100 57 100
64 0 14 -4 17 -70 45 -22 10 -53 24 -68 32 -16 8 -33 14 -38 14 -16 0 -274
124 -344 165 -46 27 -52 28 -59 16z"></path>
<path d="M3275 1457 c-90 -51 -132 -88 -158 -139 -29 -57 -34 -97 -15 -116 9
-9 125 -12 460 -12 l448 0 16 26 c16 24 16 27 -4 67 -38 73 -57 100 -77 111
-11 6 -34 21 -52 33 -17 13 -38 23 -47 23 -8 0 -18 5 -21 10 -9 15 -524 11
-550 -3z"></path>
<path d="M3034 917 c-33 -13 -67 -40 -122 -99 -43 -46 -59 -110 -37 -144 l15
-24 693 0 692 0 13 27 c6 15 12 34 12 42 -2 47 -88 150 -157 187 l-46 24 -516
-1 c-374 0 -525 -3 -547 -12z"></path>
</g>
</svg>