<?xml version="1.0" encoding="UTF-8"?>
<svg version="1.1" xmlns="http://www.w3.org/2000/svg" width="2048" height="2048">
<path d="M0 0 C16.03695747 14.76172953 28.96721036 31.47087059 39.62109375 50.4921875 C40.26957275 50.32090332 40.91805176 50.14961914 41.58618164 49.97314453 C85.38155629 38.48824859 128.95345497 40.06143603 169.2043457 62.99926758 C175.76632343 66.95546192 181.83806649 71.46854766 187.62109375 76.4921875 C188.42804687 77.17796875 189.235 77.86375 190.06640625 78.5703125 C219.33612479 104.07809229 237.64464557 139.2733724 243.62109375 177.4921875 C243.73348389 178.1517041 243.84587402 178.8112207 243.96166992 179.49072266 C244.63849896 184.14855171 244.52333397 188.42085572 244.0859375 193.109375 C242.54859954 205.38106429 242.54859954 205.38106429 246.15771484 216.66503906 C250.32337912 220.20559624 255.23575216 222.2067554 260.2265625 224.33056641 C264.07246497 226.19626828 267.09427656 228.82781402 270.24609375 231.6796875 C270.81956543 232.19088135 271.39303711 232.7020752 271.98388672 233.22875977 C273.54362159 234.63554798 275.08446671 236.06025838 276.62109375 237.4921875 C277.37648438 238.17796875 278.131875 238.86375 278.91015625 239.5703125 C304.34069708 263.68373369 319.49371122 300.08912101 320.9375 334.8125 C321.83282664 370.15755383 312.07657301 407.139282 287.93359375 433.9921875 C286.49876564 435.49474351 285.06147254 436.99495165 283.62109375 438.4921875 C282.46875949 439.84082649 281.32261266 441.19478408 280.18359375 442.5546875 C266.73322761 457.87827815 248.78467749 469.10271485 230.30859375 477.3671875 C229.35847412 477.79680786 229.35847412 477.79680786 228.38916016 478.23510742 C223.58294468 480.30890271 218.75386136 481.50208054 213.62109375 482.4921875 C213.6675 483.76449219 213.71390625 485.03679688 213.76171875 486.34765625 C214.72701374 524.27464291 199.84597169 562.41093762 173.87109375 590.14453125 C173.12859375 590.91925781 172.38609375 591.69398438 171.62109375 592.4921875 C170.89921875 593.27722656 170.17734375 594.06226563 169.43359375 594.87109375 C159.52001746 605.30379312 147.41918468 614.87064393 134.62109375 621.4921875 C133.98574707 621.82669922 133.35040039 622.16121094 132.69580078 622.50585938 C120.40416461 628.90538482 108.03042842 633.10049879 94.62109375 636.4921875 C93.93708496 636.6792627 93.25307617 636.86633789 92.54833984 637.05908203 C62.86952638 645.02276266 28.38109509 638.23567156 1.23828125 625.12890625 C-1.74880635 623.7772975 -4.1576782 622.92460916 -7.37890625 622.4921875 C-8.01054688 623.27980469 -8.6421875 624.06742188 -9.29296875 624.87890625 C-36.529843 658.28525886 -75.0389589 678.67322965 -117.97265625 683.2109375 C-163.49421719 686.54804441 -206.04922846 673.01558102 -240.81640625 643.3046875 C-247.653514 637.37166782 -253.91108325 631.16955082 -259.80078125 624.2890625 C-260.3215625 623.69609375 -260.84234375 623.103125 -261.37890625 622.4921875 C-261.8378125 621.89921875 -262.29671875 621.30625 -262.76953125 620.6953125 C-264.36046714 619.21104223 -264.36046714 619.21104223 -266.70141602 619.82177734 C-269.1474098 620.43422368 -271.46021978 621.15395841 -273.828125 622.015625 C-285.28866154 626.07811632 -296.32270413 628.95552445 -308.37890625 630.4921875 C-309.61511719 630.67523437 -310.85132813 630.85828125 -312.125 631.046875 C-336.10718511 633.97916902 -359.73643223 630.3454474 -382.37890625 622.4921875 C-383.4786377 622.11368652 -383.4786377 622.11368652 -384.60058594 621.72753906 C-401.55180572 615.73250139 -416.63039325 605.91110704 -429.88916016 593.84228516 C-431.39313781 592.47929001 -432.92003424 591.14650938 -434.453125 589.81640625 C-459.65733928 567.70596608 -475.89267668 537.16463461 -482.62890625 504.4921875 C-482.80687744 503.66033936 -482.98484863 502.82849121 -483.16821289 501.97143555 C-484.0005758 497.75716287 -484.45202726 493.94373157 -484.1875 489.6484375 C-483.87155074 482.76304066 -483.87155074 482.76304066 -486.37890625 476.4921875 C-492.83475049 471.4585161 -500.81293838 468.7499389 -508.35595703 465.7578125 C-514.58222603 463.15104635 -519.92902762 459.44642274 -525.37890625 455.4921875 C-526.2292041 454.87657959 -526.2292041 454.87657959 -527.09667969 454.24853516 C-559.80486203 430.29793713 -581.88739741 394.7008792 -588.19140625 354.6171875 C-593.97659194 313.1242473 -584.76269403 271.33347861 -559.79638672 237.48657227 C-545.28565578 218.38183262 -527.86421289 202.9660632 -506.69140625 191.6171875 C-505.7322229 191.09995117 -505.7322229 191.09995117 -504.75366211 190.57226562 C-498.51513284 187.34007759 -491.95681267 184.93805338 -485.37890625 182.4921875 C-485.31421143 181.75395752 -485.2495166 181.01572754 -485.18286133 180.25512695 C-481.36596469 137.98750163 -469.99850897 103.58410965 -440.37890625 72.4921875 C-439.6621875 71.71101563 -438.94546875 70.92984375 -438.20703125 70.125 C-411.78035139 42.20809383 -372.34937897 29.27584376 -334.8515625 27.36328125 C-318.99568573 26.9968126 -303.8125333 30.0662373 -288.53662109 33.97314453 C-285.83697946 34.62254916 -283.12600923 35.09334221 -280.37890625 35.4921875 C-279.34443359 34.15027344 -279.34443359 34.15027344 -278.2890625 32.78125 C-244.72043242 -10.5270955 -202.26958908 -38.50748579 -147.56640625 -46.8828125 C-93.54320153 -52.36424645 -40.40828217 -36.47829961 0 0 Z M-229.37890625 26.4921875 C-230.25417969 27.28238281 -231.12945313 28.07257813 -232.03125 28.88671875 C-242.05655184 38.42456669 -250.40410953 49.71777912 -257.19140625 61.7421875 C-259.89162179 66.46391576 -262.3749289 70.15655434 -267.1640625 72.92578125 C-274.7241716 74.85914248 -280.26154791 72.69863932 -287.12890625 69.6796875 C-315.38924075 57.90625963 -348.15680431 57.07807156 -376.81201172 68.45849609 C-406.28820451 80.93793623 -430.40920828 103.38438813 -442.56152344 133.32128906 C-449.63497506 152.1077681 -451.82849362 170.1096791 -451.13037109 190.09033203 C-450.98735657 196.81396023 -451.10339714 201.15142442 -455.37890625 206.4921875 C-459.13730527 209.47054144 -463.37486279 210.43523982 -467.94140625 211.6171875 C-498.81998321 220.25045422 -524.27018847 239.62726431 -540.37890625 267.4921875 C-557.37538312 298.98799714 -560.94836572 333.30393521 -550.96972656 367.69482422 C-545.22419775 386.27430054 -534.7707126 401.58454861 -521.37890625 415.4921875 C-520.74597656 416.19988281 -520.11304688 416.90757812 -519.4609375 417.63671875 C-505.64183394 432.61504071 -485.49739912 441.81277987 -466.25244141 447.46606445 C-461.88419685 448.7862159 -458.66499897 450.16365447 -455.37890625 453.4921875 C-453.71965995 456.9464333 -453.12509421 459.74783143 -453.0703125 463.5625 C-453.04751221 464.53155273 -453.02471191 465.50060547 -453.0012207 466.49902344 C-452.98148193 467.52801758 -452.96174316 468.55701172 -452.94140625 469.6171875 C-451.76809625 505.94877258 -440.46142855 535.87030462 -415.37890625 562.4921875 C-414.76789063 563.16765625 -414.156875 563.843125 -413.52734375 564.5390625 C-392.39273452 587.02268934 -360.9431031 598.11674391 -330.72900391 599.5559082 C-308.75506621 600.05288589 -288.21606846 593.47609424 -268.97143555 583.38793945 C-263.79108882 580.771098 -260.18916485 579.9589087 -254.37890625 580.4921875 C-247.63748452 582.89983812 -245.13800255 587.44141276 -241.390625 593.3515625 C-223.32601752 621.55339632 -192.77927015 640.47171218 -160.44140625 647.8046875 C-127.67542279 654.48707486 -92.04005266 648.35257601 -63.87890625 630.296875 C-56.68306924 625.509774 -49.88927959 620.16995532 -43.37890625 614.4921875 C-42.65574219 613.86570312 -41.93257812 613.23921875 -41.1875 612.59375 C-34.992948 606.82129454 -30.25288224 600.03420561 -25.5144043 593.05517578 C-22.04882078 588.11794689 -19.50361183 584.95421399 -13.37890625 583.4921875 C-5.77410835 582.97479941 -0.16855762 586.41567842 6.18359375 590.1796875 C34.0521149 605.99815523 64.36105311 610.8282229 95.453125 602.4609375 C127.54482743 592.51418994 153.3269925 570.04365618 168.98583984 540.42456055 C179.17910778 520.29667454 181.96082972 500.57316304 181.44970703 478.21289062 C181.40718085 476.23852905 181.38500295 474.26376255 181.36328125 472.2890625 C181.34120605 471.12729492 181.31913086 469.96552734 181.29638672 468.76855469 C181.79041151 463.78373315 183.38772675 460.54882204 187.18359375 457.296875 C191.54273848 455.00832401 195.87029282 453.83444419 200.62109375 452.6171875 C221.31384103 446.96025443 238.41289161 437.65381015 253.62109375 422.4921875 C254.47703125 421.64269531 255.33296875 420.79320312 256.21484375 419.91796875 C276.8262663 399.13924569 287.12276105 372.16610217 287.87109375 343.1171875 C287.58641416 316.86972961 279.35790362 290.22841958 261.62109375 270.4921875 C260.37199219 269.03039062 260.37199219 269.03039062 259.09765625 267.5390625 C247.99419071 254.74071943 234.28922668 245.92901653 218.99609375 238.8671875 C214.79941489 236.79985801 212.62731175 234.85353097 210.62109375 230.4921875 C209.60936371 225.43353729 209.74638639 221.31715636 210.55859375 216.2421875 C215.25726943 182.82457697 206.5549487 149.8540393 186.31640625 122.90625 C166.44595248 97.30421574 138.87345642 80.63020595 106.62109375 76.03515625 C84.25262799 73.32857189 62.41249334 76.48983238 41.859375 85.734375 C36.20195746 88.24685752 31.68415991 89.37072562 25.62109375 87.4921875 C21.46900872 85.41386294 19.69997279 83.52573401 17.60546875 79.40625 C17.08114258 78.39908936 16.55681641 77.39192871 16.01660156 76.35424805 C15.47358398 75.28601807 14.93056641 74.21778809 14.37109375 73.1171875 C9.63211119 64.0916041 4.83120045 55.60144503 -1.37890625 47.4921875 C-2.03503906 46.615625 -2.69117188 45.7390625 -3.3671875 44.8359375 C-28.64172066 12.46930369 -65.18598831 -8.81251846 -106.04296875 -14.1640625 C-107.14382813 -14.2775 -108.2446875 -14.3909375 -109.37890625 -14.5078125 C-110.02053711 -14.57484375 -110.66216797 -14.641875 -111.32324219 -14.7109375 C-155.2866663 -19.00609589 -197.0233818 -2.83649791 -229.37890625 26.4921875 Z " fill="#000000" transform="translate(1649.37890625,137.5078125)"/>
<path d="M0 0 C3.77387014 1.07557637 5.88383648 2.71862947 8.90234375 5.2109375 C18.7757826 12.92571146 28.68059853 15.84524538 41.15234375 14.8984375 C45.84705886 13.95212058 50.34376112 12.65652603 54.76171875 10.8046875 C58.41025743 9.42158133 60.42666484 9.74219232 64.15234375 10.8984375 C66.90764269 13.25574881 68.99353685 15.99783792 71.15234375 18.8984375 C71.79945313 19.72601563 72.4465625 20.55359375 73.11328125 21.40625 C79.73698851 30.24687152 79.73698851 30.24687152 79.15234375 35.8984375 C77.54585898 39.05944528 75.74992936 42.04316026 73.87890625 45.0546875 C69.51771726 52.23782231 68.75765816 60.72650097 70.60351562 68.89501953 C71.77548153 73.25744971 73.15333972 77.5556705 74.51953125 81.86035156 C79.36323194 97.46035673 80.09513548 112.66057048 72.52734375 127.5859375 C66.56369111 137.75835248 58.35616291 145.32822411 48.15234375 151.0859375 C47.12379272 151.67012451 47.12379272 151.67012451 46.07446289 152.26611328 C40.41296855 155.39190669 34.58026675 157.85415518 28.58984375 160.2734375 C20.87112896 163.39856203 14.37895342 167.05468096 7.94506836 172.35693359 C4.38531241 175.25383844 1.78908618 176.74103747 -2.84765625 176.8984375 C-5.10200551 175.66879245 -6.85012255 174.4717562 -8.84765625 172.8984375 C-15.98206281 167.46776982 -23.27556532 163.61295009 -31.47265625 160.0234375 C-51.71956458 150.88110161 -68.84691533 142.94646481 -77.9453125 121.28515625 C-82.77587114 106.47893233 -79.44352223 92.45632271 -75.33837891 77.95922852 C-72.70610889 68.46899089 -71.387502 59.87843082 -74.53515625 50.3359375 C-75.06882812 48.70591797 -75.06882812 48.70591797 -75.61328125 47.04296875 C-76.79597885 44.03008404 -78.19628307 41.33813488 -79.78515625 38.5234375 C-81.93148801 34.35112902 -81.93148801 34.35112902 -81.22265625 30.5234375 C-80.265625 28.8828125 -80.265625 28.8828125 -78.84765625 26.8984375 C-78.18378906 25.93421875 -77.51992187 24.97 -76.8359375 23.9765625 C-68.82016622 12.81708466 -68.82016622 12.81708466 -63.84765625 9.8984375 C-58.96678062 9.8984375 -54.60959314 11.53672743 -50.05859375 13.1796875 C-39.36811775 16.65503659 -29.09707291 15.12567153 -18.84765625 10.8984375 C-14.93349272 8.73378646 -11.42696975 6.17491357 -7.953125 3.3671875 C-3.50076956 -0.12485598 -3.50076956 -0.12485598 0 0 Z M-1.84765625 44.8984375 C-5.79761768 50.25605257 -7.65058091 55.67258962 -9.64648438 61.97265625 C-11.54211407 67.69474272 -11.54211407 67.69474272 -14.84765625 69.8984375 C-17.35961914 70.20141602 -17.35961914 70.20141602 -20.3203125 70.27734375 C-21.91649414 70.32858398 -21.91649414 70.32858398 -23.54492188 70.38085938 C-24.65544922 70.40728516 -25.76597656 70.43371094 -26.91015625 70.4609375 C-29.10948786 70.52072269 -31.30871995 70.58433058 -33.5078125 70.65234375 C-34.48371338 70.67627197 -35.45961426 70.7002002 -36.46508789 70.72485352 C-38.86323539 70.74746064 -38.86323539 70.74746064 -40.84765625 71.8984375 C-40.3565315 76.10659643 -39.38208058 77.80142912 -36.1015625 80.44921875 C-35.34681641 81.06474609 -34.59207031 81.68027344 -33.81445312 82.31445312 C-32.62432617 83.25321289 -32.62432617 83.25321289 -31.41015625 84.2109375 C-30.62060547 84.85611328 -29.83105469 85.50128906 -29.01757812 86.16601562 C-25.35230648 89.57271999 -25.35230648 89.57271999 -20.84765625 90.8984375 C-21.52379706 97.77777718 -23.20175652 104.0298126 -25.20703125 110.62695312 C-25.43132812 111.39330078 -25.655625 112.15964844 -25.88671875 112.94921875 C-26.09506348 113.63669189 -26.3034082 114.32416504 -26.51806641 115.0324707 C-27.03919795 117.11784734 -27.03919795 117.11784734 -25.84765625 119.8984375 C-19.09351458 119.49803597 -14.98680561 115.67386802 -9.85742188 111.671875 C-6.46299683 109.17243259 -4.61486987 107.93068763 -0.31640625 107.75 C3.96057785 109.16602852 7.11197443 111.24330351 10.71484375 113.8984375 C15.1761554 117.16613271 18.44956821 119.47666057 24.15234375 119.8984375 C23.67349716 112.95516202 22.06554662 106.7734645 19.9921875 100.1328125 C18.5767777 94.68183894 18.5767777 94.68183894 19.15234375 91.8984375 C21.13821011 89.8468733 22.97997193 88.19268179 25.21484375 86.4609375 C26.40761647 85.49747554 27.60032528 84.53393445 28.79296875 83.5703125 C29.37111328 83.11205078 29.94925781 82.65378906 30.54492188 82.18164062 C32.56052316 80.57258833 34.51705863 78.90116426 36.46484375 77.2109375 C37.35171875 76.4478125 38.23859375 75.6846875 39.15234375 74.8984375 C38.65734375 73.4134375 38.65734375 73.4134375 38.15234375 71.8984375 C32.34464509 70.95040438 26.59025188 70.59396478 20.71484375 70.3359375 C19.79251953 70.29275391 18.87019531 70.24957031 17.91992188 70.20507812 C15.66418212 70.09988819 13.40834876 69.99774643 11.15234375 69.8984375 C10.42317708 68.1484375 9.69401042 66.3984375 8.96484375 64.6484375 C8.50980469 63.56433594 8.05476563 62.48023438 7.5859375 61.36328125 C6.63840829 59.07320384 5.7134334 56.77364976 4.8125 54.46484375 C4.17634766 52.85416016 4.17634766 52.85416016 3.52734375 51.2109375 C3.14320312 50.21707031 2.7590625 49.22320312 2.36328125 48.19921875 C1.31796883 45.56907631 1.31796883 45.56907631 -1.84765625 44.8984375 Z " fill="#000000" transform="translate(1525.84765625,212.1015625)"/>
<path d="M0 0 C1.74539335 -0.00082964 3.49078661 -0.0032926 5.23617554 -0.00730896 C8.8826263 -0.01015852 12.52845995 0.00445432 16.17480469 0.03198242 C20.83994633 0.06611487 25.50398896 0.06002232 30.16918373 0.04131985 C33.76898302 0.03073534 37.36852802 0.03969994 40.96830368 0.05470467 C42.68822855 0.05987289 44.40818011 0.05942123 46.12810135 0.05315971 C48.53340765 0.0476877 50.93715655 0.06814195 53.34228516 0.09545898 C54.39913765 0.08567017 54.39913765 0.08567017 55.4773407 0.07568359 C60.47066888 0.17174788 63.30077214 1.5033439 67.1484375 4.62890625 C70.53275848 9.11084484 72.27766832 12.49350356 72.26196289 18.1003418 C72.26188736 19.00104904 72.26181183 19.90175629 72.26173401 20.82975769 C72.25657272 21.7985939 72.25141144 22.76743011 72.24609375 23.765625 C72.2446788 24.76020218 72.24326385 25.75477936 72.24180603 26.77949524 C72.23620511 29.95849607 72.22365246 33.13742668 72.2109375 36.31640625 C72.20592262 38.47070211 72.20135969 40.62499907 72.19726562 42.77929688 C72.18623538 48.06252399 72.16949636 53.3457101 72.1484375 58.62890625 C72.85500901 58.62738737 73.56158053 58.62586849 74.2895633 58.62430358 C116.15072246 58.53482474 158.01187054 58.46617695 199.87310607 58.42464493 C204.89750056 58.419642 209.92189486 58.41446472 214.94628906 58.40917969 C215.94657115 58.40813045 216.94685323 58.4070812 217.9774469 58.40600017 C234.18177217 58.38858676 250.38604077 58.35704392 266.5903324 58.32029507 C283.21284025 58.28291168 299.83531839 58.26067591 316.45786655 58.25255227 C326.71795131 58.2470591 336.97787592 58.22969868 347.23791139 58.19724038 C354.27006189 58.17612462 361.30212938 58.16969954 368.33430929 58.17490074 C372.39379667 58.17746711 376.45300386 58.17348559 380.51244164 58.15208435 C384.22855395 58.13263592 387.94419733 58.13162478 391.66033112 58.14531067 C393.6422346 58.14780417 395.62413248 58.13053679 397.6059562 58.11258101 C408.37590904 58.18533966 408.37590904 58.18533966 413.1484375 62.62890625 C418.07548765 68.62126455 418.27037801 74.61368626 418.28265858 82.13700008 C418.28711642 83.41047643 418.29157426 84.68395277 418.29616719 85.9960193 C418.29607792 87.39659243 418.2958881 88.79716555 418.29560852 90.19773865 C418.29891085 91.69538199 418.30263719 93.19302445 418.30675 94.69066578 C418.31673526 98.79817809 418.32048114 102.90567578 418.32313931 107.01319849 C418.32705242 111.44613233 418.33662968 115.87905471 418.34535217 120.3119812 C418.36508273 131.00996752 418.37517606 141.70795474 418.38407996 152.40595469 C418.38846631 157.44517283 418.39383203 162.48438993 418.39906883 167.52360725 C418.41607368 184.27483496 418.43056958 201.02606201 418.43781757 217.77729702 C418.43972741 222.12081846 418.44164776 226.4643399 418.44360352 230.80786133 C418.44408726 231.8873975 418.444571 232.96693366 418.4450694 234.07918305 C418.45337641 251.58148655 418.47872798 269.08372185 418.51118419 286.58599555 C418.54423981 304.55797438 418.56226477 322.52991852 418.56546181 340.50192791 C418.56762772 350.59162923 418.57638884 360.68123094 418.60192299 370.77090263 C418.62360906 379.35967555 418.63169052 387.94832464 418.62195621 396.53712182 C418.61740615 400.91890996 418.61933886 405.30044246 418.63871765 409.68219566 C418.65631085 413.69481479 418.65538312 417.70699106 418.63982036 421.71961463 C418.6374385 423.16974539 418.64179786 424.61990652 418.65364901 426.06999081 C418.77517267 441.92354518 418.77517267 441.92354518 412.63032323 448.17281908 C408.47024861 451.78068397 406.08214779 452.75342461 400.68614006 452.76757145 C399.51870384 452.77304589 398.35126762 452.77852034 397.14845455 452.78416067 C395.8547035 452.78513878 394.56095245 452.78611689 393.22799683 452.78712463 C391.84858592 452.79168771 390.46917641 452.79668736 389.08976853 452.8020882 C385.28616461 452.81570767 381.48256965 452.82309865 377.67894769 452.82951486 C373.58213765 452.83750213 369.48534638 452.85120563 365.3885498 452.86422729 C358.28621888 452.88601385 351.18388608 452.90415035 344.08153915 452.91983223 C333.81264236 452.94251104 323.54376632 452.9706566 313.2748871 453.00015151 C296.61572165 453.04785184 279.95654772 453.0911094 263.29736328 453.1315918 C247.11115865 453.17093431 230.92496156 453.21235754 214.73876953 453.2565918 C213.74163846 453.25931607 212.74450738 453.26204034 211.71716021 453.26484717 C206.71502159 453.27852644 201.71288308 453.29224675 196.71074462 453.30598748 C155.18999127 453.4199906 113.66922168 453.52679146 72.1484375 453.62890625 C72.14957666 454.92968552 72.15071582 456.23046478 72.1518895 457.5706616 C72.20188601 514.88547557 72.24817078 572.20029168 72.27546692 629.51512146 C72.27588109 630.38255339 72.27629526 631.24998531 72.27672198 632.14370306 C72.28570026 650.99437757 72.29401087 669.84505233 72.30163349 688.69572744 C72.30537557 697.93981119 72.30926522 707.18389487 72.31323242 716.42797852 C72.3136247 717.3478863 72.31401698 718.26779409 72.31442114 719.21557787 C72.32721 749.04377313 72.34974752 778.87195137 72.37732916 808.70013632 C72.40561648 839.34706947 72.4240914 869.99399318 72.43018247 900.64093916 C72.43104696 904.96750924 72.43202387 909.29407929 72.43306923 913.62064934 C72.4332715 914.47219807 72.43347377 915.32374681 72.43368217 916.20110005 C72.43723023 929.92034894 72.45115225 943.63956872 72.4689336 957.35880573 C72.48658004 971.14420582 72.49334527 984.929577 72.48894163 998.714988 C72.48665626 1006.90972242 72.49277556 1015.10435118 72.51083013 1023.29906657 C72.52337985 1029.41169531 72.52033473 1035.52421005 72.51113418 1041.63684916 C72.50986175 1044.11475292 72.51370947 1046.59266547 72.52308705 1049.07055182 C72.53506435 1052.42963557 72.52867476 1055.78819603 72.51758099 1059.14727116 C72.52546203 1060.11715885 72.53334307 1061.08704655 72.54146293 1062.08632478 C72.48922665 1069.04960239 71.37001107 1073.75392869 67.0234375 1079.37890625 C58.94145618 1085.70393511 49.25308227 1085.07374496 39.45703125 1085.02734375 C37.94206096 1085.02936892 36.42709162 1085.03228403 34.91212463 1085.03604126 C31.75097286 1085.04044246 28.59007691 1085.03410438 25.42895508 1085.02001953 C21.39530584 1085.00291399 17.36225501 1085.01279115 13.32862759 1085.03073692 C10.20489564 1085.04162222 7.08130357 1085.03810704 3.95756721 1085.03035355 C2.47094716 1085.02836539 0.98431403 1085.03076167 -0.50229073 1085.03779221 C-17.62869355 1085.10104294 -17.62869355 1085.10104294 -24.6640625 1079.31640625 C-29.46593084 1073.416968 -30.28749126 1068.75005142 -30.21232605 1061.4034729 C-30.21488932 1060.48363062 -30.2174526 1059.56378834 -30.22009355 1058.61607206 C-30.22502844 1055.53895342 -30.20854316 1052.46232722 -30.19213867 1049.38525391 C-30.19129234 1047.17750052 -30.19176767 1044.9697463 -30.19346619 1042.76199341 C-30.19432731 1036.7707303 -30.17668238 1030.77964718 -30.15574431 1024.78842592 C-30.13699717 1018.52638949 -30.13522862 1012.26434898 -30.13166809 1006.00228882 C-30.12340165 995.4925445 -30.10465992 984.98285587 -30.07788086 974.47314453 C-30.05033083 963.64958017 -30.02910188 952.82603376 -30.01635742 942.00244141 C-30.01556925 941.33493074 -30.01478108 940.66742007 -30.01396903 939.9796818 C-30.01005383 936.63087376 -30.00626272 933.28206559 -30.00253332 929.93325734 C-29.97117123 902.16509433 -29.91839944 874.39700493 -29.8515625 846.62890625 C-30.61958191 846.78777817 -31.38760132 846.94665009 -32.17889404 847.1103363 C-50.03383221 850.57467708 -69.35253563 849.76728552 -87.4609375 849.6875 C-89.35530493 849.68278143 -91.24967352 849.67850676 -93.14404297 849.67468262 C-97.71324564 849.66451701 -102.28239062 849.64842869 -106.8515625 849.62890625 C-106.85140652 850.33560065 -106.85125054 851.04229505 -106.85108983 851.77040444 C-106.83413863 928.73165053 -106.81843388 1005.69289683 -106.80921936 1082.65414429 C-106.8090813 1083.80427234 -106.80894325 1084.9544004 -106.80880101 1086.13938081 C-106.8058079 1111.13644255 -106.80303775 1136.13350431 -106.80049717 1161.1305661 C-106.79924986 1173.38961568 -106.79795331 1185.64866527 -106.79663086 1197.90771484 C-106.7965001 1199.12761947 -106.79636934 1200.34752409 -106.79623462 1201.60439552 C-106.7919754 1241.12510124 -106.78446568 1280.64580553 -106.77526528 1320.16651039 C-106.76582567 1360.78864236 -106.75967543 1401.41077354 -106.75764751 1442.03290659 C-106.75735937 1447.7741795 -106.75703373 1453.5154524 -106.75668526 1459.25672531 C-106.75661783 1460.3866591 -106.75655041 1461.51659289 -106.75648094 1462.68076709 C-106.75530051 1480.84908209 -106.75066593 1499.01739464 -106.74473047 1517.18570865 C-106.73883332 1535.46339466 -106.736597 1553.74107824 -106.73806112 1572.01876517 C-106.73882007 1582.86978408 -106.73680851 1593.72079409 -106.73076496 1604.5718114 C-106.72699822 1611.83287558 -106.72691063 1619.09393399 -106.72973069 1626.35499859 C-106.73123153 1630.48414841 -106.73121267 1634.61328147 -106.72667932 1638.74242945 C-106.69784021 1666.82860879 -106.69784021 1666.82860879 -107.26142216 1680.21172142 C-107.29547927 1681.06228396 -107.32953639 1681.91284649 -107.36462554 1682.78918365 C-108.37499998 1702.97629469 -116.99419023 1721.21040911 -131.4140625 1735.25390625 C-137.27797302 1740.34484674 -143.76519749 1743.61309931 -150.8515625 1746.62890625 C-151.84542969 1747.06460937 -152.83929688 1747.5003125 -153.86328125 1747.94921875 C-168.74246824 1753.51189519 -187.40235209 1752.27290582 -201.7734375 1745.9296875 C-217.12480702 1738.83588797 -229.54682409 1729.14198383 -235.7265625 1712.81640625 C-241.38432322 1695.10176234 -242.00010109 1677.50946721 -242.00978088 1659.0957489 C-242.01435484 1657.24074235 -242.01935606 1655.38573682 -242.02474445 1653.53073245 C-242.03824008 1648.46360274 -242.04571886 1643.39647968 -242.05217111 1638.32933676 C-242.06021303 1632.85370525 -242.07389761 1627.37808743 -242.08688354 1621.90246582 C-242.10859276 1612.42559427 -242.12675742 1602.94872129 -242.14248848 1593.471838 C-242.16523788 1579.76999343 -242.19337357 1566.06816404 -242.22280776 1552.36633239 C-242.27042165 1530.13395822 -242.31371093 1507.90157752 -242.35424805 1485.66918945 C-242.3936275 1464.07738764 -242.43505714 1442.48559135 -242.47924805 1420.89379883 C-242.48061058 1420.22766568 -242.48197311 1419.56153252 -242.48337692 1418.87521352 C-242.49842094 1411.52148974 -242.51352088 1404.16776607 -242.52864373 1396.81404245 C-242.64251102 1341.41900856 -242.74926947 1286.02396262 -242.8515625 1230.62890625 C-249.4515625 1230.62890625 -256.0515625 1230.62890625 -262.8515625 1230.62890625 C-262.85017981 1233.88920825 -262.85017981 1233.88920825 -262.84876919 1237.21537495 C-262.82698679 1288.94879268 -262.81059421 1340.68221002 -262.80049717 1392.4156314 C-262.79924664 1398.79962993 -262.7979523 1405.18362844 -262.79663086 1411.56762695 C-262.79623739 1413.47383034 -262.79623739 1413.47383034 -262.79583598 1415.41854288 C-262.79149876 1435.9261211 -262.78362203 1456.43369647 -262.7744097 1476.94127301 C-262.7650188 1498.0240832 -262.75949544 1519.10689192 -262.75747401 1540.18970412 C-262.75611001 1553.17203245 -262.75182092 1566.15435275 -262.74364603 1579.1366786 C-262.73831133 1588.07012949 -262.73677329 1597.00357632 -262.73806112 1605.93702868 C-262.73869413 1611.0713707 -262.73780733 1616.20569883 -262.73235703 1621.3400383 C-262.71428576 1639.50026752 -262.71884963 1657.6629324 -263.12268639 1675.81957199 C-263.15428967 1677.29519785 -263.18166657 1678.77092212 -263.20420461 1680.24671427 C-263.39738365 1692.20138762 -264.96127711 1703.07856043 -270.5390625 1713.75390625 C-270.88791504 1714.43130859 -271.23676758 1715.10871094 -271.59619141 1715.80664062 C-280.47829937 1732.54185617 -295.07210884 1743.27334773 -312.9453125 1749.01953125 C-327.2225482 1753.16525834 -339.8524823 1752.17978834 -353.8515625 1747.62890625 C-355.24568359 1747.17837891 -355.24568359 1747.17837891 -356.66796875 1746.71875 C-363.13965703 1744.3792195 -368.4297854 1740.82210332 -373.8515625 1736.62890625 C-374.56441406 1736.09394531 -375.27726563 1735.55898437 -376.01171875 1735.0078125 C-388.82326583 1724.71414172 -394.53000444 1708.33029706 -396.57464661 1692.50839587 C-397.60008716 1681.84542742 -397.27614556 1671.03739139 -397.25330029 1660.33273861 C-397.24811201 1656.33082344 -397.26042614 1652.32895344 -397.27043182 1648.32705265 C-397.28556548 1641.32700852 -397.28973268 1634.32702604 -397.28655434 1627.32696724 C-397.28187882 1616.9182906 -397.29441417 1606.50968339 -397.31038407 1596.10102047 C-397.3367702 1578.58863823 -397.34933547 1561.07627181 -397.35394859 1543.56387138 C-397.35855979 1526.23130702 -397.36936001 1508.89876458 -397.38837624 1491.56620979 C-397.38955636 1490.48741423 -397.39073649 1489.40861866 -397.39195238 1488.29713232 C-397.39797803 1482.81818953 -397.40411377 1477.33924686 -397.41029189 1471.86030424 C-397.45382223 1433.08078479 -397.48355114 1394.30126587 -397.50512695 1355.52172852 C-397.52611563 1317.8544028 -397.55337862 1280.18709013 -397.58911133 1242.51977539 C-397.59021081 1241.35814178 -397.59131028 1240.19650817 -397.59244308 1238.99967354 C-397.60349167 1227.33377842 -397.61466756 1215.66788343 -397.6259367 1204.00198853 C-397.64888912 1180.23847338 -397.67099209 1156.47495746 -397.69258118 1132.71144104 C-397.6935748 1131.6188991 -397.69456841 1130.52635716 -397.69559214 1129.40070788 C-397.76181591 1056.47678469 -397.80823983 983.5528462 -397.8515625 910.62890625 C-398.97584362 914.2835325 -400.095712 917.93949704 -401.21484375 921.59570312 C-401.53038208 922.62121277 -401.84592041 923.64672241 -402.17102051 924.70330811 C-404.7402936 933.1091719 -406.94585562 941.54930515 -408.8515625 950.12890625 C-409.01320892 950.84626953 -409.17485535 951.56363281 -409.34140015 952.30273438 C-418.45089409 992.85151446 -422.89300274 1033.24322094 -425.984375 1074.640625 C-426.05716171 1075.6097583 -426.12994843 1076.5788916 -426.2049408 1077.57739258 C-426.34964138 1079.53604677 -426.49031476 1081.49500189 -426.62733459 1083.45420837 C-426.784737 1085.68276722 -426.95304086 1087.91057007 -427.12937927 1090.13771057 C-427.91039069 1100.83482107 -427.93088668 1111.47473987 -427.83503151 1122.19650459 C-427.8079314 1125.39857416 -427.79035441 1128.60057014 -427.77555847 1131.80271912 C-427.73325603 1140.89489656 -427.68523442 1149.9869282 -427.60473633 1159.07885742 C-427.55588915 1164.67348888 -427.52713296 1170.26792799 -427.51099205 1175.86274529 C-427.50118392 1177.97441237 -427.48411306 1180.08606024 -427.45920753 1182.19760323 C-427.22978933 1202.0747475 -429.59588855 1220.76209635 -443.984375 1235.91796875 C-454.64814969 1245.68937736 -466.23654947 1247.40523026 -480.25 1246.97265625 C-492.4269102 1246.27597974 -502.39963346 1240.63298464 -510.6640625 1231.81640625 C-520.79331316 1219.48929932 -522.00418538 1205.22057566 -521.99682617 1189.89477539 C-522.00018478 1188.86998581 -522.0035434 1187.84519623 -522.00700378 1186.78935242 C-522.01646308 1183.4142432 -522.01845645 1180.03918415 -522.01953125 1176.6640625 C-522.02275454 1174.27029908 -522.02611937 1171.87653586 -522.02961731 1169.48277283 C-522.03560135 1164.45018053 -522.03745868 1159.41760536 -522.03686523 1154.38500977 C-522.03678497 1149.3149857 -522.04356463 1144.2450539 -522.05737305 1139.17504883 C-522.12386541 1114.37082741 -522.13478411 1089.59001183 -520.95703125 1064.80859375 C-520.91755056 1063.96754152 -520.87806988 1063.1264893 -520.83739281 1062.25995064 C-518.24566035 1008.79022894 -508.94753792 956.8318606 -495.49536133 905.10705566 C-494.8993201 902.81273769 -494.30742033 900.51739713 -493.71679688 898.22167969 C-480.60708954 847.43227802 -458.93483667 797.01862743 -415.8515625 764.62890625 C-414.86027344 763.8709375 -413.86898437 763.11296875 -412.84765625 762.33203125 C-404.70532434 756.37763883 -396.32711926 752.0775453 -386.8515625 748.62890625 C-385.84488525 748.25741455 -385.84488525 748.25741455 -384.81787109 747.87841797 C-374.59408856 744.27389488 -364.31192805 743.12916315 -353.5324707 742.50219727 C-352.83271012 742.46059829 -352.13294954 742.41899931 -351.41198409 742.37613976 C-331.80600243 741.24037882 -312.18231111 741.38936275 -292.5513742 741.45904994 C-287.13544096 741.47569153 -281.71949734 741.47944359 -276.30354309 741.48451233 C-264.86320318 741.49707516 -253.42291655 741.52206111 -241.98260498 741.54986572 C-168.23273477 741.80369007 -168.23273477 741.80369007 -94.48508668 741.34385991 C-92.46774326 741.3210519 -90.45034163 741.30358582 -88.43294334 741.28629875 C-87.17641771 741.27479853 -85.91989208 741.2632983 -84.62528992 741.25144958 C-83.55168559 741.2427053 -82.47808126 741.23396101 -81.37194347 741.22495174 C-63.90808902 740.87388727 -47.46530673 739.23015573 -29.8515625 737.62890625 C-29.8515625 643.57890625 -29.8515625 549.52890625 -29.8515625 452.62890625 C-54.6015625 452.95890625 -79.3515625 453.28890625 -104.8515625 453.62890625 C-141.08346135 453.72732188 -141.08346135 453.72732188 -158.8969059 453.67170143 C-164.19101056 453.65571938 -169.48511482 453.64081013 -174.7792263 453.62735558 C-186.01563272 453.59842269 -197.25202786 453.56726727 -208.48840046 453.5271349 C-209.18865985 453.52463841 -209.88891923 453.52214193 -210.6103986 453.5195698 C-211.31149533 453.51706858 -212.01259206 453.51456737 -212.73493415 453.51199037 C-214.15377444 453.50693127 -215.57261475 453.50187654 -216.99145508 453.49682617 C-218.0469559 453.49306586 -218.0469559 453.49306586 -219.12377997 453.48922958 C-230.71589847 453.4484139 -242.30798407 453.425676 -253.90016089 453.40984754 C-265.95986014 453.39311604 -278.01944618 453.36152734 -290.07906789 453.31496352 C-296.78960605 453.28940083 -303.50000505 453.27054687 -310.21059608 453.26758766 C-316.45540327 453.26444768 -322.69986076 453.24258226 -328.9445591 453.2060318 C-331.230301 453.19590598 -333.51608467 453.1925923 -335.80184555 453.19656181 C-338.91621953 453.2009366 -342.02950872 453.18088194 -345.14375305 453.15461731 C-346.0478541 453.16169561 -346.95195514 453.16877391 -347.88345319 453.1760667 C-353.3450873 453.09730117 -356.65812135 452.45253138 -360.8515625 448.62890625 C-367.15248462 442.0366775 -366.55473578 434.29305902 -366.47975159 425.66734314 C-366.48480044 424.13924295 -366.49203188 422.61114868 -366.50124973 421.08306795 C-366.52015086 416.89587469 -366.50795059 412.70926675 -366.4905268 408.52208841 C-366.47714444 404.00191269 -366.49259295 399.48182214 -366.50434875 394.96165466 C-366.52272277 386.1116544 -366.51421481 377.26187499 -366.49626053 368.41188162 C-366.48223279 361.21961037 -366.47834211 354.02739905 -366.4817028 346.83511543 C-366.48218025 345.81133675 -366.48265769 344.78755807 -366.4831496 343.7327558 C-366.48417593 341.65295817 -366.48523129 339.57316057 -366.48631536 337.49336297 C-366.49488183 319.10515027 -366.47820865 300.71704418 -366.44848633 282.32885742 C-366.41964486 264.48538739 -366.41256746 246.64207093 -366.42797852 228.79858398 C-366.44473807 209.36715114 -366.44877771 189.93579119 -366.43126816 170.50435644 C-366.42942377 168.43253141 -366.42758904 166.36070636 -366.42576408 164.2888813 C-366.42485199 163.26950539 -366.4239399 162.25012948 -366.42300018 161.19986339 C-366.41739358 154.01555842 -366.42070307 146.83128904 -366.42730904 139.64698601 C-366.435039 130.8927593 -366.42830162 122.13868379 -366.403134 113.38448756 C-366.39063165 108.91777653 -366.38450137 104.45130098 -366.39567566 99.98458099 C-366.40571202 95.89554045 -366.39727155 91.80696964 -366.37409448 87.71798629 C-366.3689327 86.23897994 -366.37050157 84.75993155 -366.37948913 83.28094351 C-366.45622909 69.50657095 -366.45622909 69.50657095 -361.8515625 63.62890625 C-357.58746021 59.77090894 -355.21496267 58.50367015 -349.5298214 58.50585842 C-347.82569291 58.50287185 -347.82569291 58.50287185 -346.08713758 58.49982494 C-344.82840507 58.50273778 -343.56967255 58.50565062 -342.27279663 58.50865173 C-340.93051019 58.50821601 -339.58822384 58.50734108 -338.24593794 58.50606257 C-334.54493436 58.50381783 -330.84395951 58.50783861 -327.14295959 58.51284063 C-323.15659076 58.51714524 -319.17022365 58.5156987 -315.18385315 58.51493835 C-308.27304066 58.51441313 -301.36223758 58.51755981 -294.45142746 58.52317619 C-284.45946471 58.53129134 -274.46750652 58.53390643 -264.47554083 58.53516418 C-248.26559235 58.53735468 -232.05564888 58.5440147 -215.84570312 58.5534668 C-200.0960289 58.56264098 -184.34635604 58.56972178 -168.59667969 58.57397461 C-167.62643157 58.57423733 -166.65618346 58.57450006 -165.65653388 58.57477074 C-160.789252 58.57607575 -155.92197011 58.57733946 -151.05468822 58.57858264 C-110.65364282 58.58895518 -70.25260294 58.60657343 -29.8515625 58.62890625 C-29.86044495 58.08290771 -29.86932739 57.53690918 -29.878479 56.97436523 C-29.96734529 51.26377895 -30.02745863 45.55339084 -30.07128906 39.84228516 C-30.09133718 37.71427423 -30.11858304 35.58631793 -30.15332031 33.45849609 C-30.20213798 30.39016192 -30.22459976 27.32255952 -30.2421875 24.25390625 C-30.26283264 23.31087646 -30.28347778 22.36784668 -30.30474854 21.39624023 C-30.30702471 14.61322657 -29.11613471 9.01307151 -24.28149986 4.00132656 C-17.8518319 -1.478406 -7.93011349 -0.0682015 0 0 Z M3.1484375 32.62890625 C3.1484375 41.20890625 3.1484375 49.78890625 3.1484375 58.62890625 C8.11472184 58.65181581 13.08082413 58.67174268 18.04711914 58.68383789 C19.73788066 58.68887815 21.42863779 58.6957103 23.11938477 58.7043457 C25.54444457 58.71642482 27.96944694 58.72213748 30.39453125 58.7265625 C31.15495224 58.73172379 31.91537323 58.73688507 32.69883728 58.74220276 C34.5157632 58.74239863 36.33256877 58.69087902 38.1484375 58.62890625 C39.86411542 56.91322833 39.27859575 54.6551789 39.28125 52.31640625 C39.28253906 51.24132812 39.28382813 50.16625 39.28515625 49.05859375 C39.27935547 47.36089844 39.27935547 47.36089844 39.2734375 45.62890625 C39.27923828 43.93121094 39.27923828 43.93121094 39.28515625 42.19921875 C39.28322266 40.58660156 39.28322266 40.58660156 39.28125 38.94140625 C39.27955811 37.45060547 39.27955811 37.45060547 39.27783203 35.9296875 C39.4067808 33.66515399 39.4067808 33.66515399 38.1484375 32.62890625 C35.55484428 32.54039096 32.98804059 32.5136468 30.39453125 32.53125 C29.61908463 32.53266495 28.843638 32.5340799 28.04469299 32.53553772 C25.55840256 32.5411528 23.0722009 32.55370779 20.5859375 32.56640625 C18.90429817 32.57141931 17.22265744 32.57598255 15.54101562 32.58007812 C11.41009421 32.59027793 7.27936568 32.6098502 3.1484375 32.62890625 Z M-332.8515625 90.62890625 C-332.8515625 199.19890625 -332.8515625 307.76890625 -332.8515625 419.62890625 C-96.2415625 419.62890625 140.3684375 419.62890625 384.1484375 419.62890625 C384.1484375 311.05890625 384.1484375 202.48890625 384.1484375 90.62890625 C147.5384375 90.62890625 -89.0715625 90.62890625 -332.8515625 90.62890625 Z M3.1484375 452.62890625 C3.1484375 649.96890625 3.1484375 847.30890625 3.1484375 1050.62890625 C15.0284375 1050.62890625 26.9084375 1050.62890625 39.1484375 1050.62890625 C39.16549027 993.72688361 39.18146879 936.8248608 39.19078064 879.9228363 C39.19098773 878.66062342 39.19098773 878.66062342 39.19119899 877.37291129 C39.19419154 859.08765963 39.19696178 840.80240794 39.19950283 822.51715622 C39.20075022 813.55074411 39.20204677 804.58433202 39.20336914 795.61791992 C39.20356528 794.27948443 39.20356528 794.27948443 39.20376538 792.91400983 C39.20803066 763.96541834 39.21554489 735.01682879 39.22473472 706.06823847 C39.23415731 676.33261555 39.24032062 646.5969937 39.24235249 616.86136931 C39.24264067 612.66639339 39.2429663 608.47141748 39.24331474 604.27644157 C39.24338217 603.45076816 39.24344959 602.62509475 39.24351906 601.77440093 C39.24470315 588.45566709 39.24934759 575.13693658 39.25526953 561.8182041 C39.26114238 548.44514947 39.2634091 535.07209814 39.26193888 521.69904227 C39.26117532 513.74303582 39.26323252 505.78704144 39.26923504 497.83103716 C39.27340138 491.90678286 39.27241254 485.98253702 39.26933639 480.05828177 C39.26891046 477.64912749 39.27020824 475.23997222 39.27332068 472.83081991 C39.2772805 469.57903401 39.2752035 466.32730911 39.27148533 463.07552433 C39.27542585 461.64277351 39.27542585 461.64277351 39.27944598 460.18107823 C39.68810947 456.08107734 39.68810947 456.08107734 38.1484375 452.62890625 C26.5984375 452.62890625 15.0484375 452.62890625 3.1484375 452.62890625 Z " fill="#000000" transform="translate(590.8515625,235.37109375)"/>
<path d="M0 0 C9.45072853 8.86404363 15.7129342 19.46603901 16.19140625 32.58984375 C16.20503323 35.26073227 16.17183597 37.92064791 16.08203125 40.58984375 C10.81027951 43.75790358 5.03125356 42.78175415 -0.91796875 42.58984375 C-2.02398438 42.56083984 -2.02398438 42.56083984 -3.15234375 42.53125 C-5.47113727 42.46510992 -7.78780587 42.37503057 -10.10546875 42.27734375 C-10.84821045 42.25502686 -11.59095215 42.23270996 -12.35620117 42.2097168 C-14.4609375 42.1015625 -14.4609375 42.1015625 -17.91796875 41.58984375 C-19.78875972 38.78365729 -20.41505889 37.08894547 -21.23046875 33.90234375 C-22.86108431 28.38085343 -24.660839 22.66573975 -29.73828125 19.4296875 C-36.82372944 16.44268483 -43.77920488 16.94243995 -50.87109375 19.546875 C-55.19122784 21.7481647 -57.18336744 25.08725017 -59.29296875 29.40234375 C-60.38948281 34.99456545 -59.86731428 39.65317888 -57.35546875 44.77734375 C-51.69127612 51.31295063 -44.83294696 54.83341381 -36.91796875 58.02734375 C-35.05594618 58.80588578 -33.19396745 59.58453267 -31.33203125 60.36328125 C-28.74532853 61.4302164 -26.15689772 62.4925464 -23.56542969 63.54785156 C-7.56941903 70.08485458 5.93195909 78.31153112 13.07421875 94.71875 C18.07693473 108.97067344 18.55185191 126.72306302 12.08203125 140.58984375 C6.50115194 151.44626551 -2.46683187 158.6329064 -13.91796875 162.58984375 C-32.49212182 168.37676581 -55.46907211 167.5387633 -72.91796875 158.58984375 C-85.70582851 150.97460142 -95.60769891 140.7655489 -99.59765625 126.08984375 C-100.76177096 120.85930094 -101.29336707 115.93926982 -100.91796875 110.58984375 C-100.25796875 109.59984375 -99.59796875 108.60984375 -98.91796875 107.58984375 C-96.38791228 107.28527154 -94.10613151 107.16960435 -91.57421875 107.19140625 C-90.84932251 107.18853607 -90.12442627 107.18566589 -89.37756348 107.18270874 C-87.84431172 107.18066644 -86.31103401 107.18620798 -84.77783203 107.19873047 C-82.42681795 107.21478333 -80.07752292 107.19888906 -77.7265625 107.1796875 C-76.23827744 107.1816699 -74.74999346 107.18551353 -73.26171875 107.19140625 C-72.55648071 107.18533356 -71.85124268 107.17926086 -71.12463379 107.17300415 C-69.14257812 107.20166016 -69.14257812 107.20166016 -65.91796875 107.58984375 C-63.83489728 110.71445096 -63.57077101 112.15207668 -63.10546875 115.77734375 C-61.91849657 122.73355283 -59.50905668 127.40181394 -54.10546875 131.96484375 C-46.65018512 135.76557658 -40.06630262 136.24136895 -31.91796875 134.58984375 C-27.83180912 133.22531857 -25.42225186 131.33813481 -22.98046875 127.71484375 C-20.79460625 121.34972213 -20.69034413 113.51452246 -22.69140625 107.1171875 C-27.97347196 97.39593891 -40.23444336 94.0880727 -49.81005859 90.04711914 C-85.07234592 75.14427116 -85.07234592 75.14427116 -93.1953125 56.6875 C-98.50719203 42.60440303 -98.3689896 28.37279973 -92.29296875 14.46484375 C-85.05496511 1.44724019 -72.52143622 -6.12284913 -58.67578125 -10.6640625 C-38.58283566 -16.09997271 -16.41260438 -13.55632784 0 0 Z " fill="#000000" transform="translate(922.91796875,408.41015625)"/>
<path d="M0 0 C3.92553138 -0.06921579 7.85085951 -0.11672932 11.77685547 -0.15002441 C13.31450122 -0.16435976 14.85211405 -0.18301213 16.38964844 -0.2064209 C29.7647144 -0.3919006 43.89523723 0.14869825 55.93310547 6.640625 C56.59028564 6.98432129 57.24746582 7.32801758 57.92456055 7.68212891 C69.72756846 14.18124435 76.3567797 23.60640122 80.30810547 36.265625 C84.59641354 53.788539 81.83274795 71.19296535 73.55810547 87.078125 C69.13291292 93.24437691 63.93434507 98.00818483 57.55810547 102.078125 C58.8872854 106.22586291 60.40739377 110.21179545 62.14013672 114.20703125 C62.65423096 115.39369385 63.1683252 116.58035645 63.69799805 117.80297852 C63.97060455 118.4284256 64.24321106 119.05387268 64.52407837 119.69827271 C65.38282907 121.668672 66.23757764 123.64077534 67.09204102 125.61303711 C70.10311254 132.54641933 73.16680288 139.45273652 76.30810547 146.328125 C76.60899582 146.98908676 76.90988617 147.65004852 77.21989441 148.33103943 C78.66662964 151.50880994 80.12201833 154.68196794 81.59448242 157.84790039 C82.37505005 159.55707642 82.37505005 159.55707642 83.17138672 161.30078125 C83.63327393 162.29859619 84.09516113 163.29641113 84.57104492 164.32446289 C85.59930211 167.19305375 85.99409736 169.06538624 85.55810547 172.078125 C84.5324707 173.85913086 84.5324707 173.85913086 82.55810547 175.078125 C79.94875063 175.41275381 77.58152028 175.56984098 74.96826172 175.58203125 C74.22732773 175.59201645 73.48639374 175.60200165 72.7230072 175.61228943 C71.15711039 175.6274651 69.59111676 175.63451539 68.02514648 175.6340332 C65.63151002 175.64059511 63.24202312 175.69506722 60.84912109 175.75195312 C59.32634881 175.76075586 57.80355684 175.76670963 56.28076172 175.76953125 C55.56710953 175.7910878 54.85345734 175.81264435 54.11817932 175.83485413 C52.08569336 175.80688477 52.08569336 175.80688477 48.55810547 175.078125 C45.43927091 171.48699852 43.71253792 167.47906577 41.92919922 163.09765625 C41.45643555 161.94563721 40.98367188 160.79361816 40.49658203 159.60668945 C39.99604429 158.36808704 39.49572364 157.12939688 38.99560547 155.890625 C38.47368879 154.61069916 37.95121962 153.33099848 37.42822266 152.05151367 C36.34618138 149.40160783 35.26798322 146.7501826 34.19238281 144.09765625 C32.58490141 140.13737933 30.95758056 136.18544755 29.32763672 132.234375 C28.32048865 129.78672014 27.3143583 127.33864817 26.30810547 124.890625 C25.83042725 123.73344971 25.35274902 122.57627441 24.8605957 121.3840332 C24.42561768 120.32015381 23.99063965 119.25627441 23.54248047 118.16015625 C23.15801758 117.22405518 22.77355469 116.2879541 22.37744141 115.32348633 C21.55810547 113.078125 21.55810547 113.078125 21.55810547 111.078125 C15.61810547 111.078125 9.67810547 111.078125 3.55810547 111.078125 C3.58428955 112.83922607 3.61047363 114.60032715 3.63745117 116.41479492 C3.71816906 122.24207219 3.77557049 128.06933016 3.81716633 133.89699841 C3.84322935 137.42945345 3.87856413 140.96130213 3.93530273 144.4934082 C4.00016611 148.55686161 4.02431279 152.61968098 4.04638672 156.68359375 C4.07219315 157.9483403 4.09799957 159.21308685 4.12458801 160.51615906 C4.12736577 169.20162116 4.12736577 169.20162116 1.41625977 173.37597656 C-1.89852724 175.35006856 -3.81803679 175.70962761 -7.66064453 175.70703125 C-9.42988281 175.70993164 -9.42988281 175.70993164 -11.23486328 175.71289062 C-12.45818359 175.68904297 -13.68150391 175.66519531 -14.94189453 175.640625 C-16.16521484 175.65158203 -17.38853516 175.66253906 -18.64892578 175.67382812 C-28.99725183 175.58900578 -28.99725183 175.58900578 -33.44189453 171.078125 C-34.06830692 168.00462341 -34.06830692 168.00462341 -34.07008362 164.32202148 C-34.07717801 163.64355636 -34.08427239 162.96509123 -34.09158176 162.26606655 C-34.10918077 159.9932072 -34.09104991 157.72205383 -34.07299805 155.44921875 C-34.07813621 153.8196637 -34.0854167 152.19011421 -34.09468079 150.56057739 C-34.11321645 146.13485821 -34.10024281 141.70974042 -34.08059049 137.28404617 C-34.06422042 132.65477025 -34.07301459 128.0255329 -34.07810974 123.39624023 C-34.08263254 115.62180968 -34.06674935 107.84761958 -34.03881836 100.07324219 C-34.00676557 91.0822107 -34.00678155 82.09161293 -34.02403313 73.10055065 C-34.03989139 64.4550094 -34.03316919 55.8096273 -34.01609612 47.16409302 C-34.00921961 43.48312143 -34.01026419 39.80227719 -34.01764107 36.12130737 C-34.02529661 31.7873527 -34.01320202 27.45389219 -33.98579216 23.12002182 C-33.97889951 21.5285069 -33.9788198 19.9369459 -33.98600769 18.34543228 C-33.99468347 16.17447772 -33.97878124 14.00505484 -33.95655823 11.83422852 C-33.95234785 10.01134056 -33.95234785 10.01134056 -33.94805241 8.15162659 C-33.34438548 4.48602866 -32.35456136 3.30956374 -29.44189453 1.078125 C-27.26416016 0.53222656 -27.26416016 0.53222656 -24.84814453 0.46875 C-23.91800537 0.43620117 -22.98786621 0.40365234 -22.02954102 0.37011719 C-21.01061768 0.35625977 -19.99169434 0.34240234 -18.94189453 0.328125 C-17.32939819 0.28800293 -17.32939819 0.28800293 -15.68432617 0.24707031 C-12.62231158 0.18106846 -9.56087143 0.13695775 -6.49835205 0.10351562 C-4.33204821 0.07676875 -2.16611089 0.03930408 0 0 Z M3.55810547 31.078125 C3.55810547 47.578125 3.55810547 64.078125 3.55810547 81.078125 C22.19861729 82.3014032 22.19861729 82.3014032 38.55810547 75.078125 C44.50204078 67.92553432 45.89217895 60.0657336 45.43310547 50.953125 C44.74617198 44.8722024 43.46595293 39.78309938 38.87841797 35.515625 C33.81323289 31.68956245 29.81964672 30.94939195 23.47998047 30.98046875 C21.91135254 30.98421509 21.91135254 30.98421509 20.31103516 30.98803711 C18.32958496 31.00169312 18.32958496 31.00169312 16.30810547 31.015625 C12.10060547 31.03625 7.89310547 31.056875 3.55810547 31.078125 Z " fill="#000000" transform="translate(335.44189453125,396.921875)"/>
<path d="M0 0 C1.28197266 -0.00386719 2.56394531 -0.00773437 3.88476562 -0.01171875 C4.88141235 -0.00229248 4.88141235 -0.00229248 5.89819336 0.00732422 C7.93085598 0.02341583 9.96153876 0.00744515 11.99414062 -0.01171875 C13.27482422 -0.00785156 14.55550781 -0.00398438 15.875 0 C17.04877197 0.00338379 18.22254395 0.00676758 19.43188477 0.01025391 C22.37109375 0.3984375 22.37109375 0.3984375 24.03071499 1.62521458 C25.77474732 3.9324416 25.74956913 5.28093795 25.75636292 8.15818787 C25.76601074 9.13784012 25.77565857 10.11749237 25.78559875 11.12683105 C25.78102158 12.20057983 25.7764444 13.27432861 25.77172852 14.38061523 C25.78219711 16.07874107 25.78219711 16.07874107 25.7928772 17.81117249 C25.81293217 21.56820015 25.8123541 25.32495466 25.8125 29.08203125 C25.82426982 31.69459272 25.83763307 34.30714745 25.8525238 36.91969299 C25.89353089 44.52021975 25.91208891 52.12072395 25.92869568 59.72133636 C25.95255224 70.02071935 25.99244936 80.31998038 26.04597282 90.61924934 C26.06222437 94.45448548 26.06607379 98.28959643 26.06898499 102.12486267 C26.07877129 104.50048023 26.08903618 106.87609589 26.09985352 109.25170898 C26.09602409 110.83500504 26.09602409 110.83500504 26.09211731 112.45028687 C26.13017947 128.10136589 26.13017947 128.10136589 33.37109375 141.3984375 C40.0842355 146.42615217 48.33827104 146.31620405 56.37109375 145.3984375 C61.15294833 144.15323962 63.64768873 142.29317528 66.74609375 138.4609375 C70.97912883 129.7388204 70.66405091 118.73364721 70.62646484 109.24584961 C70.6300853 108.10920868 70.63370575 106.97256775 70.63743591 105.80148315 C70.64427326 103.36042515 70.64684611 100.91935204 70.64548874 98.47828484 C70.64451611 94.61567338 70.65754845 90.75333454 70.67446899 86.89076233 C70.72054873 75.91848681 70.74546433 64.94624592 70.75195312 53.97387695 C70.75610213 47.24145866 70.78112637 40.50937348 70.81727982 33.77704048 C70.82709181 31.21535553 70.82940219 28.65363057 70.82410812 26.0919323 C70.8170702 22.52312563 70.83424811 18.95519806 70.85693359 15.38647461 C70.84467491 13.79762703 70.84467491 13.79762703 70.83216858 12.17668152 C70.91297745 5.05678904 70.91297745 5.05678904 73.21817017 1.74403381 C76.16058681 -0.09500266 78.28775227 -0.11896331 81.74609375 -0.1328125 C82.9784375 -0.13796875 84.21078125 -0.143125 85.48046875 -0.1484375 C87.40632812 -0.12523437 87.40632812 -0.12523437 89.37109375 -0.1015625 C90.655 -0.11703125 91.93890625 -0.1325 93.26171875 -0.1484375 C94.4940625 -0.14328125 95.72640625 -0.138125 96.99609375 -0.1328125 C98.68605469 -0.12604492 98.68605469 -0.12604492 100.41015625 -0.11914062 C104.07879535 0.52214523 105.05954699 1.53033953 107.37109375 4.3984375 C107.871665 6.81931114 107.871665 6.81931114 107.87229919 9.56869507 C107.88213333 10.6141449 107.89196747 11.65959473 107.90209961 12.73672485 C107.89243164 13.87854218 107.88276367 15.0203595 107.87280273 16.19677734 C107.88090721 18.00734619 107.88090721 18.00734619 107.88917542 19.85449219 C107.89954529 23.16536905 107.89194741 26.47524755 107.8754642 29.78603697 C107.86158488 33.2628489 107.86807825 36.73963152 107.87159729 40.21646118 C107.87430075 46.06577877 107.86082468 51.91489138 107.83764648 57.76416016 C107.81116006 64.49417393 107.80924932 71.22384233 107.82103485 77.9538902 C107.83188702 84.45296347 107.82555974 90.95191372 107.81147957 97.45097733 C107.8057712 100.20261218 107.80576164 102.95415547 107.81054497 105.70579147 C107.81348352 109.57278347 107.79681914 113.43922963 107.77514648 117.30615234 C107.77964813 118.42772736 107.78414978 119.54930237 107.78878784 120.7048645 C107.65179966 135.5541881 104.58164782 150.20299247 94.12109375 161.2734375 C78.54277855 175.63145134 59.6792921 177.17278368 39.44921875 176.57324219 C27.83330861 175.91358232 17.94438114 172.00174439 8.37109375 165.3984375 C7.76910156 164.99882813 7.16710937 164.59921875 6.546875 164.1875 C-2.56941403 157.44001048 -8.07787279 145.42274885 -10.17879009 134.55359936 C-10.60030026 131.59895578 -10.76244363 128.81901169 -10.77607727 125.83772278 C-10.78323257 124.75679855 -10.79038788 123.67587433 -10.79776001 122.56219482 C-10.80044891 121.39158508 -10.80313782 120.22097534 -10.8059082 119.01489258 C-10.8124794 117.77037827 -10.8190506 116.52586395 -10.82582092 115.24363708 C-10.84549681 111.13507848 -10.85720404 107.02655869 -10.8671875 102.91796875 C-10.87123768 101.50087655 -10.87535468 100.08378455 -10.87953758 98.66669273 C-10.8985542 92.01547029 -10.91279943 85.36425878 -10.92114955 78.71301442 C-10.93094594 71.03763644 -10.95734219 63.362545 -10.99765044 55.68726808 C-11.0277668 49.74914261 -11.04261365 43.81109962 -11.04593056 37.87289923 C-11.04828376 34.32757445 -11.05728048 30.78255707 -11.08239174 27.23731422 C-11.10990955 23.28938096 -11.10585513 19.3418295 -11.09887695 15.39379883 C-11.11168701 14.21711639 -11.12449707 13.04043396 -11.13769531 11.82809448 C-11.1307515 10.75562973 -11.12380768 9.68316498 -11.11665344 8.57820129 C-11.1190418 7.64484357 -11.12143015 6.71148584 -11.12389088 5.74984455 C-10.62890625 3.3984375 -10.62890625 3.3984375 -8.79020977 1.59896374 C-5.7863588 -0.06956726 -3.4234118 0.00985965 0 0 Z " fill="#000000" transform="translate(450.62890625,397.6015625)"/>
<path d="M0 0 C1.23234375 -0.00515625 2.4646875 -0.0103125 3.734375 -0.015625 C5.66023437 0.00757813 5.66023437 0.00757813 7.625 0.03125 C8.90890625 0.01578125 10.1928125 0.0003125 11.515625 -0.015625 C12.74796875 -0.01046875 13.9803125 -0.0053125 15.25 0 C16.93996094 0.00676758 16.93996094 0.00676758 18.6640625 0.01367188 C22.34677672 0.65741809 23.32293205 1.63085611 25.625 4.53125 C26.13280869 7.19425583 26.13280869 7.19425583 26.14398193 10.28924561 C26.15789474 11.46431168 26.17180756 12.63937775 26.18614197 13.85005188 C26.1811116 15.13542343 26.17608124 16.42079498 26.17089844 17.74511719 C26.17963442 19.11515985 26.1901203 20.48519231 26.20222473 21.85520935 C26.23010288 25.57187718 26.23348904 29.28821239 26.23250484 33.0049696 C26.23563242 36.89012808 26.26124734 40.77513641 26.28448486 44.66021729 C26.32506042 52.01597848 26.34538918 59.37165099 26.35845876 66.72750688 C26.37432357 75.10236873 26.41273696 83.47707955 26.45305204 91.85185385 C26.53547224 109.07827418 26.58955104 126.3046703 26.625 143.53125 C27.86886475 143.52601318 29.11272949 143.52077637 30.39428711 143.51538086 C35.09284724 143.49702163 39.79140434 143.48570727 44.48999023 143.47631836 C46.50789934 143.47134774 48.52580495 143.46456892 50.54370117 143.45581055 C60.51591221 143.41367095 70.47945572 143.40563355 80.44140625 143.91015625 C81.49919533 143.95607155 81.49919533 143.95607155 82.57835388 144.00291443 C87.38471956 144.29096956 87.38471956 144.29096956 89.625 146.53125 C90.22881351 150.10223771 90.27831092 153.72854297 90.4375 157.34375 C90.53321289 158.84131836 90.53321289 158.84131836 90.63085938 160.36914062 C91.06804446 169.61160273 91.06804446 169.61160273 87.625 173.53125 C84.35013415 175.16868293 80.72397645 174.69667053 77.1237793 174.70825195 C75.80402603 174.71810875 75.80402603 174.71810875 74.45761108 174.72816467 C71.53814616 174.74791879 68.61873272 174.75956474 65.69921875 174.76953125 C64.20538634 174.77564454 64.20538634 174.77564454 62.6813755 174.78188133 C57.41071402 174.80275073 52.14007865 174.81704889 46.86938477 174.82641602 C41.42167658 174.83748447 35.97437642 174.87188702 30.52681255 174.91158772 C26.3412245 174.93771593 22.15573423 174.94610446 17.97007179 174.94969749 C15.96180273 174.95457299 13.95353831 174.96621426 11.94534874 174.98473549 C9.13470377 175.00904695 6.32512192 175.00817658 3.5144043 175.0012207 C2.26970619 175.02043579 2.26970619 175.02043579 0.99986267 175.04003906 C0.23019165 175.03309525 -0.53947937 175.02615143 -1.33247375 175.01899719 C-1.99633245 175.02138555 -2.66019114 175.0237739 -3.34416676 175.02623463 C-6.51686651 174.25293746 -8.13098498 172.87847456 -10.375 170.53125 C-11.00141239 167.45774841 -11.00141239 167.45774841 -11.00318909 163.77514648 C-11.01028347 163.09668136 -11.01737786 162.41821623 -11.02468723 161.71919155 C-11.04228624 159.4463322 -11.02415538 157.17517883 -11.00610352 154.90234375 C-11.01124167 153.2727887 -11.01852217 151.64323921 -11.02778625 150.01370239 C-11.04632191 145.58798321 -11.03334828 141.16286542 -11.01369596 136.73717117 C-10.99732589 132.10789525 -11.00612006 127.4786579 -11.01121521 122.84936523 C-11.01573801 115.07493468 -10.99985482 107.30074458 -10.97192383 99.52636719 C-10.93987104 90.5353357 -10.93988702 81.54473793 -10.9571386 72.55367565 C-10.97299686 63.9081344 -10.96627466 55.2627523 -10.94920158 46.61721802 C-10.94232508 42.93624643 -10.94336966 39.25540219 -10.95074654 35.57443237 C-10.95840208 31.2404777 -10.94630749 26.90701719 -10.91889763 22.57314682 C-10.91200497 20.9816319 -10.91192527 19.3900709 -10.91911316 17.79855728 C-10.92778894 15.62760272 -10.9118867 13.45817984 -10.8896637 11.28735352 C-10.88545331 9.46446556 -10.88545331 9.46446556 -10.88115788 7.60475159 C-9.81745039 1.14568652 -5.9998074 0.02402669 0 0 Z " fill="#000000" transform="translate(594.375,397.46875)"/>
<path d="M0 0 C1.20065598 -0.01898094 1.20065598 -0.01898094 2.42556763 -0.03834534 C3.28962723 -0.02665314 4.15368683 -0.01496094 5.04393005 -0.00291443 C6.4252713 -0.01364738 6.4252713 -0.01364738 7.83451843 -0.02459717 C10.87284732 -0.04148055 13.90970012 -0.02208492 16.94798279 -0.00071716 C19.06117881 -0.00154582 21.17437478 -0.00400508 23.28756714 -0.00802612 C27.71355113 -0.01088379 32.13902898 0.00381574 36.56492615 0.03126526 C42.24031297 0.06536848 47.91479593 0.05932241 53.59022617 0.04060268 C57.95255071 0.03003918 62.31466458 0.03896432 66.67696953 0.0539875 C68.76976331 0.05917312 70.86257905 0.05868292 72.95536995 0.05244255 C75.87860133 0.04699748 78.80053411 0.06734232 81.72361755 0.09474182 C82.58970139 0.08821594 83.45578522 0.08169006 84.34811401 0.07496643 C90.2021006 0.16835556 90.2021006 0.16835556 93.35420227 2.5176239 C96.03213724 6.3759457 95.43427693 10.51795568 95.38157654 15.06568909 C95.41734802 16.47817932 95.41734802 16.47817932 95.45384216 17.91920471 C95.45190857 18.83250549 95.44997498 19.74580627 95.44798279 20.68678284 C95.44870789 21.51492493 95.44943298 22.34306702 95.45018005 23.19630432 C94.51680272 26.79296646 92.64266563 28.27297672 89.81907654 30.62818909 C86.82608032 31.22946167 86.82608032 31.22946167 83.46824646 31.19581604 C82.20731674 31.19543839 80.94638702 31.19506073 79.64724731 31.19467163 C78.28133648 31.16914233 76.91543584 31.14306242 75.54954529 31.11647034 C74.14422872 31.10713768 72.73889582 31.1000237 71.33355713 31.09503174 C67.64569195 31.07599681 63.95882103 31.02692879 60.27134705 30.97151184 C56.50419303 30.92024216 52.73687259 30.8972269 48.96946716 30.87232971 C41.58512729 30.82145936 34.20351286 30.72359524 26.81907654 30.62818909 C27.14907654 43.49818909 27.47907654 56.36818909 27.81907654 69.62818909 C31.51481873 69.58178284 35.21056091 69.53537659 39.01829529 69.48756409 C42.59925463 69.45636559 46.1801988 69.43207933 49.76121521 69.40846252 C52.24923992 69.38835203 54.7372174 69.36105982 57.2250824 69.32643127 C60.80210529 69.27789055 64.37850305 69.25521414 67.95579529 69.23756409 C69.62324043 69.20659637 69.62324043 69.20659637 71.32437134 69.17500305 C78.9652912 69.17278483 78.9652912 69.17278483 83.02122498 71.3361969 C85.13212393 74.02727775 85.45079211 75.29952273 85.44798279 78.69068909 C85.44991638 79.65232971 85.45184998 80.61397034 85.45384216 81.60475159 C85.41807068 83.10135315 85.41807068 83.10135315 85.38157654 84.62818909 C85.39253357 85.62592346 85.4034906 86.62365784 85.41477966 87.65162659 C85.34111726 94.97858046 85.34111726 94.97858046 83.11819458 97.7447052 C80.3411262 100.01973565 79.0477222 100.14029722 75.4997406 100.17408752 C74.43894287 100.19380615 73.37814514 100.21352478 72.28520203 100.23384094 C70.57720428 100.2356839 70.57720428 100.2356839 68.83470154 100.23756409 C67.07860565 100.26236847 67.07860565 100.26236847 65.28703308 100.28767395 C61.54766143 100.3362599 57.80869678 100.35754942 54.06907654 100.37818909 C51.53389969 100.40633974 48.9987419 100.43626588 46.46360779 100.46803284 C40.24883819 100.5420219 34.03418355 100.59360233 27.81907654 100.62818909 C27.82431335 101.75313782 27.82955017 102.87808655 27.83494568 104.03712463 C27.85308087 108.22103577 27.86453968 112.40494345 27.87400818 116.58888245 C27.87902892 118.39780767 27.88584683 120.20672884 27.89451599 122.01564026 C27.90668056 124.61957295 27.91232751 127.22345186 27.91673279 129.82740784 C27.92189407 130.63280502 27.92705536 131.43820221 27.93237305 132.26800537 C27.93276291 136.1929151 27.78992408 139.79518891 26.81907654 143.62818909 C27.46828064 143.62295227 28.11748474 143.61771545 28.78636169 143.61231995 C43.48202745 143.51187371 58.17652177 143.59486218 72.86955261 143.89164734 C74.58695089 143.92436182 76.30445501 143.95192328 78.02201843 143.97434998 C80.44708559 144.0074268 82.87103125 144.05949014 85.29563904 144.11647034 C86.02774597 144.1228653 86.75985291 144.12926025 87.5141449 144.135849 C89.54808044 144.19581604 89.54808044 144.19581604 92.81907654 144.62818909 C95.93423095 149.3009207 95.18767121 154.13241872 95.19407654 159.62818909 C95.21856873 160.73420471 95.24306091 161.84022034 95.26829529 162.97975159 C95.27216248 164.03936096 95.27602966 165.09897034 95.28001404 166.19068909 C95.28823181 167.16135315 95.29644958 168.13201721 95.30491638 169.13209534 C94.81907654 171.62818909 94.81907654 171.62818909 93.35144043 173.25993347 C89.56142827 175.30770608 86.05987152 175.04645823 81.81541443 175.01637268 C80.90602615 175.02162964 79.99663788 175.0268866 79.05969238 175.03230286 C76.05353113 175.04550666 73.04789944 175.0367626 70.04173279 175.02662659 C67.95192361 175.02864739 65.86211511 175.03155887 63.77230835 175.0353241 C59.391752 175.03974812 55.01137914 175.03331444 50.63084412 175.01930237 C45.01732026 175.00222113 39.40422704 175.0120446 33.79071903 175.03001976 C29.47471884 175.04086444 25.15882059 175.0374079 20.84281731 175.02963638 C18.77317186 175.02763573 16.70351714 175.03008892 14.63388252 175.03707504 C11.73971705 175.04469946 8.84624692 175.03307069 5.95213318 175.01637268 C4.67006989 175.02548172 4.67006989 175.02548172 3.36210632 175.03477478 C-1.29820054 174.98499879 -4.40114287 174.66604074 -8.18092346 171.62818909 C-9.60279878 168.78443846 -9.32006606 166.37609565 -9.33482361 163.19525146 C-9.34139699 162.19342605 -9.34139699 162.19342605 -9.34810317 161.17136174 C-9.36150801 158.9228372 -9.36767376 156.67435186 -9.37379456 154.42579651 C-9.38169415 152.81786928 -9.38996301 151.20994383 -9.39857483 149.60202026 C-9.42480984 144.31258338 -9.44010321 139.02313852 -9.45436096 133.73365784 C-9.4597199 131.91419787 -9.4650974 130.09473795 -9.47049332 128.27527809 C-9.49212356 120.70824336 -9.51086125 113.14121078 -9.52211571 105.57415295 C-9.53836132 94.72188527 -9.57155215 83.86997529 -9.62851655 73.01784247 C-9.66718676 65.39146006 -9.68674488 57.76517344 -9.69203627 50.13869554 C-9.69569355 45.58158132 -9.70775454 41.02484847 -9.74013901 36.46784019 C-9.77016873 32.18070913 -9.77654994 27.8941912 -9.76475525 23.60697746 C-9.76453409 22.03358426 -9.77287435 20.46016303 -9.79040909 18.88686752 C-9.81305632 16.73786392 -9.80483018 14.59109212 -9.78892517 12.44207764 C-9.79223532 11.23989184 -9.79554546 10.03770605 -9.79895592 8.79909039 C-8.78195174 3.58120926 -5.48025756 0.00465159 0 0 Z " fill="#000000" transform="translate(713.1809234619141,397.37181091308594)"/>
<path d="M0 0 C1.37998743 -0.01148238 2.75993176 -0.03187501 4.13964844 -0.06152344 C20.44459062 -0.41159956 20.44459062 -0.41159956 25.39575195 4.29516602 C27.66212794 7.40489261 29.00110838 10.72159568 30.39575195 14.29516602 C30.63644409 14.9068866 30.87713623 15.51860718 31.12512207 16.14886475 C33.26990654 21.64217345 35.27388103 27.18424932 37.27075195 32.73266602 C37.76615982 34.09890106 37.76615982 34.09890106 38.27157593 35.49273682 C43.13487981 48.91016163 47.82656567 62.38495157 52.4543457 75.88500977 C52.84228428 77.01652749 52.84228428 77.01652749 53.23806 78.17090416 C55.84000494 85.76328801 58.434474 93.35816149 61.01302624 100.95852375 C61.98678703 103.82695281 62.96363065 106.69432698 63.9408741 109.56157112 C64.61642205 111.54806669 65.2872068 113.53612797 65.95787048 115.52427673 C66.36703201 116.72468094 66.77619354 117.92508514 67.19775391 119.16186523 C67.55142532 120.20607635 67.90509674 121.25028748 68.26948547 122.32614136 C69.44957335 125.43704811 70.85985102 128.34575328 72.39575195 131.29516602 C75.19340422 123.54731794 77.98385086 115.79688742 80.77075195 108.04516602 C81.19425934 106.86745636 81.61776672 105.6897467 82.05410767 104.47634888 C86.90450845 90.97617503 91.71089009 77.46341854 96.3840332 63.90063477 C96.78223267 62.74518158 97.18043213 61.58972839 97.59069824 60.39926147 C99.48733424 54.88864258 101.37577703 49.37534567 103.25463867 43.85864258 C106.54546343 34.22698592 109.90933177 24.62089444 113.5402832 15.11157227 C113.83956223 14.29148178 114.13884125 13.4713913 114.44718933 12.62644958 C116.52541478 7.32201753 118.6298437 4.48107418 123.39575195 1.29516602 C128.88425881 -0.9337107 135.88979522 0.0679277 141.70825195 0.04516602 C143.66794922 0.01422852 143.66794922 0.01422852 145.66723633 -0.01733398 C158.21154542 -0.06835304 158.21154542 -0.06835304 163.39575195 3.29516602 C166.41168677 7.3065696 166.87302759 10.57906052 167.18237305 15.53295898 C167.23200825 16.26246891 167.28164345 16.99197884 167.33278275 17.74359512 C167.44076597 19.35468481 167.54261927 20.9661939 167.63920975 22.57800674 C167.79898081 25.24225131 167.97439618 27.90508356 168.15365601 30.56808472 C168.35254912 33.52897281 168.55010941 36.48991064 168.74299812 39.45119667 C169.53028421 51.53249765 170.43217117 63.6051792 171.32660675 75.67893219 C171.77476726 81.73314104 172.21717488 87.78777152 172.66007948 93.8423667 C172.91062335 97.26675299 173.16149661 100.69111514 173.41235352 104.11547852 C173.46230839 104.79747527 173.51226326 105.47947202 173.56373191 106.18213534 C173.92223615 111.07627339 174.28101418 115.97039133 174.63989258 120.86450195 C175.09442369 127.0630639 175.54860376 133.26165145 176.00237787 139.46026886 C176.23965148 142.70129524 176.47714032 145.94230561 176.71495438 149.18329239 C176.84972246 151.02012903 176.84972246 151.02012903 176.98721313 152.89407349 C177.11794503 154.67169477 177.11794503 154.67169477 177.25131798 156.48522758 C177.41656335 158.75535081 177.57889737 161.02568828 177.73798561 163.2962513 C178.06138735 167.89978627 178.3987564 172.49368057 178.87982178 177.0836792 C178.97955575 178.12546231 178.97955575 178.12546231 179.08130455 179.18829155 C179.25029131 180.91875078 179.44207642 182.64694659 179.63656616 184.37472534 C179.31559869 188.26721355 177.80796699 190.28132912 175.39575195 193.29516602 C170.26326186 196.1709964 164.74717333 195.62569631 159.02075195 195.60766602 C158.0049707 195.6237793 156.98918945 195.63989258 155.94262695 195.65649414 C149.99507864 195.66035618 145.57515637 195.32217941 140.39575195 192.29516602 C137.43684099 189.14931752 136.96836425 186.80415018 136.75097656 182.54345703 C136.6864328 181.38572784 136.62188904 180.22799866 136.5553894 179.03518677 C136.50270905 177.80097992 136.45002869 176.56677307 136.39575195 175.29516602 C136.3064592 173.44736038 136.3064592 173.44736038 136.21536255 171.56222534 C136.06229152 168.2090106 135.92375778 164.85593715 135.79556465 161.50172234 C135.70912893 159.24336196 135.61943896 156.9851489 135.52903748 154.72694397 C135.3044073 149.10121864 135.08447666 143.47531233 134.86547852 137.84936523 C134.65094238 132.34028217 134.43372639 126.83131476 134.2121582 121.32250977 C134.16539885 120.15879412 134.16539885 120.15879412 134.11769485 118.97156906 C133.40519378 101.4020265 132.42712499 83.84852668 131.39575195 66.29516602 C131.02925537 67.42494873 130.66275879 68.55473145 130.28515625 69.71875 C126.29857518 82.0035592 122.29777701 94.28368933 118.28808594 106.56097412 C117.47824001 109.04241516 116.67004203 111.52438439 115.86254883 114.0065918 C109.34624711 134.02047462 102.33250932 153.81637387 94.83422852 173.48461914 C93.87327364 176.0097208 92.94578986 178.54356096 92.04321289 181.09008789 C91.62072266 182.25604492 91.19823242 183.42200195 90.76293945 184.62329102 C90.40055176 185.64841797 90.03816406 186.67354492 89.66479492 187.72973633 C88.23204914 190.62609891 87.2354188 191.77720053 84.39575195 193.29516602 C80.43948455 193.91526475 76.45793379 193.75871486 72.45825195 193.73266602 C71.37350586 193.75264648 70.28875977 193.77262695 69.17114258 193.79321289 C68.12249023 193.79256836 67.07383789 193.79192383 65.9934082 193.79125977 C65.03958252 193.79311279 64.08575684 193.79496582 63.10302734 193.796875 C59.52180223 193.13320672 57.95312324 191.86968468 55.39575195 189.29516602 C53.83666992 186.52758789 53.83666992 186.52758789 52.51293945 183.26391602 C52.26550995 182.65761353 52.01808044 182.05131104 51.76315308 181.42663574 C48.38298238 172.99486396 45.47181547 164.38360862 42.52075195 155.79516602 C41.87423358 153.92673513 41.22716741 152.05849373 40.57958984 150.19042969 C39.21805236 146.26056714 37.85921431 142.32978763 36.50268555 138.39819336 C33.30266931 129.1252135 30.08734248 119.85755532 26.86859131 110.59106445 C25.86082928 107.68713191 24.85589138 104.78223427 23.85131836 101.87719727 C20.18296801 91.29040956 16.39489176 80.76167199 12.39575195 70.29516602 C11.39045996 82.9610525 10.99404233 95.64047084 10.58035278 108.3369751 C10.20761091 119.65711141 9.79843946 130.97606263 9.39575195 142.29516602 C9.35579102 143.42901733 9.31583008 144.56286865 9.2746582 145.7310791 C9.05693879 151.87190037 8.82548557 158.01186246 8.57028198 164.15124512 C8.4962088 165.98202905 8.4268933 167.8130123 8.36257935 169.64416504 C8.27315226 172.1665633 8.16674916 174.68769312 8.0559082 177.20922852 C8.03399414 177.93270477 8.01208008 178.65618103 7.98950195 179.40158081 C7.74353755 184.39325047 6.66158603 187.91526308 4.39575195 192.29516602 C-0.86044517 196.4226285 -7.22697643 195.73948419 -13.60424805 195.67016602 C-15.20526367 195.68756836 -15.20526367 195.68756836 -16.83862305 195.70532227 C-22.44278932 195.6844112 -26.85365056 195.62370965 -31.60424805 192.29516602 C-37.31563171 183.72809053 -33.1972836 165.26236966 -32.4675293 155.11938477 C-32.34616588 153.37269086 -32.22533124 151.62596014 -32.10498047 149.87919617 C-31.78213036 145.21226261 -31.45278161 140.54581097 -31.12179947 135.87944794 C-30.56525289 128.01705882 -30.01845384 120.15398017 -29.47032738 112.29100037 C-29.33013472 110.28157275 -29.1896828 108.27216321 -29.04897499 106.26277161 C-28.10289717 92.74740825 -27.20501517 79.23001322 -26.36501503 65.70764351 C-26.19998895 63.05760533 -26.03322786 60.40768269 -25.86576843 57.75779724 C-25.81179051 56.9034097 -25.7578126 56.04902216 -25.70219898 55.16874409 C-25.59514498 53.47497826 -25.48802851 51.78121638 -25.38084698 50.08745861 C-25.07174627 45.18624427 -24.77375016 40.2845051 -24.48334694 35.3821497 C-24.30147823 32.35786338 -24.10894591 29.33432532 -23.91345215 26.31089211 C-23.82587138 24.92107193 -23.74282588 23.53095702 -23.6647644 22.14056969 C-23.55803518 20.24786516 -23.43372738 18.35617649 -23.30859375 16.46459961 C-23.24452835 15.41098236 -23.18046295 14.35736511 -23.11445618 13.27182007 C-22.37014062 8.92933747 -20.89048836 5.4608213 -17.60424805 2.48266602 C-12.20069808 -0.72569178 -6.09180849 0.03525435 0 0 Z " fill="#000000" transform="translate(1373.604248046875,426.704833984375)"/>
<path d="M0 0 C1.02526291 -0.00525696 2.05052582 -0.01051392 3.1068573 -0.01593018 C6.48146997 -0.02908822 9.85560749 -0.02040734 13.23022461 -0.01025391 C15.58239329 -0.01227568 17.93456136 -0.01518799 20.28672791 -0.01895142 C25.21009301 -0.02336896 30.13329456 -0.01696128 35.05664062 -0.00292969 C41.36386395 0.01417106 47.67070453 0.00431147 53.97791386 -0.01364708 C58.83266581 -0.02449212 63.68732714 -0.02103538 68.54208183 -0.0132637 C70.86768069 -0.01126419 73.19328781 -0.01371222 75.51887703 -0.02070236 C78.76931662 -0.0283295 82.01913767 -0.01669468 85.26953125 0 C86.22814056 -0.00607269 87.18674988 -0.01214539 88.17440796 -0.0184021 C93.37386675 0.0310171 97.0944235 0.42614263 101.57006836 3.38818359 C103.79641136 7.8408696 102.84484063 13.87366995 102.88256836 18.76318359 C102.92607422 20.63103516 102.92607422 20.63103516 102.97045898 22.53662109 C102.97883789 23.73287109 102.9872168 24.92912109 102.99584961 26.16162109 C103.01043213 27.25909668 103.02501465 28.35657227 103.04003906 29.48730469 C102.4393556 33.19500384 101.55007916 34.13304129 98.57006836 36.38818359 C95.91988335 36.76265438 93.69179346 36.89617536 91.04760742 36.84228516 C89.92019386 36.84316132 89.92019386 36.84316132 88.77000427 36.84405518 C86.29142701 36.84127358 83.81405991 36.81017976 81.33569336 36.77880859 C79.61505795 36.77134643 77.89441404 36.76565338 76.17376709 36.76165771 C71.64931697 36.74639934 67.12538208 36.70711602 62.60113525 36.6628418 C57.17051338 36.61469144 51.73971904 36.59635602 46.3089447 36.57302856 C38.06229447 36.53426483 29.81677427 36.4576133 21.57006836 36.38818359 C21.57006836 49.91818359 21.57006836 63.44818359 21.57006836 77.38818359 C28.62961914 77.30117188 28.62961914 77.30117188 35.83178711 77.21240234 C38.8168477 77.18684858 41.80177308 77.16277893 44.78686523 77.14404297 C49.52307203 77.11417507 54.25879464 77.07887702 58.99462891 77.01098633 C62.81369638 76.9565818 66.63224456 76.92674574 70.45166969 76.91379738 C71.90735867 76.9045724 73.36301982 76.88655741 74.81848717 76.85953331 C76.86089415 76.82312616 78.90116738 76.81824243 80.94384766 76.82055664 C82.10522751 76.80945358 83.26660736 76.79835052 84.46318054 76.78691101 C88.52629624 77.57324132 90.00948778 79.20962309 92.57006836 82.38818359 C93.21704102 85.18725586 93.21704102 85.18725586 93.23413086 88.20458984 C93.24057617 89.29835938 93.24702148 90.39212891 93.25366211 91.51904297 C93.2246582 93.21770508 93.2246582 93.21770508 93.19506836 94.95068359 C93.2144043 96.08699219 93.23374023 97.22330078 93.25366211 98.39404297 C93.2472168 99.48652344 93.24077148 100.57900391 93.23413086 101.70458984 C93.22849121 102.69918213 93.22285156 103.69377441 93.21704102 104.71850586 C92.31632887 108.43521806 90.74188981 109.32720953 87.57006836 111.38818359 C84.46318054 111.90716553 84.46318054 111.90716553 80.94384766 111.93408203 C80.29938187 111.94441971 79.65491608 111.95475739 78.99092102 111.96540833 C76.87511864 111.99474679 74.76027656 111.99633345 72.64428711 111.99755859 C71.17167852 112.01254648 69.69908671 112.02927492 68.22651672 112.04766846 C64.36155407 112.09128672 60.49681815 112.11132852 56.63165283 112.12640381 C51.98835342 112.14944303 47.34530333 112.20186628 42.70220184 112.24934387 C35.65809238 112.31809294 28.61469835 112.34959345 21.57006836 112.38818359 C21.57006836 127.89818359 21.57006836 143.40818359 21.57006836 159.38818359 C27.14268555 159.35337891 32.71530273 159.31857422 38.45678711 159.28271484 C41.98869864 159.2673849 45.52056911 159.25294296 49.05249023 159.24169922 C54.65763882 159.22377086 60.26264029 159.20256912 65.86767578 159.16186523 C70.38696212 159.12925174 74.90609067 159.11132634 79.42548561 159.10355186 C81.14906104 159.09801193 82.8726279 159.08719376 84.59613609 159.07099342 C87.01170846 159.04919246 89.42663012 159.04621775 91.84228516 159.04760742 C92.55366638 159.03682159 93.26504761 159.02603577 93.99798584 159.0149231 C98.36490288 159.04207893 101.08390312 159.73492902 104.57006836 162.38818359 C107.56042336 166.74984689 106.89991094 171.73737025 106.88256836 176.82568359 C106.89868164 177.76734375 106.91479492 178.70900391 106.93139648 179.67919922 C106.93785319 188.82834586 106.93785319 188.82834586 103.57006836 192.38818359 C97.85117793 195.44020129 93.16690553 195.81071046 86.75439453 195.74462891 C85.31392006 195.74769547 85.31392006 195.74769547 83.84434509 195.75082397 C80.68371251 195.753821 77.52360737 195.73538136 74.36303711 195.71630859 C72.15497466 195.71324791 69.94691027 195.71137414 67.73884583 195.71063232 C63.11472155 195.70603538 58.49077199 195.69163631 53.86669922 195.66943359 C47.95905389 195.64120185 42.05154622 195.6302258 36.14383984 195.6257515 C30.48772146 195.62057656 24.83163713 195.60604297 19.17553711 195.59130859 C18.10550131 195.58942787 17.03546551 195.58754715 15.93300438 195.58560944 C12.87993216 195.57867955 9.82696404 195.5650149 6.77392578 195.54931641 C5.885802 195.54819855 4.99767822 195.54708069 4.0826416 195.54592896 C-12.69880802 195.43253335 -12.69880802 195.43253335 -16.99243164 192.01318359 C-20.80091857 187.91173613 -20.55793656 184.76129441 -20.57037354 179.34819031 C-20.57334466 178.62707166 -20.57631578 177.90595301 -20.57937694 177.16298229 C-20.58806684 174.74023497 -20.58957243 172.31753706 -20.59106445 169.89477539 C-20.59569242 168.16024673 -20.60071705 166.42571908 -20.60610962 164.69119263 C-20.61923763 159.97417609 -20.62567935 155.25717378 -20.63012028 150.54014182 C-20.63305033 147.59374852 -20.63715501 144.64735913 -20.64162445 141.70096779 C-20.65530038 132.48416305 -20.66496659 123.26736721 -20.66882634 114.05055302 C-20.67330761 103.40778176 -20.69085829 92.76513888 -20.71982694 82.12240666 C-20.74143645 73.89811396 -20.75153023 65.67385741 -20.75286746 57.44953662 C-20.753916 52.53648973 -20.75983431 47.62356352 -20.77768707 42.71054649 C-20.79415513 38.08863511 -20.79632941 33.46693529 -20.78754807 28.84500504 C-20.78677701 27.14949413 -20.79112937 25.45397192 -20.80100632 23.75848961 C-20.81370968 21.4417836 -20.80785824 19.12582872 -20.79742432 16.80912781 C-20.79889088 15.51329616 -20.80035744 14.2174645 -20.80186844 12.88236523 C-20.39317804 9.04289976 -19.47760533 6.64609302 -17.42993164 3.38818359 C-11.7802036 -0.05629806 -6.49098842 -0.04120677 0 0 Z " fill="#000000" transform="translate(1601.429931640625,426.61181640625)"/>
<path d="M0 0 C1.69677926 1.46851299 3.38486166 2.9471578 5.0625 4.4375 C5.83980469 5.08332031 6.61710938 5.72914063 7.41796875 6.39453125 C13.42568228 11.4716179 18.28776404 17.20308416 23.0625 23.4375 C23.66964844 24.21738281 24.27679688 24.99726562 24.90234375 25.80078125 C42.48802801 49.52749811 51.79751224 81.8117178 47.68310547 111.14208984 C43.50931964 135.04887353 32.44833811 156.85568471 17.0625 175.4375 C16.28132812 176.3965625 15.50015625 177.355625 14.6953125 178.34375 C0.10861751 195.36953169 -20.67918755 205.43656494 -41.9375 211.4375 C-43.07574219 211.7778125 -44.21398437 212.118125 -45.38671875 212.46875 C-72.69761797 219.32026479 -102.86116545 214.13182093 -127.25 200.625 C-153.95213844 184.46072528 -173.10486773 163.97175214 -183.9375 134.4375 C-184.24429688 133.63957031 -184.55109375 132.84164062 -184.8671875 132.01953125 C-185.65923075 129.84345367 -186.31788093 127.66886631 -186.9375 125.4375 C-187.2159375 124.48230469 -187.494375 123.52710938 -187.78125 122.54296875 C-195.41914624 91.60241684 -187.91612139 59.25420861 -172.05566406 32.23535156 C-168.77914522 26.96716712 -164.91155069 22.18934655 -160.9375 17.4375 C-159.76574219 16.01824219 -159.76574219 16.01824219 -158.5703125 14.5703125 C-119.79081532 -30.31218752 -46.31609253 -37.41411375 0 0 Z " fill="#000000" transform="translate(408.9375,738.5625)"/>
<path d="M0 0 C10.23875357 12.74201596 14.85232051 27.22407555 13.734375 43.56640625 C11.58696558 59.19136621 3.45040963 72.59141549 -8.609375 82.6796875 C-21.24065298 91.71357751 -35.71310849 95.43166076 -51.10595703 93.11669922 C-67.37151844 90.11789192 -79.07045102 82.92309876 -89.15625 69.65625 C-98.13446866 56.27506696 -100.67367377 41.9771427 -98.625 26.1328125 C-95.42934726 11.29165224 -85.21671818 -1.97576211 -72.80078125 -10.51171875 C-48.20733677 -24.88131703 -19.75889729 -20.64063307 0 0 Z M-61.38671875 21.55859375 C-66.44472492 27.23400912 -66.60153469 32.90847124 -66.390625 40.2734375 C-65.59324534 47.66982122 -62.01938407 52.31931391 -56.32421875 56.9453125 C-50.86074678 60.50314046 -44.53331457 62.29806037 -38.0546875 61.0546875 C-30.27567894 58.61332224 -25.14983381 54.44280343 -21.05078125 47.42578125 C-18.206387 41.21983017 -18.33726398 35.22751577 -20.23828125 28.80078125 C-22.33914005 23.14986012 -25.40750613 19.1298805 -30.67578125 16.11328125 C-41.8761982 11.09313203 -52.66786279 13.18710257 -61.38671875 21.55859375 Z " fill="#000000" transform="translate(1211.05078125,752.57421875)"/>
<path d="M0 0 C5.21495993 3.77122102 9.20912839 8.16585137 11.828125 14.05859375 C13.05106913 22.92493871 13.12254965 30.8223444 8.328125 38.68359375 C2.1508728 45.66257443 -4.57834722 49.15062179 -13.8671875 49.7421875 C-21.64575164 49.57968268 -28.16461697 46.05886957 -33.671875 40.68359375 C-39.71271481 32.76904432 -40.58962314 25.54674909 -39.671875 15.68359375 C-37.36881812 7.92755914 -32.82701407 2.6182292 -25.8671875 -1.34375 C-17.4206594 -5.14644004 -7.97242285 -4.53913752 0 0 Z " fill="#000000" transform="translate(1099.671875,830.31640625)"/>
<path d="M0 0 C3.57047077 2.29128636 5.23608899 5.34036531 6.734375 9.2109375 C7.55962252 16.01922956 6.89426025 20.65986218 2.984375 26.2734375 C-2.50799754 31.53190905 -8.96972041 34.18032836 -16.0078125 36.76171875 C-17.03496368 37.1503862 -18.06211487 37.53905365 -19.12039185 37.9394989 C-22.37269042 39.16721369 -25.63132169 40.37695776 -28.890625 41.5859375 C-31.10201951 42.41610135 -33.31296209 43.24747008 -35.5234375 44.08007812 C-38.62347629 45.24764919 -41.72407164 46.4133707 -44.82833862 47.56965637 C-45.74334137 47.91058823 -46.65834412 48.25152008 -47.60107422 48.6027832 C-48.40745331 48.90223343 -49.2138324 49.20168365 -50.04464722 49.51020813 C-52.04808083 50.25047563 -52.04808083 50.25047563 -54.015625 51.2734375 C-52.72504316 53.96116299 -51.29557451 56.42128378 -49.640625 58.8984375 C-41.92167199 71.28519395 -39.27230359 85.89907501 -42.015625 100.2734375 C-45.48175841 113.50832626 -49.84527609 123.56541287 -61.9921875 130.74609375 C-68.38552781 133.97580442 -75.04496597 135.80621885 -82.09375 136.98046875 C-96.69848132 139.44603648 -110.20963408 144.37197386 -124.07080078 149.41462708 C-135.64881226 153.61240108 -147.3076975 157.58010993 -158.953125 161.5859375 C-163.71396125 163.22534683 -168.47434288 164.86606988 -173.234375 166.5078125 C-174.40300079 166.91084595 -175.57162659 167.31387939 -176.77566528 167.72912598 C-184.18689868 170.28820149 -191.58908712 172.87179318 -198.984375 175.4765625 C-199.92503311 175.80726242 -200.86569122 176.13796234 -201.83485413 176.47868347 C-206.1284754 177.98821638 -210.42045137 179.50199705 -214.70874023 181.02661133 C-242.20576007 190.74553387 -270.08286071 198.62123313 -298.34161377 205.76776123 C-301.72335129 206.62550182 -305.10267353 207.49255634 -308.48201466 208.35968208 C-311.75909097 209.19994398 -315.03714157 210.03634608 -318.31555748 210.87136459 C-319.86791859 211.26689405 -321.42007768 211.66321731 -322.97202492 212.06036758 C-325.11039699 212.60660547 -327.24992577 213.14803689 -329.38989258 213.68798828 C-330.60131424 213.99535919 -331.8127359 214.3027301 -333.06086731 214.61941528 C-336.015625 215.2734375 -336.015625 215.2734375 -339.015625 215.2734375 C-339.015625 178.6434375 -339.015625 142.0134375 -339.015625 104.2734375 C-324.95778466 100.10815147 -310.9113724 95.95224545 -296.82617188 91.890625 C-296.03847412 91.66342773 -295.25077637 91.43623047 -294.43920898 91.20214844 C-292.88193617 90.75449893 -291.32400443 90.30913447 -289.76538086 89.86621094 C-272.11823415 84.84371796 -254.76809169 78.93139064 -237.38599014 73.07196808 C-234.30932233 72.03549767 -231.23171538 71.00183478 -228.15404892 69.9683342 C-218.12544912 66.60061382 -208.10109782 63.22036309 -198.078125 59.8359375 C-197.25905041 59.55942604 -196.43997581 59.28291458 -195.59608078 58.99802399 C-156.41761373 45.77104907 -117.30449949 32.36026297 -78.26196289 18.73681641 C-70.05167111 15.87237765 -61.837673 13.01869559 -53.62017822 10.17498779 C-51.86668093 9.56802535 -50.11338874 8.96047009 -48.36029053 8.35235596 C-43.24524386 6.57878762 -38.12612745 4.81809113 -32.99978638 3.0774231 C-31.45348128 2.5504532 -29.90855802 2.01940699 -28.36520386 1.4838562 C-26.26546404 0.75620564 -24.16104077 0.04417565 -22.0546875 -0.6640625 C-20.29439209 -1.26541016 -20.29439209 -1.26541016 -18.49853516 -1.87890625 C-11.79176051 -3.51117329 -6.21186376 -3.020251 0 0 Z " fill="#000000" transform="translate(1021.015625,846.7265625)"/>
</svg>
