<?xml version="1.0" encoding="UTF-8"?>
<svg version="1.1" xmlns="http://www.w3.org/2000/svg" width="1024" height="1024">
<path d="M0 0 C16.82765957 15.17494301 29.48564616 37.51711165 30.80078125 60.4296875 C32.04024929 91.59345539 24.87762608 115.76895386 3.625 139.3671875 C-3.22037921 146.41861492 -10.84708145 151.54106444 -19.375 156.3671875 C-20.18453125 156.84027344 -20.9940625 157.31335938 -21.828125 157.80078125 C-41.42753627 168.50045985 -67.92795033 171.01442048 -89.359375 165.33984375 C-103.93847522 160.63751738 -116.72804032 154.40489541 -128.375 144.3671875 C-129.04917969 143.83738281 -129.72335937 143.30757812 -130.41796875 142.76171875 C-147.7726499 128.73248548 -158.19658403 106.08579853 -161.375 84.3671875 C-162.13159097 71.00533248 -162.50064735 57.2129531 -158.375 44.3671875 C-158.18164062 43.74231445 -157.98828125 43.11744141 -157.7890625 42.47363281 C-149.92593526 17.56159544 -132.25296052 -2.93267709 -109.12646484 -14.98413086 C-72.49059507 -32.99006995 -30.6652726 -25.87382375 0 0 Z " fill="#000000" transform="translate(577.375,75.6328125)"/>
<path d="M0 0 C1.6263909 -0.00435931 3.25277976 -0.00954646 4.87916565 -0.01548767 C9.2555294 -0.02876053 13.63180618 -0.02946935 18.0081861 -0.02692437 C21.68290504 -0.02584627 25.35760698 -0.03075948 29.03232223 -0.03552979 C37.71492075 -0.04658533 46.39747599 -0.04708529 55.08007812 -0.04101562 C63.98687775 -0.03498415 72.89351908 -0.047275 81.80029172 -0.06858569 C89.49168793 -0.08630029 97.18303421 -0.09218748 104.87445003 -0.08894795 C109.44848081 -0.08714998 114.02239876 -0.08962014 118.59641075 -0.10366249 C163.42602531 -0.22961393 163.42602531 -0.22961393 179.9777832 6.3996582 C180.753396 6.6996875 181.52900879 6.9997168 182.328125 7.30883789 C212.25880577 19.29699665 234.57614217 41.67646494 247.2902832 71.2746582 C255.73550734 91.70816388 256.74296591 112.71538714 256.69433594 134.57543945 C256.70005435 136.93180156 256.70702422 139.2881609 256.71513367 141.64451599 C256.73290737 147.97662873 256.73192801 154.30860173 256.72619128 160.64073181 C256.72268416 166.62111938 256.73068836 172.60149036 256.73755194 178.5818727 C256.7512062 191.13754292 256.74588673 203.6931504 256.73436672 216.24881911 C256.72441506 227.70714831 256.73742088 239.16531648 256.76130091 250.62362087 C256.78573614 262.43864483 256.79529059 274.25359391 256.78864819 286.06864262 C256.7851692 292.68241006 256.78764229 299.29606936 256.80489922 305.90982056 C256.82040558 312.12187746 256.81637158 318.33362655 256.79759407 324.54567146 C256.79392001 326.81715907 256.7969819 329.08866971 256.80747986 331.36013603 C256.93026923 360.13560525 256.93026923 360.13560525 247.2668457 371.34106445 C240.16604565 378.28749929 232.21544727 381.60568807 222.4152832 382.7121582 C212.74287001 382.24224339 204.82600494 378.22171908 198.2902832 371.2746582 C197.3827832 370.3259082 196.4752832 369.3771582 195.5402832 368.3996582 C189.59722878 360.14541595 188.13831008 352.26116162 188.15898132 342.31028748 C188.15580775 340.95441508 188.15580775 340.95441508 188.15257007 339.57115132 C188.14657787 336.54188818 188.14756965 333.51266679 188.1484375 330.48339844 C188.14540559 328.31183807 188.14188405 326.14027833 188.13790894 323.96871948 C188.13002369 319.29246894 188.12487651 314.61622602 188.12161827 309.93997002 C188.11570932 302.54956093 188.09917138 295.15920002 188.08027649 287.76881409 C188.07393936 285.23936751 188.06761373 282.70992091 188.06129932 280.18047428 C188.05813351 278.91385995 188.0549677 277.64724562 188.05170596 276.34224904 C188.00960668 259.13588316 187.97663358 241.92955486 187.96435547 224.72314453 C187.95598825 213.11668442 187.93355015 201.51034389 187.8949998 189.9039436 C187.87519943 183.76026444 187.86284791 177.6167642 187.86783409 171.47305107 C187.87246373 165.69867827 187.85876749 159.92464529 187.83082199 154.15034103 C187.82388268 152.02829033 187.82381287 149.90620469 187.83102226 147.78415489 C187.83985456 144.89304275 187.82430844 142.00306494 187.80253601 139.11204529 C187.81097855 138.26720768 187.81942109 137.42237007 187.82811946 136.55193132 C187.77732248 132.91852918 187.62223805 130.72837453 185.4457674 127.75357151 C182.49370233 125.72811091 180.79785316 125.69006321 177.2902832 126.2746582 C174.78324695 128.10411709 173.55067732 129.36510007 172.6919812 132.3645305 C172.14785045 136.30652175 172.15903496 140.17444247 172.17561531 144.14920139 C172.17536026 145.04790188 172.1751052 145.94660237 172.17484242 146.87253621 C172.17520466 149.89971229 172.18275171 152.92682845 172.19021606 155.95399475 C172.19192749 158.14002641 172.19319009 160.32605846 172.19404113 162.51209062 C172.19763615 168.53187302 172.20744576 174.55163201 172.21819472 180.57140529 C172.22866166 187.05899335 172.23330582 193.54658565 172.23852539 200.03417969 C172.24747967 210.55043534 172.25933838 221.06668432 172.27333478 231.58293441 C172.29693306 249.3384507 172.31122982 267.0939651 172.32250143 284.84949307 C172.32687112 291.68147132 172.33150764 298.51344941 172.33610344 305.34542751 C172.33661197 306.104494 172.33712049 306.86356049 172.33764443 307.64562899 C172.34978011 325.71720473 172.3641442 343.78877841 172.37963867 361.86035156 C172.38031384 362.65112949 172.380989 363.44190742 172.38168462 364.25664832 C172.39747206 382.70133535 172.41539202 401.14601822 172.43798828 419.59069824 C172.43895955 420.38366276 172.43993082 421.17662727 172.44093153 421.99362101 C172.44877805 428.38513172 172.45670014 434.77664234 172.46464179 441.16815294 C172.49733632 467.52876758 172.51993857 493.88937474 172.53093616 520.25000767 C172.53250087 523.9740646 172.53419527 527.69812145 172.53597641 531.42217827 C172.53632518 532.1550896 172.53667395 532.88800092 172.53703329 533.64312168 C172.5429682 545.4317101 172.55976273 557.22025923 172.5808181 569.00882932 C172.60179787 580.86134656 172.61179658 592.71383074 172.61127414 604.5663668 C172.61133719 610.98599961 172.61631988 617.40553063 172.63444138 623.82514 C172.65094028 629.70441083 172.65354279 635.58351951 172.64519261 641.46280604 C172.6446195 643.58735641 172.64911576 645.71191562 172.65925397 647.83644188 C172.73708566 665.07488328 171.54282633 682.37016423 159.03637695 695.6887207 C148.32898914 705.41399912 136.18695831 709.69797185 121.83325195 709.55200195 C109.84829272 708.61381882 98.18194753 703.19542993 89.95043945 694.38012695 C81.26803633 683.36879688 77.82071604 672.40237195 77.91174316 658.55853271 C77.90721303 657.41899431 77.90268291 656.2794559 77.8980155 655.10538602 C77.8864404 651.30850185 77.8960189 647.51197329 77.90551758 643.71508789 C77.90308811 640.98445843 77.89610255 638.25384532 77.88923645 635.52322388 C77.8767048 629.6542223 77.87468497 623.7852944 77.8795929 617.91628265 C77.8864162 609.42428293 77.87385731 600.93239379 77.85608572 592.44041386 C77.82747516 578.65209391 77.80993279 564.86378593 77.80151367 551.07543945 C77.80100649 550.25127742 77.80049931 549.4271154 77.79997677 548.57797876 C77.79594384 541.88909401 77.79244907 535.20020899 77.78897953 528.51132393 C77.78592135 522.65834665 77.78264929 516.80536955 77.77905273 510.95239258 C77.77855012 510.12802746 77.7780475 509.30366234 77.77752966 508.45431647 C77.76878696 494.71073711 77.74835669 480.96719899 77.71957064 467.22364736 C77.70239411 458.75176092 77.69580423 450.2799911 77.70287669 441.80808952 C77.70705436 436.00714027 77.70071166 430.20626464 77.68607795 424.40533254 C77.67801742 421.05867537 77.6765556 417.71235264 77.68490028 414.36567307 C77.69325261 410.73789017 77.68332444 407.11060203 77.66882324 403.48284912 C77.67571718 402.42546374 77.68261111 401.36807836 77.68971395 400.278651 C77.64744699 394.86548767 77.39562362 390.92332082 74.2902832 386.2746582 C71.1537635 383.57376624 69.8348574 383.23710136 65.6652832 383.5246582 C62.32243919 384.20677335 62.32243919 384.20677335 59.2902832 385.2746582 C56.83415082 391.2596051 57.01042544 397.19825867 57.03872681 403.58964539 C57.03575667 404.72238713 57.03278653 405.85512887 57.02972639 407.02219611 C57.02209354 410.81432817 57.02857764 414.60630501 57.03491211 418.3984375 C57.03329025 421.118885 57.02859987 423.8393249 57.02394104 426.55976868 C57.0153178 432.41733808 57.01349762 438.27487729 57.01588821 444.13245201 C57.01899026 452.61453329 57.0073311 461.09654803 56.99133842 469.57861254 C56.96538692 483.35839199 56.94536363 497.13817148 56.93188477 510.91796875 C56.93066921 512.15439576 56.93066921 512.15439576 56.9294291 513.41580109 C56.91821443 525.10595198 56.91292784 536.79609811 56.91004197 548.48625366 C56.90983799 549.30902237 56.909634 550.13179109 56.90942383 550.97949219 C56.90922389 551.80125306 56.90902396 552.62301392 56.90881796 553.46967664 C56.90507976 567.19286288 56.88595792 580.91597697 56.85432947 594.63912708 C56.83545541 603.09469732 56.82942831 611.55008215 56.84014665 620.0056676 C56.84648514 625.80531093 56.83837083 631.60482173 56.81909253 637.40443601 C56.80845279 640.74581926 56.80639169 644.08661428 56.81756401 647.42803574 C56.82872727 651.06058194 56.81520321 654.6922592 56.79580688 658.32475281 C56.80493154 659.3667075 56.8140562 660.40866219 56.82345736 661.48219126 C56.68683175 674.69719577 51.6024702 686.65200986 42.7902832 696.4621582 C32.88389937 705.85417211 19.81508058 709.71977232 6.4621582 709.45825195 C-6.72001244 708.69524454 -16.69329041 702.76084798 -25.7097168 693.2746582 C-35.2580987 682.13792214 -37.87429594 669.41913203 -37.83720875 655.08482075 C-37.8396745 653.72211564 -37.8396745 653.72211564 -37.84219006 652.33188114 C-37.84650648 649.28360125 -37.84372946 646.23536915 -37.84101868 643.18708801 C-37.842721 640.98125362 -37.84487077 638.77541954 -37.84742993 636.56958598 C-37.85202649 631.77158134 -37.85344788 626.9735896 -37.85246468 622.17558289 C-37.851009 615.04093168 -37.85502075 607.90629258 -37.86054516 600.77164371 C-37.86919199 589.50439632 -37.87455655 578.23715047 -37.87774667 566.96990032 C-37.88288976 549.09059869 -37.89835604 531.21131699 -37.91732315 513.3320252 C-37.92134448 509.52689229 -37.92526541 505.72175928 -37.9291895 501.91662627 C-37.93036349 500.77887523 -37.93036349 500.77887523 -37.93156119 499.61813932 C-37.93314675 498.08113774 -37.93473158 496.54413616 -37.93631567 495.00713457 C-37.93790695 493.46448438 -37.9395012 491.92183419 -37.94109841 490.379184 C-37.95992393 472.19175562 -37.97701369 454.00432591 -37.99267578 435.81689453 C-37.99370916 434.62328039 -37.99370916 434.62328039 -37.99476342 433.40555284 C-38.01704404 407.58032782 -38.02886917 381.75510859 -38.03634234 355.9298755 C-38.04410072 329.38176142 -38.06513175 302.83368689 -38.10188495 276.28559649 C-38.10705881 272.53932758 -38.11206611 268.79305846 -38.11696434 265.04678917 C-38.11841478 263.94082843 -38.11841478 263.94082843 -38.11989452 262.81252504 C-38.13505574 250.93135133 -38.13592532 239.05021711 -38.13130721 227.16903637 C-38.12693126 215.23845678 -38.1367892 203.30795851 -38.16139428 191.37740282 C-38.17410629 184.91012977 -38.18017862 178.44302192 -38.16897774 171.97574234 C-38.15886726 166.06235753 -38.16693764 160.14929456 -38.1898407 154.23594805 C-38.19486689 152.09007567 -38.19304706 149.94417479 -38.18390802 147.79831598 C-38.17250615 144.89414063 -38.18541536 141.99108155 -38.20470142 139.08697224 C-38.19551187 138.24276076 -38.18632231 137.39854928 -38.17685428 136.52875564 C-38.22459184 132.90071724 -38.38624503 130.71961157 -40.54987401 127.74341983 C-43.43315299 125.78269864 -45.28857852 125.91070732 -48.7097168 126.2746582 C-50.1947168 126.7696582 -50.1947168 126.7696582 -51.7097168 127.2746582 C-53.23051893 131.34620866 -52.85000294 135.73186911 -52.84101868 140.02024841 C-52.84313439 140.91287528 -52.8452501 141.80550214 -52.84742993 142.7251783 C-52.85343158 145.72272228 -52.85242964 148.72022417 -52.8515625 151.71777344 C-52.854594 153.86473156 -52.85811543 156.01168904 -52.86209106 158.15864563 C-52.86998301 162.7868755 -52.87512618 167.41509765 -52.87838173 172.04333305 C-52.88429318 179.36892426 -52.90083628 186.69446692 -52.91972351 194.02003479 C-52.92606114 196.52881142 -52.93238676 199.03758809 -52.93870068 201.54636478 C-52.94186649 202.80291595 -52.9450323 204.05946711 -52.94829404 205.35409558 C-52.99034754 222.4092321 -53.02332816 239.46434635 -53.03564453 256.51953125 C-53.04403643 268.02206046 -53.06657126 279.52446975 -53.1050002 291.02693897 C-53.12472687 297.11111619 -53.13717672 303.19511426 -53.13216591 309.27932549 C-53.12750448 315.00939081 -53.14140678 320.73911724 -53.16917801 326.4691143 C-53.17606529 328.56480802 -53.17624308 330.66053696 -53.16897774 332.7562294 C-53.12544759 346.73116545 -53.08616108 360.15465742 -62.7331543 371.34106445 C-69.6148093 378.07311826 -78.009177 382.18122167 -87.7097168 382.6496582 C-97.41025659 382.18122167 -105.80462429 378.07311826 -112.6862793 371.34106445 C-123.44946551 358.86034853 -122.27744757 343.28642232 -122.19555664 327.82202148 C-122.1977055 325.46023346 -122.20158764 323.09844648 -122.20706177 320.73666382 C-122.21671452 314.3522273 -122.20150134 307.9680726 -122.18115568 301.58367014 C-122.16530564 295.56341071 -122.16683297 289.54317223 -122.16770633 283.5228983 C-122.16870511 271.59000513 -122.1504533 259.65721957 -122.12133789 247.72436523 C-122.09318085 236.17812133 -122.07899606 224.63197208 -122.08032227 213.08569336 C-122.08040218 212.37473688 -122.08048209 211.66378041 -122.08056442 210.93127979 C-122.08064513 210.22148361 -122.08072584 209.51168743 -122.080809 208.78038228 C-122.0821936 195.5904587 -122.07037894 182.40057488 -122.05250257 169.21066425 C-122.0465033 164.5673328 -122.04436927 159.92400892 -122.04343796 155.28067398 C-122.04141751 149.01460875 -122.02911422 142.74864157 -122.00910568 136.4826088 C-122.00330198 134.1926229 -122.00079547 131.90262571 -122.00196075 129.61263275 C-122.01368822 92.51119988 -113.2877555 59.27518018 -86.7097168 32.2746582 C-62.84977517 9.10271133 -32.67587946 -0.05870341 0 0 Z M-8.7097168 135.2746582 C-11.59627308 138.78645043 -14.21362102 142.47625158 -16.7097168 146.2746582 C-12.39466094 154.90476992 -5.57062042 161.59430468 1.2902832 168.2746582 C1.71696289 168.75805664 2.14364258 169.24145508 2.58325195 169.73950195 C13.48498069 181.65013103 28.69467664 189.03086905 43.2902832 195.2746582 C43.10474884 196.10623192 43.10474884 196.10623192 42.91546631 196.9546051 C39.31933334 213.07591736 35.73663622 229.2001931 32.16479492 245.3269043 C31.58214007 247.95751652 30.99911428 250.5880461 30.41577148 253.21850586 C28.71805398 260.87507079 27.02633368 268.53293044 25.34265137 276.19259644 C24.80859963 278.61839627 24.27271657 281.04379367 23.73498535 283.46878052 C22.98282732 286.86263795 22.23729308 290.25788552 21.4934082 293.65356445 C21.26899048 294.6595166 21.04457275 295.66546875 20.81335449 296.7019043 C20.61141479 297.630271 20.4094751 298.5586377 20.20141602 299.51513672 C19.93593964 300.71977318 19.93593964 300.71977318 19.6651001 301.94874573 C19.15770337 304.70472425 19.15770337 304.70472425 19.2902832 309.2746582 C50.9702832 309.2746582 82.6502832 309.2746582 115.2902832 309.2746582 C116.63344934 306.58832594 116.04034466 305.35690745 115.38500977 302.44091797 C115.15978638 301.42268448 114.93456299 300.40445099 114.70251465 299.35536194 C114.44788452 298.23689377 114.19325439 297.1184256 113.9309082 295.96606445 C113.54026184 294.21132057 113.54026184 294.21132057 113.14172363 292.42112732 C112.42887937 289.22336581 111.71019758 286.02698141 110.98918152 282.83105469 C110.2410524 279.50804819 109.50047579 276.18336365 108.76000977 272.85864258 C108.61146923 272.19172079 108.4629287 271.524799 108.30988693 270.83766747 C108.00767452 269.48064721 107.70549851 268.12361885 107.40335846 266.76658249 C106.94366406 264.70318595 106.48309519 262.63998603 106.0223999 260.57681274 C102.70629542 245.71376733 99.50937352 230.82538847 96.3260498 215.93338013 C95.66433652 212.83853676 95.00079854 209.74408879 94.3371582 206.6496582 C94.14295288 205.7367955 93.94874756 204.8239328 93.74865723 203.88340759 C93.57000122 203.05087967 93.39134521 202.21835175 93.20727539 201.3605957 C93.05329285 200.6392041 92.8993103 199.9178125 92.74066162 199.17456055 C92.27162279 197.07055017 92.27162279 197.07055017 91.2902832 194.2746582 C92.0946582 194.10643555 92.0946582 194.10643555 92.9152832 193.93481445 C105.78837899 190.69536765 117.43109044 182.95813803 127.2902832 174.2746582 C128.11915039 173.57727539 128.94801758 172.87989258 129.80200195 172.16137695 C136.06820411 166.75881675 141.21547496 160.79094894 146.2902832 154.2746582 C147.01473633 153.40325195 147.73918945 152.5318457 148.4855957 151.6340332 C150.45393274 149.32570291 150.45393274 149.32570291 151.2902832 146.2746582 C143.94320293 134.14643776 133.48341379 123.8050355 122.2902832 115.2746582 C121.48848633 114.65719727 120.68668945 114.03973633 119.8605957 113.40356445 C75.25924813 80.57404796 25.46089452 97.32378403 -8.7097168 135.2746582 Z " fill="#000000" transform="translate(444.709716796875,263.725341796875)"/>
<path d="M0 0 C10.12290627 7.46164305 16.44694545 17.08520536 19.34765625 29.35546875 C20.8888429 43.79897905 18.45398022 55.79153445 9.34765625 67.35546875 C0.95174675 77.40167987 -9.71662767 82.2979221 -22.625 83.671875 C-36.25291502 84.22848286 -48.78121273 78.87355174 -58.83984375 69.85546875 C-68.19847358 60.04032039 -71.16094481 47.98085441 -70.92578125 34.82421875 C-70.38908285 22.34730945 -64.90374237 12.1822421 -56.02734375 3.60546875 C-40.24933197 -9.45006257 -17.25366307 -10.69777931 0 0 Z M-52.65234375 15.35546875 C-59.46212572 23.93193944 -60.80454917 33.47449302 -59.98095703 44.15136719 C-58.70230005 52.72767866 -53.58209783 60.7787516 -46.76953125 66.02734375 C-37.73512556 71.69468311 -29.25214287 73.24590067 -18.65234375 72.35546875 C-8.16856744 69.59507471 -0.10331177 63.43411669 5.64453125 54.29296875 C9.93573878 45.83493652 10.30395349 36.66835857 7.84765625 27.60546875 C4.60036626 18.44899459 -0.360757 12.26668437 -8.8984375 7.57421875 C-24.64973236 0.60343294 -40.43997012 2.82411521 -52.65234375 15.35546875 Z " fill="#000000" transform="translate(537.65234375,372.64453125)"/>
<path d="M0 0 C-0.825 0.825 -1.65 1.65 -2.5 2.5 C-4.61425265 5.04192199 -5.41974751 6.81065963 -5.5625 10.125 C-5.32426965 13.98995369 -5.32426965 13.98995369 -3.125 16.4375 C0.40724087 19.03473593 2.59636677 19.5180745 7 19 C9.77122275 16.64573501 9.77122275 16.64573501 12 14 C12.66 13.67 13.32 13.34 14 13 C16.15364435 19.46093305 16.31319976 28.14188116 13.5 34.4375 C9.96815846 40.28200646 4.51355475 44.94156208 -2 47 C-10.66497703 48.07886346 -17.84292068 47.16396862 -25 42 C-29.77162291 37.64502607 -32.66410643 33.26910365 -33.3359375 26.73046875 C-33.42979388 18.21769523 -33.06853222 12.44658167 -27.234375 6.0703125 C-19.19057832 -1.5617938 -10.64130949 -4.15270614 0 0 Z " fill="#000000" transform="translate(521,388)"/>
</svg>
