<?xml version="1.0" encoding="UTF-8"?>
<svg version="1.1" xmlns="http://www.w3.org/2000/svg" width="1024" height="1024">
<path d="M0 0 C0.87043945 0.50289551 1.74087891 1.00579102 2.63769531 1.52392578 C15.58348436 9.01508397 27.90041417 17.21108291 40 26 C40.7326709 26.53157715 41.4653418 27.0631543 42.22021484 27.61083984 C50.41221699 33.58483821 58.3190548 39.8078092 65.99609375 46.4296875 C68.74694682 48.78347335 71.54580476 51.05414386 74.375 53.3125 C86.10458973 62.91096255 96.77789962 73.68426091 107.5 84.375 C108.0185556 84.89087677 108.53711121 85.40675354 109.07138062 85.93826294 C116.383738 93.22194158 123.42980841 100.62395472 129.8125 108.75 C132.68152609 112.376054 135.62609462 115.91832626 138.625 119.4375 C155.15910316 139.22754963 168.7552765 160.94117225 182 183 C182.72255478 184.19276981 183.44519189 185.38548975 184.16796875 186.578125 C188.89569381 194.49733495 193.01252029 202.69112969 197 211 C197.68352539 212.42070801 197.68352539 212.42070801 198.38085938 213.87011719 C205.76440472 229.30533582 212.32522546 244.85995697 218 261 C218.3722168 262.04172363 218.74443359 263.08344727 219.12792969 264.15673828 C225.64837708 282.49792854 230.63042588 301.05291702 235 320 C235.22026855 320.9492334 235.44053711 321.8984668 235.66748047 322.87646484 C249.48598621 383.57293943 249.54538422 451.03271491 237 512 C236.80277344 512.96592072 236.80277344 512.96592072 236.6015625 513.95135498 C228.9599803 551.27896437 218.64972267 587.93688917 202.21728516 622.43310547 C200.8670104 625.28043575 199.54911094 628.14179676 198.23046875 631.00390625 C191.62647927 645.20308669 184.2520782 658.69714272 176 672 C175.43522949 672.91910156 174.87045898 673.83820312 174.28857422 674.78515625 C166.14352692 688.00850146 157.43580657 700.66658354 148 713 C147.5143457 713.63873047 147.02869141 714.27746094 146.52832031 714.93554688 C131.79971306 734.25073931 115.18940914 751.87266835 98.0625 769.0625 C97.18658203 769.94309082 96.31066406 770.82368164 95.40820312 771.73095703 C90.97000877 776.158149 86.46967727 780.44272695 81.71362305 784.52709961 C79.55317021 786.384061 77.46760283 788.31719593 75.375 790.25 C45.25746197 817.38333075 9.66015139 840.4120441 -26.81494141 857.93994141 C-29.22492133 859.10911826 -31.61779922 860.31001721 -34.01171875 861.51171875 C-84.51885318 886.58624694 -139.2003447 900.35259275 -195 907 C-196.1127832 907.13422363 -197.22556641 907.26844727 -198.37207031 907.40673828 C-232.47914396 911.2992149 -267.9741141 910.27992726 -302 906 C-302.67983948 905.91514343 -303.35967896 905.83028687 -304.06011963 905.74285889 C-362.77943938 898.33218376 -420.63279319 880.54990511 -472.70166016 852.24853516 C-474.93544372 851.03506913 -477.17634039 849.83561324 -479.41796875 848.63671875 C-501.45336503 836.73887962 -523.27110875 822.96016313 -542.58984375 806.98046875 C-544.47830683 805.42868466 -546.3821266 803.91884251 -548.31640625 802.42578125 C-554.98478354 797.27467771 -561.37641127 791.99396073 -567.55859375 786.26171875 C-569.65389313 784.32063341 -571.77704888 782.43015898 -573.9375 780.5625 C-577.44614732 777.51245181 -580.88463088 774.39011515 -584.3125 771.25 C-584.82868896 770.77763916 -585.34487793 770.30527832 -585.87670898 769.81860352 C-587.25633031 768.55136389 -588.62848916 767.27601305 -590 766 C-590.91845703 765.15695312 -590.91845703 765.15695312 -591.85546875 764.296875 C-593 763 -593 763 -593 761 C-593.66 761 -594.32 761 -595 761 C-595 760.34 -595 759.68 -595 759 C-595.66 759 -596.32 759 -597 759 C-598.26953125 757.7421875 -598.26953125 757.7421875 -599.8125 755.875 C-602.68245643 752.48976955 -605.64134186 749.21995846 -608.68115234 745.98852539 C-614.74438558 739.54164278 -620.52963628 732.96407967 -626 726 C-626.76441406 725.030625 -627.52882813 724.06125 -628.31640625 723.0625 C-646.0772168 700.25568067 -662.08464576 676.34564155 -676 651 C-676.63010986 649.85942139 -676.63010986 649.85942139 -677.27294922 648.69580078 C-682.13784752 639.85353254 -686.51658808 630.90426198 -690.45703125 621.61328125 C-691.72485079 618.64433676 -693.0551615 615.72872907 -694.4375 612.8125 C-712.55437349 572.97898337 -723.03577045 529.61213847 -729.1875 486.4375 C-729.34250977 485.36411377 -729.49751953 484.29072754 -729.65722656 483.18481445 C-732.47803358 462.33143008 -733.38249826 441.46355568 -733.3125 420.4375 C-733.31034485 419.26100891 -733.3081897 418.08451782 -733.30596924 416.87237549 C-733.04767459 328.6087653 -707.42028379 242.97030729 -661 168 C-660.5992627 167.35192383 -660.19852539 166.70384766 -659.78564453 166.03613281 C-647.09996011 145.63997382 -632.76249952 126.11810358 -617 108 C-616.36449219 107.26394531 -615.72898437 106.52789062 -615.07421875 105.76953125 C-613.39484256 103.83535315 -611.70033726 101.9157646 -610 100 C-609.32710937 99.23429688 -608.65421875 98.46859375 -607.9609375 97.6796875 C-602.20929546 91.19638782 -596.16764064 85.08353645 -590 79 C-587.45219613 76.46017048 -584.91349024 73.91232643 -582.38671875 71.3515625 C-577.09894206 66.01021933 -571.74525716 60.85042064 -566 56 C-564.55173828 54.75283203 -564.55173828 54.75283203 -563.07421875 53.48046875 C-555.58523129 47.0504031 -547.90284937 40.9145336 -540 35 C-539.26410645 34.44876465 -538.52821289 33.8975293 -537.77001953 33.32958984 C-466.30067654 -20.07174281 -382.88895071 -53.91856021 -294 -63 C-293.01016113 -63.10296387 -292.02032227 -63.20592773 -291.00048828 -63.31201172 C-198.14124975 -72.50642717 -99.41785544 -54.87870067 0 0 Z M-355 -28 C-356.00417969 -27.75024414 -357.00835937 -27.50048828 -358.04296875 -27.24316406 C-391.54409935 -18.82667461 -423.12621473 -6.39267576 -454 9 C-454.85190918 9.42394043 -455.70381836 9.84788086 -456.58154297 10.28466797 C-475.56606072 19.80955948 -493.73128782 30.8853932 -510.86376953 43.4375 C-513.15946697 45.1166387 -515.46800297 46.77718358 -517.77734375 48.4375 C-526.93183094 55.05747288 -535.69547969 61.93674114 -544.15283203 69.42382812 C-545.49308303 70.56745229 -546.8629917 71.67660647 -548.24951172 72.76367188 C-556.72467467 79.4388427 -564.26314373 86.95949916 -571.86181641 94.60107422 C-574.12052144 96.87050018 -576.38972326 99.12903274 -578.66015625 101.38671875 C-586.23567163 108.95532827 -593.40404741 116.55428055 -600 125 C-600.92222038 126.09080809 -601.85193284 127.17538187 -602.79296875 128.25 C-639.2469638 170.11559953 -666.65945345 220.83514329 -685 273 C-685.37366699 274.05429199 -685.74733398 275.10858398 -686.13232422 276.19482422 C-695.85768437 303.96912569 -702.06699405 332.85652164 -706 362 C-706.14276367 363.04720215 -706.28552734 364.0944043 -706.43261719 365.17333984 C-708.2523589 378.76006307 -709.69925174 392.29147482 -710 406 C-710.02723145 407.14339844 -710.05446289 408.28679687 -710.08251953 409.46484375 C-711.78689834 493.2473895 -691.05933201 577.07589973 -584.58105469 736.30126953 C-582.920499 738.08541816 -581.27543883 739.88293186 -579.6328125 741.68359375 C-572.29613333 749.71969639 -572.29613333 749.71969639 -564.265625 757.046875 C-561.70184902 759.25702671 -559.26416236 761.57688255 -556.81274414 763.91015625 C-549.79530897 770.57305047 -542.56632986 776.70917496 -534.86621094 782.56201172 C-532.91163355 784.06808979 -530.98962915 785.60943457 -529.0703125 787.16015625 C-511.87666749 800.96209006 -493.36945786 813.62734569 -473.88671875 823.98144531 C-471.85362299 825.07902237 -469.84822521 826.21821345 -467.84375 827.3671875 C-419.3054252 855.10181751 -365.1568999 872.79812614 -309.9375 880.8125 C-308.90861664 880.96223267 -308.90861664 880.96223267 -307.85894775 881.11499023 C-286.43627343 884.17934356 -265.13382873 885.38218677 -243.5 885.3125 C-241.72834473 885.30976578 -241.72834473 885.30976578 -239.92089844 885.30697632 C-221.44054666 885.25909734 -203.31329105 884.66103751 -185 882 C-183.76572266 881.82307617 -182.53144531 881.64615234 -181.25976562 881.46386719 C-136.93851125 874.9340946 -93.58479807 863.14943509 -53 844 C-51.16948447 843.15448526 -49.33876486 842.30941214 -47.5078125 841.46484375 C-33.6026013 834.96910908 -20.24999378 827.73688448 -7 820 C-5.63027369 819.21082405 -4.26048868 818.42174997 -2.890625 817.6328125 C12.57707584 808.63150098 27.10406738 798.25499644 41 787 C42.68745476 785.66660941 44.37495128 784.33327167 46.0625 783 C58.20873827 773.23927498 70.02814026 763.07602297 81 752 C84.01986082 748.96972587 87.05772331 745.9591236 90.109375 742.9609375 C101.022761 732.22929272 101.022761 732.22929272 110.953125 720.60546875 C112.84156739 718.20166899 114.80949379 715.88876357 116.81591797 713.58325195 C157.8097729 666.26300467 186.92064665 607.95281981 204 548 C204.39436313 546.65030768 204.78873197 545.30061703 205.18310547 543.95092773 C208.20611961 533.48053017 210.63397076 522.9572717 212.74023438 512.26635742 C213.25357189 509.66943016 213.78243665 507.07598093 214.3125 504.48242188 C216.15639939 495.31225675 217.62167028 486.36578596 218 477 C208.99947323 476.93390937 200.00054645 476.93520304 191 477 C190.01531738 477.00580078 189.03063477 477.01160156 188.01611328 477.01757812 C171.06452367 477.2015346 157.95463 481.176986 142.99609375 488.94921875 C121.72100865 499.97362823 100.54826696 505.32240187 76.54077148 505.2746582 C75.16899849 505.27902148 73.79722791 505.28420989 72.42546082 505.29014587 C68.75248139 505.30335909 65.07960589 505.30413573 61.40660739 505.30158257 C58.32709035 505.30050286 55.24759351 505.30542038 52.16808087 505.310188 C44.90655305 505.32121714 37.64507702 505.32175497 30.38354492 505.31567383 C22.90734034 505.30960944 15.43132278 505.32202228 7.95515007 505.3432439 C1.50978446 505.36086243 -4.93552154 505.36686173 -11.38091034 505.36360615 C-15.21954873 505.36179701 -19.05805298 505.36439453 -22.89666939 505.37832069 C-26.49772977 505.39090228 -30.09849662 505.38895215 -33.69955254 505.37590981 C-35.64488365 505.37242279 -37.59022379 505.38371325 -39.53552246 505.39547729 C-50.46059738 505.32967355 -50.46059738 505.32967355 -55 502 C-57.26978342 498.19262136 -58.02797898 495.81139049 -57.875 491.375 C-56.9752336 487.90447247 -56.29407917 485.75289501 -54 483 C-48.91862626 480.3856618 -45.12976052 479.61915572 -39.33642578 479.58349609 C-38.24002525 479.57061806 -38.24002525 479.57061806 -37.12147522 479.55747986 C-34.7293206 479.53258367 -32.33758438 479.52805717 -29.9453125 479.5234375 C-28.2761815 479.50911731 -26.60706228 479.49335847 -24.93795776 479.47622681 C-20.56215745 479.43450882 -16.18643025 479.40941705 -11.81048584 479.38873291 C-4.78552046 479.35280898 2.23926524 479.29206789 9.2640419 479.23024368 C11.7197998 479.21111191 14.1755093 479.19941596 16.63131714 479.18881226 C18.12514352 479.17860726 19.61896888 479.16824995 21.11279297 479.15771484 C22.42182587 479.15121918 23.73085876 479.14472351 25.07955933 479.13803101 C27.890878 479.33343369 27.890878 479.33343369 29 478 C29.16666667 475.5 29.16666667 475.5 29 473 C27.40981832 471.40981832 25.7729308 471.87201164 23.56773376 471.86869812 C22.61029266 471.86468994 21.65285156 471.86068176 20.66639709 471.85655212 C19.07764015 471.8573452 19.07764015 471.8573452 17.45678711 471.8581543 C15.79335266 471.85294266 15.79335266 471.85294266 14.09631348 471.84762573 C11.67796777 471.84025174 9.25961521 471.83491516 6.84126091 471.83133507 C3.01216471 471.82419043 -0.81680177 471.80853743 -4.64585876 471.78999329 C-15.53659678 471.73743974 -26.4272545 471.68913529 -37.31811523 471.67407227 C-43.97187346 471.66477485 -50.62534464 471.63463236 -57.27898979 471.59275246 C-59.81503295 471.5804439 -62.35112164 471.57532092 -64.88719368 471.57755089 C-68.44215283 471.5799067 -71.99619081 471.55771214 -75.55102539 471.5300293 C-76.59602707 471.53663071 -77.64102875 471.54323212 -78.71769714 471.55003357 C-85.24169309 471.46679515 -89.41823443 470.43504231 -95 467 C-98.0026733 463.80360584 -98.91829753 461.08255767 -99.25 456.6875 C-98.98011754 452.70673372 -97.92336609 450.44603092 -96 447 C-96 446.34 -96 445.68 -96 445 C-91.70778234 443.25991176 -88.14111032 441.87755773 -83.48339844 441.85523987 C-82.55805298 441.84834137 -81.63270752 441.84144287 -80.67932129 441.83433533 C-79.66623901 441.83172195 -78.65315674 441.82910858 -77.609375 441.82641602 C-76.54086304 441.819729 -75.47235107 441.81304199 -74.37145996 441.80615234 C-72.04863632 441.7920921 -69.72579878 441.78020115 -67.4029541 441.77020454 C-63.73049863 441.75381924 -60.05814656 441.73058366 -56.38574219 441.70530701 C-45.94341155 441.634453 -35.50103927 441.57431877 -25.05859375 441.52319336 C-18.6749361 441.49145902 -12.29139802 441.45020046 -5.90783691 441.40299797 C-3.47092838 441.38694769 -1.03399229 441.37464019 1.4029541 441.36609077 C4.80521846 441.35398047 8.20719989 441.32984961 11.609375 441.30297852 C12.62245728 441.30238937 13.63553955 441.30180023 14.67932129 441.30119324 C15.60466675 441.29147491 16.53001221 441.28175659 17.48339844 441.27174377 C18.69017242 441.26539587 18.69017242 441.26539587 19.92132568 441.25891972 C22.30582917 441.11938131 22.30582917 441.11938131 25 439 C24.65555119 436.52733235 24.65555119 436.52733235 24 434 C21.48331081 432.74165541 19.75805482 432.86967757 16.94049072 432.86196899 C15.86940063 432.85651566 14.79831055 432.85106232 13.69476318 432.84544373 C11.92434662 432.84388023 11.92434662 432.84388023 10.11816406 432.84228516 C8.87905273 432.83720444 7.63994141 432.83212372 6.36328125 432.82688904 C3.66445737 432.81616552 0.96568536 432.80717035 -1.73314667 432.80076981 C-6.00282408 432.7900942 -10.27242211 432.76984961 -14.54205322 432.74765015 C-26.68457393 432.68571416 -38.82709054 432.63174122 -50.96972656 432.59863281 C-57.67342479 432.58027398 -64.37699058 432.55132068 -71.08059144 432.5106281 C-74.62765199 432.48957596 -78.17454575 432.47410344 -81.72167206 432.47182083 C-85.68144863 432.46926979 -89.64089867 432.44378484 -93.60058594 432.41650391 C-94.77276672 432.41951004 -95.94494751 432.42251617 -97.15264893 432.4256134 C-107.27680967 432.32185291 -107.27680967 432.32185291 -112 429 C-115.45305355 424.45650849 -116.66936053 420.92225074 -116.38671875 415.2109375 C-115.58428868 410.62330701 -113.58562106 407.23075058 -109.85707092 404.33666992 C-106.21094861 402.63084527 -102.92331817 402.52223513 -98.97436523 402.48828125 C-98.17754648 402.47028473 -97.38072773 402.45228821 -96.55976295 402.43374634 C-93.91358778 402.37851049 -91.26763856 402.34502611 -88.62109375 402.3125 C-86.74261688 402.27946531 -84.86415312 402.24567747 -82.98570251 402.21118164 C-61.34664975 401.84503075 -39.70356997 401.9244314 -18.0625 402 C-11.07280776 402.02379732 -4.08313552 402.04394432 2.9065876 402.05593872 C5.66040784 402.06237281 8.41415662 402.07483945 11.16795349 402.08764648 C12.83063701 402.09127275 14.49332115 402.09462524 16.15600586 402.09765625 C16.91145187 402.10282257 17.66689789 402.10798889 18.44523621 402.11331177 C21.57553605 402.11363053 24.00607362 401.99797546 27 401 C27.33 399.35 27.66 397.7 28 396 C24.8804781 393.92031873 24.19632112 393.74921895 20.65544128 393.74171448 C19.76808792 393.73488647 18.88073456 393.72805847 17.9664917 393.72102356 C16.99552551 393.72357651 16.02455933 393.72612946 15.02416992 393.72875977 C13.99949112 393.72353302 12.97481232 393.71830627 11.91908264 393.71292114 C9.69121523 393.70267006 7.4633238 393.69689881 5.23543358 393.69503975 C1.70911295 393.69138411 -1.81692441 393.67467876 -5.34318542 393.65428162 C-15.37009414 393.59879557 -25.39704507 393.56818916 -35.42407227 393.54370117 C-41.55490256 393.52782438 -47.68553274 393.49760137 -53.81625938 393.45893669 C-56.15300051 393.44728517 -58.48977745 393.44135633 -60.82654762 393.44125557 C-64.09657285 393.44106348 -67.36604673 393.42279258 -70.63598633 393.40063477 C-71.60087982 393.40521194 -72.56577332 393.40978912 -73.55990601 393.414505 C-78.77110586 393.35838083 -82.5276606 392.98727062 -87 390 C-90.03280254 385.39850649 -91.66568912 380.44477964 -90.59765625 374.91796875 C-89.37013425 371.00297256 -88.28861225 369.23948676 -85.0625 366.5625 C-80.47313815 364.22098885 -76.93049158 363.8716889 -71.78643799 363.84178162 C-70.51040207 363.8319928 -69.23436615 363.82220398 -67.91966248 363.81211853 C-66.50796546 363.80621472 -65.09626806 363.80040425 -63.68457031 363.79467773 C-62.19631174 363.78509635 -60.70805588 363.77508612 -59.21980286 363.76467896 C-55.18092966 363.737652 -51.1420448 363.71663048 -47.10313129 363.69667697 C-42.88170054 363.67480379 -38.66030564 363.64742162 -34.43890381 363.62062073 C-26.44567282 363.57071186 -18.45242191 363.52576632 -10.45915198 363.48259836 C-1.35884596 363.43321056 7.74142409 363.37829815 16.84169531 363.32291877 C35.5610968 363.20912645 54.28053225 363.10228141 73 363 C71.1610045 358.85103695 69.22096775 357.70077585 65.1796875 355.57421875 C64.31345261 355.1082 64.31345261 355.1082 63.42971802 354.63276672 C61.58368244 353.64018808 59.73048741 352.66228219 57.875 351.6875 C36.31125235 340.3494184 36.31125235 340.3494184 33 331 C31.43633601 325.08041491 32.17480735 320.36062196 35 315 C38.32419787 311.75494969 40.30838022 311.07722973 44.91796875 310.5625 C51.49232989 310.68949262 56.88957803 313.71439798 62.6875 316.5625 C63.91157179 317.14810546 65.13627764 317.73238717 66.36157227 318.31542969 C76.09212193 322.97073756 85.72095969 327.83918675 95.34228516 332.71536255 C103.34392416 336.76974141 111.39421279 340.56941316 119.6875 344 C133.19287315 349.62500007 143.30072052 357.16030813 153.5703125 367.6171875 C163.63566861 377.48835668 177.26537531 376.36162997 190.49414062 376.26367188 C192.60026443 376.23861652 194.70638423 376.21322182 196.8125 376.1875 C198.96939168 376.17242364 201.12629357 376.15874047 203.28320312 376.14648438 C208.52236138 376.11371827 213.76113193 376.06375406 219 376 C219.11515427 370.39176102 218.87959483 365.07010566 218.00390625 359.51171875 C217.89551926 358.82355576 217.78713226 358.13539276 217.67546082 357.42637634 C217.3154843 355.17811876 216.94123773 352.93267011 216.5625 350.6875 C216.43161987 349.90566345 216.30073975 349.1238269 216.16589355 348.31829834 C211.33977773 319.80878602 203.76865045 292.19788865 194 265 C193.55672363 263.74775635 193.55672363 263.74775635 193.10449219 262.47021484 C184.78440701 239.17092869 173.95404735 216.56922587 161.35449219 195.31103516 C160.20101809 193.34297715 159.08959837 191.36344115 158.0078125 189.35546875 C145.59165659 166.53733334 129.48453399 145.39448832 112.50170898 125.7890625 C111.38709474 124.46116571 110.30250412 123.10794608 109.23461914 121.7421875 C102.75976768 113.53594863 95.50457871 106.23350029 88.08862305 98.8828125 C85.93281127 96.74535118 83.78520378 94.59990152 81.63867188 92.453125 C80.2478676 91.06723473 78.85660714 89.68180208 77.46484375 88.296875 C76.519188 87.35288849 76.519188 87.35288849 75.5544281 86.38983154 C71.19063368 82.07160158 66.65154369 78.00482095 62 74 C60.90520352 73.03895123 59.81126737 72.07692012 58.71875 71.11328125 C50.13478639 63.61487434 41.19803843 56.72449186 32 50 C31.2776416 49.46729492 30.5552832 48.93458984 29.81103516 48.38574219 C-2.93221626 24.24252548 -38.36947542 5.35126036 -76 -10 C-77.08667969 -10.45890625 -78.17335938 -10.9178125 -79.29296875 -11.390625 C-107.5968146 -23.11959057 -137.94966201 -30.45727207 -168.125 -35.4375 C-168.84737854 -35.55715118 -169.56975708 -35.67680237 -170.31402588 -35.80007935 C-195.18740743 -39.86754345 -219.93784955 -41.23436667 -245.125 -41.25 C-246.61652588 -41.25101212 -246.61652588 -41.25101212 -248.13818359 -41.25204468 C-284.35822015 -41.2134067 -319.83248495 -36.8410641 -355 -28 Z " fill="#000000" transform="translate(756,92)"/>
<path d="M0 0 C1.61353867 -0.01052147 1.61353867 -0.01052147 3.25967407 -0.02125549 C6.71873204 -0.03867548 10.1776185 -0.04510956 13.63671875 -0.046875 C14.82161896 -0.04754974 16.00651917 -0.04822449 17.22732544 -0.04891968 C35.78105418 -0.03214996 53.93550289 0.55014158 72.32421875 3.203125 C73.57058105 3.38004883 74.81694336 3.55697266 76.10107422 3.73925781 C124.61028916 10.81670154 171.91784447 25.30117157 215.32421875 48.203125 C216.13358887 48.6264209 216.94295898 49.0497168 217.77685547 49.48583984 C237.39459358 59.79050991 256.08691936 71.27340469 273.59716797 84.87304688 C276.20352473 86.88031739 278.86149501 88.81682945 281.51171875 90.765625 C290.99269093 97.88277756 299.88277291 105.68637049 308.59375 113.71875 C310.74159154 115.67300926 312.91429537 117.57735143 315.11328125 119.47265625 C319.55552909 123.34924219 323.73029194 127.46162935 327.88671875 131.640625 C328.60279297 132.35283203 329.31886719 133.06503906 330.05664062 133.79882812 C334.68598519 138.43659734 339.05581478 143.23340424 343.32421875 148.203125 C344.24986925 149.25126713 345.17687056 150.29821847 346.10546875 151.34375 C354.76223404 161.19634947 362.5819084 171.62450182 370.32421875 182.203125 C370.86079102 182.92902832 371.39736328 183.65493164 371.95019531 184.40283203 C380.04213708 195.37447753 387.0824196 206.83973315 393.86376953 218.66113281 C395.14940862 220.89885835 396.45017407 223.12665819 397.7578125 225.3515625 C422.26418817 267.43614714 448.31964841 326.60136961 447.32421875 376.203125 C443.88639844 376.06429081 440.44905846 375.91585446 437.01171875 375.765625 C435.54702148 375.70665039 435.54702148 375.70665039 434.05273438 375.64648438 C433.11494141 375.60458984 432.17714844 375.56269531 431.2109375 375.51953125 C430.34686279 375.48287354 429.48278809 375.44621582 428.5925293 375.40844727 C426.32421875 375.203125 426.32421875 375.203125 423.32421875 374.203125 C423.0471106 372.66047974 423.0471106 372.66047974 422.7644043 371.08666992 C416.65609251 337.43896055 407.8420033 305.67149236 394.32421875 274.203125 C393.96150879 273.34299805 393.59879883 272.48287109 393.22509766 271.59667969 C384.26043999 250.40748883 373.01461695 230.37326483 360.32421875 211.203125 C359.87369141 210.51847168 359.42316406 209.83381836 358.95898438 209.12841797 C339.45074521 179.63110597 315.46050374 151.00968734 288.32421875 128.203125 C287.37160156 127.36136719 286.41898438 126.51960938 285.4375 125.65234375 C275.50969788 116.90970731 265.02045291 108.97842234 254.32421875 101.203125 C253.64665527 100.7095752 252.9690918 100.21602539 252.27099609 99.70751953 C233.15443294 85.89593748 212.59692191 74.32208005 191.32421875 64.203125 C189.94002018 63.53402788 188.55589855 62.86477157 187.171875 62.1953125 C181.48410673 59.24032356 181.48410673 59.24032356 175.32421875 58.203125 C173.83870337 59.6402957 173.83870337 59.6402957 172.50390625 61.61328125 C171.97345703 62.34756348 171.44300781 63.0818457 170.89648438 63.83837891 C170.33638672 64.63937012 169.77628906 65.44036133 169.19921875 66.265625 C168.61591797 67.08981934 168.03261719 67.91401367 167.43164062 68.76318359 C162.82649775 75.33960179 158.51023908 82.01580818 154.56542969 89.00732422 C153.67112663 90.5894174 152.76690105 92.16591635 151.85644531 93.73876953 C142.66672033 109.66102842 135.66014874 125.96559071 129.32421875 143.203125 C128.6611972 144.94831249 127.99722978 146.69314112 127.33203125 148.4375 C114.84343033 181.846453 109.09129497 217.86118738 105.32421875 253.203125 C105.21094238 254.25580566 105.09766602 255.30848633 104.98095703 256.39306641 C95.54574724 346.58651732 105.89862682 443.82936896 125.32421875 532.203125 C125.4946167 532.97877808 125.66501465 533.75443115 125.84057617 534.55358887 C134.03210653 571.54411844 145.67613741 607.67706773 161.32421875 642.203125 C162.23673013 644.26776407 163.14817139 646.33287641 164.05859375 648.3984375 C182.06667216 688.87525261 207.05657663 729.68963176 237.45703125 762.16015625 C239.52686483 764.42484864 241.42972812 766.79080693 243.32421875 769.203125 C248.25581907 767.57531161 252.14019071 764.75321065 256.32421875 761.765625 C257.44981201 760.96644653 257.44981201 760.96644653 258.59814453 760.15112305 C264.42649864 755.96048315 269.93671525 751.49291004 275.34765625 746.78125 C278.12543873 744.37529667 280.95657084 742.06304897 283.82421875 739.765625 C299.85910259 726.65664669 315.77229551 711.8649384 328.5078125 695.515625 C330.27389776 693.26718957 332.13641045 691.17907527 334.07421875 689.078125 C364.51521076 654.98181702 388.14307404 612.25529437 403.32421875 569.203125 C403.66759277 568.25034668 404.0109668 567.29756836 404.36474609 566.31591797 C409.98266731 550.63002015 414.25865673 534.94354574 417.81640625 518.6953125 C421.11740799 503.98592117 421.11740799 503.98592117 424.63671875 501.703125 C425.52359375 501.538125 426.41046875 501.373125 427.32421875 501.203125 C428.22785156 501.02910156 429.13148438 500.85507812 430.0625 500.67578125 C433.49207718 500.17880061 436.73603452 500.10528639 440.19921875 500.140625 C441.35164062 500.14964844 442.5040625 500.15867187 443.69140625 500.16796875 C444.99464844 500.18537109 444.99464844 500.18537109 446.32421875 500.203125 C439.76801659 539.7428089 428.13165347 576.8599819 411.32421875 613.203125 C410.52044952 614.97378416 409.71705019 616.74461128 408.9140625 618.515625 C405.15479301 626.71846414 401.15916531 634.50086606 396.28125 642.1015625 C394.56945719 644.81446368 392.97983087 647.56570651 391.42797852 650.37231445 C387.64229521 657.21185154 383.37882282 663.52539747 378.76171875 669.828125 C376.5003369 672.9233914 374.40415629 676.10757655 372.32421875 679.328125 C368.81490807 684.64869281 364.89555557 689.48611583 360.76171875 694.33203125 C358.55295928 696.93369505 356.42885591 699.57966668 354.32421875 702.265625 C350.71039819 706.81392845 346.8569869 711.10279339 342.9140625 715.3671875 C341.55991463 716.85001005 340.20965851 718.33730442 338.90576172 719.86450195 C333.66029407 726.00779175 328.00094554 731.71251511 322.29199219 737.4206543 C320.58627277 739.12855556 318.88872848 740.84430545 317.19140625 742.56054688 C310.55549393 749.23063261 303.71066261 755.35818096 296.32421875 761.203125 C294.9211833 762.37079937 293.52239984 763.54361108 292.12890625 764.72265625 C282.54671909 772.77294008 272.66774298 780.16316021 262.32421875 787.203125 C261.36950684 787.86006348 261.36950684 787.86006348 260.39550781 788.53027344 C250.64462429 795.23559209 240.61397475 801.36212487 230.32421875 807.203125 C229.51662109 807.66444824 228.70902344 808.12577148 227.87695312 808.60107422 C179.42292486 836.1385541 126.58601886 853.81456714 71.32421875 861.203125 C69.67365479 861.42959717 69.67365479 861.42959717 67.98974609 861.66064453 C-5.25181272 871.31166443 -87.59530475 862.19605387 -154.88525391 830.51220703 C-157.59288618 829.24201244 -160.31249672 828.00022759 -163.03596497 826.76441956 C-177.57342527 820.16278492 -191.96170572 813.41272562 -205.67578125 805.203125 C-206.50335938 804.70989746 -207.3309375 804.21666992 -208.18359375 803.70849609 C-225.10537568 793.56603425 -241.22316285 782.46506796 -256.67578125 770.203125 C-257.30339355 769.70699707 -257.93100586 769.21086914 -258.57763672 768.69970703 C-267.42480449 761.68373239 -275.91199585 754.40905309 -284.12011719 746.65722656 C-285.698022 745.18233625 -287.29572784 743.73258991 -288.90234375 742.2890625 C-293.86610981 737.82472298 -298.61534385 733.34750655 -302.91015625 728.21875 C-305.01288028 725.81829513 -307.26654968 723.61880181 -309.55078125 721.390625 C-313.74369586 717.2355412 -317.52750319 712.90924116 -321.20703125 708.296875 C-323.01936096 706.02572765 -324.84912686 703.78006681 -326.70703125 701.546875 C-381.84291429 635.04653694 -413.28029302 553.74712738 -421.67578125 468.203125 C-421.77221924 467.32229248 -421.86865723 466.44145996 -421.96801758 465.53393555 C-422.97190674 455.42621095 -422.87482721 445.28738679 -422.86328125 435.140625 C-422.862677 434.16303223 -422.86207275 433.18543945 -422.8614502 432.17822266 C-422.73532903 356.91157255 -403.83206718 280.49272933 -363.87597656 216.13867188 C-362.67713959 214.20531559 -361.49936335 212.26032904 -360.32421875 210.3125 C-347.6601872 189.49654983 -333.15734468 170.045567 -317.06054688 151.77880859 C-315.4382839 149.93288383 -313.8395672 148.0672483 -312.23828125 146.203125 C-308.75806485 142.23199646 -305.15015944 138.37841749 -301.55078125 134.515625 C-300.95209229 133.87302734 -300.35340332 133.23042969 -299.73657227 132.56835938 C-298.05681354 130.77300485 -296.36863254 128.98613118 -294.67578125 127.203125 C-294.19012695 126.68540527 -293.70447266 126.16768555 -293.20410156 125.63427734 C-292.06783101 124.45097435 -290.87672759 123.32073165 -289.67578125 122.203125 C-289.01578125 122.203125 -288.35578125 122.203125 -287.67578125 122.203125 C-287.67578125 121.543125 -287.67578125 120.883125 -287.67578125 120.203125 C-286.34765625 118.86328125 -286.34765625 118.86328125 -284.42578125 117.265625 C-281.37069938 114.67766461 -278.40045156 112.0296811 -275.48168945 109.28857422 C-269.38191555 103.57869922 -262.98932 98.43591276 -256.30371094 93.43261719 C-254.16554449 91.81776923 -252.06085114 90.16078688 -249.95288086 88.50683594 C-185.0780941 37.85049806 -105.31956373 8.60988727 -23.67578125 1.203125 C-22.36736519 1.07874054 -22.36736519 1.07874054 -21.03251648 0.95184326 C-14.00976277 0.31687728 -7.04972007 0.03102113 0 0 Z M-36.67578125 26.203125 C-37.78405273 26.33702637 -38.89232422 26.47092773 -40.03417969 26.60888672 C-81.08423156 31.78247254 -121.36155861 43.31832798 -158.67578125 61.203125 C-159.43149414 61.5635791 -160.18720703 61.9240332 -160.96582031 62.29541016 C-164.91186928 64.19223507 -168.81760194 66.15633533 -172.70068359 68.17871094 C-174.83765039 69.28708086 -176.98492281 70.37389857 -179.1328125 71.4609375 C-195.41164201 79.77666951 -211.09374862 89.1593797 -225.67578125 100.203125 C-226.8508569 101.05356225 -228.02810199 101.90100672 -229.20703125 102.74609375 C-237.14565951 108.45207839 -244.71521489 114.43432565 -252.09277344 120.84667969 C-253.60151728 122.1394898 -255.141921 123.39507758 -256.68359375 124.6484375 C-265.28106476 131.6732004 -273.12858531 139.43924978 -280.98828125 147.265625 C-281.54808685 147.82025421 -282.10789246 148.37488342 -282.68466187 148.94631958 C-289.08454069 155.29953104 -295.14732702 161.71899664 -300.73803711 168.80615234 C-302.70162626 171.23509506 -304.77597387 173.50106755 -306.92578125 175.765625 C-322.0838662 192.45269938 -334.48636171 212.68213032 -345.67578125 232.203125 C-346.33199463 233.33717773 -346.33199463 233.33717773 -347.00146484 234.49414062 C-376.90931212 286.51321181 -394.01198681 344.45638785 -398.67578125 404.203125 C-398.74635742 405.04472168 -398.81693359 405.88631836 -398.88964844 406.75341797 C-399.28855707 411.56670437 -399.5382318 416.37503272 -399.67578125 421.203125 C-399.7030127 422.04359375 -399.73024414 422.8840625 -399.75830078 423.75 C-402.34324804 515.83264954 -370.38759443 611.94062436 -304.296875 691.1015625 C-301.14796762 694.79163425 -298.18077936 698.61966593 -295.234375 702.47265625 C-294.72003906 703.04371094 -294.20570313 703.61476563 -293.67578125 704.203125 C-293.01578125 704.203125 -292.35578125 704.203125 -291.67578125 704.203125 C-291.4432666 704.76088623 -291.21075195 705.31864746 -290.97119141 705.89331055 C-289.33954486 708.80265996 -287.31405999 710.80660991 -284.94921875 713.16015625 C-284.24945419 713.85923347 -284.24945419 713.85923347 -283.53555298 714.57243347 C-282.54771385 715.55725845 -281.5574523 716.53965881 -280.56494141 717.51977539 C-279.07145078 718.99520543 -277.58592375 720.4782824 -276.1015625 721.96289062 C-270.79645116 727.24844252 -265.38408974 732.35183837 -259.67578125 737.203125 C-258.54593687 738.1877266 -257.41700262 739.17337374 -256.2890625 740.16015625 C-229.1675399 763.69415439 -198.81728514 783.25054035 -166.67578125 799.203125 C-165.87398437 799.60724609 -165.0721875 800.01136719 -164.24609375 800.42773438 C-150.44980283 807.36071895 -136.15743302 812.87803332 -121.67578125 818.203125 C-120.90540527 818.4928418 -120.1350293 818.78255859 -119.34130859 819.08105469 C-39.89972685 848.79397623 51.73198828 848.33007775 166.32421875 812.203125 C167.97725229 811.50635808 169.63095101 810.81116806 171.28515625 810.1171875 C188.86035734 802.71128516 205.75601273 794.65959814 222.32421875 785.203125 C220.89748019 780.75458622 218.69152144 778.21281051 215.44921875 774.890625 C209.34386538 768.44934565 204.09197433 761.50721389 198.87890625 754.3359375 C197.32108222 752.19882212 195.74602135 750.07533367 194.16796875 747.953125 C182.44815006 732.08755653 171.86640936 715.46440476 162.32421875 698.203125 C161.51790146 696.77288774 160.71054774 695.34323446 159.90234375 693.9140625 C154.40147992 684.15585328 149.11248864 674.33168036 144.32421875 664.203125 C143.89947266 663.30674316 143.47472656 662.41036133 143.03710938 661.48681641 C105.14146218 580.7113625 91.42551517 493.23141566 80.32421875 357.203125 C80.23744873 355.53999268 80.23744873 355.53999268 80.14892578 353.84326172 C79.75237679 345.96523352 79.49156936 338.08926425 79.32421875 330.203125 C79.30264709 329.2055719 79.30264709 329.2055719 79.28063965 328.18786621 C78.8629485 307.99396994 79.36652518 287.92438225 80.63671875 267.765625 C80.69557251 266.80458862 80.75442627 265.84355225 80.81506348 264.85339355 C82.05791235 244.9891079 84.54097991 225.29994543 88.01171875 205.703125 C88.19871841 204.64325882 88.19871841 204.64325882 88.38949585 203.5619812 C96.97190639 155.43548517 113.12573598 107.11073144 140.32421875 66.203125 C140.77780762 65.52040527 141.23139648 64.83768555 141.69873047 64.13427734 C145.32345257 58.69025511 145.32345257 58.69025511 147.10180664 56.07250977 C149.054361 53.18749964 150.80891454 50.33712667 152.32421875 47.203125 C91.28638433 25.97891853 27.51295599 18.38995288 -36.67578125 26.203125 Z " fill="#000000" transform="translate(497.67578125,80.796875)"/>
<path d="M0 0 C2.90543872 1.31376917 4.96661059 2.72056492 7.20800781 4.98095703 C7.80832825 5.58142853 8.40864868 6.18190002 9.02716064 6.80056763 C9.66272888 7.44645844 10.29829712 8.09234924 10.953125 8.7578125 C11.61334656 9.42086395 12.27356812 10.08391541 12.95379639 10.76705933 C15.05727824 12.88171832 17.15369142 15.00323212 19.25 17.125 C20.67662261 18.56165557 22.10370072 19.99785898 23.53125 21.43359375 C27.02613661 24.95050804 30.51470062 28.47358547 34 32 C38.66874537 28.10023279 43.09127809 24.04785356 47.37109375 19.7265625 C47.93828629 19.15795502 48.50547882 18.58934753 49.08985901 18.00350952 C50.87479913 16.21303764 52.65620256 14.41909516 54.4375 12.625 C55.65796939 11.39950677 56.87867053 10.17424428 58.09960938 8.94921875 C61.06908756 5.96880226 64.03540257 2.98527106 67 0 C69.93230193 1.32120828 71.98664899 2.74638197 74.234375 5.0390625 C74.80800781 5.61914062 75.38164063 6.19921875 75.97265625 6.796875 C76.55917969 7.40015625 77.14570312 8.0034375 77.75 8.625 C78.35199219 9.23601562 78.95398438 9.84703125 79.57421875 10.4765625 C81.05405305 11.97988624 82.52764676 13.48934856 84 15 C80.10023279 19.66874537 76.04785356 24.09127809 71.7265625 28.37109375 C71.15795502 28.93828629 70.58934753 29.50547882 70.00350952 30.08985901 C68.21303764 31.87479913 66.41909516 33.65620256 64.625 35.4375 C63.39950677 36.65796939 62.17424428 37.87867053 60.94921875 39.09960938 C57.96880226 42.06908756 54.98527106 45.03540257 52 48 C53.31376917 50.90543872 54.72056492 52.96661059 56.98095703 55.20800781 C57.88166428 56.10848846 57.88166428 56.10848846 58.80056763 57.02716064 C59.44645844 57.66272888 60.09234924 58.29829712 60.7578125 58.953125 C61.42086395 59.61334656 62.08391541 60.27356812 62.76705933 60.95379639 C64.88171832 63.05727824 67.00323212 65.15369142 69.125 67.25 C70.56165557 68.67662261 71.99785898 70.10370072 73.43359375 71.53125 C76.95050804 75.02613661 80.47358547 78.51470062 84 82 C83.0542569 83.11228972 82.107228 84.22348623 81.15966797 85.33422852 C80.63243134 85.95314468 80.1051947 86.57206085 79.5619812 87.20973206 C77.51461082 89.5563298 75.34333058 91.75278049 73.125 93.9375 C72.34382812 94.70964844 71.56265625 95.48179687 70.7578125 96.27734375 C70.17773438 96.84582031 69.59765625 97.41429687 69 98 C66.09456128 96.68623083 64.03338941 95.27943508 61.79199219 93.01904297 C61.19167175 92.41857147 60.59135132 91.81809998 59.97283936 91.19943237 C59.33727112 90.55354156 58.70170288 89.90765076 58.046875 89.2421875 C57.38665344 88.57913605 56.72643188 87.91608459 56.04620361 87.23294067 C53.94272176 85.11828168 51.84630858 82.99676788 49.75 80.875 C48.32337739 79.43834443 46.89629928 78.00214102 45.46875 76.56640625 C41.97386339 73.04949196 38.48529938 69.52641453 35 66 C30.33125463 69.89976721 25.90872191 73.95214644 21.62890625 78.2734375 C21.06171371 78.84204498 20.49452118 79.41065247 19.91014099 79.99649048 C18.12520087 81.78696236 16.34379744 83.58090484 14.5625 85.375 C13.34203061 86.60049323 12.12132947 87.82575572 10.90039062 89.05078125 C7.93091244 92.03119774 4.96459743 95.01472894 2 98 C-0.81878012 96.71825282 -2.85241496 95.38992385 -5.015625 93.1796875 C-5.80839844 92.37724609 -5.80839844 92.37724609 -6.6171875 91.55859375 C-7.15601563 91.00300781 -7.69484375 90.44742188 -8.25 89.875 C-8.80429687 89.31167969 -9.35859375 88.74835938 -9.9296875 88.16796875 C-11.29104485 86.78313972 -12.64614859 85.39216796 -14 84 C-12.5826289 79.49018288 -10.36717572 77.2534858 -7 74 C-6.08565186 73.08565186 -5.17130371 72.17130371 -4.22924805 71.22924805 C2.84716797 64.15283203 9.92358398 57.07641602 17 50 C15.68623083 47.09456128 14.27943508 45.03338941 12.01904297 42.79199219 C11.11833572 41.89151154 11.11833572 41.89151154 10.19943237 40.97283936 C9.55354156 40.33727112 8.90765076 39.70170288 8.2421875 39.046875 C7.57913605 38.38665344 6.91608459 37.72643188 6.23294067 37.04620361 C4.11828168 34.94272176 1.99676788 32.84630858 -0.125 30.75 C-1.56165557 29.32337739 -2.99785898 27.89629928 -4.43359375 26.46875 C-7.95050804 22.97386339 -11.47358547 19.48529938 -15 16 C-14.0542569 14.88771028 -13.107228 13.77651377 -12.15966797 12.66577148 C-11.63243134 12.04685532 -11.1051947 11.42793915 -10.5619812 10.79026794 C-8.51461082 8.4436702 -6.34333058 6.24721951 -4.125 4.0625 C-3.34382812 3.29035156 -2.56265625 2.51820313 -1.7578125 1.72265625 C-1.17773438 1.15417969 -0.59765625 0.58570313 0 0 Z " fill="#000000" transform="translate(677,189)"/>
<path d="M0 0 C3.75528988 1.84985738 5.71476475 4.21824412 7.16015625 8.1796875 C7.43730469 9.11039062 7.71445313 10.04109375 8 11 C9.0415625 10.71125 10.083125 10.4225 11.15625 10.125 C22.93333562 7.01177229 36.85684881 3.62962269 48.23046875 9.71875 C51.67353765 12.2117447 54.09035795 15.18071591 56 19 C56.52277841 24.9596739 55.12211088 28.88304899 52.625 34.125 C51.99166912 35.50236593 51.35884445 36.87996475 50.7265625 38.2578125 C50.27845215 39.21929199 50.27845215 39.21929199 49.82128906 40.20019531 C48.80080663 42.43652008 47.8835078 44.70644945 47 47 C46.07832031 46.84144531 45.15664063 46.68289063 44.20703125 46.51953125 C22.57893307 43.46545067 3.13416898 47.63422531 -16.890625 55.4140625 C-28.90343024 60.0649319 -28.90343024 60.0649319 -36 58 C-38.70552388 55.80176185 -40.44778333 54.10443333 -42 51 C-42.32682708 47.57542061 -42.32173645 45.57986312 -40.63671875 42.54296875 C-33.3659304 33.75682571 -24.94564737 26.60572852 -15 21 C-14.34 21 -13.68 21 -13 21 C-13.495 20.175 -13.99 19.35 -14.5 18.5 C-16.38312582 14.10603975 -16.45250627 11.75131579 -16 7 C-12.92418278 -0.07437961 -7.16647576 -1.20476282 0 0 Z " fill="#000000" transform="translate(232,289)"/>
<path d="M0 0 C4.10901108 3.03709515 5.80785773 6.47792365 8 11 C8.969375 10.71125 9.93875 10.4225 10.9375 10.125 C23.09582453 6.68356037 36.13376815 4.14605269 48.07421875 9.78515625 C51.44374102 11.91075752 53.25174438 14.50348876 55 18 C55.92429038 24.86615713 54.64855022 29.54709463 51.3125 35.52734375 C49.36476508 39.19673721 48.20670123 43.04078287 47 47 C45.74058594 46.84144531 44.48117187 46.68289063 43.18359375 46.51953125 C20.82570095 44.06151648 1.9931006 47.41076334 -18.59155273 56.08959961 C-24.64613781 58.54259732 -29.5826966 59.9158393 -36 58 C-38.81992717 56.17879704 -40.50345478 54.99309044 -42 52 C-42.43751898 47.44980259 -42.27358185 44.35710332 -39.43359375 40.65234375 C-38.96050781 40.10707031 -38.48742187 39.56179688 -38 39 C-37.41347656 38.32066406 -36.82695312 37.64132812 -36.22265625 36.94140625 C-30.05049461 30.30949328 -22.86226266 25.41664954 -15 21 C-14.34 21 -13.68 21 -13 21 C-13.495 20.38125 -13.99 19.7625 -14.5 19.125 C-16.6064378 14.73658792 -16.86455493 10.7864905 -16 6 C-11.48152943 0.17355111 -7.1323346 -1.08777373 0 0 Z " fill="#000000" transform="translate(463,289)"/>
<path d="M0 0 C4.09674294 0.0780332 6.65899103 0.34081509 9.75 3.25 C10.61376953 5.1953125 10.61376953 5.1953125 11.3828125 7.375 C11.6420752 8.09945313 11.90133789 8.82390625 12.16845703 9.5703125 C12.4563208 10.40175781 12.4563208 10.40175781 12.75 11.25 C13.95914063 10.96125 15.16828125 10.6725 16.4140625 10.375 C42.28841777 4.41501268 42.28841777 4.41501268 53.75 10.25 C57.2270892 12.59325576 59.14321906 14.40769774 60.75 18.25 C62.19583227 25.79891271 59.65210427 31.51447182 56.2578125 38.171875 C54.79839627 41.15120141 53.72642437 44.08373067 52.75 47.25 C51.49058594 47.09144531 50.23117187 46.93289063 48.93359375 46.76953125 C27.39638456 44.40174199 8.83892962 47.37522956 -11.08447266 55.51953125 C-18.44034957 58.50576368 -24.56508113 60.43996632 -32.25 57.25 C-35.34274599 54.47445873 -36.15049575 52.93409171 -36.75 48.8125 C-35.56851166 40.39439561 -28.3028685 34.51435163 -21.82421875 29.6171875 C-20.57386077 28.69827725 -19.31991356 27.78423169 -18.0625 26.875 C-17.45615723 26.43381836 -16.84981445 25.99263672 -16.22509766 25.53808594 C-13.32321011 23.48809192 -10.82368221 21.72885568 -7.25 21.25 C-7.55035156 20.75371094 -7.85070312 20.25742187 -8.16015625 19.74609375 C-10.18742937 16.12449058 -11.24094212 13.78441468 -11.3125 9.5625 C-10.05342375 5.63714464 -8.36107627 3.89441483 -5.25 1.25 C-3.68966377 -0.31033623 -2.16052864 0.04292441 0 0 Z " fill="#000000" transform="translate(700.25,288.75)"/>
<path d="M0 0 C1.03382813 -0.01224609 2.06765625 -0.02449219 3.1328125 -0.03710938 C16.627478 -0.06260308 16.627478 -0.06260308 22.25 2.1875 C27.08572383 8.12617708 27.75776717 15.78478911 27.25 23.1875 C25.87238493 34.09033928 20.93022237 43.38572016 12.25 50.1875 C3.19854883 55.8428582 -6.52534053 58.65618919 -17.15625 56.7578125 C-26.43218097 54.38012133 -35.12145425 49.40355916 -40.5390625 41.37109375 C-45.68174581 32.09767448 -47.83503935 23.37588569 -46.25 12.875 C-43.75684977 8.40810584 -39.14625477 6.97866428 -34.41113281 5.4152832 C-31.99209647 4.72939488 -29.56608075 4.10252073 -27.125 3.5 C-26.30515625 3.28794922 -25.4853125 3.07589844 -24.640625 2.85742188 C-16.30322638 0.73285969 -8.60211763 0.00528386 0 0 Z " fill="#000000" transform="translate(257.75,339.8125)"/>
<path d="M0 0 C1.0305249 -0.0093457 2.0610498 -0.01869141 3.12280273 -0.02832031 C8.99440789 -0.00361976 14.16598213 0.36716719 19.75 2.25 C24.86206232 9.0660831 25.32644901 18.9700882 24.41015625 27.1640625 C22.13580674 37.79563715 16.01913148 46.13953646 7.02734375 52.03515625 C-2.23732124 57.19846757 -11.13665408 58.3706414 -21.5 56.1875 C-31.86131778 53.14727123 -40.28687728 46.29427882 -45.6015625 36.84765625 C-49.25978415 28.93905476 -50.04807958 21.5372772 -48.75 12.9375 C-45.93794521 7.89923516 -41.03139691 6.7999886 -35.80859375 5.1875 C-31.96845817 4.11620064 -28.13104821 3.16081713 -24.25 2.25 C-23.32832031 2.02054687 -22.40664063 1.79109375 -21.45703125 1.5546875 C-14.35503589 0.06505184 -7.22793373 0.04566728 0 0 Z " fill="#000000" transform="translate(491.25,339.75)"/>
<path d="M0 0 C1.6406543 -0.01836914 1.6406543 -0.01836914 3.31445312 -0.03710938 C9.39650598 -0.04809442 14.79457004 0.16804911 20.5625 2.1875 C25.8616138 10.05070112 25.73305149 20.80937691 24.06640625 29.890625 C21.41292092 38.46573012 16.29205469 45.33939832 9.5625 51.1875 C8.5725 51.6825 8.5725 51.6825 7.5625 52.1875 C7.129375 53.3940625 7.129375 53.3940625 6.6875 54.625 C5.5625 57.1875 5.5625 57.1875 3.9375 58.4375 C1.72327405 59.13672925 -0.20183421 59.43449092 -2.5 59.6875 C-6.4832203 59.89625489 -6.4832203 59.89625489 -9.4375 62.1875 C-14.99305556 61.63194444 -14.99305556 61.63194444 -16.4375 60.1875 C-17.87052714 59.89391838 -19.30913653 59.62732797 -20.75 59.375 C-24.83990841 58.4962835 -26.77056701 57.52116624 -29.4375 54.1875 C-30.200625 53.424375 -30.96375 52.66125 -31.75 51.875 C-32.636875 50.988125 -33.52375 50.10125 -34.4375 49.1875 C-34.99824219 48.68476563 -35.55898438 48.18203125 -36.13671875 47.6640625 C-43.58962811 40.77699224 -47.89983811 31.73764574 -48.62109375 21.609375 C-48.81856294 13.66414405 -48.81856294 13.66414405 -46.4375 10.1875 C-33.363156 1.57145721 -15.12709722 0.00888262 0 0 Z M-23.4375 37.1875 C-23.05845792 40.47825996 -23.05845792 40.47825996 -21.4375 43.1875 C-18.13233066 43.43785974 -14.81353959 43.37271952 -11.5 43.375 C-10.10104492 43.39336914 -10.10104492 43.39336914 -8.67382812 43.41210938 C-7.78244141 43.41404297 -6.89105469 43.41597656 -5.97265625 43.41796875 C-4.74107788 43.42413208 -4.74107788 43.42413208 -3.48461914 43.43041992 C-1.21232776 43.3748988 -1.21232776 43.3748988 0.5625 41.1875 C0.5625 39.8675 0.5625 38.5475 0.5625 37.1875 C-7.67642304 32.88893146 -15.19857696 32.88893146 -23.4375 37.1875 Z M-23.4375 49.1875 C-23.4375 50.5075 -23.4375 51.8275 -23.4375 53.1875 C-22.7775 53.1875 -22.1175 53.1875 -21.4375 53.1875 C-21.7675 51.8675 -22.0975 50.5475 -22.4375 49.1875 C-22.7675 49.1875 -23.0975 49.1875 -23.4375 49.1875 Z M-12.4375 49.1875 C-12.7675 50.5075 -13.0975 51.8275 -13.4375 53.1875 C-12.1175 53.1875 -10.7975 53.1875 -9.4375 53.1875 C-10.0975 51.8675 -10.7575 50.5475 -11.4375 49.1875 C-11.7675 49.1875 -12.0975 49.1875 -12.4375 49.1875 Z M-1.4375 49.1875 C-1.4375 50.5075 -1.4375 51.8275 -1.4375 53.1875 C-0.4475 52.8575 0.5425 52.5275 1.5625 52.1875 C1.2325 51.1975 0.9025 50.2075 0.5625 49.1875 C-0.0975 49.1875 -0.7575 49.1875 -1.4375 49.1875 Z " fill="#000000" transform="translate(733.4375,339.8125)"/>
<path d="M0 0 C1.20079193 0.00007553 2.40158386 0.00015106 3.63876343 0.00022888 C4.92022247 0.00539017 6.20168152 0.01055145 7.52197266 0.01586914 C8.85861152 0.01773645 10.19525107 0.01915887 11.53189087 0.02015686 C15.03352785 0.02395744 18.53512271 0.03376648 22.03674316 0.04486084 C25.61644929 0.05512807 29.19616227 0.05966582 32.77587891 0.06469727 C39.78761485 0.07539117 46.79932298 0.09243775 53.81103516 0.11352539 C51.1374737 5.00022839 48.45043875 9.8359603 45.39306641 14.49633789 C44.47883911 15.89432617 44.47883911 15.89432617 43.54614258 17.32055664 C42.91168213 18.28348633 42.27722168 19.24641602 41.62353516 20.23852539 C40.9600708 21.25043945 40.29660645 22.26235352 39.61303711 23.30493164 C34.79046975 30.65137749 29.93248755 37.97351282 25.04199219 45.27487183 C23.1457675 48.10722111 21.25303554 50.94189503 19.36181641 53.77758789 C18.93900391 54.41153473 18.51619141 55.04548157 18.08056641 55.69863892 C15.01872888 60.29297531 11.96804841 64.89460301 8.92167664 69.49920654 C6.63641912 72.95212449 4.34746557 76.40258438 2.05810547 79.8527832 C0.87747672 81.63395536 -0.30151828 83.41621134 -1.47900391 85.19946289 C-3.20096564 87.80649217 -4.92872511 90.40959108 -6.65771484 93.01196289 C-7.18473999 93.81282318 -7.71176514 94.61368347 -8.25476074 95.43881226 C-8.74287231 96.17113068 -9.23098389 96.9034491 -9.73388672 97.65795898 C-10.16117065 98.30332611 -10.58845459 98.94869324 -11.02868652 99.61361694 C-12.18896484 101.11352539 -12.18896484 101.11352539 -14.18896484 102.11352539 C-14.18896484 86.93352539 -14.18896484 71.75352539 -14.18896484 56.11352539 C-14.84896484 56.11352539 -15.50896484 56.11352539 -16.18896484 56.11352539 C-16.49157227 57.34679565 -16.49157227 57.34679565 -16.80029297 58.60498047 C-19.97337197 71.42108696 -23.32249761 84.19054073 -26.6796875 96.95947266 C-27.68933933 100.80245079 -28.69503967 104.64644992 -29.70068359 108.49047852 C-30.35278442 110.97296421 -31.00512016 113.45538822 -31.65771484 115.93774414 C-31.95262817 117.06725998 -32.2475415 118.19677582 -32.5513916 119.36051941 C-39.57445546 145.9890617 -39.57445546 145.9890617 -46.50146484 150.48852539 C-50.15809688 152.35590799 -53.07638829 152.63694422 -57.18896484 152.11352539 C-61.96912238 150.39266868 -65.9642671 147.79814198 -68.18896484 143.11352539 C-69.31150621 134.94695996 -67.29521425 127.33671427 -65.07568359 119.53930664 C-64.75012482 118.35254333 -64.42456604 117.16578003 -64.08914185 115.9430542 C-63.21245158 112.75736678 -62.32366791 109.57538929 -61.42871475 106.39479446 C-60.50098571 103.08744352 -59.5881779 99.77598067 -58.67407227 96.46484375 C-57.38881307 91.81413423 -56.09853539 87.16487377 -54.80185795 82.51733494 C-52.78116082 75.27284214 -50.80182681 68.01827757 -48.85302734 60.75415039 C-48.12740807 58.0619924 -47.40115679 55.37000571 -46.67471313 52.67807007 C-46.23250311 51.03465076 -45.79247214 49.39064326 -45.35482788 47.7460022 C-40.82736706 30.76587239 -35.77107832 14.09409844 -19.73583984 4.67211914 C-13.11703138 1.19427218 -7.50169954 -0.01582637 0 0 Z " fill="#000000" transform="translate(216.18896484375,402.886474609375)"/>
<path d="M0 0 C1.35762828 0.00373569 2.71525928 0.00658003 4.07289124 0.00857544 C7.62553507 0.01616819 11.17801228 0.03577853 14.73059082 0.0579834 C18.36399075 0.07853637 21.99741792 0.08759726 25.63085938 0.09765625 C32.74485934 0.11902911 39.85874685 0.15311163 46.97265625 0.1953125 C45.63535284 3.63830936 44.20774454 6.5814033 42.13671875 9.64453125 C41.57380127 10.48242188 41.01088379 11.3203125 40.4309082 12.18359375 C39.82593506 13.07433594 39.22096191 13.96507812 38.59765625 14.8828125 C37.31247668 16.79295306 36.02732078 18.70310955 34.7421875 20.61328125 C33.78046631 22.03713135 33.78046631 22.03713135 32.79931641 23.48974609 C30.28280196 27.21709347 27.78104158 30.95412938 25.28515625 34.6953125 C24.81094238 35.40550537 24.33672852 36.11569824 23.84814453 36.84741211 C19.58841431 43.24113375 15.3830604 49.67013359 11.1789856 56.10049438 C4.2165271 66.74805893 -2.76713393 77.38140988 -9.80566406 87.97888184 C-10.70173 89.32891012 -11.59659215 90.6797382 -12.49023438 92.03137207 C-13.73100507 93.90729366 -14.97617499 95.78021348 -16.22265625 97.65234375 C-16.93437988 98.72460205 -17.64610352 99.79686035 -18.37939453 100.90161133 C-18.92321777 101.65853271 -19.46704102 102.4154541 -20.02734375 103.1953125 C-20.35734375 103.1953125 -20.68734375 103.1953125 -21.02734375 103.1953125 C-21.35734375 88.0153125 -21.68734375 72.8353125 -22.02734375 57.1953125 C-24.3185547 63.96271756 -24.3185547 63.96271756 -26.3425293 70.7800293 C-26.55701218 71.56445404 -26.77149506 72.34887878 -26.99247742 73.15707397 C-27.21410049 73.97793488 -27.43572357 74.79879578 -27.6640625 75.64453125 C-27.90465897 76.52807281 -28.14525543 77.41161438 -28.3931427 78.32192993 C-28.90519544 80.20409812 -29.41604834 82.08659309 -29.92578125 83.96939087 C-30.72353794 86.91491369 -31.52546891 89.85927564 -32.328125 92.8034668 C-34.74860696 101.69594051 -37.14668221 110.59283762 -39.453125 119.515625 C-39.81220081 120.89625455 -40.17132966 122.27687031 -40.53051758 123.6574707 C-41.17609616 126.15108321 -41.81320748 128.64690951 -42.44018555 131.14526367 C-44.57508154 139.38294923 -46.61242825 146.2520355 -54.02734375 151.1953125 C-58.7325693 152.76372102 -62.55383191 152.74426789 -67.21484375 151.0078125 C-70.83495421 148.67485243 -73.10506753 146.03986495 -75.02734375 142.1953125 C-75.60663683 134.18521255 -73.77122782 127.27398849 -71.66015625 119.58203125 C-71.30513391 118.25729796 -70.95108075 116.93230461 -70.59793091 115.60707092 C-69.65680421 112.08700999 -68.70180241 108.57086318 -67.74342346 105.0554657 C-66.75510899 101.42268224 -65.77829341 97.78680682 -64.79980469 94.15136719 C-63.07357744 87.74567746 -61.3354407 81.34329506 -59.59116364 74.94249916 C-58.23861419 69.97741654 -56.89802475 65.00920448 -55.56210327 60.03962708 C-54.67241007 56.73598885 -53.77511769 53.43447016 -52.8739624 50.13394165 C-52.48327994 48.7007665 -52.09472901 47.26700819 -51.70855713 45.83261108 C-47.36130401 29.73295602 -42.09679805 14.03698508 -27.0546875 5.01171875 C-18.01033125 0.2542828 -10.11648621 -0.08044249 0 0 Z " fill="#000000" transform="translate(454.02734375,402.8046875)"/>
<path d="M0 0 C1.35476711 0.00560715 2.70954038 0.00987195 4.0643158 0.01286316 C7.60058901 0.02422409 11.13648248 0.05361354 14.67260742 0.0869751 C18.29275376 0.11786685 21.91296249 0.13140897 25.53320312 0.14648438 C32.61473707 0.17849352 39.69601539 0.22958133 46.77734375 0.29296875 C45.31376973 4.08637631 43.62978554 7.26006877 41.36328125 10.64453125 C40.68394531 11.66160156 40.00460937 12.67867188 39.3046875 13.7265625 C38.23927734 15.30630859 38.23927734 15.30630859 37.15234375 16.91796875 C36.46527344 17.94792969 35.77820313 18.97789062 35.0703125 20.0390625 C22.94367247 38.12664003 22.94367247 38.12664003 19.77734375 41.29296875 C16.7933484 41.4040536 13.82865149 41.45465975 10.84375 41.46875 C8.97850466 41.49197432 7.11327029 41.51609266 5.24804688 41.54101562 C2.30567381 41.57594211 -0.63630362 41.60535901 -3.57885742 41.61889648 C-6.41764838 41.63451668 -9.25527292 41.67484339 -12.09375 41.71875 C-12.95769882 41.71684158 -13.82164764 41.71493317 -14.71177673 41.71296692 C-22.28091038 41.86211712 -29.06259823 43.76492233 -35.03515625 48.54296875 C-41.21076594 56.30659236 -43.94325635 62.30511618 -43.22265625 72.29296875 C-42.71309428 74.72114233 -42.02445578 76.93768264 -41.22265625 79.29296875 C-42.87957364 80.94988614 -45.07676977 80.77442672 -47.34765625 81.10546875 C-51.10271846 81.73212208 -53.86615645 82.42792843 -57.03515625 84.54296875 C-60.22265625 86.29296875 -60.22265625 86.29296875 -63.09765625 85.85546875 C-64.12890625 85.33984375 -65.16015625 84.82421875 -66.22265625 84.29296875 C-66.96 83.93460937 -67.69734375 83.57625 -68.45703125 83.20703125 C-73.78928219 80.47120315 -77.47684876 77.78458372 -80.22265625 72.29296875 C-80.76902274 65.84584411 -79.96151133 62.58968011 -76.22265625 57.29296875 C-74.91726681 56.25675633 -73.5883123 55.24835418 -72.22265625 54.29296875 C-72.95178228 51.33271705 -73.68866503 48.37524093 -74.4453125 45.421875 C-74.89119167 43.62715533 -75.31151233 41.82467322 -75.65625 40.0078125 C-76.02021008 37.94955716 -76.02021008 37.94955716 -77.22265625 35.29296875 C-80.04716594 34.01790011 -80.04716594 34.01790011 -83.22265625 33.29296875 C-88.78156587 29.719384 -91.46763543 25.20519192 -93.09765625 18.91796875 C-93.27317666 13.82787674 -93.11967894 8.82429005 -89.9609375 4.609375 C-87.59792857 2.42002552 -85.47901696 1.34869934 -82.34765625 0.66796875 C-77.23676767 1.69014647 -73.05392579 3.87926105 -69.859375 8.08984375 C-66.84150015 13.57688893 -65.34725874 19.58574841 -66.8046875 25.7578125 C-67.53453243 27.97610966 -68.34515133 30.12961503 -69.22265625 32.29296875 C-70.48343166 36.07529498 -69.72053845 37.45444746 -68.41015625 41.16796875 C-67.87455078 42.71097656 -67.87455078 42.71097656 -67.328125 44.28515625 C-66.96332031 45.27773438 -66.59851563 46.2703125 -66.22265625 47.29296875 C-65.95324219 48.19660156 -65.68382812 49.10023438 -65.40625 50.03125 C-63.81643741 53.06920872 -62.29047465 53.50026238 -59.09765625 54.60546875 C-58.18757812 54.93160156 -57.2775 55.25773437 -56.33984375 55.59375 C-55.64117188 55.82449219 -54.9425 56.05523437 -54.22265625 56.29296875 C-53.9803125 55.205 -53.73796875 54.11703125 -53.48828125 52.99609375 C-49.5345104 35.53011664 -45.33844289 17.76799392 -29.95703125 6.65625 C-27.72763657 5.35836813 -25.61234758 4.27023449 -23.22265625 3.29296875 C-22.6564003 3.04644562 -22.09014435 2.79992249 -21.50672913 2.54592896 C-14.38837198 -0.22515694 -7.55688235 -0.09085668 0 0 Z " fill="#000000" transform="translate(697.22265625,402.70703125)"/>
<path d="M0 0 C11.20976512 4.77793267 18.86530778 11.86776095 24 23 C28.65851187 35.32209196 31.7198489 48.21495208 35.03027344 60.94873047 C37.57186657 70.70667102 40.21449769 80.43295388 42.9140625 90.1484375 C43.60438658 92.64221426 44.29457148 95.13602955 44.98461914 97.62988281 C46.01830961 101.36506637 47.05524907 105.0991778 48.10299683 108.83044434 C49.08955836 112.34542224 50.06345259 115.86370291 51.03515625 119.3828125 C51.33471222 120.43673187 51.63426819 121.49065125 51.94290161 122.57650757 C53.80338556 129.37220339 55.30805358 135.42006389 52.8125 142.25 C50.18561967 146.23561154 47.53058408 148.48980531 43 150 C37.74234055 150.39680449 34.43897158 149.89498146 30 147 C25.02692536 142.05246357 23.46595268 137.17087825 21.6796875 130.4765625 C21.24304276 128.91103134 21.24304276 128.91103134 20.7975769 127.31387329 C19.84676394 123.88062919 18.92125806 120.44128493 18 117 C17.68067505 115.81966187 17.3613501 114.63932373 17.03234863 113.42321777 C15.02895835 106.01244442 13.06263146 98.59245217 11.11816406 91.16601562 C10.27775174 87.95807006 9.43335403 84.75123212 8.58671761 81.5449276 C7.76604751 78.43430698 6.94958281 75.32258398 6.1328125 72.2109375 C5.83182648 71.0703891 5.53084045 69.9298407 5.22073364 68.75473022 C4.94309174 67.69146515 4.66544983 66.62820007 4.37939453 65.53271484 C4.01468552 64.14238541 4.01468552 64.14238541 3.64260864 62.72396851 C2.96002821 59.83056266 2.45781919 56.93664048 2 54 C1.01 54.495 1.01 54.495 0 55 C0 72.49 0 89.98 0 108 C-15.1909204 109.16853234 -15.1909204 109.16853234 -21.8125 109.125 C-22.55806152 109.12306641 -23.30362305 109.12113281 -24.07177734 109.11914062 C-31.73439146 109.06095583 -39.36165112 108.58276231 -47 108 C-46.76514893 107.46036621 -46.53029785 106.92073242 -46.28833008 106.36474609 C-40.52807047 93.12705388 -34.77876453 79.88463809 -29.04150391 66.63696289 C-28.48600869 65.35432679 -27.93050736 64.07169334 -27.375 62.7890625 C-27.09844574 62.15050827 -26.82189148 61.51195404 -26.53695679 60.85404968 C-24.54836115 56.26342146 -22.55602391 51.67442734 -20.5625 47.0859375 C-19.43721715 44.4949144 -18.31225966 41.90375025 -17.1875 39.3125 C-16.91491364 38.68463593 -16.64232727 38.05677185 -16.36148071 37.40988159 C-12.66157322 28.88376697 -8.99991906 20.34326694 -5.44604492 11.75512695 C-3.78016988 7.75050142 -1.98960237 3.85862277 0 0 Z " fill="#000000" transform="translate(294,405)"/>
<path d="M0 0 C10.86799438 4.62896057 19.01403357 12.28109334 24 23 C24.96628447 25.58056239 25.88280643 28.14853665 26.75 30.76171875 C27.00726868 31.53669708 27.26453735 32.31167542 27.52960205 33.11013794 C31.08289499 44.06262673 33.8699019 55.23141032 36.75 66.375 C37.97279852 71.07780947 39.20006455 75.77943929 40.4296875 80.48046875 C40.88294907 82.21509117 40.88294907 82.21509117 41.34536743 83.98475647 C43.19995493 91.04983232 45.12344618 98.09071067 47.1328125 105.11328125 C47.37016113 105.94629761 47.60750977 106.77931396 47.85205078 107.63757324 C48.93595602 111.43409394 50.03393623 115.22560216 51.15527344 119.01123047 C56.07340095 135.92724812 56.07340095 135.92724812 52.25 143.4375 C48.44218045 147.77418337 45.55848895 149.80690649 39.6875 150.25 C34.38119558 149.89025055 31.42713211 148.33980934 27.57006836 144.71875 C23.62539815 139.8235026 22.55774804 133.59006917 21.00390625 127.625 C20.64566112 126.29585148 20.286008 124.96708176 19.92503357 123.63867188 C18.97809165 120.13922263 18.04994637 116.63505862 17.12585449 113.1295166 C16.20358858 109.64329151 15.26435717 106.16165552 14.32617188 102.6796875 C12.87754167 97.2967272 11.43935285 91.91109529 10.00830078 86.5234375 C7.95157655 78.79240969 5.84352998 71.07582538 3.69740295 63.36914062 C3.4710466 62.54865234 3.24469025 61.72816406 3.01147461 60.8828125 C2.81460556 60.17527832 2.61773651 59.46774414 2.41490173 58.73876953 C2 57 2 57 2 55 C1.34 55 0.68 55 0 55 C0 72.49 0 89.98 0 108 C-6.8475 108.185625 -13.695 108.37125 -20.75 108.5625 C-22.9062793 108.62381104 -25.06255859 108.68512207 -27.28417969 108.74829102 C-28.99673365 108.79226541 -30.70929817 108.83583153 -32.421875 108.87890625 C-33.3082666 108.90561401 -34.1946582 108.93232178 -35.10791016 108.95983887 C-35.9601416 108.98026245 -36.81237305 109.00068604 -37.69042969 109.02172852 C-38.42767273 109.04171402 -39.16491577 109.06169952 -39.92449951 109.08229065 C-42.07647145 108.99696802 -43.93529165 108.59489159 -46 108 C-43.62634162 100.27945024 -40.42731644 93.08508236 -37.0625 85.75 C-32.51966444 75.75970675 -28.15726456 65.7205283 -24 55.5625 C-19.79208392 45.28569026 -15.48408575 35.0613918 -11.0625 24.875 C-10.79300537 24.25319855 -10.52351074 23.63139709 -10.24584961 22.99075317 C-6.90677628 15.29177846 -3.50086826 7.62678758 0 0 Z " fill="#000000" transform="translate(525,405)"/>
<path d="M0 0 C3.9539197 0.73077798 6.86934672 1.3488658 10 4 C10.53125 7.22265625 10.53125 7.22265625 10.5 11.0625 C10.75154821 22.7292778 15.94264825 29.94264825 24 38 C11.13 38 -1.74 38 -15 38 C-14.08317018 33.41585088 -12.67722421 29.54069147 -10.83984375 25.29296875 C-10.53051407 24.56757401 -10.22118439 23.84217926 -9.90248108 23.09480286 C-8.91861847 20.79042892 -7.92816731 18.48895556 -6.9375 16.1875 C-6.26714053 14.62062985 -5.59721384 13.05357448 -4.92773438 11.48632812 C-3.2901605 7.65538878 -1.64667391 3.82703613 0 0 Z " fill="#000000" transform="translate(767,406)"/>
<path d="M0 0 C27.72 0 55.44 0 84 0 C80.46302176 4.24437389 77.8648109 7.14280471 73.6875 10.4375 C69.5164432 13.76307231 65.49022562 17.18047921 61.55859375 20.78515625 C60 22 60 22 58 22 C57.67 22.66 57.34 23.32 57 24 C55.88625 23.360625 54.7725 22.72125 53.625 22.0625 C48.27064946 19.41370468 42.66944498 18.10345149 36.76171875 19.546875 C34.78419563 20.27680821 32.90704652 21.10372762 31 22 C29.33613869 22.6736377 27.67001534 23.34176676 26 24 C25.39414063 23.443125 24.78828125 22.88625 24.1640625 22.3125 C17.67119705 16.39899793 10.94477145 10.88095608 4.0390625 5.4609375 C2.6564753 4.35097313 1.3213211 3.18223467 0 2 C0 1.34 0 0.68 0 0 Z " fill="#000000" transform="translate(206,523)"/>
<path d="M0 0 C27.72 0 55.44 0 84 0 C78.37419355 6.75096774 78.37419355 6.75096774 75.5 9.1875 C74.8296875 9.75984375 74.159375 10.3321875 73.46875 10.921875 C72.6540625 11.60765625 71.839375 12.2934375 71 13 C69.8642821 13.96318659 68.72888937 14.92675666 67.59375 15.890625 C64.40063764 18.59947181 61.20155005 21.30113235 58 24 C57.39671875 23.72285156 56.7934375 23.44570313 56.171875 23.16015625 C55.37265625 22.79792969 54.5734375 22.43570313 53.75 22.0625 C52.56664062 21.52302734 52.56664062 21.52302734 51.359375 20.97265625 C46.19998865 18.84569069 41.0528408 17.88248756 35.65234375 19.859375 C34.09573795 20.55794931 32.54910559 21.27936983 31.015625 22.02734375 C29 23 29 23 26 24 C24.45703125 23.06298828 24.45703125 23.06298828 22.8125 21.5703125 C22.20092041 21.02608643 21.58934082 20.48186035 20.95922852 19.92114258 C20.31268311 19.32841553 19.6661377 18.73568848 19 18.125 C17.65623504 16.92173812 16.31117177 15.71992464 14.96484375 14.51953125 C14.2982373 13.92221191 13.63163086 13.32489258 12.94482422 12.70947266 C9.36983552 9.56710875 5.62308848 6.64460653 1.87890625 3.70703125 C1.25886719 3.14371094 0.63882812 2.58039062 0 2 C0 1.34 0 0.68 0 0 Z " fill="#000000" transform="translate(437,523)"/>
<path d="M0 0 C5.59333603 4.05791045 10.8709972 8.39040086 16.12060547 12.87548828 C20.64022238 16.72582624 25.2658237 20.41572699 30 24 C29.7834375 24.58265625 29.566875 25.1653125 29.34375 25.765625 C26.40823234 34.40909367 25.17756156 43.68933029 29.03515625 52.2578125 C32.6274185 58.74424556 37.00581842 61.96574457 44 64 C50.62691035 65.11971933 56.39026058 63.64786334 62 60 C67.66573164 55.02494802 70.53615302 50.23116312 71.2109375 42.62109375 C71.38524533 38.2298773 71.09763243 34.71440879 69.4375 30.625 C68 27 68 27 68.04296875 25.09765625 C69.51967238 21.86096299 72.15861235 19.98992185 74.875 17.8125 C75.45636719 17.33490234 76.03773438 16.85730469 76.63671875 16.36523438 C77.83501661 15.38231685 79.03654263 14.4033221 80.24121094 13.42822266 C81.88356887 12.09454777 83.51078517 10.74499757 85.1328125 9.38671875 C89.2927465 5.92388541 93.29025641 2.69128205 98 0 C102.68823873 15.500902 106.95465449 31.10313855 111.125 46.75 C111.50489075 48.17256607 111.50489075 48.17256607 111.89245605 49.62387085 C114.60266217 59.78254279 117.27336578 69.9515684 119.8671875 80.140625 C120.08303497 80.97519226 120.29888245 81.80975952 120.52127075 82.6696167 C120.71647308 83.4441217 120.91167542 84.21862671 121.11279297 85.01660156 C121.28487274 85.69192932 121.45695251 86.36725708 121.63424683 87.06304932 C122 89 122 89 122 93 C110.12 93 98.24 93 86 93 C86.15984375 95.74828125 86.3196875 98.4965625 86.484375 101.328125 C87.21123882 115.59101467 87.22285605 129.86497496 87.24023438 144.14257812 C87.24578659 148.01206003 87.27003166 151.88120203 87.29820633 155.75057602 C87.31688782 158.77220645 87.32204047 161.79375403 87.32357025 164.81543732 C87.32656736 166.24263691 87.33449435 167.6698361 87.34775543 169.09697723 C87.49936296 186.60989011 87.49936296 186.60989011 82.28125 193.15625 C81.6934375 193.5996875 81.105625 194.043125 80.5 194.5 C79.9121875 194.9640625 79.324375 195.428125 78.71875 195.90625 C74.75836199 198.42649692 70.53913004 198.56739125 66 198 C60.51679858 196.32681722 57.1201042 193.56869461 53.91015625 188.87890625 C51.84746046 184.62072309 51.87387172 180.17721895 51.87060547 175.5234375 C51.86745331 174.23018555 51.86430115 172.93693359 51.86105347 171.60449219 C51.86284651 170.19466112 51.86489826 168.78483035 51.8671875 167.375 C51.86651233 165.90787744 51.86554053 164.44075499 51.86428833 162.97363281 C51.86281399 159.8902887 51.8649525 156.80697355 51.86962891 153.72363281 C51.8752466 149.83638643 51.8720105 145.94920974 51.86617661 142.06196594 C51.84545549 125.68371515 51.95778011 109.35264381 53 93 C50.36 93 47.72 93 45 93 C45.06983093 93.58731903 45.13966187 94.17463806 45.21160889 94.77975464 C46.1643384 103.78702438 46.18239799 112.77513731 46.203125 121.8203125 C46.20736607 123.07914057 46.20736607 123.07914057 46.21169281 124.36339951 C46.22658235 128.7958176 46.23587907 133.22820395 46.24023438 137.66064453 C46.24573606 142.21420622 46.26982905 146.76747152 46.29820633 151.32094002 C46.31689194 154.8487126 46.32204123 158.37641415 46.32357025 161.90423203 C46.32657868 163.58262648 46.33454535 165.26102023 46.34775543 166.93936539 C46.49408198 186.93968058 46.49408198 186.93968058 41.65411377 192.56399536 C36.87347862 196.85813272 32.38742697 198.45070255 25.984375 198.24609375 C21.2414463 197.6578959 18.51986244 195.5316775 15.25 192.1875 C11.08370938 186.28525495 10.71176936 181.0339458 10.77294922 174.05712891 C10.77265717 173.1784314 10.77236511 172.29973389 10.77206421 171.39440918 C10.77345177 168.50502469 10.78898596 165.61590166 10.8046875 162.7265625 C10.80841967 160.71731711 10.81126568 158.70806989 10.81326294 156.69882202 C10.82088334 151.42164039 10.84051817 146.14456961 10.8626709 140.86743164 C10.88316364 135.47804259 10.89227199 130.08863556 10.90234375 124.69921875 C10.92376556 114.13275607 10.95893475 103.56640461 11 93 C-0.55 93 -12.1 93 -24 93 C-23.36262134 88.53834939 -22.72043625 84.49842559 -21.64453125 80.1796875 C-21.35843994 79.02927979 -21.07234863 77.87887207 -20.77758789 76.69360352 C-20.45910889 75.43346436 -20.14062988 74.1733252 -19.8125 72.875 C-19.64781219 72.21990448 -19.48312439 71.56480896 -19.31344604 70.88986206 C-15.8117529 56.97146093 -12.1718596 43.08828061 -8.52133179 29.20831299 C-7.88106434 26.77379278 -7.24176482 24.33901781 -6.60342407 21.9039917 C-5.69894783 18.45714289 -4.78969935 15.01159055 -3.87890625 11.56640625 C-3.60318787 10.51370041 -3.32746948 9.46099457 -3.043396 8.37638855 C-2.78874573 7.41759293 -2.53409546 6.4587973 -2.27172852 5.47094727 C-2.04937027 4.62814713 -1.82701202 3.78534698 -1.59791565 2.91700745 C-1 1 -1 1 0 0 Z " fill="#000000" transform="translate(199,526)"/>
<path d="M0 0 C4.59249496 2.9224968 8.66238678 6.16293412 12.75 9.75 C18.39176243 14.64764508 24.11779359 19.39181986 30 24 C29.45963234 26.2977796 28.86511037 28.31738736 27.9375 30.5 C25.9063708 38.08288235 25.97822064 45.89413601 29.6015625 52.9609375 C33.33982403 58.41169873 38.40660527 62.76373849 45 64 C51.67487007 64.66748701 57.19870869 63.47301386 63 60 C68.4150372 54.76323563 71.01407497 48.87143676 71.3125 41.375 C71.2116031 35.35787569 69.6604849 29.7523941 68 24 C75.51936404 17.5124903 83.05657572 11.06839406 90.79296875 4.83984375 C92.97822558 3.08723326 92.97822558 3.08723326 94.67578125 1.25390625 C96 0 96 0 98 0 C100.69938412 8.58064488 103.19265026 17.19191026 105.49609375 25.88671875 C105.81151627 27.06861282 106.12693878 28.2505069 106.45191956 29.46821594 C107.4494412 33.20736152 108.44366895 36.94737198 109.4375 40.6875 C110.42568705 44.39979984 111.41460614 48.11190243 112.40444946 51.82376099 C113.04405904 54.22265533 113.68272522 56.62180142 114.32040405 59.02120972 C115.70717182 64.22599153 117.10815882 69.42438795 118.58642578 74.60400391 C118.82313492 75.43551468 119.05984406 76.26702545 119.3037262 77.12373352 C119.73220359 78.61830731 120.16621738 80.11131171 120.60728455 81.60221863 C121.62908145 85.16121423 122.23156123 88.29278953 122 92 C117.9269597 92.97685365 114.131793 93.11545444 109.94921875 93.09765625 C109.29041214 93.0962413 108.63160553 93.09482635 107.95283508 93.09336853 C105.86434238 93.087805 103.77595989 93.07525947 101.6875 93.0625 C100.26497551 93.05748028 98.84244934 93.0529182 97.41992188 93.04882812 C93.94657923 93.03784757 90.47330039 93.02060835 87 93 C87.00222061 93.79639389 87.00444122 94.59278778 87.00672913 95.41331482 C87.027048 103.04320529 87.04213116 110.67308204 87.05181217 118.30299282 C87.05695706 122.2224337 87.0638949 126.14185163 87.07543945 130.0612793 C87.11846014 145.15791779 87.14832642 160.25655606 86.68359375 175.34765625 C86.65024681 176.85542885 86.65024681 176.85542885 86.6162262 178.3936615 C86.36912894 184.88204035 85.53590827 189.59756059 80.625 194.25 C75.70281478 197.53145681 71.96074619 198.60617758 66 198 C60.72704914 196.17322864 57.06076395 193.77479176 54 189 C52.70208693 185.1062608 52.76430298 181.36000137 52.68359375 177.296875 C52.65235413 175.96135086 52.65235413 175.96135086 52.6204834 174.59884644 C52.55389199 171.64932276 52.49521853 168.69970983 52.4375 165.75 C52.41632111 164.74410828 52.39514221 163.73821655 52.37332153 162.70184326 C51.88863421 139.46850667 51.89712481 116.23713051 52 93 C50.02 93 48.04 93 46 93 C46.00888245 94.10754135 46.01776489 95.2150827 46.0269165 96.35618591 C46.10816059 106.81650359 46.1680413 117.27675686 46.20724869 127.73731899 C46.22808358 133.11464573 46.25632637 138.49171684 46.30175781 143.86889648 C46.34536166 149.06253113 46.36916791 154.25592057 46.37950897 159.4497242 C46.38687427 161.42678751 46.40125687 163.40383809 46.42292023 165.38079643 C46.45214757 168.15967212 46.45594796 170.93754699 46.45410156 173.71655273 C46.46848267 174.52576172 46.48286377 175.3349707 46.49768066 176.16870117 C46.45189031 182.57796751 44.93184652 188.77383107 40.51715469 193.63170528 C35.92974828 197.60531039 32.1195471 198.30562475 26.27734375 198.2109375 C21.31464715 197.75127092 18.61957092 195.64773323 15.25 192.125 C11.11223381 186.37810252 10.71362105 181.95132769 10.77294922 175.07885742 C10.77265717 174.19055237 10.77236511 173.30224731 10.77206421 172.38702393 C10.77345418 169.45973846 10.78899977 166.53270959 10.8046875 163.60546875 C10.80841881 161.57237385 10.81126523 159.53927715 10.81326294 157.50617981 C10.82089007 152.16158054 10.84053073 146.8170904 10.8626709 141.47253418 C10.8831491 136.01620968 10.89226888 130.5598675 10.90234375 125.10351562 C10.92377745 114.40228815 10.95895217 103.70117023 11 93 C-0.55 93 -12.1 93 -24 93 C-25.41687935 90.1662413 -24.5727302 88.75441521 -23.734375 85.71875 C-23.42669189 84.58727539 -23.11900879 83.45580078 -22.80200195 82.29003906 C-22.28126099 80.41396973 -22.28126099 80.41396973 -21.75 78.5 C-21.00598952 75.77689012 -20.26706175 73.05240355 -19.52734375 70.328125 C-19.32807785 69.59712585 -19.12881195 68.86612671 -18.92350769 68.11297607 C-17.31032953 62.18352041 -15.74290709 56.24274332 -14.19140625 50.296875 C-13.95289948 49.38284912 -13.7143927 48.46882324 -13.46865845 47.52709961 C-12.51903517 43.8848143 -11.57054353 40.24223609 -10.62316895 36.59936523 C-8.20821483 27.31845052 -5.7682628 18.04506585 -3.23046875 8.796875 C-3.02086014 8.0247467 -2.81125153 7.25261841 -2.59529114 6.45709229 C-1.11720283 1.11720283 -1.11720283 1.11720283 0 0 Z " fill="#000000" transform="translate(430,526)"/>
<path d="M0 0 C0.75539063 0.15339844 1.51078125 0.30679688 2.2890625 0.46484375 C7.3090917 1.1887848 12.31060444 1.36319153 17.375 1.5625 C18.39722656 1.60568359 19.41945313 1.64886719 20.47265625 1.69335938 C22.98165288 1.79887792 25.49073943 1.90099213 28 2 C27.83991455 2.78157471 27.6798291 3.56314941 27.51489258 4.3684082 C25.9840857 12.19229028 26.89799575 19.07572542 31 26 C37.40822575 33.25106128 43.51872272 35.26737517 53 36 C56.99986412 36.11643326 60.99495562 36.0933851 64.99609375 36.0625 C66.14247818 36.05871338 67.28886261 36.05492676 68.46998596 36.05102539 C73.32484595 36.03490278 78.17961793 36.0071718 83.03442383 35.97949219 C100.05137039 35.89102595 117.00096143 36.19291762 134 37 C134.33 39.97 134.66 42.94 135 46 C123.12 46 111.24 46 99 46 C99.15984375 48.74828125 99.3196875 51.4965625 99.484375 54.328125 C100.21123882 68.59101467 100.22285605 82.86497496 100.24023438 97.14257812 C100.24578659 101.01206003 100.27003166 104.88120203 100.29820633 108.75057602 C100.31688782 111.77220645 100.32204047 114.79375403 100.32357025 117.81543732 C100.32656736 119.24263691 100.33449435 120.6698361 100.34775543 122.09697723 C100.50191571 139.90477074 100.50191571 139.90477074 95.65411377 145.57391357 C90.85752366 149.85127036 86.39292961 151.45087839 79.984375 151.24609375 C75.27276214 150.66177956 72.53508876 148.53508876 69.25 145.25 C65.04420814 139.17496732 64.70940411 133.16753804 64.77294922 126.03540039 C64.77265717 125.16631042 64.77236511 124.29722046 64.77206421 123.40179443 C64.77344932 120.55031085 64.78897176 117.69909377 64.8046875 114.84765625 C64.80842054 112.86226036 64.81126614 110.87686263 64.81326294 108.89146423 C64.82087645 103.68170022 64.84050528 98.47204882 64.8626709 93.2623291 C64.88317858 87.93987552 64.89227517 82.61740363 64.90234375 77.29492188 C64.92375337 66.86323194 64.95786167 56.43162536 65 46 C63.02 46 61.04 46 59 46 C59.00222061 46.85538864 59.00444122 47.71077728 59.00672913 48.59208679 C59.02697618 56.75300332 59.04209634 64.91391111 59.05181217 73.07484722 C59.05697545 77.26792685 59.0639499 81.46098529 59.07543945 85.65405273 C59.16010489 117.65354356 59.16010489 117.65354356 58.74609375 130.39453125 C58.72531517 131.59416756 58.72531517 131.59416756 58.70411682 132.81803894 C58.41831913 139.35242785 56.32800228 143.84233935 51.4375 148.375 C47.17162701 151.21891532 43.00619638 151.64250649 38 151 C32.74033829 149.24994981 28.95999491 146.78153024 26 142 C23.87694323 136.91356568 23.72549809 132.46835207 23.77294922 127.05712891 C23.77265717 126.1784314 23.77236511 125.29973389 23.77206421 124.39440918 C23.77345177 121.50502469 23.78898596 118.61590166 23.8046875 115.7265625 C23.80841967 113.71731711 23.81126568 111.70806989 23.81326294 109.69882202 C23.82088334 104.42164039 23.84051817 99.14456961 23.8626709 93.86743164 C23.88316364 88.47804259 23.89227199 83.08863556 23.90234375 77.69921875 C23.92376555 67.13276392 23.95788228 56.56639119 24 46 C22.47076904 46.01571045 22.47076904 46.01571045 20.91064453 46.03173828 C17.13496398 46.06788727 13.35929879 46.09088177 9.58349609 46.10986328 C7.94805328 46.11993254 6.31262851 46.13358881 4.67724609 46.15087891 C2.3290563 46.17508705 -0.01889588 46.18647357 -2.3671875 46.1953125 C-3.46726639 46.21079636 -3.46726639 46.21079636 -4.58956909 46.22659302 C-6.39462697 46.22699368 -8.1990783 46.12212755 -10 46 C-10.66 45.34 -11.32 44.68 -12 44 C-11.82963562 42.1784668 -11.82963562 42.1784668 -11.2331543 39.94921875 C-11.01600266 39.11495361 -10.79885101 38.28068848 -10.57511902 37.42114258 C-10.32732193 36.51904053 -10.07952484 35.61693848 -9.82421875 34.6875 C-9.57960403 33.76283936 -9.33498932 32.83817871 -9.08296204 31.88549805 C-8.29544224 28.92061462 -7.49139466 25.96048055 -6.6875 23 C-6.15587214 21.00287777 -5.62525993 19.00548488 -5.09570312 17.0078125 C-4.12134441 13.35387579 -3.1462983 9.70017016 -2.1550293 6.05078125 C-1.95580368 5.31512939 -1.75657806 4.57947754 -1.55131531 3.8215332 C-1 2 -1 2 0 0 Z " fill="#000000" transform="translate(660,573)"/>
<path d="M0 0 C-0.57182562 3.4797104 -1.66072153 4.96787823 -4.28125 7.28515625 C-4.95381836 7.89214355 -5.62638672 8.49913086 -6.31933594 9.12451172 C-7.03895508 9.76404785 -7.75857422 10.40358398 -8.5 11.0625 C-14.96391404 16.97898621 -20.78594095 22.92709637 -26 30 C-26.44230957 30.59441895 -26.88461914 31.18883789 -27.34033203 31.80126953 C-34.16850734 41.02934424 -40.31622809 50.56003971 -46.0793457 60.48803711 C-46.54945068 61.29378174 -47.01955566 62.09952637 -47.50390625 62.9296875 C-47.91455322 63.64366699 -48.3252002 64.35764648 -48.74829102 65.09326172 C-50.02352144 67.0358304 -51.20448397 68.52347851 -53 70 C-56.21003255 70.37765089 -57.22508678 70.44608154 -60 69 C-62.16223898 66.53605326 -63.9239935 63.92650975 -65.7421875 61.19921875 C-68.61724539 57.12539105 -71.89905209 53.58850613 -75.31933594 49.97338867 C-80.86677762 44.09242348 -80.86677762 44.09242348 -81.3125 40.4375 C-81.209375 39.633125 -81.10625 38.82875 -81 38 C-78 36 -78 36 -75.1875 36.125 C-67.36424086 38.27256133 -62.46619833 44.31515374 -57 50 C-53.30192519 46.40205356 -49.92580034 42.65009447 -46.625 38.6875 C-45.64879746 37.52704085 -44.67223609 36.36688346 -43.6953125 35.20703125 C-42.79680763 34.13807746 -41.89836326 33.06907281 -41 32 C-14.08202443 0 -14.08202443 0 0 0 Z " fill="#000000" transform="translate(357,723)"/>
<path d="M0 0 C-0.5683031 3.59875966 -1.80832413 5.10362833 -4.5 7.50390625 C-5.21792725 8.15633301 -5.93585449 8.80875977 -6.67553711 9.48095703 C-7.44260986 10.16786621 -8.20968262 10.85477539 -9 11.5625 C-15.65685019 17.68236289 -21.61204144 23.71531328 -27 31 C-27.75925781 31.99386719 -28.51851562 32.98773437 -29.30078125 34.01171875 C-35.39532795 42.1504601 -40.53497781 50.77562141 -45.53417969 59.62426758 C-46.05657227 60.53587646 -46.57896484 61.44748535 -47.1171875 62.38671875 C-47.57722168 63.20358154 -48.03725586 64.02044434 -48.51123047 64.86206055 C-50.1272743 67.18277157 -51.58714772 68.53588347 -54 70 C-56.94140625 70.06640625 -56.94140625 70.06640625 -60 69 C-61.91320262 66.98625814 -63.38399146 65.1950107 -64.9375 62.9375 C-65.80135352 61.74852107 -66.66724263 60.56101844 -67.53515625 59.375 C-67.95297363 58.79621094 -68.37079102 58.21742188 -68.80126953 57.62109375 C-71.94865183 53.36475598 -75.48363739 49.39664977 -79.375 45.8125 C-81.41796874 43.53380409 -81.92175272 42.05164373 -82 39 C-81 37.125 -81 37.125 -79 36 C-72.02444426 35.72097777 -68.06240777 39.61970237 -63 44 C-61.73992476 45.07982563 -60.47949028 46.15923216 -59.21875 47.23828125 C-58.14572438 48.15872717 -57.07277022 49.07925643 -56 50 C-55.65332275 49.56768066 -55.30664551 49.13536133 -54.94946289 48.68994141 C-48.74939629 40.97188859 -42.54804146 33.30888613 -35.8359375 26.02734375 C-34.35785778 24.39516636 -32.97442607 22.67754941 -31.625 20.9375 C-24.53481579 13.00324624 -11.24169263 0 0 0 Z " fill="#000000" transform="translate(569,723)"/>
</svg>
