<?xml version="1.0" encoding="UTF-8"?>
<svg version="1.1" xmlns="http://www.w3.org/2000/svg" width="1024" height="1024">
<path d="M0,0 L39,0 L65,2 L93,6 L120,12 L145,19 L170,28 L195,39 L221,53 L245,69 L262,82 L272,91 L280,98 L297,115 L306,126 L315,137 L327,154 L339,174 L351,197 L361,222 L372,255 L378,281 L383,311 L385,331 L386,349 L386,388 L383,427 L381,443 L391,446 L401,452 L407,457 L416,470 L421,482 L424,496 L425,505 L425,531 L421,556 L412,583 L404,599 L394,616 L382,632 L367,648 L353,658 L342,663 L336,664 L333,676 L324,703 L313,730 L301,755 L290,775 L277,795 L263,814 L251,828 L240,840 L220,860 L209,869 L196,880 L181,891 L161,904 L143,914 L118,926 L98,933 L82,938 L51,944 L41,945 L0,945 L-28,941 L-52,935 L-75,927 L-95,918 L-118,906 L-142,890 L-163,874 L-177,862 L-192,848 L-201,839 L-208,831 L-218,820 L-231,803 L-242,787 L-250,774 L-258,760 L-266,744 L-276,723 L-285,699 L-296,667 L-296,664 L-304,662 L-316,656 L-325,649 L-332,642 L-337,637 L-345,628 L-355,614 L-365,597 L-373,580 L-379,562 L-383,544 L-385,527 L-385,508 L-382,487 L-378,475 L-372,464 L-363,454 L-355,448 L-343,443 L-341,443 L-344,417 L-346,386 L-346,350 L-344,322 L-339,287 L-333,260 L-325,233 L-317,212 L-309,194 L-299,174 L-286,153 L-276,139 L-265,125 L-256,115 L-249,107 L-235,93 L-224,84 L-213,75 L-195,62 L-180,53 L-162,43 L-137,31 L-111,21 L-84,13 L-58,7 L-25,2 Z M-209,512 L-210,516 L-210,533 L-207,550 L-201,565 L-195,576 L-186,587 L-179,594 L-165,604 L-149,611 L-134,615 L-125,616 L-114,616 L-101,614 L-85,609 L-70,601 L-61,594 L-57,591 L-57,589 L-55,589 L-48,581 L-39,567 L-36,560 L-43,557 L-76,548 L-82,547 L-89,559 L-96,566 L-108,572 L-112,573 L-128,573 L-141,568 L-151,559 L-158,545 L-159,539 L-159,526 L-167,523 L-196,515 L-206,512 Z M247,512 L200,525 L199,527 L199,542 L195,553 L189,561 L181,568 L172,572 L168,573 L153,573 L143,570 L134,564 L128,557 L123,547 L112,549 L77,559 L78,564 L84,575 L92,585 L102,595 L112,602 L128,610 L141,614 L155,616 L166,616 L183,613 L197,608 L210,601 L220,593 L230,583 L237,573 L245,557 L248,547 L250,537 L250,515 L249,512 Z M172,690 L160,693 L149,699 L144,704 L161,703 L173,705 L185,711 L190,715 L196,725 L199,736 L200,750 L203,747 L208,731 L208,717 L204,706 L195,696 L187,692 L179,690 Z M172,725 L162,733 L140,747 L124,755 L109,762 L84,771 L63,777 L30,783 L9,785 L-11,786 L-47,786 L-82,784 L-100,783 L-95,787 L-80,795 L-62,802 L-33,810 L-10,814 L9,816 L35,816 L59,813 L79,808 L98,801 L119,790 L135,778 L145,769 L156,757 L166,742 L173,727 Z " fill="#000000" transform="translate(492,42)"/>
</svg>
